<svg width="111" height="109" viewBox="0 0 111 109" fill="none" xmlns="http://www.w3.org/2000/svg">
<g clip-path="url(#clip0_93_6486)">
<path d="M67.4583 52.5783L56.5649 62.9764L10.5637 106.879C9.35602 108.035 7.80679 108.613 6.25756 108.613C4.56194 108.613 2.86633 107.924 1.63426 106.56C-0.793275 103.881 -0.476109 99.6893 2.31739 97.4032L56.5649 53.1929L62.5423 48.3257L67.4583 52.5783Z" fill="url(#paint0_linear_93_6486)"/>
<path d="M56.0896 63.5048L45.367 73.7308L44.3789 63.2221L50.2465 58.4409L56.0896 63.5048Z" fill="#3A81D6" fill-opacity="0.8"/>
<path d="M110.373 36.4895C110.373 56.3147 94.4172 72.3912 74.7529 72.3912C62.3591 72.3912 51.4413 66.0122 45.0614 56.327C41.3164 50.6486 39.1328 43.8271 39.1328 36.4895C39.1328 16.6643 55.0887 0.600098 74.7529 0.600098C83.6336 0.600098 91.7457 3.86947 97.9792 9.27746C105.567 15.8654 110.373 25.612 110.373 36.4895Z" fill="url(#paint1_linear_93_6486)"/>
<path d="M74.753 64.4511C90.08 64.4511 102.505 51.9322 102.505 36.4894C102.505 21.0465 90.08 8.52759 74.753 8.52759C59.426 8.52759 47.001 21.0465 47.001 36.4894C47.001 51.9322 59.426 64.4511 74.753 64.4511Z" fill="white"/>
<path opacity="0.06" d="M110.373 36.4894C110.373 56.3146 94.4174 72.391 74.7531 72.391C62.3592 72.391 51.4414 66.0121 45.0615 56.3268C85.2318 53.0329 95.8202 18.7413 97.9916 9.27734C105.567 15.8653 110.373 25.6119 110.373 36.4894Z" fill="#1A6FB5" fill-opacity="0.5"/>
<path d="M74.7537 36.5509C77.9742 36.5509 80.5847 33.9206 80.5847 30.6758C80.5847 27.431 77.9742 24.8008 74.7537 24.8008C71.5333 24.8008 68.9228 27.431 68.9228 30.6758C68.9228 33.9206 71.5211 36.5509 74.7537 36.5509ZM74.7537 39.4884C70.8624 39.4884 63.0918 41.4549 63.0918 45.3634V46.8383C63.0918 47.6495 63.7505 48.3132 64.5556 48.3132H84.9762C85.7813 48.3132 86.4401 47.6495 86.4401 46.8383V45.3634C86.4157 41.4672 78.6451 39.4884 74.7537 39.4884Z" fill="url(#paint2_linear_93_6486)"/>
</g>
<defs>
<linearGradient id="paint0_linear_93_6486" x1="6.8093" y1="101.792" x2="64.7089" y2="49.5509" gradientUnits="userSpaceOnUse">
<stop stop-color="#67C3F3"/>
<stop offset="1" stop-color="#5A98F2"/>
</linearGradient>
<linearGradient id="paint1_linear_93_6486" x1="60.0202" y1="3.13612" x2="87.3376" y2="64.0865" gradientUnits="userSpaceOnUse">
<stop stop-color="#67C3F3"/>
<stop offset="1" stop-color="#5A98F2"/>
</linearGradient>
<linearGradient id="paint2_linear_93_6486" x1="66.3226" y1="34.6737" x2="87.5037" y2="44.9269" gradientUnits="userSpaceOnUse">
<stop stop-color="#B0F4FF"/>
<stop offset="0.071077" stop-color="#A6F1FF"/>
<stop offset="0.2937" stop-color="#8BE8FD"/>
<stop offset="0.5209" stop-color="#78E1FD"/>
<stop offset="0.7536" stop-color="#6DDDFC"/>
<stop offset="1" stop-color="#69DCFC"/>
</linearGradient>
<clipPath id="clip0_93_6486">
<rect width="110.374" height="108" fill="white" transform="translate(0 0.600098)"/>
</clipPath>
</defs>
</svg>
