<svg width="187" height="109" viewBox="0 0 187 109" fill="none" xmlns="http://www.w3.org/2000/svg">
<rect width="187" height="109" fill="white"/>
<path d="M105.458 51.9782L94.5649 62.3763L48.5637 106.279C47.356 107.435 45.8068 108.012 44.2576 108.012C42.5619 108.012 40.8663 107.324 39.6343 105.96C37.2067 103.28 37.5239 99.0892 40.3174 96.8031L94.5649 52.5928L100.542 47.7256L105.458 51.9782Z" fill="url(#paint0_linear_194_2064)"/>
<path d="M94.0896 62.9047L83.367 73.1307L82.3789 62.622L88.2465 57.8408L94.0896 62.9047Z" fill="#3A81D6" fill-opacity="0.8"/>
<path d="M148.373 35.8894C148.373 55.7146 132.417 71.7911 112.753 71.7911C100.359 71.7911 89.4413 65.4121 83.0614 55.7269C79.3164 50.0485 77.1328 43.227 77.1328 35.8894C77.1328 16.0642 93.0887 0 112.753 0C121.634 0 129.746 3.26938 135.979 8.67736C143.567 15.2653 148.373 25.0119 148.373 35.8894Z" fill="url(#paint1_linear_194_2064)"/>
<path d="M112.752 63.851C128.079 63.851 140.504 51.3321 140.504 35.8893C140.504 20.4464 128.079 7.92749 112.752 7.92749C97.425 7.92749 85 20.4464 85 35.8893C85 51.3321 97.425 63.851 112.752 63.851Z" fill="white"/>
<path opacity="0.06" d="M148.374 35.8893C148.374 55.7145 132.418 71.7909 112.754 71.7909C100.36 71.7909 89.4424 65.412 83.0625 55.7267C123.233 52.4328 133.821 18.1412 135.993 8.67725C143.568 15.2652 148.374 25.0118 148.374 35.8893Z" fill="#1A6FB5" fill-opacity="0.5"/>
<path d="M112.754 35.9508C115.974 35.9508 118.585 33.3205 118.585 30.0757C118.585 26.8309 115.974 24.2007 112.754 24.2007C109.533 24.2007 106.923 26.8309 106.923 30.0757C106.923 33.3205 109.521 35.9508 112.754 35.9508ZM112.754 38.8883C108.862 38.8883 101.092 40.8548 101.092 44.7633V46.2382C101.092 47.0494 101.751 47.7132 102.556 47.7132H122.976C123.781 47.7132 124.44 47.0494 124.44 46.2382V44.7633C124.416 40.8671 116.645 38.8883 112.754 38.8883Z" fill="url(#paint2_linear_194_2064)"/>
<defs>
<linearGradient id="paint0_linear_194_2064" x1="44.8093" y1="101.192" x2="102.709" y2="48.9508" gradientUnits="userSpaceOnUse">
<stop stop-color="#67C3F3"/>
<stop offset="1" stop-color="#5A98F2"/>
</linearGradient>
<linearGradient id="paint1_linear_194_2064" x1="98.0202" y1="2.53603" x2="125.338" y2="63.4864" gradientUnits="userSpaceOnUse">
<stop stop-color="#67C3F3"/>
<stop offset="1" stop-color="#5A98F2"/>
</linearGradient>
<linearGradient id="paint2_linear_194_2064" x1="104.323" y1="34.0736" x2="125.504" y2="44.3268" gradientUnits="userSpaceOnUse">
<stop stop-color="#B0F4FF"/>
<stop offset="0.071077" stop-color="#A6F1FF"/>
<stop offset="0.2937" stop-color="#8BE8FD"/>
<stop offset="0.5209" stop-color="#78E1FD"/>
<stop offset="0.7536" stop-color="#6DDDFC"/>
<stop offset="1" stop-color="#69DCFC"/>
</linearGradient>
</defs>
</svg>
