<svg width="639" height="874" viewBox="0 0 639 874" fill="none" xmlns="http://www.w3.org/2000/svg">
<mask id="mask0_332_19490" style="mask-type:alpha" maskUnits="userSpaceOnUse" x="0" y="0" width="639" height="874">
<rect width="639" height="874" fill="#C4C4C4"/>
</mask>
<g mask="url(#mask0_332_19490)">
<rect x="58.6523" width="538.196" height="1109.45" rx="65.1335" fill="#FF6937"/>
<rect x="62.8906" y="4.2373" width="529.72" height="1100.97" rx="62.5952" fill="white"/>
<path d="M578.473 75.9456V75.9416C578.386 57.1272 572.895 42.6135 562.834 32.8059C552.775 23.0012 538.266 18.0127 520.368 18.0127H475.126C470.419 18.0127 466.579 21.8528 466.579 26.5602V29.841C466.579 45.4231 453.929 58.0736 438.346 58.0736H217.493C201.911 58.0736 189.261 45.4231 189.261 29.841V26.5602C189.261 21.8528 185.42 18.0127 180.713 18.0127H135.472C117.573 18.0127 103.064 23.0011 93.027 32.8065C82.9868 42.6153 77.5391 57.1304 77.5391 75.9456V1047.08C77.5391 1065.95 84.2988 1079.91 95.2208 1089.14C106.122 1098.35 121.08 1102.77 137.371 1102.77H518.641C534.89 1102.77 549.848 1098.35 560.758 1089.14C571.691 1079.91 578.473 1065.95 578.473 1047.08V75.9456Z" stroke="#FF6937" stroke-width="1.72676"/>
<rect x="279.832" y="23.3105" width="72.5241" height="11.224" rx="5.61198" fill="#FF6937"/>
<rect x="362.715" y="22.4473" width="13.8141" height="13.8141" rx="6.90705" fill="#FF6937"/>
<rect x="122.691" y="100.152" width="87.2016" height="87.2016" rx="20.7212" fill="#FF6937" fill-opacity="0.15"/>
<rect x="230.613" y="100.152" width="87.2016" height="87.2016" rx="20.7212" fill="#FF6937" fill-opacity="0.15"/>
<rect x="338.535" y="100.152" width="87.2016" height="87.2016" rx="20.7212" fill="#FF6937" fill-opacity="0.15"/>
<rect x="446.461" y="100.152" width="87.2016" height="87.2016" rx="20.7212" fill="#FF6937" fill-opacity="0.15"/>
<rect x="122.691" y="221.89" width="87.2016" height="87.2016" rx="20.7212" fill="#FF6937" fill-opacity="0.15"/>
<rect x="230.613" y="221.89" width="87.2016" height="87.2016" rx="20.7212" fill="#FF6937" fill-opacity="0.15"/>
<rect x="338.535" y="221.89" width="87.2016" height="87.2016" rx="20.7212" fill="#FF6937" fill-opacity="0.15"/>
<rect x="446.461" y="221.89" width="87.2016" height="87.2016" rx="20.7212" fill="#FF6937" fill-opacity="0.15"/>
<rect x="122.691" y="343.626" width="87.2016" height="87.2016" rx="20.7212" fill="#FF6937" fill-opacity="0.15"/>
<rect x="230.613" y="343.626" width="87.2016" height="87.2016" rx="20.7212" fill="#FF6937" fill-opacity="0.15"/>
<rect x="338.535" y="343.626" width="87.2016" height="87.2016" rx="20.7212" fill="#FF6937" fill-opacity="0.15"/>
<rect x="446.461" y="343.626" width="87.2016" height="87.2016" rx="20.7212" fill="#FF6937" fill-opacity="0.15"/>
<rect x="122.691" y="465.362" width="87.2016" height="87.2016" rx="20.7212" fill="#FF6937" fill-opacity="0.15"/>
<rect x="230.613" y="465.362" width="87.2016" height="87.2016" rx="20.7212" fill="#FF6937" fill-opacity="0.15"/>
<rect x="338.535" y="465.362" width="87.2016" height="87.2016" rx="20.7212" fill="#FF6937" fill-opacity="0.15"/>
<rect x="446.461" y="465.362" width="87.2016" height="87.2016" rx="20.7212" fill="#FF6937" fill-opacity="0.15"/>
<rect x="122.691" y="587.1" width="87.2016" height="87.2016" rx="20.7212" fill="#FF6937" fill-opacity="0.15"/>
<rect x="230.613" y="587.1" width="87.2016" height="87.2016" rx="20.7212" fill="#FF6937" fill-opacity="0.15"/>
<rect x="338.535" y="587.1" width="87.2016" height="87.2016" rx="20.7212" fill="#FF6937" fill-opacity="0.15"/>
<rect x="446.461" y="587.1" width="87.2016" height="87.2016" rx="20.7212" fill="#FF6937" fill-opacity="0.15"/>
<rect x="122.691" y="709" width="87.2016" height="87.2016" rx="20.7212" fill="#FF6937" fill-opacity="0.15"/>
<rect x="230.613" y="709" width="87.2016" height="87.2016" rx="20.7212" fill="#FF6937" fill-opacity="0.15"/>
<rect x="338.535" y="709" width="87.2016" height="87.2016" rx="20.7212" fill="#FF6937" fill-opacity="0.15"/>
<rect x="446.461" y="709" width="87.2016" height="87.2016" rx="20.7212" fill="#FF6937" fill-opacity="0.15"/>
<rect width="639" height="891" fill="url(#paint0_linear_332_19490)"/>
<path d="M442.879 380.303C442.886 404.467 443.237 428.638 442.783 452.788C442.343 476.172 435.048 497.278 419.187 515.018C414.659 520.081 409.381 524.24 403.546 527.716C379.179 542.206 354.791 556.676 330.473 571.241C328.443 572.459 327.025 572.466 324.961 571.228C300.449 556.532 275.794 542.069 251.324 527.299C233.005 516.243 222.711 499.242 216.704 479.333C213.786 469.673 212.534 459.76 212.54 449.668C212.568 400.088 212.582 350.508 212.492 300.928C212.485 298.253 213.235 296.994 215.768 295.92C248.605 281.977 282.661 273.165 318.444 271.722C349.211 270.477 379.151 275.307 408.466 284.447C419.173 287.785 429.64 291.74 439.975 296.077C442.274 297.042 442.948 298.246 442.941 300.634C442.845 327.185 442.872 353.744 442.879 380.303ZM407.372 351.616C407.344 347.402 404.832 343.892 400.855 342.51C396.712 341.067 392.763 342.278 389.535 346.054C373.818 364.437 358.122 382.834 342.412 401.217C333.659 411.459 324.837 421.646 316.194 431.976C314.508 433.995 313.682 434.09 311.879 432.127C302.768 422.2 293.52 412.403 284.299 402.585C279.977 397.988 273.798 397.55 269.655 401.484C265.657 405.281 265.74 411.466 269.855 415.858C281.959 428.768 294.07 441.678 306.188 454.574C311.694 460.437 317.618 460.382 322.855 454.273C350.181 422.357 377.465 390.401 404.77 358.465C406.47 356.481 407.461 354.257 407.372 351.616Z" fill="#FF6937"/>
<path d="M437.831 381.417C437.837 404.566 438.173 427.721 437.739 450.857C437.318 473.258 430.343 493.477 415.177 510.472C410.848 515.322 405.801 519.307 400.221 522.636C376.923 536.518 353.604 550.379 330.352 564.333C328.411 565.5 327.055 565.506 325.081 564.32C301.645 550.242 278.07 536.387 254.672 522.236C237.157 511.645 227.314 495.358 221.57 476.286C218.78 467.032 217.582 457.535 217.589 447.868C217.615 400.371 217.629 352.874 217.543 305.377C217.536 302.815 218.254 301.609 220.675 300.58C252.073 287.223 284.636 278.781 318.85 277.398C348.268 276.205 376.896 280.832 404.926 289.589C415.164 292.787 425.172 296.575 435.054 300.73C437.252 301.655 437.897 302.808 437.89 305.095C437.798 330.532 437.824 355.974 437.831 381.417ZM403.88 353.936C403.853 349.899 401.452 346.536 397.649 345.212C393.688 343.83 389.911 344.99 386.825 348.607C371.797 366.218 356.789 383.842 341.767 401.453C333.398 411.264 324.963 421.023 316.699 430.919C315.087 432.853 314.297 432.945 312.573 431.064C303.862 421.554 295.019 412.168 286.202 402.763C282.07 398.359 276.161 397.94 272.2 401.708C268.378 405.346 268.457 411.27 272.391 415.478C283.965 427.846 295.545 440.213 307.132 452.567C312.396 458.184 318.061 458.132 323.068 452.279C349.196 421.704 375.284 391.091 401.393 360.496C403.018 358.596 403.965 356.466 403.88 353.936Z" fill="#FEFEFE"/>
<path d="M433.414 382.432C433.421 404.739 433.743 427.052 433.326 449.346C432.922 470.933 426.227 490.417 411.669 506.794C407.514 511.468 402.67 515.307 397.314 518.516C374.95 531.892 352.567 545.25 330.248 558.696C328.384 559.82 327.083 559.827 325.189 558.684C302.692 545.118 280.063 531.766 257.604 518.131C240.792 507.924 231.344 492.23 225.83 473.851C223.152 464.933 222.003 455.782 222.009 446.466C222.034 400.696 222.047 354.927 221.965 309.157C221.959 306.687 222.647 305.525 224.971 304.534C255.11 291.662 286.366 283.528 319.208 282.195C347.445 281.046 374.925 285.504 401.83 293.942C411.657 297.024 421.263 300.675 430.749 304.679C432.859 305.569 433.478 306.681 433.471 308.885C433.383 333.396 433.408 357.914 433.414 382.432ZM400.825 355.95C400.8 352.059 398.495 348.819 394.844 347.544C391.042 346.211 387.417 347.329 384.455 350.815C370.03 367.785 355.624 384.768 341.205 401.739C333.172 411.193 325.075 420.597 317.142 430.134C315.595 431.997 314.837 432.086 313.183 430.273C304.821 421.109 296.332 412.065 287.869 403.002C283.903 398.758 278.231 398.353 274.429 401.985C270.76 405.49 270.836 411.2 274.613 415.254C285.722 427.172 296.837 439.09 307.959 450.995C313.012 456.407 318.45 456.357 323.256 450.717C348.336 421.254 373.377 391.753 398.438 362.272C399.998 360.44 400.908 358.388 400.825 355.95Z" fill="url(#paint1_linear_332_19490)"/>
<path d="M400.824 355.95C400.906 358.394 399.997 360.44 398.437 362.278C373.376 391.76 348.334 421.254 323.255 450.723C318.449 456.37 313.011 456.414 307.958 451.001C296.836 439.096 285.727 427.178 274.611 415.261C270.835 411.206 270.759 405.497 274.428 401.991C278.23 398.36 283.902 398.764 287.868 403.008C296.337 412.071 304.826 421.115 313.181 430.279C314.836 432.092 315.594 432.004 317.141 430.141C325.074 420.604 333.17 411.2 341.204 401.745C355.623 384.769 370.029 367.786 384.454 350.822C387.422 347.329 391.048 346.218 394.843 347.55C398.5 348.82 400.799 352.053 400.824 355.95Z" fill="#FEFEFE"/>
<rect x="1.82422" y="87.2021" width="136.414" height="136.414" rx="19.9631" fill="url(#paint2_linear_332_19490)"/>
<rect x="14.1335" y="110.16" width="111.793" height="89.8338" rx="8.31795" fill="#FF6937" stroke="white" stroke-width="0.665436"/>
<circle cx="25.4487" cy="116.149" r="1.66359" fill="#FEFEFE"/>
<circle cx="31.437" cy="116.149" r="1.66359" fill="#FEFEFE"/>
<circle cx="37.4292" cy="116.149" r="1.66359" fill="#FEFEFE"/>
<line x1="13.8008" y1="122.137" x2="126.259" y2="122.137" stroke="white" stroke-width="0.665436"/>
<path d="M70.2151 193.972C68.6625 193.972 67.1099 194.042 65.565 193.957C61.1866 193.732 58.9896 191.527 58.9507 187.079C58.9275 183.919 58.5393 181.318 54.4869 181.365C53.9124 181.373 53.338 180.876 52.7557 180.62C51.2807 179.968 51.4825 176.404 49.1381 177.84C46.5219 179.44 43.3235 181 43.2924 184.959C43.2846 185.836 43.0983 186.776 42.7567 187.583C41.6078 190.3 39.4574 190.952 36.7247 190.37C33.9766 189.78 33.34 187.964 33.6428 185.448C33.8291 183.919 34.9237 181.838 32.1134 181.613C30.0096 181.443 29.0392 180.55 29.21 178.438C29.3963 176.148 29.8621 173.92 32.4705 173.346C33.9378 173.019 35.5913 173.012 37.0663 173.307C40.6296 174.021 43.238 171.979 46.0794 170.559C47.6553 169.767 46.8247 168.657 46.5064 167.577C45.241 163.207 44.6276 158.758 44.9227 154.186C45.2099 149.722 42.8654 147.579 38.2696 148.123C37.1284 148.255 35.9717 148.573 34.9082 149.008C32.3774 150.048 30.9722 148.705 29.8854 146.757C28.8684 144.94 28.4104 143.046 30.5375 141.648C31.9193 140.732 31.9426 139.754 31.2983 138.365C29.9785 135.531 31.2517 133.714 33.8135 132.441C36.4918 131.114 38.5413 131.851 40.125 134.242C40.6218 134.995 41.0566 135.795 41.5923 136.517C42.9974 138.396 44.5811 140.437 46.7005 141.144C49.7281 142.153 49.8756 138.582 51.2031 137.122C61.6446 125.672 81.9764 126.603 90.9739 139.374C92.8681 142.06 93.9084 141.648 95.8725 139.917C97.8366 138.178 99.3737 136.16 100.779 133.978C102.262 131.688 104.365 131.16 106.826 132.457C109.225 133.714 110.894 135.337 109.419 138.31C108.783 139.599 108.651 140.655 110.095 141.602C112.385 143.1 111.88 145.087 110.685 147.013C109.481 148.938 107.968 149.978 105.507 148.961C103.737 148.232 101.827 147.719 99.8395 148.263C96.9283 149.054 94.7623 149.947 95.6163 153.976C96.5867 158.564 95.5154 163.246 94.0947 167.694C93.5435 169.425 93.9006 170.264 95.43 171.086C98.4266 172.701 101.377 173.951 104.971 173.182C108.115 172.515 110.661 173.578 111.407 177.072C111.865 179.23 111.888 181.388 108.821 181.559C106.314 181.699 106.756 183.453 106.982 184.928C107.478 188.165 106.531 190.339 102.991 190.556C99.7463 190.758 97.9142 189.089 97.526 185.86C97.2466 183.515 96.7187 181.458 94.5372 179.905C92.1617 178.205 90.1666 175.915 88.2801 180.278C88.1016 180.689 87.496 181.194 87.1001 181.186C82.0695 181.07 81.8832 184.292 81.728 188.142C81.5882 191.636 79.2592 193.732 75.6261 193.941C73.825 194.042 72.0084 193.957 70.1996 193.957C70.2151 193.957 70.2151 193.965 70.2151 193.972ZM58.4306 173.811C60.9226 173.617 63.1972 172.748 65.1923 171.296C67.3971 169.689 67.2108 167.725 65.301 166.149C62.2889 163.665 58.7644 162.702 54.8673 163.541C52.1968 164.115 51.3584 165.893 51.8319 168.408C52.4064 171.459 55.3797 173.866 58.4306 173.811ZM83.5445 163.168C78.9254 163.253 74.0967 166.087 73.988 168.649C73.8949 170.97 78.6848 173.842 82.5741 173.796C82.9623 173.788 83.3504 173.788 83.7231 173.718C86.5256 173.182 89.3203 169.72 89.0642 166.987C88.7381 163.401 85.8347 163.556 83.5445 163.168ZM75.4863 181.714C74.8109 178.873 73.1108 176.459 71.2632 174.153C70.6887 173.439 69.7881 173.609 69.268 174.308C67.5834 176.575 65.9299 178.881 65.2234 181.683C64.9362 182.824 65.4563 183.725 66.45 184.261C67.3272 184.734 68.2045 184.672 68.7712 183.694C69.7338 182.025 70.8129 181.73 71.8765 183.539C72.451 184.509 73.1496 184.765 74.1045 184.338C75.1603 183.872 75.5562 182.964 75.4863 181.714Z" fill="#FEFEFE"/>
<path d="M58.4233 173.803C55.3801 173.865 52.4068 171.459 51.8323 168.408C51.3588 165.885 52.1972 164.107 54.8677 163.54C58.7648 162.71 62.2971 163.672 65.3014 166.149C67.2112 167.725 67.3897 169.689 65.1927 171.296C63.1898 172.747 60.923 173.609 58.4233 173.803Z" fill="#FF6937"/>
<path d="M83.5422 163.168C85.8324 163.556 88.7358 163.401 89.0696 166.98C89.3258 169.712 86.5311 173.175 83.7286 173.71C83.3559 173.78 82.96 173.788 82.5796 173.788C78.6903 173.835 73.9004 170.962 73.9935 168.641C74.0944 166.087 78.9231 163.253 83.5422 163.168Z" fill="#FF6937"/>
<path d="M75.4893 181.715C75.5514 182.965 75.1633 183.865 74.0997 184.339C73.1448 184.758 72.4462 184.51 71.8717 183.539C70.8081 181.73 69.729 182.025 68.7664 183.694C68.1997 184.673 67.3225 184.743 66.4452 184.261C65.4593 183.726 64.9314 182.817 65.2186 181.684C65.9251 178.889 67.5864 176.583 69.2633 174.309C69.7834 173.61 70.6916 173.439 71.2584 174.154C73.1138 176.467 74.8139 178.881 75.4893 181.715Z" fill="#FF6937"/>
<rect x="533.668" y="339.091" width="105.333" height="105.333" rx="15.4145" fill="url(#paint3_linear_332_19490)"/>
<mask id="mask1_332_19490" style="mask-type:alpha" maskUnits="userSpaceOnUse" x="556" y="358" width="61" height="68">
<path d="M614.604 405.395L606.803 402.793V398.489H613.54C615.402 398.489 616.908 396.984 616.908 395.123C616.908 393.262 615.402 391.758 613.54 391.758H606.803V387.453L614.604 384.855C616.366 384.269 617.322 382.365 616.733 380.598C616.147 378.837 614.25 377.882 612.472 378.471L606.278 380.534C605.065 375.216 601.744 370.703 597.244 367.9L599.706 362.972C600.538 361.31 599.865 359.287 598.201 358.456C596.537 357.631 594.516 358.298 593.68 359.96L590.993 365.332C589.578 365.015 588.109 364.834 586.594 364.834C585.078 364.834 583.609 365.015 582.188 365.332L579.504 359.964C578.668 358.305 576.651 357.628 574.983 358.456C573.32 359.291 572.642 361.31 573.474 362.972L575.94 367.9C571.44 370.703 568.122 375.216 566.906 380.534L560.712 378.471C558.944 377.882 557.041 378.834 556.451 380.598C555.862 382.361 556.819 384.266 558.583 384.852L566.384 387.453V391.758H559.648C557.789 391.758 556.28 393.262 556.28 395.123C556.28 396.984 557.789 398.489 559.648 398.489H566.384V402.793L558.583 405.391C556.819 405.977 555.865 407.882 556.455 409.649C556.923 411.059 558.237 411.951 559.648 411.951C559.998 411.951 560.359 411.893 560.712 411.776L566.906 409.713C568.958 418.688 576.998 425.413 586.594 425.413C596.19 425.413 604.226 418.688 606.281 409.713L612.475 411.776C612.829 411.893 613.189 411.951 613.54 411.951C614.951 411.951 616.264 411.059 616.733 409.649C617.322 407.885 616.369 405.98 614.604 405.395Z" fill="#FEFEFE"/>
</mask>
<g mask="url(#mask1_332_19490)">
<path d="M614.604 405.395L606.803 402.793V398.489H613.54C615.402 398.489 616.908 396.984 616.908 395.123C616.908 393.262 615.402 391.758 613.54 391.758H606.803V387.453L614.604 384.855C616.366 384.269 617.322 382.365 616.733 380.598C616.147 378.837 614.25 377.882 612.472 378.471L606.278 380.534C605.065 375.216 601.744 370.703 597.244 367.9L599.706 362.972C600.538 361.31 599.865 359.287 598.201 358.456C596.537 357.631 594.516 358.298 593.68 359.96L590.993 365.332C589.578 365.015 588.109 364.834 586.594 364.834C585.078 364.834 583.609 365.015 582.188 365.332L579.504 359.964C578.668 358.305 576.651 357.628 574.983 358.456C573.32 359.291 572.642 361.31 573.474 362.972L575.94 367.9C571.44 370.703 568.122 375.216 566.906 380.534L560.712 378.471C558.944 377.882 557.041 378.834 556.451 380.598C555.862 382.361 556.819 384.266 558.583 384.852L566.384 387.453V391.758H559.648C557.789 391.758 556.28 393.262 556.28 395.123C556.28 396.984 557.789 398.489 559.648 398.489H566.384V402.793L558.583 405.391C556.819 405.977 555.865 407.882 556.455 409.649C556.923 411.059 558.237 411.951 559.648 411.951C559.998 411.951 560.359 411.893 560.712 411.776L566.906 409.713C568.958 418.688 576.998 425.413 586.594 425.413C596.19 425.413 604.226 418.688 606.281 409.713L612.475 411.776C612.829 411.893 613.189 411.951 613.54 411.951C614.951 411.951 616.264 411.059 616.733 409.649C617.322 407.885 616.369 405.98 614.604 405.395Z" fill="#FEFEFE"/>
<circle cx="575.589" cy="394.935" r="4.41708" fill="#FF6937"/>
<circle cx="575.589" cy="394.934" r="2.85811" fill="#FEFEFE"/>
<rect x="574.809" y="398.832" width="1.54145" height="10.3931" fill="#FF6937"/>
<rect x="574.809" y="409.13" width="1.54145" height="10.3931" transform="rotate(-44.7608 574.809 409.13)" fill="#FF6937"/>
<rect x="581.566" y="415.455" width="1.54145" height="10.3931" fill="#FF6937"/>
<circle r="3.49926" transform="matrix(-1 0 0 1 599.462 383.182)" fill="#FF6937"/>
<circle r="4.33242" transform="matrix(-1 0 0 1 588.179 405.323)" fill="#FF6937"/>
<circle r="2.16621" transform="matrix(-1 0 0 1 599.463 383.182)" fill="#FEFEFE"/>
<circle r="2.68197" transform="matrix(-1 0 0 1 588.181 405.323)" fill="#FEFEFE"/>
<rect width="1.33305" height="6.66526" transform="matrix(-1 0 0 1 599.961 385.682)" fill="#FF6937"/>
<rect width="1.65044" height="17.3297" transform="matrix(-1 0 0 1 588.801 408.005)" fill="#FF6937"/>
<rect width="1.33305" height="6.66526" transform="matrix(-0.710053 -0.704149 -0.704149 0.710053 599.961 392.285)" fill="#FF6937"/>
<rect width="1.02764" height="27.7461" transform="matrix(-1 0 0 1 595.324 396.125)" fill="#FF6937"/>
</g>
<rect x="0.0976562" y="650.838" width="128.644" height="128.644" rx="31.2495" fill="url(#paint4_linear_332_19490)"/>
<path fill-rule="evenodd" clip-rule="evenodd" d="M43.5898 699.605L50.6267 675.726L64.1592 670.628V706.044L43.5898 699.605ZM85.2539 699.605L78.217 675.726L64.6846 670.628V706.044L85.2539 699.605Z" fill="white"/>
<path d="M50.6267 675.726L50.5349 675.482L50.4136 675.528L50.3769 675.652L50.6267 675.726ZM43.5898 699.605L43.3401 699.531L43.2677 699.777L43.512 699.853L43.5898 699.605ZM64.1592 670.628H64.4196V670.252L64.0674 670.384L64.1592 670.628ZM64.1592 706.044L64.0814 706.293L64.4196 706.398V706.044H64.1592ZM78.217 675.726L78.4668 675.652L78.4302 675.528L78.3088 675.482L78.217 675.726ZM85.2539 699.605L85.3317 699.853L85.5761 699.777L85.5037 699.531L85.2539 699.605ZM64.6846 670.628L64.7764 670.384L64.4242 670.252V670.628H64.6846ZM64.6846 706.044H64.4242V706.398L64.7624 706.293L64.6846 706.044ZM50.3769 675.652L43.3401 699.531L43.8396 699.678L50.8765 675.799L50.3769 675.652ZM64.0674 670.384L50.5349 675.482L50.7185 675.969L64.251 670.872L64.0674 670.384ZM64.4196 706.044V670.628H63.8987V706.044H64.4196ZM43.512 699.853L64.0814 706.293L64.237 705.796L43.6676 699.356L43.512 699.853ZM77.9672 675.799L85.0041 699.678L85.5037 699.531L78.4668 675.652L77.9672 675.799ZM64.5928 670.872L78.1252 675.969L78.3088 675.482L64.7764 670.384L64.5928 670.872ZM64.945 706.044V670.628H64.4242V706.044H64.945ZM85.1761 699.356L64.6068 705.796L64.7624 706.293L85.3317 699.853L85.1761 699.356Z" fill="white"/>
<path d="M89.4182 701.357L101.918 706.305C91.9181 716.722 72.7517 720.888 64.4185 721.67V708.909L89.4182 701.357Z" fill="white" stroke="white" stroke-width="0.520826"/>
<path d="M39.16 701.357L26.6602 706.305C36.66 716.722 55.8264 720.888 64.1596 721.67V708.909L39.16 701.357Z" fill="white" stroke="white" stroke-width="0.520826"/>
<path d="M40.8837 718.272L29.5234 716.201C39.0247 735.253 53.6209 752.958 59.7313 759.43V748.558L44.4983 735.356L40.8837 718.272Z" fill="white" stroke="white" stroke-width="0.520826"/>
<path d="M87.9562 718.011L99.3164 715.94C89.8151 734.992 75.219 752.698 69.1085 759.169V748.297L84.3416 735.096L87.9562 718.011Z" fill="white" stroke="white" stroke-width="0.520826"/>
</g>
<defs>
<linearGradient id="paint0_linear_332_19490" x1="319.5" y1="324.158" x2="319.5" y2="891" gradientUnits="userSpaceOnUse">
<stop offset="0.0520833" stop-color="white" stop-opacity="0"/>
<stop offset="0.834525" stop-color="white"/>
</linearGradient>
<linearGradient id="paint1_linear_332_19490" x1="327.752" y1="282.017" x2="327.752" y2="559.54" gradientUnits="userSpaceOnUse">
<stop stop-color="#FFB49B"/>
<stop offset="1" stop-color="#FF6937"/>
</linearGradient>
<linearGradient id="paint2_linear_332_19490" x1="70.0314" y1="87.2021" x2="70.0314" y2="223.616" gradientUnits="userSpaceOnUse">
<stop stop-color="#FFB49B"/>
<stop offset="1" stop-color="#FF6937"/>
</linearGradient>
<linearGradient id="paint3_linear_332_19490" x1="586.334" y1="339.091" x2="586.334" y2="444.423" gradientUnits="userSpaceOnUse">
<stop stop-color="#FFB49B"/>
<stop offset="1" stop-color="#FF6937"/>
</linearGradient>
<linearGradient id="paint4_linear_332_19490" x1="64.4196" y1="650.838" x2="64.4196" y2="779.482" gradientUnits="userSpaceOnUse">
<stop stop-color="#FFB49B"/>
<stop offset="1" stop-color="#FF6937"/>
</linearGradient>
</defs>
</svg>
