<svg width="140" height="141" viewBox="0 0 140 141" fill="none" xmlns="http://www.w3.org/2000/svg">
<path d="M124.448 16.9398L133.09 22.9724C135.777 24.8484 135.191 28.983 132.089 30.0389L122.307 33.3678C119.1 34.4592 116.073 31.3193 117.281 28.1545L118.309 25.4629C118.542 24.8515 118.622 24.1922 118.541 23.5428L118.189 20.7132C117.762 17.2759 121.608 14.9571 124.448 16.9398Z" fill="#157FFB"/>
<path opacity="0.2" d="M115.786 24.2187C56.4043 19.2383 13.0938 62.1058 48.7366 91.2681C61.3792 101.612 77.0866 100.463 86.6643 90.885C97.3914 80.158 98.9238 62.535 88.1968 51.808C64.4441 28.0553 6.59472 52.9573 48.3535 139.923" stroke="#157FFB" stroke-width="2" stroke-linecap="round" stroke-dasharray="5.2 5.2"/>
</svg>
