<svg width="56" height="56" viewBox="0 0 56 56" fill="none" xmlns="http://www.w3.org/2000/svg">
<path d="M0.753966 28.1082C0.785349 12.9701 13.0827 0.72356 28.2209 0.754943C43.3591 0.786326 55.6056 13.0837 55.5742 28.2219C55.5428 43.3601 43.2454 55.6066 28.1073 55.5752C12.9691 55.5438 0.722583 43.2464 0.753966 28.1082Z" fill="#CFE4FD"/>
<path d="M43.4803 23.9487C44.2886 26.9653 44.1842 30.1539 43.1803 33.1112C42.1765 36.0685 40.3182 38.6617 37.8405 40.5629C35.3629 42.464 32.3771 43.5878 29.2607 43.7921C26.1444 43.9963 23.0374 43.2719 20.3328 41.7104C17.6282 40.1488 15.4473 37.8204 14.066 35.0194C12.6847 32.2184 12.1651 29.0708 12.5727 25.9745C12.9803 22.8781 14.297 19.9722 16.3562 17.6242C18.4153 15.2762 21.1245 13.5915 24.1411 12.7832L28.228 28.0355L43.4803 23.9487Z" fill="#157FFB"/>
<path d="M25.862 9.80688C27.8649 9.27019 29.954 9.13327 32.0099 9.40393C34.0658 9.67459 36.0482 10.3475 37.844 11.3843C39.6398 12.4212 41.2138 13.8015 42.4762 15.4466C43.7385 17.0918 44.6644 18.9694 45.2011 20.9724L29.9488 25.0592L25.862 9.80688Z" fill="#5DA7FE"/>
</svg>
