<svg width="942" height="619" viewBox="0 0 942 619" fill="none" xmlns="http://www.w3.org/2000/svg">
<g opacity="0.6">
<path fill-rule="evenodd" clip-rule="evenodd" d="M0 330.203V320.977C0.427734 291.335 4.86328 268.899 7.06055 259C31.2031 149.705 108.873 90.5803 136.289 70.3654C249.166 -12.8103 378.186 -1.67459 440.182 3.676L440.311 3.68772C672.998 23.8459 925.25 183.925 940.4 363.838C942.406 387.392 946.074 431.079 919.197 463.408C888.072 500.834 839.664 494.624 775.691 486.417C717.285 478.924 645.902 469.766 562.85 490.629C491.143 508.651 452.047 538.852 417.717 565.371C381.666 593.22 350.873 617.009 293.086 618.371H282.402C194.406 616.404 97.8945 567.599 43.3145 480.474C9.80859 427.002 0.611328 372.437 0 330.203Z" fill="#EDF6FF"/>
</g>
</svg>
