<svg width="159" height="139" viewBox="0 0 159 139" fill="none" xmlns="http://www.w3.org/2000/svg">
<g opacity="0.3">
<mask id="mask0_0_5628" style="mask-type:alpha" maskUnits="userSpaceOnUse" x="0" y="0" width="13" height="13">
<path d="M6.47327 12.9807C9.93834 12.9807 12.7473 10.1802 12.7473 6.72564C12.7473 3.27112 9.93834 0.470703 6.47327 0.470703C3.00821 0.470703 0.199219 3.27112 0.199219 6.72564C0.199219 10.1802 3.00821 12.9807 6.47327 12.9807Z" fill="url(#paint0_linear_0_5628)"/>
</mask>
<g mask="url(#mask0_0_5628)">
<path d="M6.47327 12.9808C9.93834 12.9808 12.7473 10.1803 12.7473 6.72576C12.7473 3.27125 9.93834 0.470825 6.47327 0.470825C3.00821 0.470825 0.199219 3.27125 0.199219 6.72576C0.199219 10.1803 3.00821 12.9808 6.47327 12.9808Z" fill="url(#paint1_linear_0_5628)"/>
</g>
<mask id="mask1_0_5628" style="mask-type:alpha" maskUnits="userSpaceOnUse" x="36" y="0" width="14" height="13">
<path d="M42.8092 12.9807C46.2743 12.9807 49.0833 10.1802 49.0833 6.72564C49.0833 3.27112 46.2743 0.470703 42.8092 0.470703C39.3442 0.470703 36.5352 3.27112 36.5352 6.72564C36.5352 10.1802 39.3442 12.9807 42.8092 12.9807Z" fill="url(#paint2_linear_0_5628)"/>
</mask>
<g mask="url(#mask1_0_5628)">
<path d="M42.8092 12.9808C46.2743 12.9808 49.0833 10.1803 49.0833 6.72576C49.0833 3.27125 46.2743 0.470825 42.8092 0.470825C39.3442 0.470825 36.5352 3.27125 36.5352 6.72576C36.5352 10.1803 39.3442 12.9808 42.8092 12.9808Z" fill="url(#paint3_linear_0_5628)"/>
</g>
<mask id="mask2_0_5628" style="mask-type:alpha" maskUnits="userSpaceOnUse" x="72" y="0" width="14" height="13">
<path d="M79.1491 12.9807C82.6141 12.9807 85.4231 10.1802 85.4231 6.72564C85.4231 3.27112 82.6141 0.470703 79.1491 0.470703C75.684 0.470703 72.875 3.27112 72.875 6.72564C72.875 10.1802 75.684 12.9807 79.1491 12.9807Z" fill="url(#paint4_linear_0_5628)"/>
</mask>
<g mask="url(#mask2_0_5628)">
<path d="M79.1491 12.9808C82.6141 12.9808 85.4231 10.1803 85.4231 6.72576C85.4231 3.27125 82.6141 0.470825 79.1491 0.470825C75.684 0.470825 72.875 3.27125 72.875 6.72576C72.875 10.1803 75.684 12.9808 79.1491 12.9808Z" fill="url(#paint5_linear_0_5628)"/>
</g>
<mask id="mask3_0_5628" style="mask-type:alpha" maskUnits="userSpaceOnUse" x="109" y="0" width="13" height="13">
<path d="M115.485 12.9807C118.95 12.9807 121.759 10.1802 121.759 6.72564C121.759 3.27112 118.95 0.470703 115.485 0.470703C112.02 0.470703 109.211 3.27112 109.211 6.72564C109.211 10.1802 112.02 12.9807 115.485 12.9807Z" fill="url(#paint6_linear_0_5628)"/>
</mask>
<g mask="url(#mask3_0_5628)">
<path d="M115.485 12.9808C118.95 12.9808 121.759 10.1803 121.759 6.72576C121.759 3.27125 118.95 0.470825 115.485 0.470825C112.02 0.470825 109.211 3.27125 109.211 6.72576C109.211 10.1803 112.02 12.9808 115.485 12.9808Z" fill="url(#paint7_linear_0_5628)"/>
</g>
<mask id="mask4_0_5628" style="mask-type:alpha" maskUnits="userSpaceOnUse" x="145" y="0" width="14" height="13">
<path d="M151.821 12.9807C155.286 12.9807 158.095 10.1802 158.095 6.72564C158.095 3.27112 155.286 0.470703 151.821 0.470703C148.356 0.470703 145.547 3.27112 145.547 6.72564C145.547 10.1802 148.356 12.9807 151.821 12.9807Z" fill="url(#paint8_linear_0_5628)"/>
</mask>
<g mask="url(#mask4_0_5628)">
<path d="M151.821 12.9808C155.286 12.9808 158.095 10.1803 158.095 6.72576C158.095 3.27125 155.286 0.470825 151.821 0.470825C148.356 0.470825 145.547 3.27125 145.547 6.72576C145.547 10.1803 148.356 12.9808 151.821 12.9808Z" fill="url(#paint9_linear_0_5628)"/>
</g>
<mask id="mask5_0_5628" style="mask-type:alpha" maskUnits="userSpaceOnUse" x="0" y="31" width="13" height="14">
<path d="M6.47327 44.3856C9.93834 44.3856 12.7473 41.5851 12.7473 38.1306C12.7473 34.6761 9.93834 31.8757 6.47327 31.8757C3.00821 31.8757 0.199219 34.6761 0.199219 38.1306C0.199219 41.5851 3.00821 44.3856 6.47327 44.3856Z" fill="url(#paint10_linear_0_5628)"/>
</mask>
<g mask="url(#mask5_0_5628)">
<path d="M6.47327 44.3856C9.93834 44.3856 12.7473 41.5851 12.7473 38.1306C12.7473 34.6761 9.93834 31.8757 6.47327 31.8757C3.00821 31.8757 0.199219 34.6761 0.199219 38.1306C0.199219 41.5851 3.00821 44.3856 6.47327 44.3856Z" fill="url(#paint11_linear_0_5628)"/>
</g>
<mask id="mask6_0_5628" style="mask-type:alpha" maskUnits="userSpaceOnUse" x="36" y="31" width="14" height="14">
<path d="M42.8092 44.3856C46.2743 44.3856 49.0833 41.5851 49.0833 38.1306C49.0833 34.6761 46.2743 31.8757 42.8092 31.8757C39.3442 31.8757 36.5352 34.6761 36.5352 38.1306C36.5352 41.5851 39.3442 44.3856 42.8092 44.3856Z" fill="url(#paint12_linear_0_5628)"/>
</mask>
<g mask="url(#mask6_0_5628)">
<path d="M42.8092 44.3856C46.2743 44.3856 49.0833 41.5851 49.0833 38.1306C49.0833 34.6761 46.2743 31.8757 42.8092 31.8757C39.3442 31.8757 36.5352 34.6761 36.5352 38.1306C36.5352 41.5851 39.3442 44.3856 42.8092 44.3856Z" fill="url(#paint13_linear_0_5628)"/>
</g>
<mask id="mask7_0_5628" style="mask-type:alpha" maskUnits="userSpaceOnUse" x="72" y="31" width="14" height="14">
<path d="M79.1491 44.3856C82.6141 44.3856 85.4231 41.5851 85.4231 38.1306C85.4231 34.6761 82.6141 31.8757 79.1491 31.8757C75.684 31.8757 72.875 34.6761 72.875 38.1306C72.875 41.5851 75.684 44.3856 79.1491 44.3856Z" fill="url(#paint14_linear_0_5628)"/>
</mask>
<g mask="url(#mask7_0_5628)">
<path d="M79.1491 44.3856C82.6141 44.3856 85.4231 41.5851 85.4231 38.1306C85.4231 34.6761 82.6141 31.8757 79.1491 31.8757C75.684 31.8757 72.875 34.6761 72.875 38.1306C72.875 41.5851 75.684 44.3856 79.1491 44.3856Z" fill="url(#paint15_linear_0_5628)"/>
</g>
<mask id="mask8_0_5628" style="mask-type:alpha" maskUnits="userSpaceOnUse" x="109" y="31" width="13" height="14">
<path d="M115.485 44.3856C118.95 44.3856 121.759 41.5851 121.759 38.1306C121.759 34.6761 118.95 31.8757 115.485 31.8757C112.02 31.8757 109.211 34.6761 109.211 38.1306C109.211 41.5851 112.02 44.3856 115.485 44.3856Z" fill="url(#paint16_linear_0_5628)"/>
</mask>
<g mask="url(#mask8_0_5628)">
<path d="M115.485 44.3856C118.95 44.3856 121.759 41.5851 121.759 38.1306C121.759 34.6761 118.95 31.8757 115.485 31.8757C112.02 31.8757 109.211 34.6761 109.211 38.1306C109.211 41.5851 112.02 44.3856 115.485 44.3856Z" fill="url(#paint17_linear_0_5628)"/>
</g>
<mask id="mask9_0_5628" style="mask-type:alpha" maskUnits="userSpaceOnUse" x="145" y="31" width="14" height="14">
<path d="M151.821 44.3856C155.286 44.3856 158.095 41.5851 158.095 38.1306C158.095 34.6761 155.286 31.8757 151.821 31.8757C148.356 31.8757 145.547 34.6761 145.547 38.1306C145.547 41.5851 148.356 44.3856 151.821 44.3856Z" fill="url(#paint18_linear_0_5628)"/>
</mask>
<g mask="url(#mask9_0_5628)">
<path d="M151.821 44.3856C155.286 44.3856 158.095 41.5851 158.095 38.1306C158.095 34.6761 155.286 31.8757 151.821 31.8757C148.356 31.8757 145.547 34.6761 145.547 38.1306C145.547 41.5851 148.356 44.3856 151.821 44.3856Z" fill="url(#paint19_linear_0_5628)"/>
</g>
<mask id="mask10_0_5628" style="mask-type:alpha" maskUnits="userSpaceOnUse" x="0" y="63" width="13" height="13">
<path d="M6.47327 75.7255C9.93834 75.7255 12.7473 72.9251 12.7473 69.4706C12.7473 66.016 9.93834 63.2156 6.47327 63.2156C3.00821 63.2156 0.199219 66.016 0.199219 69.4706C0.199219 72.9251 3.00821 75.7255 6.47327 75.7255Z" fill="url(#paint20_linear_0_5628)"/>
</mask>
<g mask="url(#mask10_0_5628)">
<path d="M6.47327 75.7255C9.93834 75.7255 12.7473 72.9251 12.7473 69.4706C12.7473 66.016 9.93834 63.2156 6.47327 63.2156C3.00821 63.2156 0.199219 66.016 0.199219 69.4706C0.199219 72.9251 3.00821 75.7255 6.47327 75.7255Z" fill="url(#paint21_linear_0_5628)"/>
</g>
<mask id="mask11_0_5628" style="mask-type:alpha" maskUnits="userSpaceOnUse" x="36" y="63" width="14" height="13">
<path d="M42.8092 75.7255C46.2743 75.7255 49.0833 72.9251 49.0833 69.4706C49.0833 66.016 46.2743 63.2156 42.8092 63.2156C39.3442 63.2156 36.5352 66.016 36.5352 69.4706C36.5352 72.9251 39.3442 75.7255 42.8092 75.7255Z" fill="url(#paint22_linear_0_5628)"/>
</mask>
<g mask="url(#mask11_0_5628)">
<path d="M42.8092 75.7255C46.2743 75.7255 49.0833 72.9251 49.0833 69.4706C49.0833 66.016 46.2743 63.2156 42.8092 63.2156C39.3442 63.2156 36.5352 66.016 36.5352 69.4706C36.5352 72.9251 39.3442 75.7255 42.8092 75.7255Z" fill="url(#paint23_linear_0_5628)"/>
</g>
<mask id="mask12_0_5628" style="mask-type:alpha" maskUnits="userSpaceOnUse" x="72" y="63" width="14" height="13">
<path d="M79.1491 75.7255C82.6141 75.7255 85.4231 72.9251 85.4231 69.4706C85.4231 66.016 82.6141 63.2156 79.1491 63.2156C75.684 63.2156 72.875 66.016 72.875 69.4706C72.875 72.9251 75.684 75.7255 79.1491 75.7255Z" fill="url(#paint24_linear_0_5628)"/>
</mask>
<g mask="url(#mask12_0_5628)">
<path d="M79.1491 75.7255C82.6141 75.7255 85.4231 72.9251 85.4231 69.4706C85.4231 66.016 82.6141 63.2156 79.1491 63.2156C75.684 63.2156 72.875 66.016 72.875 69.4706C72.875 72.9251 75.684 75.7255 79.1491 75.7255Z" fill="url(#paint25_linear_0_5628)"/>
</g>
<mask id="mask13_0_5628" style="mask-type:alpha" maskUnits="userSpaceOnUse" x="109" y="63" width="13" height="13">
<path d="M115.485 75.7255C118.95 75.7255 121.759 72.9251 121.759 69.4706C121.759 66.016 118.95 63.2156 115.485 63.2156C112.02 63.2156 109.211 66.016 109.211 69.4706C109.211 72.9251 112.02 75.7255 115.485 75.7255Z" fill="url(#paint26_linear_0_5628)"/>
</mask>
<g mask="url(#mask13_0_5628)">
<path d="M115.485 75.7255C118.95 75.7255 121.759 72.9251 121.759 69.4706C121.759 66.016 118.95 63.2156 115.485 63.2156C112.02 63.2156 109.211 66.016 109.211 69.4706C109.211 72.9251 112.02 75.7255 115.485 75.7255Z" fill="url(#paint27_linear_0_5628)"/>
</g>
<mask id="mask14_0_5628" style="mask-type:alpha" maskUnits="userSpaceOnUse" x="145" y="63" width="14" height="13">
<path d="M151.821 75.7255C155.286 75.7255 158.095 72.9251 158.095 69.4706C158.095 66.016 155.286 63.2156 151.821 63.2156C148.356 63.2156 145.547 66.016 145.547 69.4706C145.547 72.9251 148.356 75.7255 151.821 75.7255Z" fill="url(#paint28_linear_0_5628)"/>
</mask>
<g mask="url(#mask14_0_5628)">
<path d="M151.821 75.7255C155.286 75.7255 158.095 72.9251 158.095 69.4706C158.095 66.016 155.286 63.2156 151.821 63.2156C148.356 63.2156 145.547 66.016 145.547 69.4706C145.547 72.9251 148.356 75.7255 151.821 75.7255Z" fill="url(#paint29_linear_0_5628)"/>
</g>
<mask id="mask15_0_5628" style="mask-type:alpha" maskUnits="userSpaceOnUse" x="0" y="94" width="13" height="14">
<path d="M6.47327 107.131C9.93834 107.131 12.7473 104.33 12.7473 100.876C12.7473 97.421 9.93834 94.6206 6.47327 94.6206C3.00821 94.6206 0.199219 97.421 0.199219 100.876C0.199219 104.33 3.00821 107.131 6.47327 107.131Z" fill="url(#paint30_linear_0_5628)"/>
</mask>
<g mask="url(#mask15_0_5628)">
<path d="M6.47327 107.131C9.93834 107.131 12.7473 104.33 12.7473 100.876C12.7473 97.421 9.93834 94.6206 6.47327 94.6206C3.00821 94.6206 0.199219 97.421 0.199219 100.876C0.199219 104.33 3.00821 107.131 6.47327 107.131Z" fill="url(#paint31_linear_0_5628)"/>
</g>
<mask id="mask16_0_5628" style="mask-type:alpha" maskUnits="userSpaceOnUse" x="36" y="94" width="14" height="14">
<path d="M42.8092 107.131C46.2743 107.131 49.0833 104.33 49.0833 100.876C49.0833 97.421 46.2743 94.6206 42.8092 94.6206C39.3442 94.6206 36.5352 97.421 36.5352 100.876C36.5352 104.33 39.3442 107.131 42.8092 107.131Z" fill="url(#paint32_linear_0_5628)"/>
</mask>
<g mask="url(#mask16_0_5628)">
<path d="M42.8092 107.131C46.2743 107.131 49.0833 104.33 49.0833 100.876C49.0833 97.421 46.2743 94.6206 42.8092 94.6206C39.3442 94.6206 36.5352 97.421 36.5352 100.876C36.5352 104.33 39.3442 107.131 42.8092 107.131Z" fill="url(#paint33_linear_0_5628)"/>
</g>
<mask id="mask17_0_5628" style="mask-type:alpha" maskUnits="userSpaceOnUse" x="72" y="94" width="14" height="14">
<path d="M79.1491 107.131C82.6141 107.131 85.4231 104.33 85.4231 100.876C85.4231 97.421 82.6141 94.6206 79.1491 94.6206C75.684 94.6206 72.875 97.421 72.875 100.876C72.875 104.33 75.684 107.131 79.1491 107.131Z" fill="url(#paint34_linear_0_5628)"/>
</mask>
<g mask="url(#mask17_0_5628)">
<path d="M79.1491 107.131C82.6141 107.131 85.4231 104.33 85.4231 100.876C85.4231 97.421 82.6141 94.6206 79.1491 94.6206C75.684 94.6206 72.875 97.421 72.875 100.876C72.875 104.33 75.684 107.131 79.1491 107.131Z" fill="url(#paint35_linear_0_5628)"/>
</g>
<mask id="mask18_0_5628" style="mask-type:alpha" maskUnits="userSpaceOnUse" x="109" y="94" width="13" height="14">
<path d="M115.485 107.131C118.95 107.131 121.759 104.33 121.759 100.876C121.759 97.421 118.95 94.6206 115.485 94.6206C112.02 94.6206 109.211 97.421 109.211 100.876C109.211 104.33 112.02 107.131 115.485 107.131Z" fill="url(#paint36_linear_0_5628)"/>
</mask>
<g mask="url(#mask18_0_5628)">
<path d="M115.485 107.131C118.95 107.131 121.759 104.33 121.759 100.876C121.759 97.421 118.95 94.6206 115.485 94.6206C112.02 94.6206 109.211 97.421 109.211 100.876C109.211 104.33 112.02 107.131 115.485 107.131Z" fill="url(#paint37_linear_0_5628)"/>
</g>
<mask id="mask19_0_5628" style="mask-type:alpha" maskUnits="userSpaceOnUse" x="145" y="94" width="14" height="14">
<path d="M151.821 107.131C155.286 107.131 158.095 104.33 158.095 100.876C158.095 97.421 155.286 94.6206 151.821 94.6206C148.356 94.6206 145.547 97.421 145.547 100.876C145.547 104.33 148.356 107.131 151.821 107.131Z" fill="url(#paint38_linear_0_5628)"/>
</mask>
<g mask="url(#mask19_0_5628)">
<path d="M151.821 107.131C155.286 107.131 158.095 104.33 158.095 100.876C158.095 97.421 155.286 94.6206 151.821 94.6206C148.356 94.6206 145.547 97.421 145.547 100.876C145.547 104.33 148.356 107.131 151.821 107.131Z" fill="url(#paint39_linear_0_5628)"/>
</g>
<mask id="mask20_0_5628" style="mask-type:alpha" maskUnits="userSpaceOnUse" x="0" y="125" width="13" height="14">
<path d="M6.47327 138.471C9.93834 138.471 12.7473 135.67 12.7473 132.216C12.7473 128.761 9.93834 125.961 6.47327 125.961C3.00821 125.961 0.199219 128.761 0.199219 132.216C0.199219 135.67 3.00821 138.471 6.47327 138.471Z" fill="url(#paint40_linear_0_5628)"/>
</mask>
<g mask="url(#mask20_0_5628)">
<path d="M6.47327 138.471C9.93834 138.471 12.7473 135.67 12.7473 132.216C12.7473 128.761 9.93834 125.961 6.47327 125.961C3.00821 125.961 0.199219 128.761 0.199219 132.216C0.199219 135.67 3.00821 138.471 6.47327 138.471Z" fill="url(#paint41_linear_0_5628)"/>
</g>
<mask id="mask21_0_5628" style="mask-type:alpha" maskUnits="userSpaceOnUse" x="36" y="125" width="14" height="14">
<path d="M42.8092 138.471C46.2743 138.471 49.0833 135.67 49.0833 132.216C49.0833 128.761 46.2743 125.961 42.8092 125.961C39.3442 125.961 36.5352 128.761 36.5352 132.216C36.5352 135.67 39.3442 138.471 42.8092 138.471Z" fill="url(#paint42_linear_0_5628)"/>
</mask>
<g mask="url(#mask21_0_5628)">
<path d="M42.8092 138.471C46.2743 138.471 49.0833 135.67 49.0833 132.216C49.0833 128.761 46.2743 125.961 42.8092 125.961C39.3442 125.961 36.5352 128.761 36.5352 132.216C36.5352 135.67 39.3442 138.471 42.8092 138.471Z" fill="url(#paint43_linear_0_5628)"/>
</g>
<mask id="mask22_0_5628" style="mask-type:alpha" maskUnits="userSpaceOnUse" x="72" y="125" width="14" height="14">
<path d="M79.1491 138.471C82.6141 138.471 85.4231 135.67 85.4231 132.216C85.4231 128.761 82.6141 125.961 79.1491 125.961C75.684 125.961 72.875 128.761 72.875 132.216C72.875 135.67 75.684 138.471 79.1491 138.471Z" fill="url(#paint44_linear_0_5628)"/>
</mask>
<g mask="url(#mask22_0_5628)">
<path d="M79.1491 138.471C82.6141 138.471 85.4231 135.67 85.4231 132.216C85.4231 128.761 82.6141 125.961 79.1491 125.961C75.684 125.961 72.875 128.761 72.875 132.216C72.875 135.67 75.684 138.471 79.1491 138.471Z" fill="url(#paint45_linear_0_5628)"/>
</g>
<mask id="mask23_0_5628" style="mask-type:alpha" maskUnits="userSpaceOnUse" x="109" y="125" width="13" height="14">
<path d="M115.485 138.471C118.95 138.471 121.759 135.67 121.759 132.216C121.759 128.761 118.95 125.961 115.485 125.961C112.02 125.961 109.211 128.761 109.211 132.216C109.211 135.67 112.02 138.471 115.485 138.471Z" fill="url(#paint46_linear_0_5628)"/>
</mask>
<g mask="url(#mask23_0_5628)">
<path d="M115.485 138.471C118.95 138.471 121.759 135.67 121.759 132.216C121.759 128.761 118.95 125.961 115.485 125.961C112.02 125.961 109.211 128.761 109.211 132.216C109.211 135.67 112.02 138.471 115.485 138.471Z" fill="url(#paint47_linear_0_5628)"/>
</g>
<mask id="mask24_0_5628" style="mask-type:alpha" maskUnits="userSpaceOnUse" x="145" y="125" width="14" height="14">
<path d="M151.821 138.471C155.286 138.471 158.095 135.67 158.095 132.216C158.095 128.761 155.286 125.961 151.821 125.961C148.356 125.961 145.547 128.761 145.547 132.216C145.547 135.67 148.356 138.471 151.821 138.471Z" fill="url(#paint48_linear_0_5628)"/>
</mask>
<g mask="url(#mask24_0_5628)">
<path d="M151.821 138.471C155.286 138.471 158.095 135.67 158.095 132.216C158.095 128.761 155.286 125.961 151.821 125.961C148.356 125.961 145.547 128.761 145.547 132.216C145.547 135.67 148.356 138.471 151.821 138.471Z" fill="url(#paint49_linear_0_5628)"/>
</g>
</g>
<defs>
<linearGradient id="paint0_linear_0_5628" x1="66.1944" y1="157.831" x2="-19.4876" y2="-60.3333" gradientUnits="userSpaceOnUse">
<stop/>
<stop offset="1" stop-color="white"/>
</linearGradient>
<linearGradient id="paint1_linear_0_5628" x1="66.1944" y1="157.831" x2="-19.4876" y2="-60.3332" gradientUnits="userSpaceOnUse">
<stop stop-color="#97C3F9"/>
<stop offset="1" stop-color="#93C1F9"/>
</linearGradient>
<linearGradient id="paint2_linear_0_5628" x1="97.6385" y1="145.482" x2="11.9565" y2="-72.6828" gradientUnits="userSpaceOnUse">
<stop/>
<stop offset="1" stop-color="white"/>
</linearGradient>
<linearGradient id="paint3_linear_0_5628" x1="97.6385" y1="145.482" x2="11.9565" y2="-72.6827" gradientUnits="userSpaceOnUse">
<stop stop-color="#97C3F9"/>
<stop offset="1" stop-color="#93C1F9"/>
</linearGradient>
<linearGradient id="paint4_linear_0_5628" x1="129.086" y1="133.132" x2="43.4044" y2="-85.0324" gradientUnits="userSpaceOnUse">
<stop/>
<stop offset="1" stop-color="white"/>
</linearGradient>
<linearGradient id="paint5_linear_0_5628" x1="129.086" y1="133.132" x2="43.4044" y2="-85.0322" gradientUnits="userSpaceOnUse">
<stop stop-color="#97C3F9"/>
<stop offset="1" stop-color="#93C1F9"/>
</linearGradient>
<linearGradient id="paint6_linear_0_5628" x1="160.53" y1="120.782" x2="74.8481" y2="-97.3826" gradientUnits="userSpaceOnUse">
<stop/>
<stop offset="1" stop-color="white"/>
</linearGradient>
<linearGradient id="paint7_linear_0_5628" x1="160.53" y1="120.782" x2="74.8481" y2="-97.3825" gradientUnits="userSpaceOnUse">
<stop stop-color="#97C3F9"/>
<stop offset="1" stop-color="#93C1F9"/>
</linearGradient>
<linearGradient id="paint8_linear_0_5628" x1="191.974" y1="108.432" x2="106.292" y2="-109.732" gradientUnits="userSpaceOnUse">
<stop/>
<stop offset="1" stop-color="white"/>
</linearGradient>
<linearGradient id="paint9_linear_0_5628" x1="191.974" y1="108.432" x2="106.292" y2="-109.732" gradientUnits="userSpaceOnUse">
<stop stop-color="#97C3F9"/>
<stop offset="1" stop-color="#93C1F9"/>
</linearGradient>
<linearGradient id="paint10_linear_0_5628" x1="55.4638" y1="162.045" x2="-30.2167" y2="-56.1179" gradientUnits="userSpaceOnUse">
<stop/>
<stop offset="1" stop-color="white"/>
</linearGradient>
<linearGradient id="paint11_linear_0_5628" x1="55.4638" y1="162.045" x2="-30.2167" y2="-56.1179" gradientUnits="userSpaceOnUse">
<stop stop-color="#97C3F9"/>
<stop offset="1" stop-color="#93C1F9"/>
</linearGradient>
<linearGradient id="paint12_linear_0_5628" x1="86.9076" y1="149.695" x2="1.22713" y2="-68.4682" gradientUnits="userSpaceOnUse">
<stop/>
<stop offset="1" stop-color="white"/>
</linearGradient>
<linearGradient id="paint13_linear_0_5628" x1="86.9076" y1="149.695" x2="1.22713" y2="-68.4682" gradientUnits="userSpaceOnUse">
<stop stop-color="#97C3F9"/>
<stop offset="1" stop-color="#93C1F9"/>
</linearGradient>
<linearGradient id="paint14_linear_0_5628" x1="118.355" y1="137.345" x2="32.6749" y2="-80.8178" gradientUnits="userSpaceOnUse">
<stop/>
<stop offset="1" stop-color="white"/>
</linearGradient>
<linearGradient id="paint15_linear_0_5628" x1="118.355" y1="137.345" x2="32.6749" y2="-80.8178" gradientUnits="userSpaceOnUse">
<stop stop-color="#97C3F9"/>
<stop offset="1" stop-color="#93C1F9"/>
</linearGradient>
<linearGradient id="paint16_linear_0_5628" x1="149.799" y1="124.995" x2="64.1187" y2="-93.1676" gradientUnits="userSpaceOnUse">
<stop/>
<stop offset="1" stop-color="white"/>
</linearGradient>
<linearGradient id="paint17_linear_0_5628" x1="149.799" y1="124.995" x2="64.1187" y2="-93.1676" gradientUnits="userSpaceOnUse">
<stop stop-color="#97C3F9"/>
<stop offset="1" stop-color="#93C1F9"/>
</linearGradient>
<linearGradient id="paint18_linear_0_5628" x1="181.243" y1="112.646" x2="95.5626" y2="-105.517" gradientUnits="userSpaceOnUse">
<stop/>
<stop offset="1" stop-color="white"/>
</linearGradient>
<linearGradient id="paint19_linear_0_5628" x1="181.243" y1="112.646" x2="95.5626" y2="-105.517" gradientUnits="userSpaceOnUse">
<stop stop-color="#97C3F9"/>
<stop offset="1" stop-color="#93C1F9"/>
</linearGradient>
<linearGradient id="paint20_linear_0_5628" x1="44.7328" y1="166.26" x2="-40.9492" y2="-51.9044" gradientUnits="userSpaceOnUse">
<stop/>
<stop offset="1" stop-color="white"/>
</linearGradient>
<linearGradient id="paint21_linear_0_5628" x1="44.7328" y1="166.26" x2="-40.9492" y2="-51.9044" gradientUnits="userSpaceOnUse">
<stop stop-color="#97C3F9"/>
<stop offset="1" stop-color="#93C1F9"/>
</linearGradient>
<linearGradient id="paint22_linear_0_5628" x1="76.1767" y1="153.91" x2="-9.50521" y2="-64.2543" gradientUnits="userSpaceOnUse">
<stop/>
<stop offset="1" stop-color="white"/>
</linearGradient>
<linearGradient id="paint23_linear_0_5628" x1="76.1767" y1="153.91" x2="-9.50521" y2="-64.2543" gradientUnits="userSpaceOnUse">
<stop stop-color="#97C3F9"/>
<stop offset="1" stop-color="#93C1F9"/>
</linearGradient>
<linearGradient id="paint24_linear_0_5628" x1="107.625" y1="141.561" x2="21.9426" y2="-76.604" gradientUnits="userSpaceOnUse">
<stop/>
<stop offset="1" stop-color="white"/>
</linearGradient>
<linearGradient id="paint25_linear_0_5628" x1="107.625" y1="141.561" x2="21.9426" y2="-76.604" gradientUnits="userSpaceOnUse">
<stop stop-color="#97C3F9"/>
<stop offset="1" stop-color="#93C1F9"/>
</linearGradient>
<linearGradient id="paint26_linear_0_5628" x1="139.068" y1="129.211" x2="53.3864" y2="-88.954" gradientUnits="userSpaceOnUse">
<stop/>
<stop offset="1" stop-color="white"/>
</linearGradient>
<linearGradient id="paint27_linear_0_5628" x1="139.068" y1="129.211" x2="53.3864" y2="-88.954" gradientUnits="userSpaceOnUse">
<stop stop-color="#97C3F9"/>
<stop offset="1" stop-color="#93C1F9"/>
</linearGradient>
<linearGradient id="paint28_linear_0_5628" x1="170.512" y1="116.861" x2="84.8302" y2="-101.304" gradientUnits="userSpaceOnUse">
<stop/>
<stop offset="1" stop-color="white"/>
</linearGradient>
<linearGradient id="paint29_linear_0_5628" x1="170.512" y1="116.861" x2="84.8302" y2="-101.304" gradientUnits="userSpaceOnUse">
<stop stop-color="#97C3F9"/>
<stop offset="1" stop-color="#93C1F9"/>
</linearGradient>
<linearGradient id="paint30_linear_0_5628" x1="34.002" y1="170.474" x2="-51.6801" y2="-47.6901" gradientUnits="userSpaceOnUse">
<stop/>
<stop offset="1" stop-color="white"/>
</linearGradient>
<linearGradient id="paint31_linear_0_5628" x1="34.002" y1="170.474" x2="-51.6801" y2="-47.6901" gradientUnits="userSpaceOnUse">
<stop stop-color="#97C3F9"/>
<stop offset="1" stop-color="#93C1F9"/>
</linearGradient>
<linearGradient id="paint32_linear_0_5628" x1="65.4459" y1="158.125" x2="-20.2361" y2="-60.0399" gradientUnits="userSpaceOnUse">
<stop/>
<stop offset="1" stop-color="white"/>
</linearGradient>
<linearGradient id="paint33_linear_0_5628" x1="65.4459" y1="158.125" x2="-20.2361" y2="-60.0399" gradientUnits="userSpaceOnUse">
<stop stop-color="#97C3F9"/>
<stop offset="1" stop-color="#93C1F9"/>
</linearGradient>
<linearGradient id="paint34_linear_0_5628" x1="96.8936" y1="145.775" x2="11.2118" y2="-72.3897" gradientUnits="userSpaceOnUse">
<stop/>
<stop offset="1" stop-color="white"/>
</linearGradient>
<linearGradient id="paint35_linear_0_5628" x1="96.8936" y1="145.775" x2="11.2118" y2="-72.3897" gradientUnits="userSpaceOnUse">
<stop stop-color="#97C3F9"/>
<stop offset="1" stop-color="#93C1F9"/>
</linearGradient>
<linearGradient id="paint36_linear_0_5628" x1="128.337" y1="133.425" x2="42.6555" y2="-84.7396" gradientUnits="userSpaceOnUse">
<stop/>
<stop offset="1" stop-color="white"/>
</linearGradient>
<linearGradient id="paint37_linear_0_5628" x1="128.337" y1="133.425" x2="42.6555" y2="-84.7396" gradientUnits="userSpaceOnUse">
<stop stop-color="#97C3F9"/>
<stop offset="1" stop-color="#93C1F9"/>
</linearGradient>
<linearGradient id="paint38_linear_0_5628" x1="159.781" y1="121.075" x2="74.0994" y2="-97.0895" gradientUnits="userSpaceOnUse">
<stop/>
<stop offset="1" stop-color="white"/>
</linearGradient>
<linearGradient id="paint39_linear_0_5628" x1="159.781" y1="121.075" x2="74.0994" y2="-97.0895" gradientUnits="userSpaceOnUse">
<stop stop-color="#97C3F9"/>
<stop offset="1" stop-color="#93C1F9"/>
</linearGradient>
<linearGradient id="paint40_linear_0_5628" x1="23.2711" y1="174.689" x2="-62.4109" y2="-43.4756" gradientUnits="userSpaceOnUse">
<stop/>
<stop offset="1" stop-color="white"/>
</linearGradient>
<linearGradient id="paint41_linear_0_5628" x1="23.2711" y1="174.689" x2="-62.4109" y2="-43.4757" gradientUnits="userSpaceOnUse">
<stop stop-color="#97C3F9"/>
<stop offset="1" stop-color="#93C1F9"/>
</linearGradient>
<linearGradient id="paint42_linear_0_5628" x1="54.715" y1="162.339" x2="-30.9669" y2="-55.8254" gradientUnits="userSpaceOnUse">
<stop/>
<stop offset="1" stop-color="white"/>
</linearGradient>
<linearGradient id="paint43_linear_0_5628" x1="54.715" y1="162.339" x2="-30.9669" y2="-55.8255" gradientUnits="userSpaceOnUse">
<stop stop-color="#97C3F9"/>
<stop offset="1" stop-color="#93C1F9"/>
</linearGradient>
<linearGradient id="paint44_linear_0_5628" x1="86.1628" y1="149.989" x2="0.480938" y2="-68.175" gradientUnits="userSpaceOnUse">
<stop/>
<stop offset="1" stop-color="white"/>
</linearGradient>
<linearGradient id="paint45_linear_0_5628" x1="86.1628" y1="149.989" x2="0.480938" y2="-68.1751" gradientUnits="userSpaceOnUse">
<stop stop-color="#97C3F9"/>
<stop offset="1" stop-color="#93C1F9"/>
</linearGradient>
<linearGradient id="paint46_linear_0_5628" x1="117.607" y1="137.64" x2="31.9247" y2="-80.525" gradientUnits="userSpaceOnUse">
<stop/>
<stop offset="1" stop-color="white"/>
</linearGradient>
<linearGradient id="paint47_linear_0_5628" x1="117.607" y1="137.639" x2="31.9247" y2="-80.5251" gradientUnits="userSpaceOnUse">
<stop stop-color="#97C3F9"/>
<stop offset="1" stop-color="#93C1F9"/>
</linearGradient>
<linearGradient id="paint48_linear_0_5628" x1="149.051" y1="125.29" x2="63.3686" y2="-92.8748" gradientUnits="userSpaceOnUse">
<stop/>
<stop offset="1" stop-color="white"/>
</linearGradient>
<linearGradient id="paint49_linear_0_5628" x1="149.051" y1="125.29" x2="63.3686" y2="-92.8749" gradientUnits="userSpaceOnUse">
<stop stop-color="#97C3F9"/>
<stop offset="1" stop-color="#93C1F9"/>
</linearGradient>
</defs>
</svg>
