<svg width="114" height="115" viewBox="0 0 114 115" fill="none" xmlns="http://www.w3.org/2000/svg">
<path d="M42.75 104.9H71.25C95 104.9 104.5 95.3999 104.5 71.6499V43.1499C104.5 19.3999 95 9.8999 71.25 9.8999H42.75C19 9.8999 9.5 19.3999 9.5 43.1499V71.6499C9.5 95.3999 19 104.9 42.75 104.9Z" stroke="#157FFB" stroke-width="7.125" stroke-linecap="round" stroke-linejoin="round"/>
<path d="M73.625 88.2749C78.85 88.2749 83.125 83.9999 83.125 78.7749V36.0249C83.125 30.7999 78.85 26.5249 73.625 26.5249C68.4 26.5249 64.125 30.7999 64.125 36.0249V78.7749C64.125 83.9999 68.3525 88.2749 73.625 88.2749Z" stroke="#157FFB" stroke-width="7.125" stroke-linecap="round" stroke-linejoin="round"/>
<path d="M40.375 88.2749C45.6 88.2749 49.875 83.9999 49.875 78.7749V62.1499C49.875 56.9249 45.6 52.6499 40.375 52.6499C35.15 52.6499 30.875 56.9249 30.875 62.1499V78.7749C30.875 83.9999 35.1025 88.2749 40.375 88.2749Z" stroke="#157FFB" stroke-width="7.125" stroke-linecap="round" stroke-linejoin="round"/>
</svg>
