<svg width="16" height="12" viewBox="0 0 16 12" fill="none" xmlns="http://www.w3.org/2000/svg">
<path d="M6.36156 11.3041C6.2206 11.3045 6.08097 11.2728 5.95069 11.211C5.82041 11.1492 5.70203 11.0585 5.60235 10.9441L1.04712 5.71234C0.944486 5.59868 0.862597 5.46269 0.806227 5.3123C0.749857 5.16192 0.720136 5.00014 0.718797 4.83642C0.717459 4.67271 0.744529 4.51032 0.798429 4.35875C0.85233 4.20717 0.931981 4.06944 1.03273 3.95358C1.13349 3.83773 1.25333 3.74608 1.38526 3.68397C1.51719 3.62187 1.65857 3.59055 1.80116 3.59186C1.94374 3.59316 2.08467 3.62706 2.21572 3.69158C2.34677 3.75609 2.46532 3.84992 2.56446 3.96761L6.36049 8.32636L13.1955 0.480607C13.3968 0.249241 13.67 0.119195 13.9549 0.11908C14.2397 0.118964 14.5129 0.248788 14.7144 0.47999C14.9159 0.711193 15.0292 1.02484 15.0293 1.35192C15.0294 1.67901 14.9163 1.99274 14.715 2.22411L7.12077 10.9441C7.02109 11.0585 6.90272 11.1492 6.77243 11.211C6.64215 11.2728 6.50252 11.3045 6.36156 11.3041Z" fill="#2FAB73"/>
</svg>
