<svg width="1920" height="913" viewBox="0 0 1920 913" fill="none" xmlns="http://www.w3.org/2000/svg">
<mask id="mask0_150_601" style="mask-type:alpha" maskUnits="userSpaceOnUse" x="0" y="0" width="1920" height="913">
<rect y="0.399902" width="1920" height="912" fill="#EFF7FF"/>
</mask>
<g mask="url(#mask0_150_601)">
<rect y="0.399902" width="1920" height="912" fill="#157FFB"/>
<g opacity="0.3">
<path d="M1340.98 524.53H1263.49L1233.61 500.75H1107.34L1054.13 454.56V400.89L1013.19 361.6L1017.58 357.39L1060.33 398.43V451.92L1109.72 494.8H1235.85L1265.73 518.59H1338.53L1417.93 447.22H1463.09V453.17H1420.38L1340.98 524.53Z" fill="#DAEBFF"/>
<path d="M1233.38 476.96H1122.3L1078.91 440.22V381.98L992.171 297.3V229.72L898.301 137.98H328.661L119.361 -70.1701H-127.609L-217.699 13.3599L-218.549 39.5599L-130.159 -46.3801H121.971L331.26 155.82H890.151L924.011 190.31V250.97H917.811V192.67L887.471 161.77H328.691L119.391 -40.4301H-127.569L-225.229 54.5199L-223.819 10.7699L-130.109 -76.1101H122.001L331.291 132.03H900.901L998.36 227.29V294.87L1085.11 379.54V437.54L1124.65 471.01H1230.95L1270.97 435.33H1299.97V441.28H1273.4L1233.38 476.96Z" fill="#DAEBFF"/>
<path d="M1150.55 360.18L1047.93 263.74V68.4198L1020.85 42.8298H904.441L830.87 114.19H341.801L128.141 -93.9501H-219.049L-273.829 -41.8501L-278.189 -46.0701L-221.609 -99.9001H130.731L344.401 108.24H828.291L901.86 36.8799H1023.39L1054.13 65.9299V261.25L1154.88 355.93L1150.55 360.18Z" fill="#DAEBFF"/>
<path d="M1231.98 340.18H1177.61L1072.72 238.52V43.0401L1046.92 13.0901H886.941L813.371 84.4601H359.331L145.661 -117.74H-535.359V-123.69H148.211L361.881 78.51H810.781L884.361 7.14005H1049.84L1078.91 40.9001V236.06L1180.2 334.23H1231.98V340.18Z" fill="#DAEBFF"/>
<path d="M778.43 30.9298H576.68L513.25 -28.5402H474.01L445.67 -4.75018H359.36L151.36 -196.16L155.65 -200.45L361.85 -10.7002H443.34L471.68 -34.4802H515.78L579.2 24.9798H775.71L804.2 -4.75018H644.75L606.14 -32.8702L609.89 -37.6102L646.84 -10.7002H818.32L778.43 30.9298Z" fill="#DAEBFF"/>
<path d="M490.271 42.8299H360.791L154.411 -153.42H-376.439V-159.37H156.961L363.341 36.8799H490.271V42.8299Z" fill="#DAEBFF"/>
<path d="M1489.98 474.89C1505.95 474.89 1518.89 462.466 1518.89 447.14C1518.89 431.814 1505.95 419.39 1489.98 419.39C1474.01 419.39 1461.07 431.814 1461.07 447.14C1461.07 462.466 1474.01 474.89 1489.98 474.89Z" fill="#DAEBFF"/>
<path d="M492.381 64.5498C508.347 64.5498 521.291 52.1257 521.291 36.7998C521.291 21.4739 508.347 9.0498 492.381 9.0498C476.414 9.0498 463.471 21.4739 463.471 36.7998C463.471 52.1257 476.414 64.5498 492.381 64.5498Z" fill="#DAEBFF"/>
<path d="M913.73 290.54C929.697 290.54 942.64 278.116 942.64 262.79C942.64 247.464 929.697 235.04 913.73 235.04C897.764 235.04 884.82 247.464 884.82 262.79C884.82 278.116 897.764 290.54 913.73 290.54Z" fill="#DAEBFF"/>
<path d="M1006.67 385.69C1022.64 385.69 1035.58 373.266 1035.58 357.94C1035.58 342.614 1022.64 330.19 1006.67 330.19C990.704 330.19 977.761 342.614 977.761 357.94C977.761 373.266 990.704 385.69 1006.67 385.69Z" fill="#DAEBFF"/>
<path d="M1328.88 404.53C1311.22 404.53 1296.88 418.31 1296.88 435.26V435.33C1296.88 437.346 1297.09 439.357 1297.5 441.33C1300.43 455.33 1313.38 466.02 1328.89 466.02C1346.54 466.02 1360.89 452.24 1360.89 435.31C1360.89 418.38 1346.53 404.53 1328.88 404.53ZM1328.88 460.03C1314.65 460.03 1303.07 448.92 1303.07 435.26C1303.07 421.6 1314.65 410.47 1328.88 410.47C1343.11 410.47 1354.68 421.6 1354.68 435.26C1354.68 448.92 1343.11 460.03 1328.88 460.03Z" fill="#DAEBFF"/>
<path d="M1260.73 303.4C1243.07 303.4 1228.73 317.19 1228.73 334.14V334.21C1228.73 336.21 1228.94 338.205 1229.36 340.16C1232.27 354.22 1245.24 364.85 1260.75 364.85C1278.38 364.85 1292.75 351.07 1292.75 334.14C1292.75 317.21 1278.36 303.4 1260.73 303.4ZM1260.73 358.91C1246.48 358.91 1234.9 347.8 1234.9 334.14C1234.9 320.48 1246.48 309.4 1260.73 309.4C1274.98 309.4 1286.53 320.53 1286.53 334.19C1286.53 347.85 1274.94 358.93 1260.73 358.93V358.91Z" fill="#DAEBFF"/>
<path d="M1167.78 351.01C1162.73 350.998 1157.75 352.147 1153.22 354.37C1151.34 355.286 1149.55 356.388 1147.88 357.66C1144.14 360.464 1141.1 364.097 1139 368.273C1136.89 372.449 1135.79 377.055 1135.76 381.73C1135.76 398.67 1150.12 412.46 1167.76 412.46C1185.4 412.46 1199.76 398.67 1199.76 381.73C1199.76 364.79 1185.43 351.01 1167.78 351.01ZM1167.78 406.51C1153.55 406.51 1141.97 395.38 1141.97 381.73C1141.97 368.08 1153.55 356.96 1167.78 356.96C1182.01 356.96 1193.59 368.07 1193.59 381.73C1193.59 395.39 1182.01 406.51 1167.78 406.51Z" fill="#DAEBFF"/>
<path d="M-610.77 216.46H-604.58V260.32L-530.219 334.19V452.64L-493.68 490.02H-394.09L-357.409 525.7H-173.11L57.7205 745.74H307.04L385.251 668.43H477.801V674.38H387.871L309.66 751.69H55.1705L54.2604 750.83L-175.659 531.65H-359.999L-396.68 495.97H-496.359L-536.419 455V336.59L-610.77 262.73V216.46Z" fill="#DAEBFF"/>
<path d="M408.35 692.43L406.93 736.18L313.23 823.05H61.1205L-148.19 614.9H-717.79L-815.25 519.64V452.07L-902.01 367.4V309.41L-941.54 275.92H-1047.83L-1087.87 311.62H-1116.85V305.67H-1090.29L-1050.27 269.98H-939.2L-895.81 306.71V364.97L-809.06 449.64V517.22L-715.18 608.96H-145.55L63.7505 817.1H310.71L400.82 733.58L401.67 707.38L313.27 793.32H61.1404L-148.15 591.12H-707.03L-740.89 556.63V495.96H-734.69V554.27L-704.35 585.17H-145.58L63.7305 787.37H310.67L408.35 692.43Z" fill="#DAEBFF"/>
<path d="M-967.44 386.76L-864.82 483.2V678.52L-837.74 704.11H-721.33L-647.76 632.75H-158.69L54.9705 840.89H402.17L456.95 788.79L461.311 793.01L404.72 846.84H52.3804L-161.279 638.7H-645.18L-718.75 710.06H-840.279L-871.02 681.01V485.69L-971.77 391.01L-967.44 386.76Z" fill="#DAEBFF"/>
<path d="M-1048.87 406.76H-994.5L-889.61 508.42V703.9L-863.81 733.85H-703.83L-630.26 662.49H-176.22L37.45 864.68H718.47V870.63H34.9099L-178.76 668.43H-627.67L-701.25 739.8H-866.72L-895.8 706.04V510.88L-997.08 412.71H-1048.87V406.76Z" fill="#DAEBFF"/>
<path d="M-595.32 716.01H-393.57L-330.14 775.48H-290.9L-262.56 751.69H-176.25L31.7501 943.1L27.4601 947.39L-178.74 757.64H-260.23L-288.57 781.43H-332.66L-396.09 721.96H-592.6L-621.09 751.69H-461.64L-423.03 779.81L-426.78 784.55L-463.72 757.64H-635.21L-595.32 716.01Z" fill="#DAEBFF"/>
<path d="M-307.149 704.11H-177.679L28.7006 900.36H559.561V906.31H26.1505L-180.219 710.06H-307.149V704.11Z" fill="#DAEBFF"/>
<path d="M465.27 809.25C481.237 809.25 494.18 796.826 494.18 781.5C494.18 766.174 481.237 753.75 465.27 753.75C449.304 753.75 436.36 766.174 436.36 781.5C436.36 796.826 449.304 809.25 465.27 809.25Z" fill="#DAEBFF"/>
<path d="M747.39 836.93C730.77 836.93 717.071 849.14 715.521 864.67C715.416 865.667 715.363 866.668 715.36 867.67C715.363 868.672 715.417 869.673 715.521 870.67C717.091 886.22 730.77 898.41 747.39 898.41C765.02 898.41 779.39 884.62 779.39 867.68C779.39 850.74 765.02 836.93 747.39 836.93ZM747.39 892.43C733.16 892.43 721.561 881.32 721.561 867.65C721.561 853.98 733.16 842.88 747.39 842.88C761.62 842.88 773.19 853.99 773.19 867.65C773.19 881.31 761.62 892.4 747.39 892.4V892.43Z" fill="#DAEBFF"/>
<path d="M588.48 878.31C573.96 878.31 561.661 887.62 557.771 900.37C557.159 902.3 556.763 904.292 556.59 906.31C556.493 907.22 556.446 908.135 556.45 909.05C556.45 925.97 570.82 939.76 588.45 939.76C606.08 939.76 620.45 925.97 620.45 909.05C620.45 892.13 606.11 878.31 588.48 878.31ZM588.48 933.81C574.23 933.81 562.65 922.7 562.65 909.05C562.65 895.4 574.23 884.26 588.48 884.26C602.73 884.26 614.281 895.37 614.281 909.05C614.281 922.73 602.71 933.81 588.48 933.81Z" fill="#DAEBFF"/>
<path d="M506.72 641.2C490.28 641.2 476.72 653.14 474.91 668.44C474.766 669.591 474.693 670.75 474.69 671.91C474.69 672.75 474.69 673.56 474.81 674.38C476.11 690.18 489.93 702.64 506.72 702.64C524.35 702.64 538.72 688.86 538.72 671.91C538.72 654.96 524.35 641.2 506.72 641.2ZM506.72 696.7C492.47 696.7 480.89 685.59 480.89 671.91C480.89 658.23 492.47 647.14 506.72 647.14C520.97 647.14 532.52 658.25 532.52 671.91C532.52 685.57 520.94 696.7 506.72 696.7Z" fill="#DAEBFF"/>
</g>
<g opacity="0.21">
<g opacity="0.21">
<g opacity="0.21">
<path opacity="0.21" d="M1670.94 370.256C1682.29 376.803 1691.47 392.699 1691.42 405.744L1690.58 704.098C1690.53 717.143 1681.3 722.385 1669.95 715.838L1233.41 463.796C1222.05 457.249 1212.87 441.353 1212.92 428.332L1213.77 129.979C1213.82 116.933 1223.05 111.667 1234.4 118.214L1670.94 370.256Z" fill="#CAD8F2"/>
</g>
</g>
</g>
<path d="M1623.49 404.609C1634.85 411.156 1644.03 427.052 1643.98 440.097L1643.13 738.45C1643.08 751.496 1633.86 756.738 1622.5 750.191L1185.96 498.149C1174.61 491.602 1165.43 475.706 1165.48 462.661L1166.32 164.307C1166.37 151.262 1175.6 145.995 1186.95 152.542L1623.49 404.609Z" fill="#EFF4FF"/>
<path d="M1631.66 399.874L1195.12 147.832C1189.42 144.522 1184.22 144.232 1180.48 146.406L1172.31 151.165C1176.06 148.991 1181.23 149.305 1186.95 152.591L1623.49 404.633C1634.85 411.18 1644.03 427.076 1643.98 440.121L1643.13 738.475C1643.11 744.949 1640.84 749.515 1637.14 751.641L1645.31 746.882C1649 744.732 1651.27 740.19 1651.3 733.716L1652.14 435.362C1652.19 422.317 1643.01 406.421 1631.66 399.874Z" fill="url(#paint0_linear_150_601)"/>
<path d="M1416.24 311.31C1422.83 315.103 1428.12 324.307 1428.12 331.869L1427.66 492.496C1427.64 500.058 1422.3 503.102 1415.71 499.285L1194.59 371.609C1188.02 367.816 1182.7 358.612 1182.7 351.05L1183.16 190.422C1183.18 182.861 1188.55 179.841 1195.12 183.634L1416.24 311.31Z" fill="#CAD8F2"/>
<path d="M1394.5 321.166L1173.38 193.49C1170.07 191.582 1167.07 191.413 1164.9 192.669L1159.99 195.52C1162.17 194.263 1165.16 194.433 1168.47 196.341L1389.59 324.017C1396.19 327.81 1401.48 337.014 1401.48 344.576L1401.02 505.203C1401.02 508.948 1399.69 511.581 1397.54 512.837L1402.44 509.987C1404.57 508.755 1405.9 506.097 1405.92 502.353L1406.38 341.725C1406.38 334.163 1401.07 324.959 1394.5 321.166Z" fill="#1AE5FF"/>
<path d="M1389.59 324.017C1396.19 327.81 1401.48 337.014 1401.48 344.576L1401.02 505.203C1400.99 512.765 1395.66 515.809 1389.06 511.992L1167.94 384.316C1161.37 380.523 1156.05 371.319 1156.05 363.757L1156.51 203.13C1156.54 195.568 1161.9 192.548 1168.47 196.341L1389.59 324.017Z" fill="url(#paint1_linear_150_601)"/>
<path d="M1317.94 352.137C1315.76 350.881 1313.69 350.035 1311.66 349.456C1310.64 323.896 1292.84 293.771 1270.88 281.088C1248.24 268.018 1229.81 278.503 1229.74 304.545C1229.67 330.564 1247.98 362.284 1270.61 375.353C1279.79 380.644 1288.27 382.069 1295.13 380.161C1299.12 392.264 1307.74 404.029 1317.77 409.827C1331.64 417.823 1342.92 411.397 1342.97 395.477C1342.99 379.532 1331.81 360.133 1317.94 352.137Z" fill="#0070E0"/>
<path d="M1231.5 404.294C1261.47 404.294 1285.76 380.001 1285.76 350.035C1285.76 320.068 1261.47 295.776 1231.5 295.776C1201.53 295.776 1177.24 320.068 1177.24 350.035C1177.24 380.001 1201.53 404.294 1231.5 404.294Z" fill="url(#paint2_radial_150_601)"/>
<path d="M1281.22 432.874C1301.9 432.874 1318.66 416.109 1318.66 395.429C1318.66 374.748 1301.9 357.983 1281.22 357.983C1260.54 357.983 1243.77 374.748 1243.77 395.429C1243.77 416.109 1260.54 432.874 1281.22 432.874Z" fill="url(#paint3_radial_150_601)"/>
<path d="M1400.56 338.802L1363.86 317.615C1354.71 312.325 1347.24 316.577 1347.22 327.11L1347.1 370.135C1347.07 380.644 1354.47 393.472 1363.65 398.763L1401.09 420.384C1401.16 420.409 1401.21 420.457 1401.28 420.481L1401.5 344.576C1401.48 342.716 1401.14 340.759 1400.56 338.802Z" fill="#0070E0"/>
<path d="M1395.27 313.388L1357.82 291.766C1353.21 289.109 1349.03 288.843 1346.01 290.607L1341.81 293.047C1344.83 291.283 1349.01 291.549 1353.62 294.206L1391.07 315.828C1400.22 321.118 1407.64 333.946 1407.61 344.479L1407.49 387.505C1407.47 392.723 1405.63 396.395 1402.66 398.135L1406.86 395.695C1409.84 393.955 1411.7 390.283 1411.7 385.065L1411.82 342.039C1411.84 331.506 1404.45 318.678 1395.27 313.388Z" fill="url(#paint4_linear_150_601)"/>
<path d="M1391.07 315.828C1400.22 321.118 1407.64 333.946 1407.61 344.479L1407.49 387.505C1407.47 398.014 1400 402.266 1390.85 396.975L1353.4 375.353C1344.25 370.063 1336.83 357.235 1336.85 346.726L1336.98 303.7C1337 293.167 1344.46 288.915 1353.62 294.206L1391.07 315.828Z" fill="#EFF4FF"/>
<path d="M1362.54 326.264C1363.19 326.65 1363.86 327.23 1364.52 328.027L1384.04 352.282C1386.67 355.568 1386.67 359.964 1384.01 360.206L1364.42 361.873C1363.77 361.921 1363.09 361.728 1362.44 361.341C1360.36 360.134 1358.48 357.138 1358.48 354.481L1358.55 328.535C1358.55 325.877 1360.46 325.08 1362.54 326.264Z" fill="#FF63AA"/>
<path d="M1175.84 225.162C1176.32 225.452 1176.71 225.79 1177 226.201C1177.27 226.612 1177.41 227.047 1177.39 227.506C1177.39 227.868 1177.29 228.134 1177.1 228.254C1176.93 228.375 1176.66 228.399 1176.32 228.279V228.303C1176.73 228.617 1177.02 228.931 1177.24 229.293C1177.43 229.631 1177.53 230.018 1177.53 230.404C1177.53 230.96 1177.36 231.274 1177.02 231.395C1176.69 231.492 1176.2 231.371 1175.6 231.008C1175.33 230.863 1175.09 230.694 1174.85 230.501C1174.63 230.332 1174.41 230.139 1174.2 229.873V229.245C1174.44 229.511 1174.66 229.728 1174.9 229.945C1175.14 230.163 1175.38 230.308 1175.6 230.429C1176.47 230.936 1176.93 230.815 1176.93 230.018C1176.93 229.317 1176.44 228.665 1175.48 228.109L1174.97 227.82V227.264L1175.48 227.554C1175.89 227.795 1176.18 227.868 1176.42 227.795C1176.66 227.723 1176.76 227.506 1176.76 227.167C1176.76 226.877 1176.69 226.612 1176.52 226.346C1176.35 226.08 1176.11 225.863 1175.82 225.694C1175.6 225.573 1175.38 225.476 1175.19 225.428C1174.99 225.404 1174.78 225.38 1174.54 225.428L1174.25 224.824C1174.46 224.751 1174.7 224.751 1174.97 224.8C1175.26 224.872 1175.55 224.993 1175.84 225.162Z" fill="#EFF4FF"/>
<path d="M1182.05 229.583C1182.48 230.332 1182.7 231.153 1182.7 232.047C1182.7 233.014 1182.46 233.618 1182.03 233.859C1181.57 234.101 1180.91 233.98 1180.07 233.497L1178.67 232.675L1178.69 226.853L1180.24 227.747C1181.01 228.206 1181.64 228.81 1182.05 229.583ZM1181.54 233.159C1181.9 232.965 1182.07 232.506 1182.1 231.709C1182.1 230.936 1181.93 230.284 1181.61 229.704C1181.28 229.124 1180.79 228.641 1180.14 228.254L1179.27 227.747L1179.25 232.41L1179.97 232.82C1180.67 233.255 1181.2 233.352 1181.54 233.159Z" fill="#EFF4FF"/>
<path d="M1176.76 238.763L1178.14 242.169L1177.43 241.758L1176.23 238.642L1175.16 238.038V240.454L1174.58 240.116L1174.61 234.293L1175.99 235.091C1176.61 235.453 1177.07 235.864 1177.36 236.299C1177.65 236.758 1177.8 237.241 1177.8 237.796C1177.8 238.569 1177.43 238.883 1176.76 238.763ZM1175.99 237.917C1176.4 238.159 1176.69 238.231 1176.9 238.159C1177.1 238.086 1177.19 237.845 1177.19 237.482C1177.19 237.096 1177.1 236.782 1176.9 236.492C1176.71 236.202 1176.37 235.936 1175.94 235.695L1175.16 235.26V237.482L1175.99 237.917Z" fill="#EFF4FF"/>
<path d="M1181.88 241.855V242.266L1179.27 240.768C1179.3 241.299 1179.39 241.734 1179.61 242.145C1179.83 242.531 1180.12 242.821 1180.5 243.063C1180.91 243.304 1181.32 243.449 1181.71 243.474V244.053C1181.52 244.053 1181.3 244.005 1181.13 243.933C1180.94 243.884 1180.72 243.763 1180.48 243.618C1179.92 243.304 1179.49 242.845 1179.15 242.266C1178.84 241.686 1178.67 241.034 1178.67 240.333C1178.67 239.632 1178.84 239.173 1179.13 238.932C1179.42 238.69 1179.83 238.714 1180.33 239.004C1180.82 239.27 1181.18 239.681 1181.47 240.188C1181.74 240.72 1181.88 241.251 1181.88 241.855ZM1179.27 240.236L1181.25 241.372C1181.25 240.937 1181.18 240.575 1181.03 240.285C1180.87 239.946 1180.62 239.705 1180.33 239.536C1180.02 239.367 1179.78 239.342 1179.61 239.463C1179.42 239.584 1179.32 239.85 1179.27 240.236Z" fill="#EFF4FF"/>
<path d="M1184.66 241.493C1185.12 241.759 1185.46 242.073 1185.7 242.459C1185.94 242.87 1186.06 243.329 1186.06 243.885V246.711L1185.48 246.373V243.546C1185.48 243.184 1185.43 242.894 1185.29 242.628C1185.14 242.363 1184.92 242.169 1184.63 242C1184.22 241.759 1183.93 241.71 1183.76 241.855C1183.6 242 1183.47 242.363 1183.47 242.918V245.213L1182.89 244.875L1182.92 240.527L1183.38 240.792L1183.47 241.445L1183.5 241.469C1183.62 241.324 1183.79 241.251 1183.98 241.251C1184.15 241.251 1184.39 241.348 1184.66 241.493Z" fill="#EFF4FF"/>
<path d="M1189.78 242.701L1190.36 243.039L1190.34 249.223L1189.88 248.958L1189.8 248.33L1189.78 248.305C1189.51 248.595 1189.1 248.595 1188.6 248.281C1188.09 247.991 1187.7 247.581 1187.44 247.025C1187.17 246.469 1187.05 245.865 1187.05 245.117C1187.05 244.416 1187.19 243.909 1187.46 243.691C1187.75 243.45 1188.14 243.474 1188.64 243.764C1189.15 244.054 1189.54 244.488 1189.8 245.068L1189.85 245.092L1189.83 244.778L1189.8 244.44L1189.78 242.701ZM1189.78 246.856V246.711C1189.78 246.083 1189.68 245.6 1189.51 245.213C1189.34 244.875 1189.05 244.561 1188.67 244.343C1188.33 244.15 1188.06 244.15 1187.9 244.368C1187.7 244.561 1187.61 244.923 1187.61 245.479C1187.61 246.034 1187.7 246.518 1187.87 246.88C1188.06 247.267 1188.31 247.556 1188.67 247.75C1189.08 247.991 1189.34 248.015 1189.54 247.871C1189.68 247.75 1189.76 247.412 1189.78 246.856Z" fill="#EFF4FF"/>
<path d="M1194.54 249.175V249.586L1191.93 248.088C1191.95 248.619 1192.05 249.054 1192.27 249.465C1192.48 249.876 1192.77 250.141 1193.16 250.383C1193.57 250.625 1193.98 250.769 1194.37 250.794V251.373C1194.18 251.373 1193.96 251.325 1193.79 251.253C1193.6 251.204 1193.38 251.084 1193.14 250.939C1192.58 250.625 1192.15 250.166 1191.81 249.586C1191.49 249.006 1191.33 248.354 1191.33 247.653C1191.33 246.952 1191.49 246.493 1191.78 246.252C1192.07 246.01 1192.48 246.034 1192.99 246.324C1193.48 246.59 1193.86 247.001 1194.13 247.508C1194.42 248.04 1194.56 248.571 1194.54 249.175ZM1191.95 247.556L1193.93 248.692C1193.93 248.257 1193.86 247.895 1193.72 247.605C1193.55 247.267 1193.31 247.025 1193.02 246.856C1192.7 246.687 1192.46 246.663 1192.29 246.783C1192.1 246.904 1192 247.17 1191.95 247.556Z" fill="#EFF4FF"/>
<path d="M1197.27 248.789C1197.44 248.886 1197.58 248.982 1197.73 249.103L1197.66 249.659C1197.49 249.514 1197.34 249.417 1197.24 249.369C1196.93 249.2 1196.66 249.175 1196.45 249.344C1196.21 249.489 1196.11 249.779 1196.11 250.214V252.558L1195.53 252.219L1195.55 247.871L1196.04 248.137L1196.08 248.982L1196.11 249.006C1196.25 248.813 1196.42 248.692 1196.62 248.644C1196.83 248.596 1197.05 248.644 1197.27 248.789Z" fill="#EFF4FF"/>
<path d="M1201.42 253.162V253.572L1198.81 252.074C1198.81 252.582 1198.94 253.041 1199.15 253.451C1199.35 253.838 1199.66 254.128 1200.05 254.37C1200.46 254.611 1200.87 254.756 1201.25 254.78V255.36C1201.06 255.36 1200.84 255.312 1200.68 255.239C1200.48 255.191 1200.26 255.07 1200.02 254.925C1199.44 254.587 1199.03 254.152 1198.69 253.572C1198.38 252.992 1198.21 252.34 1198.21 251.64C1198.21 250.939 1198.38 250.48 1198.67 250.238C1198.98 249.997 1199.37 250.021 1199.9 250.311C1200.39 250.577 1200.75 250.987 1201.04 251.495C1201.3 252.002 1201.42 252.558 1201.42 253.162ZM1198.84 251.519L1200.82 252.654C1200.82 252.219 1200.75 251.857 1200.6 251.567C1200.43 251.229 1200.19 250.987 1199.9 250.818C1199.59 250.649 1199.35 250.625 1199.15 250.722C1198.98 250.891 1198.86 251.132 1198.84 251.519Z" fill="#EFF4FF"/>
<path d="M1204.97 251.47L1205.55 251.809L1205.53 257.993L1205.05 257.727L1204.97 257.099L1204.95 257.075C1204.68 257.365 1204.27 257.365 1203.77 257.051C1203.28 256.761 1202.9 256.35 1202.61 255.795C1202.34 255.239 1202.2 254.611 1202.2 253.886C1202.2 253.186 1202.34 252.678 1202.61 252.461C1202.9 252.219 1203.28 252.244 1203.77 252.533C1204.27 252.823 1204.68 253.282 1204.95 253.862L1205 253.886L1204.97 253.572L1204.95 253.234L1204.97 251.47ZM1204.95 255.626V255.481C1204.95 254.853 1204.85 254.369 1204.68 254.007C1204.49 253.645 1204.23 253.355 1203.81 253.113C1203.48 252.92 1203.24 252.944 1203.04 253.137C1202.85 253.331 1202.78 253.717 1202.78 254.273C1202.78 254.828 1202.85 255.287 1203.04 255.674C1203.21 256.06 1203.48 256.35 1203.84 256.544C1204.23 256.761 1204.52 256.809 1204.68 256.664C1204.88 256.52 1204.95 256.181 1204.95 255.626Z" fill="#EFF4FF"/>
<path d="M1175.89 244.754C1176.4 245.044 1176.85 245.431 1177.27 245.866L1177.07 246.349C1176.66 245.914 1176.25 245.576 1175.86 245.334C1175.55 245.165 1175.31 245.093 1175.14 245.141C1174.97 245.213 1174.87 245.358 1174.87 245.648C1174.87 245.842 1174.9 246.011 1174.97 246.204L1175.28 246.735C1175.43 246.953 1175.7 247.194 1175.99 247.509C1176.52 248.04 1176.88 248.475 1177.07 248.837C1177.27 249.2 1177.39 249.586 1177.39 249.997C1177.39 250.504 1177.22 250.794 1176.88 250.915C1176.56 251.011 1176.13 250.915 1175.57 250.577C1174.97 250.238 1174.51 249.876 1174.2 249.514V248.861C1174.39 249.079 1174.63 249.296 1174.87 249.489C1175.12 249.707 1175.36 249.852 1175.6 249.997C1176.01 250.238 1176.3 250.311 1176.49 250.263C1176.69 250.19 1176.78 250.021 1176.78 249.707C1176.78 249.514 1176.76 249.345 1176.69 249.175C1176.61 248.982 1176.49 248.813 1176.32 248.596C1176.15 248.402 1175.91 248.137 1175.57 247.798C1175.12 247.339 1174.78 246.905 1174.58 246.518C1174.39 246.131 1174.27 245.721 1174.27 245.286C1174.27 244.851 1174.41 244.585 1174.73 244.489C1175.04 244.416 1175.43 244.489 1175.89 244.754Z" fill="#EFF4FF"/>
<path d="M1181.3 249.948C1181.57 250.504 1181.71 251.156 1181.71 251.857C1181.71 252.557 1181.57 253.065 1181.3 253.282C1181.01 253.524 1180.62 253.499 1180.14 253.209C1179.9 253.065 1179.66 252.871 1179.46 252.654C1179.25 252.412 1179.08 252.171 1178.93 251.881L1178.91 251.857C1178.93 252.122 1178.93 252.364 1178.93 252.581V254.393L1178.35 254.055L1178.38 247.726L1178.84 247.991L1178.93 248.644H1178.96C1179.1 248.475 1179.27 248.426 1179.49 248.426C1179.68 248.426 1179.9 248.499 1180.16 248.668C1180.62 248.982 1181.01 249.392 1181.3 249.948ZM1180.82 252.606C1181.01 252.388 1181.11 252.05 1181.11 251.518C1181.11 250.963 1181.01 250.48 1180.84 250.093C1180.65 249.707 1180.41 249.393 1180.04 249.199C1179.66 248.982 1179.39 248.933 1179.2 249.103C1179 249.248 1178.93 249.586 1178.91 250.141V250.286C1178.91 250.914 1179 251.398 1179.17 251.76C1179.34 252.122 1179.63 252.436 1180.02 252.654C1180.38 252.799 1180.65 252.799 1180.82 252.606Z" fill="#EFF4FF"/>
<path d="M1183.28 248.74V250.625C1183.28 250.842 1183.28 251.035 1183.26 251.156L1183.31 251.18C1183.4 251.035 1183.57 250.963 1183.79 250.963C1183.98 250.963 1184.25 251.035 1184.49 251.204C1184.95 251.47 1185.31 251.808 1185.53 252.195C1185.77 252.581 1185.89 253.065 1185.89 253.596V256.423L1185.31 256.084V253.258C1185.31 252.895 1185.26 252.606 1185.12 252.34C1184.97 252.074 1184.75 251.857 1184.46 251.688C1184.05 251.446 1183.76 251.422 1183.6 251.543C1183.4 251.712 1183.31 252.05 1183.31 252.63V254.901L1182.73 254.562L1182.75 248.378L1183.28 248.74Z" fill="#EFF4FF"/>
<path d="M1190.05 256.35V256.785L1187.44 255.287C1187.46 255.819 1187.56 256.254 1187.77 256.664C1187.99 257.051 1188.28 257.341 1188.67 257.582C1189.08 257.824 1189.49 257.969 1189.88 257.993V258.573C1189.68 258.573 1189.47 258.525 1189.3 258.452C1189.1 258.404 1188.89 258.283 1188.64 258.138C1188.09 257.824 1187.65 257.365 1187.32 256.785C1187 256.181 1186.83 255.553 1186.83 254.853C1186.83 254.152 1187 253.693 1187.29 253.451C1187.58 253.186 1187.99 253.234 1188.5 253.524C1188.98 253.79 1189.37 254.2 1189.63 254.708C1189.92 255.215 1190.05 255.771 1190.05 256.35ZM1187.46 254.756L1189.44 255.916C1189.44 255.481 1189.34 255.118 1189.2 254.804C1189.03 254.466 1188.79 254.224 1188.5 254.055C1188.18 253.886 1187.94 253.838 1187.77 253.983C1187.61 254.104 1187.48 254.369 1187.46 254.756Z" fill="#EFF4FF"/>
<path d="M1192.77 255.988C1192.94 256.084 1193.09 256.181 1193.23 256.302L1193.16 256.882C1192.99 256.737 1192.85 256.64 1192.75 256.592C1192.44 256.423 1192.17 256.399 1191.95 256.568C1191.71 256.713 1191.62 257.002 1191.62 257.437V259.781L1191.04 259.442L1191.06 255.094L1191.54 255.36L1191.59 256.205L1191.62 256.229C1191.76 256.036 1191.93 255.891 1192.12 255.867C1192.32 255.795 1192.53 255.843 1192.77 255.988Z" fill="#EFF4FF"/>
<path d="M1196.93 260.336V260.771L1194.32 259.273C1194.34 259.805 1194.44 260.24 1194.66 260.65C1194.85 261.037 1195.17 261.327 1195.55 261.568C1195.96 261.81 1196.37 261.955 1196.76 261.979V262.559C1196.57 262.559 1196.35 262.511 1196.18 262.438C1196.01 262.39 1195.77 262.269 1195.53 262.124C1194.95 261.786 1194.54 261.351 1194.2 260.771C1193.89 260.167 1193.72 259.539 1193.72 258.839C1193.72 258.138 1193.89 257.679 1194.18 257.437C1194.49 257.196 1194.88 257.22 1195.41 257.51C1195.89 257.776 1196.25 258.186 1196.54 258.694C1196.83 259.201 1196.93 259.757 1196.93 260.336ZM1194.34 258.742L1196.33 259.877C1196.33 259.443 1196.25 259.08 1196.11 258.79C1195.94 258.452 1195.7 258.21 1195.41 258.041C1195.09 257.872 1194.85 257.824 1194.66 257.945C1194.49 258.09 1194.37 258.331 1194.34 258.742Z" fill="#EFF4FF"/>
<path d="M1341.71 456.718C1342.56 457.201 1343.33 458.047 1343.89 459.062C1344.44 460.076 1344.75 461.212 1344.73 462.226C1344.73 463.289 1344.39 464.062 1343.64 464.642C1342.99 465.174 1342.02 465.56 1340.94 465.995C1340.58 466.14 1340.14 466.309 1339.71 466.502C1339.58 466.551 1339.44 466.526 1339.27 466.43C1339.13 466.333 1338.96 466.188 1338.86 465.995C1338.43 465.294 1337.99 464.642 1337.63 464.062C1336.54 462.347 1335.6 460.873 1334.92 459.593C1334.2 458.144 1333.84 456.984 1333.86 455.921C1333.86 454.882 1334.17 454.133 1334.73 453.747C1335.28 453.36 1336.06 453.433 1336.9 453.916C1337.53 454.278 1338.11 454.834 1338.62 455.583C1338.86 455.945 1339.1 456.356 1339.3 456.815C1339.51 456.597 1339.73 456.477 1340 456.38C1340.5 456.235 1341.08 456.356 1341.71 456.718Z" fill="#EFF4FF"/>
<path d="M1359.73 466.334C1360.82 466.962 1361.71 468.508 1361.71 469.764C1361.71 471.02 1360.82 471.527 1359.73 470.899C1359.15 470.561 1358.65 469.981 1358.28 469.329L1354.68 469.619C1354.73 469.861 1354.78 470.102 1354.76 470.32C1354.76 470.561 1354.73 470.754 1354.66 470.924L1358.24 475.344C1358.6 475.103 1359.11 475.127 1359.68 475.441C1360.77 476.069 1361.67 477.615 1361.67 478.872C1361.67 480.128 1360.77 480.635 1359.68 480.007C1358.6 479.379 1357.7 477.833 1357.7 476.577C1357.7 476.383 1357.73 476.214 1357.75 476.069L1354.13 471.6C1353.77 471.793 1353.28 471.745 1352.75 471.455C1351.66 470.827 1350.77 469.305 1350.77 468.025C1350.77 466.768 1351.66 466.261 1352.75 466.889C1353.28 467.203 1353.77 467.735 1354.13 468.339L1357.78 468.049C1357.75 467.855 1357.73 467.662 1357.73 467.469C1357.75 466.213 1358.65 465.705 1359.73 466.334Z" fill="#EFF4FF"/>
<path d="M1382.13 489.356C1382.66 489.67 1383.07 490.395 1383.07 490.999V491.313C1383.07 491.917 1382.63 492.158 1382.13 491.844L1371.04 485.442C1370.51 485.152 1370.1 484.403 1370.1 483.8V483.486C1370.1 482.882 1370.53 482.64 1371.04 482.93L1382.13 489.356Z" fill="#EFF4FF"/>
<path d="M1377.3 476.6C1377.66 476.818 1377.97 477.349 1377.97 477.76V481.335L1379.47 482.205C1379.83 482.422 1380 483.002 1379.76 483.171L1376.91 484.959C1376.84 485.007 1376.72 485.007 1376.62 484.935C1376.52 484.862 1376.4 484.766 1376.33 484.621L1373.5 479.572C1373.26 479.137 1373.46 478.75 1373.79 478.944L1375.29 479.813V476.238C1375.29 475.803 1375.61 475.634 1375.97 475.851L1377.3 476.6Z" fill="#EFF4FF"/>
<path d="M1384.69 532.091C1393.99 537.454 1401.5 550.476 1401.45 561.154L1401.36 593.187C1401.33 603.865 1393.77 608.165 1384.47 602.802L1195.26 493.559C1185.96 488.196 1178.45 475.175 1178.5 464.497L1178.59 432.463C1178.62 421.785 1186.18 417.485 1195.48 422.848L1384.69 532.091Z" fill="#CAD8F2"/>
<path d="M1365.51 552.118L1176.28 442.875C1171.59 440.169 1167.36 439.928 1164.29 441.691L1161.03 443.6C1164.1 441.812 1168.33 442.078 1173.01 444.784L1362.24 554.027C1371.55 559.39 1379.06 572.411 1379.01 583.089L1378.91 615.123C1378.89 620.438 1377.03 624.158 1374.01 625.921L1377.27 624.013C1380.29 622.249 1382.18 618.529 1382.18 613.214L1382.27 581.181C1382.32 570.503 1374.81 557.506 1365.51 552.118Z" fill="#FF8FC2"/>
<path d="M1362.24 554.027C1371.55 559.39 1379.06 572.411 1379.01 583.089L1378.91 615.123C1378.89 625.801 1371.33 630.101 1362.03 624.738L1172.82 515.495C1163.52 510.131 1156.01 497.11 1156.05 486.432L1156.15 454.399C1156.18 443.721 1163.74 439.42 1173.04 444.784L1362.24 554.027Z" fill="#FF4174"/>
<path d="M1178.52 471.769C1182.92 474.306 1187.15 479.596 1189.15 485.636C1191.62 493.053 1189.9 499.092 1185.38 500.228L1185.04 504.648L1181.83 500.228C1180.72 499.962 1179.59 499.503 1178.47 498.851C1174.08 496.314 1169.85 491.023 1167.84 484.984C1165.07 476.625 1167.6 470.006 1173.47 470.175C1175.12 470.223 1176.83 470.803 1178.52 471.769Z" fill="#EFF4FF"/>
<path d="M1271.19 544.074C1273.03 545.137 1274.53 547.722 1274.53 549.848C1274.53 551.974 1273 552.844 1271.17 551.781L1204.61 513.369C1202.78 512.306 1201.28 509.721 1201.28 507.571C1201.28 505.445 1202.8 504.6 1204.64 505.663L1271.19 544.074Z" fill="#EFF4FF"/>
<path d="M1341.42 564.343C1343.26 565.406 1344.75 567.991 1344.75 570.117C1344.75 572.243 1343.23 573.088 1341.4 572.025L1204.71 493.1C1202.87 492.037 1201.38 489.453 1201.38 487.327C1201.38 485.201 1202.9 484.355 1204.73 485.418L1341.42 564.343Z" fill="#FFC21A"/>
<path d="M1596.68 427.245C1605.45 432.318 1612.55 444.59 1612.52 454.688L1612.31 530.666C1612.28 540.74 1605.13 544.822 1596.36 539.749L1474.51 469.401C1465.71 464.327 1458.64 452.055 1458.66 441.957L1458.88 365.979C1458.9 355.881 1466.03 351.823 1474.82 356.896L1596.68 427.245Z" fill="url(#paint5_linear_150_601)"/>
<path d="M1615.98 449.084C1596.1 466.163 1569.91 469.521 1543.21 466.043C1510.84 461.791 1477.87 447.489 1454.72 435.507V437.488C1477.99 449.567 1511.2 463.965 1543.84 468.241C1570.3 471.72 1596.39 468.458 1616.36 451.886C1616.29 450.968 1616.15 450.026 1615.98 449.084Z" fill="#EFF4FF"/>
<path d="M1566.09 461.815C1569.26 463.651 1571.82 468.072 1571.79 471.696C1571.79 475.32 1569.21 476.793 1566.04 474.981C1562.88 473.145 1560.32 468.724 1560.34 465.101C1560.37 461.453 1562.93 459.979 1566.09 461.815Z" fill="#EFF4FF"/>
<path d="M1482.05 384.195C1482.77 384.605 1483.37 385.668 1483.37 386.562C1483.37 387.383 1482.75 387.746 1482.02 387.335L1472.02 381.561C1471.27 381.127 1470.69 380.088 1470.69 379.242C1470.69 378.372 1471.27 377.986 1472.04 378.445L1482.05 384.195Z" fill="#1CE5FF"/>
<path d="M1492.8 384.606C1493.55 385.04 1494.17 386.103 1494.17 386.973C1494.17 387.795 1493.55 388.157 1492.8 387.722L1472.07 375.764C1471.3 375.329 1470.74 374.29 1470.74 373.445C1470.74 372.575 1471.32 372.188 1472.09 372.647L1492.8 384.606Z" fill="#EFF4FF"/>
<g opacity="0.31">
<path opacity="0.31" d="M1657.8 298.941C1667.1 304.304 1674.61 317.325 1674.56 328.003L1674.46 360.037C1674.44 370.715 1666.88 375.015 1657.58 369.652L1468.37 260.409C1459.07 255.046 1451.56 242.024 1451.61 231.346L1451.7 199.313C1451.73 188.635 1459.29 184.335 1468.59 189.698L1657.8 298.941Z" fill="#CAD8F2"/>
</g>
<path d="M1637.58 306.43L1448.34 197.187C1443.66 194.481 1439.43 194.239 1436.36 196.003L1433.1 197.911C1436.17 196.124 1440.4 196.389 1445.08 199.095L1634.31 308.338C1643.61 313.702 1651.13 326.723 1651.08 337.401L1650.98 369.434C1650.96 374.749 1649.1 378.47 1646.08 380.233L1649.34 378.325C1652.36 376.561 1654.24 372.841 1654.24 367.526L1654.34 335.492C1654.39 324.79 1646.88 311.793 1637.58 306.43Z" fill="url(#paint6_linear_150_601)"/>
<path d="M1634.31 308.314C1643.62 313.677 1651.13 326.698 1651.08 337.376L1650.98 369.41C1650.96 380.088 1643.4 384.388 1634.1 379.025L1444.89 269.782C1435.59 264.419 1428.08 251.397 1428.12 240.719L1428.22 208.686C1428.25 198.008 1435.81 193.708 1445.11 199.071L1634.31 308.314Z" fill="#EFF4FF"/>
<path d="M1458.73 222.987C1461.97 224.872 1465.23 227.022 1468.47 229.51C1472.67 232.699 1475.96 238.4 1476.61 243.618C1477.62 251.663 1477.6 259.128 1476.54 265.989C1475.86 270.434 1472.55 272.318 1468.35 270.651C1465.11 269.371 1461.85 267.801 1458.61 265.916C1455.37 264.032 1452.11 261.882 1448.88 259.394C1444.67 256.205 1441.39 250.504 1440.73 245.285C1439.72 237.241 1439.74 229.776 1440.81 222.915C1441.48 218.47 1444.79 216.585 1449 218.252C1452.23 219.533 1455.47 221.127 1458.73 222.987Z" fill="#6098F0"/>
<path d="M1510.16 252.364C1513.4 254.248 1516.66 256.398 1519.9 258.887C1524.1 262.076 1527.39 267.777 1528.04 272.995C1529.06 281.04 1529.03 288.505 1527.97 295.366C1527.29 299.811 1523.98 301.695 1519.78 300.028C1516.54 298.748 1513.28 297.178 1510.04 295.293C1506.81 293.409 1503.55 291.259 1500.31 288.77C1496.1 285.582 1492.82 279.88 1492.17 274.662C1491.15 266.617 1491.18 259.153 1492.24 252.292C1492.92 247.847 1496.23 245.962 1500.43 247.629C1503.69 248.909 1506.93 250.48 1510.16 252.364Z" fill="#FFC21A"/>
<path d="M1567.08 285.001C1570.32 286.886 1573.58 289.036 1576.82 291.524C1581.02 294.713 1584.31 300.414 1584.96 305.632C1585.97 313.677 1585.95 321.142 1584.89 328.003C1584.21 332.448 1580.9 334.332 1576.7 332.665C1573.46 331.385 1570.2 329.815 1566.96 327.93C1563.72 326.046 1560.46 323.896 1557.23 321.408C1553.02 318.219 1549.74 312.517 1549.08 307.299C1548.07 299.255 1548.09 291.79 1549.16 284.929C1549.83 280.484 1553.14 278.599 1557.35 280.266C1560.58 281.547 1563.82 283.117 1567.08 285.001Z" fill="url(#paint7_linear_150_601)"/>
<path d="M1449.96 239.705C1450.83 240.212 1451.53 241.42 1451.53 242.411L1451.51 247.726C1451.51 248.716 1450.81 249.127 1449.94 248.619C1449.07 248.112 1448.37 246.904 1448.37 245.914L1448.39 240.599C1448.39 239.608 1449.12 239.198 1449.96 239.705Z" fill="#EFF4FF"/>
<path d="M1456.73 240.889C1457.6 241.396 1458.3 242.604 1458.3 243.595L1458.27 251.615C1458.27 252.606 1457.57 253.016 1456.7 252.509C1455.83 252.002 1455.13 250.794 1455.13 249.803L1455.16 241.783C1455.16 240.792 1455.86 240.382 1456.73 240.889Z" fill="#EFF4FF"/>
<path d="M1463.49 240.285C1464.36 240.792 1465.06 242 1465.06 242.991L1465.04 255.529C1465.04 256.519 1464.34 256.93 1463.47 256.423C1462.6 255.915 1461.9 254.707 1461.9 253.717L1461.92 241.179C1461.92 240.188 1462.62 239.778 1463.49 240.285Z" fill="#EFF4FF"/>
<path d="M1510.14 263.332C1510.24 263.38 1510.36 263.477 1510.45 263.598L1517.85 271.98C1518.09 272.246 1518.23 272.633 1518.23 272.947L1518.19 287.369C1518.19 287.804 1517.87 287.997 1517.48 287.78L1514.08 285.823C1513.69 285.606 1513.38 285.05 1513.38 284.615L1513.4 277.416C1513.4 276.957 1513.09 276.426 1512.7 276.184L1507.48 273.164C1507.1 272.947 1506.78 273.116 1506.78 273.575L1506.76 280.774C1506.76 281.209 1506.44 281.402 1506.06 281.185L1502.65 279.228C1502.27 279.011 1501.95 278.455 1501.95 277.996L1502 263.573C1502 263.259 1502.17 263.066 1502.41 263.066L1509.85 263.235C1509.95 263.235 1510.04 263.259 1510.14 263.332Z" fill="#EFF4FF"/>
<path d="M1573.68 308.87C1576 310.392 1577.83 313.629 1577.86 316.359C1577.9 319.306 1575.8 320.49 1573.27 319.04L1561.62 312.324C1558.51 310.513 1555.99 306.14 1556.16 302.613C1556.28 299.593 1558.38 298.313 1561.02 299.496C1562.18 297.66 1564.42 297.274 1567.06 298.772C1570.34 300.656 1573.07 304.932 1573.68 308.87ZM1570.83 311.141C1571.09 310.996 1570.9 310.368 1570.54 310.15L1568.85 309.184V305.512C1568.85 305.246 1568.65 304.908 1568.43 304.787L1565.66 303.193C1565.41 303.048 1565.22 303.168 1565.22 303.434V307.106L1563.53 306.14C1563.14 305.922 1562.97 306.333 1563.24 306.792L1566.74 312.832C1566.82 312.977 1566.94 313.097 1567.03 313.146C1567.13 313.218 1567.25 313.218 1567.32 313.17L1570.83 311.141Z" fill="#EFF4FF"/>
<path d="M1634.31 308.314L1598.61 287.707L1598.49 330.25C1598.46 340.759 1605.86 353.587 1615.04 358.877L1648.4 378.131C1650.02 376.102 1650.98 373.155 1651.01 369.386L1651.1 337.352C1651.1 326.699 1643.59 313.677 1634.31 308.314Z" fill="#CAD8F2"/>
<path d="M1664.92 292.273L1627.48 270.652C1622.86 267.994 1618.68 267.728 1615.66 269.492L1611.46 271.932C1614.48 270.168 1618.66 270.434 1623.27 273.092L1660.72 294.713C1669.87 300.004 1677.29 312.832 1677.27 323.365L1677.15 366.39C1677.12 371.608 1675.29 375.281 1672.31 377.02L1676.52 374.58C1679.49 372.841 1681.35 369.169 1681.35 363.95L1681.47 320.925C1681.49 310.392 1674.08 297.564 1664.92 292.273Z" fill="#1AE5FF"/>
<path d="M1660.72 294.713C1669.87 300.004 1677.29 312.832 1677.27 323.365L1677.15 366.39C1677.12 376.899 1669.66 381.151 1660.5 375.86L1623.06 354.239C1613.9 348.948 1606.48 336.12 1606.51 325.611L1606.63 282.586C1606.65 272.053 1614.12 267.801 1623.27 273.091L1660.72 294.713Z" fill="url(#paint8_linear_150_601)"/>
<path d="M1658.71 332.497C1659.61 333.004 1660.31 334.236 1660.31 335.251L1660.28 340.469C1660.28 341.483 1659.56 341.894 1658.69 341.387L1656.64 340.203C1656.2 342.039 1655.48 343.585 1654.53 344.817L1655.98 347.306C1656.61 348.393 1656.61 349.552 1655.98 349.915L1652.75 351.751C1652.43 351.92 1652.02 351.871 1651.61 351.63C1651.2 351.388 1650.79 350.978 1650.48 350.446L1649.03 347.958C1647.48 348.175 1645.76 348.006 1643.95 347.451V349.818C1643.95 350.833 1643.23 351.243 1642.36 350.736L1637.82 348.103C1636.92 347.596 1636.22 346.363 1636.22 345.349V343.005C1634.41 341.459 1632.7 339.672 1631.15 337.666L1629.7 338.488C1629.39 338.657 1628.97 338.609 1628.56 338.367C1628.15 338.125 1627.74 337.715 1627.43 337.183L1624.22 331.627C1623.59 330.54 1623.59 329.38 1624.22 329.018L1625.66 328.196C1624.72 325.877 1624 323.51 1623.59 321.166L1621.53 319.983C1620.64 319.475 1619.94 318.243 1619.94 317.229L1619.96 312.011C1619.96 310.996 1620.69 310.585 1621.56 311.092L1623.61 312.276C1624.05 310.44 1624.77 308.894 1625.71 307.662L1624.26 305.174C1623.64 304.087 1623.64 302.927 1624.26 302.565L1627.5 300.729C1627.82 300.56 1628.23 300.608 1628.64 300.849C1629.05 301.091 1629.46 301.502 1629.77 302.033L1631.22 304.521C1632.77 304.304 1634.48 304.473 1636.29 305.029V302.685C1636.29 301.671 1637.02 301.26 1637.89 301.767L1642.43 304.401C1643.32 304.908 1644.03 306.14 1644.03 307.155V309.498C1645.84 311.044 1647.55 312.856 1649.1 314.837L1650.55 314.016C1650.86 313.847 1651.27 313.895 1651.68 314.136C1652.09 314.378 1652.5 314.789 1652.82 315.32L1656.03 320.877C1656.66 321.964 1656.66 323.123 1656.03 323.486L1654.58 324.307C1655.52 326.626 1656.25 328.994 1656.66 331.337L1658.71 332.497ZM1640.14 335.541C1644.6 338.126 1648.25 336.048 1648.28 330.902C1648.3 325.756 1644.68 319.5 1640.21 316.915C1635.74 314.33 1632.09 316.407 1632.07 321.553C1632.04 326.675 1635.67 332.956 1640.14 335.541Z" fill="#EFF4FF"/>
<path d="M1681.08 609.3C1689.85 614.373 1696.96 626.646 1696.93 636.744L1696.71 712.721C1696.69 722.795 1689.54 726.878 1680.77 721.805L1558.92 651.456C1550.12 646.383 1543.04 634.11 1543.07 624.012L1543.29 548.035C1543.31 537.961 1550.44 533.878 1559.23 538.951L1681.08 609.3Z" fill="#EFF4FF"/>
<path d="M1640.33 655.273L1587.98 625.051C1585.15 623.409 1582.59 623.264 1580.73 624.351L1577.52 626.235C1579.38 625.148 1581.94 625.317 1584.77 626.936L1637.12 657.158C1642.74 660.395 1647.29 668.27 1647.26 674.721C1647.26 677.934 1646.13 680.18 1644.29 681.243L1647.5 679.359C1649.34 678.296 1650.45 676.049 1650.48 672.836C1650.5 666.386 1645.96 658.511 1640.33 655.273Z" fill="#1AE5FF"/>
<path d="M1637.12 657.133C1642.74 660.37 1647.29 668.246 1647.26 674.696C1647.24 681.146 1642.67 683.756 1637.04 680.518L1584.69 650.296C1579.06 647.059 1574.52 639.184 1574.55 632.734C1574.57 626.283 1579.14 623.674 1584.76 626.911L1637.12 657.133Z" fill="url(#paint9_linear_150_601)"/>
<path d="M1596.17 640.828C1596.84 641.214 1597.47 641.721 1598.05 642.35L1597.81 643.002C1597.23 642.398 1596.7 641.963 1596.17 641.649C1595.76 641.407 1595.42 641.311 1595.18 641.407C1594.94 641.48 1594.81 641.697 1594.81 642.06C1594.81 642.325 1594.84 642.567 1594.94 642.809C1595.03 643.05 1595.18 643.268 1595.37 643.533C1595.56 643.799 1595.9 644.137 1596.34 644.572C1597.04 645.273 1597.54 645.877 1597.81 646.36C1598.08 646.867 1598.22 647.374 1598.2 647.93C1598.2 648.631 1597.98 649.017 1597.54 649.162C1597.09 649.283 1596.51 649.162 1595.76 648.703C1594.94 648.22 1594.33 647.761 1593.9 647.278V646.384C1594.16 646.674 1594.48 646.964 1594.81 647.23C1595.15 647.495 1595.47 647.737 1595.8 647.93C1596.34 648.244 1596.72 648.341 1597.01 648.268C1597.28 648.196 1597.42 647.954 1597.42 647.519C1597.42 647.254 1597.38 647.012 1597.28 646.795C1597.18 646.553 1597.01 646.312 1596.8 646.022C1596.55 645.756 1596.22 645.394 1595.78 644.935C1595.13 644.306 1594.69 643.727 1594.4 643.219C1594.14 642.688 1593.99 642.156 1593.99 641.552C1593.99 640.948 1594.19 640.586 1594.6 640.441C1595.01 640.345 1595.52 640.465 1596.17 640.828Z" fill="#EFF4FF"/>
<path d="M1599.5 650.756L1599.53 644.862L1600.27 645.297V651.215L1599.5 650.756Z" fill="#EFF4FF"/>
<path d="M1599.91 644.065L1599.6 643.726C1599.5 643.557 1599.45 643.388 1599.45 643.195C1599.45 643.002 1599.5 642.857 1599.6 642.833L1599.91 642.881L1600.23 643.219C1600.32 643.388 1600.37 643.557 1600.37 643.751C1600.37 643.968 1600.32 644.089 1600.23 644.137L1599.91 644.065Z" fill="#EFF4FF"/>
<path d="M1606.14 648.679V649.235L1605.18 648.8C1605.27 648.969 1605.35 649.186 1605.42 649.428C1605.49 649.67 1605.52 649.911 1605.52 650.153C1605.52 650.732 1605.35 651.095 1605.01 651.264C1604.65 651.385 1604.19 651.312 1603.58 650.95L1603.15 650.636C1602.81 650.66 1602.67 650.805 1602.64 651.119L1602.81 651.578C1602.91 651.723 1603.12 651.892 1603.39 652.037L1604.31 652.568C1604.86 652.883 1605.3 653.269 1605.61 653.728C1605.9 654.163 1606.05 654.646 1606.05 655.153C1606.05 655.806 1605.81 656.168 1605.35 656.24C1604.89 656.337 1604.21 656.12 1603.37 655.612C1602.69 655.226 1602.16 654.767 1601.82 654.26C1601.46 653.752 1601.26 653.245 1601.26 652.713C1601.26 652.351 1601.39 652.109 1601.58 651.965C1601.77 651.82 1602.06 651.795 1602.42 651.916L1602.09 651.409C1601.99 651.216 1601.97 651.022 1601.97 650.853C1601.97 650.612 1602.01 650.467 1602.11 650.37C1602.21 650.249 1602.38 650.201 1602.59 650.177C1602.33 649.911 1602.11 649.573 1601.94 649.162C1601.77 648.751 1601.7 648.365 1601.7 648.003C1601.7 647.35 1601.87 646.94 1602.21 646.771C1602.55 646.601 1603.03 646.722 1603.63 647.085C1603.9 647.254 1604.16 647.423 1604.38 647.616L1606.14 648.679ZM1603.15 652.738C1602.79 652.544 1602.52 652.472 1602.3 652.568C1602.11 652.641 1602.01 652.858 1602.01 653.221C1602.01 653.535 1602.13 653.849 1602.38 654.163C1602.62 654.453 1602.96 654.743 1603.37 654.984C1604.02 655.371 1604.5 655.516 1604.82 655.492C1605.13 655.443 1605.3 655.226 1605.3 654.839C1605.3 654.525 1605.2 654.26 1605.03 654.042C1604.86 653.825 1604.55 653.559 1604.07 653.293L1603.15 652.738ZM1603.61 650.37C1604.38 650.805 1604.74 650.612 1604.74 649.742C1604.74 648.848 1604.36 648.196 1603.58 647.737C1603.22 647.544 1602.93 647.495 1602.74 647.592C1602.54 647.713 1602.42 647.978 1602.42 648.413C1602.42 648.848 1602.52 649.21 1602.74 649.525C1602.96 649.887 1603.25 650.153 1603.61 650.37Z" fill="#EFF4FF"/>
<path d="M1609.62 650.587C1610.25 650.95 1610.71 651.361 1611 651.892C1611.31 652.424 1611.48 653.052 1611.48 653.801V657.666L1610.69 657.207V653.39C1610.69 652.907 1610.59 652.496 1610.42 652.158C1610.23 651.795 1609.94 651.505 1609.53 651.264C1609 650.95 1608.58 650.901 1608.34 651.095C1608.1 651.288 1607.98 651.771 1607.96 652.52V655.612L1607.16 655.153L1607.18 649.259L1607.81 649.621L1607.93 650.491L1607.98 650.515C1608.13 650.322 1608.37 650.225 1608.66 650.225C1608.95 650.273 1609.28 650.394 1609.62 650.587Z" fill="#EFF4FF"/>
<path d="M1620.88 655.201L1620.86 660.299C1620.86 661.192 1620.62 661.772 1620.16 662.014C1619.67 662.28 1619.02 662.135 1618.2 661.651C1617.38 661.168 1616.73 660.54 1616.29 659.767C1615.86 658.994 1615.61 658.148 1615.61 657.255L1615.64 652.157L1616.44 652.616L1616.41 657.762C1616.41 658.414 1616.56 659.018 1616.87 659.55C1617.18 660.081 1617.64 660.516 1618.25 660.878C1618.83 661.217 1619.26 661.289 1619.58 661.12C1619.89 660.951 1620.06 660.516 1620.06 659.864L1620.08 654.718L1620.88 655.201Z" fill="#EFF4FF"/>
<path d="M1626.56 661.169C1626.92 661.918 1627.11 662.763 1627.11 663.73C1627.11 664.696 1626.92 665.348 1626.53 665.662C1626.17 666.001 1625.64 665.952 1624.96 665.59C1624.63 665.397 1624.31 665.155 1624.05 664.841C1623.78 664.527 1623.54 664.189 1623.35 663.778L1623.27 663.754C1623.32 664.116 1623.32 664.454 1623.32 664.769V667.209L1622.55 666.774L1622.57 658.222L1623.2 658.584L1623.3 659.454L1623.32 659.478C1623.51 659.285 1623.76 659.188 1624.02 659.188C1624.31 659.212 1624.6 659.309 1624.94 659.502C1625.66 659.84 1626.17 660.42 1626.56 661.169ZM1625.91 664.744C1626.15 664.455 1626.29 663.971 1626.29 663.247C1626.29 662.522 1626.15 661.87 1625.91 661.338C1625.66 660.807 1625.3 660.396 1624.84 660.13C1624.31 659.816 1623.95 659.792 1623.71 659.985C1623.47 660.179 1623.35 660.637 1623.35 661.386V661.58C1623.35 662.401 1623.47 663.077 1623.68 663.561C1623.92 664.068 1624.31 664.479 1624.84 664.769C1625.3 665.034 1625.66 665.01 1625.91 664.744Z" fill="#EFF4FF"/>
<path d="M1668.86 622.419C1676.49 626.815 1682.65 637.493 1682.61 646.239C1682.58 655.008 1676.37 658.535 1668.76 654.138L1573.48 599.13C1565.85 594.733 1559.69 584.055 1559.71 575.31C1559.74 566.541 1565.95 563.014 1573.56 567.411L1668.86 622.419Z" fill="#D1DCE7"/>
<path d="M1583.36 587.583L1581.46 592.246C1581.26 592.705 1581.05 592.994 1580.8 593.067C1580.54 593.164 1580.22 593.115 1579.89 592.898C1579.69 592.777 1579.47 592.632 1579.28 592.463V591.859C1579.43 591.98 1579.6 592.101 1579.76 592.197C1580.22 592.463 1580.56 592.342 1580.73 591.883L1580.97 591.303L1579.21 585.191L1579.91 585.602L1580.88 589.057C1581.09 589.83 1581.21 590.385 1581.26 590.699L1581.31 590.724C1581.33 590.603 1581.41 590.361 1581.53 590.047C1581.65 589.733 1581.99 588.767 1582.62 587.172L1583.36 587.583Z" fill="#89939A"/>
<path d="M1587.33 590.482C1587.69 591.159 1587.86 591.883 1587.86 592.705C1587.86 593.526 1587.69 594.082 1587.3 594.323C1586.94 594.589 1586.43 594.517 1585.8 594.154C1585.42 593.937 1585.06 593.623 1584.77 593.236C1584.48 592.85 1584.23 592.415 1584.06 591.907C1583.92 591.424 1583.82 590.917 1583.82 590.386C1583.82 589.564 1584.02 589.033 1584.38 588.767C1584.74 588.501 1585.25 588.574 1585.88 588.936C1586.48 589.274 1586.99 589.806 1587.33 590.482ZM1586.84 593.599C1587.06 593.381 1587.18 592.97 1587.18 592.318C1587.18 591.666 1587.06 591.11 1586.84 590.651C1586.6 590.192 1586.26 589.83 1585.85 589.564C1585.39 589.298 1585.08 589.274 1584.86 589.492C1584.62 589.685 1584.52 590.12 1584.52 590.772C1584.52 591.4 1584.62 591.98 1584.86 592.439C1585.08 592.898 1585.42 593.285 1585.85 593.526C1586.29 593.768 1586.63 593.792 1586.84 593.599Z" fill="#89939A"/>
<path d="M1592.69 592.946L1592.66 598.019L1592.11 597.705L1592.01 596.956L1591.96 596.932C1591.82 597.101 1591.65 597.198 1591.38 597.198C1591.14 597.198 1590.88 597.101 1590.56 596.932C1590.03 596.618 1589.62 596.256 1589.36 595.797C1589.09 595.362 1588.94 594.806 1588.97 594.154V590.844L1589.64 591.231V594.516C1589.64 594.951 1589.72 595.289 1589.89 595.579C1590.03 595.869 1590.3 596.135 1590.64 596.328C1591.09 596.594 1591.43 596.642 1591.65 596.473C1591.87 596.304 1591.96 595.893 1591.96 595.241V592.583L1592.69 592.946Z" fill="#89939A"/>
<path d="M1596.1 594.83C1596.29 594.951 1596.46 595.072 1596.63 595.193L1596.53 595.845C1596.34 595.7 1596.17 595.579 1596.05 595.482C1595.69 595.289 1595.4 595.265 1595.13 595.482C1594.89 595.652 1594.74 596.014 1594.74 596.497V599.203L1594.09 598.816L1594.12 593.743L1594.67 594.057L1594.74 595.048L1594.77 595.072C1594.94 594.854 1595.13 594.685 1595.35 594.637C1595.56 594.613 1595.83 594.685 1596.1 594.83Z" fill="#89939A"/>
<path d="M1600.93 599.88V600.387L1597.91 598.647C1597.93 599.251 1598.05 599.783 1598.29 600.218C1598.54 600.653 1598.9 601.015 1599.33 601.281C1599.82 601.546 1600.27 601.716 1600.73 601.764V602.44C1600.49 602.44 1600.27 602.392 1600.08 602.295C1599.86 602.223 1599.62 602.126 1599.31 601.933C1598.66 601.571 1598.15 601.039 1597.79 600.363C1597.4 599.686 1597.23 598.962 1597.23 598.14C1597.23 597.319 1597.4 596.787 1597.76 596.522C1598.12 596.256 1598.58 596.256 1599.16 596.594C1599.72 596.908 1600.15 597.367 1600.47 597.971C1600.76 598.575 1600.93 599.227 1600.93 599.88ZM1597.91 598.019L1600.2 599.348C1600.2 598.841 1600.11 598.454 1599.94 598.068C1599.74 597.705 1599.48 597.415 1599.14 597.222C1598.78 597.029 1598.51 597.005 1598.29 597.15C1598.08 597.295 1597.96 597.56 1597.91 598.019Z" fill="#89939A"/>
<path d="M1606.85 601.039C1607.35 601.329 1607.72 601.691 1607.98 602.126C1608.22 602.561 1608.34 603.092 1608.34 603.769V607.054L1607.69 606.668V603.382C1607.69 602.971 1607.62 602.633 1607.47 602.343C1607.33 602.053 1607.09 601.812 1606.77 601.643C1606.36 601.401 1606.05 601.377 1605.86 601.522C1605.66 601.667 1605.57 602.054 1605.57 602.609V605.436L1604.91 605.049V601.764C1604.91 601.353 1604.84 601.015 1604.7 600.725C1604.55 600.435 1604.31 600.193 1603.99 600.024C1603.56 599.783 1603.27 599.759 1603.08 599.903C1602.88 600.073 1602.79 600.507 1602.79 601.16V603.817L1602.13 603.431L1602.16 598.357L1602.69 598.671L1602.79 599.42L1602.81 599.444C1602.93 599.275 1603.13 599.203 1603.34 599.179C1603.58 599.179 1603.83 599.251 1604.12 599.42C1604.79 599.807 1605.25 600.362 1605.44 601.063L1605.47 601.087C1605.61 600.894 1605.78 600.797 1606.05 600.773C1606.24 600.773 1606.53 600.87 1606.85 601.039Z" fill="#89939A"/>
<path d="M1612.55 604.735C1612.79 605.146 1612.91 605.653 1612.91 606.233V609.688L1612.43 609.398L1612.31 608.6L1612.28 608.576C1612.04 608.77 1611.82 608.842 1611.6 608.842C1611.39 608.842 1611.12 608.745 1610.78 608.552C1610.35 608.311 1610.01 607.972 1609.77 607.586C1609.5 607.175 1609.41 606.74 1609.41 606.281C1609.41 605.242 1610.13 605.122 1611.53 605.895L1612.28 606.305V605.991C1612.28 605.581 1612.21 605.267 1612.06 604.977C1611.92 604.711 1611.68 604.469 1611.36 604.276C1611 604.059 1610.57 603.962 1610.11 603.938L1609.91 603.237C1610.13 603.237 1610.37 603.237 1610.61 603.334C1610.88 603.406 1611.12 603.527 1611.39 603.672C1611.89 603.962 1612.28 604.324 1612.55 604.735ZM1612.23 607.272V606.813L1611.58 606.474C1611.05 606.185 1610.66 606.064 1610.45 606.088C1610.2 606.112 1610.08 606.305 1610.08 606.668C1610.08 606.958 1610.16 607.199 1610.3 607.441C1610.45 607.658 1610.66 607.852 1610.93 608.021C1611.34 608.262 1611.68 608.335 1611.89 608.19C1612.11 608.045 1612.23 607.755 1612.23 607.272Z" fill="#89939A"/>
<path d="M1614.26 610.485L1614.29 605.412L1614.96 605.823L1614.94 610.872L1614.26 610.485Z" fill="#89939A"/>
<path d="M1614.62 604.759L1614.36 604.493L1614.24 604.034L1614.36 603.696L1614.62 603.745L1614.91 604.034L1615.04 604.493L1614.91 604.807L1614.62 604.759Z" fill="#89939A"/>
<path d="M1617.04 604.904L1617.02 612.079L1616.34 611.693L1616.36 604.518L1617.04 604.904Z" fill="#89939A"/>
<path d="M1624.29 611.113C1624.53 611.765 1624.65 612.418 1624.65 613.094C1624.65 613.529 1624.58 613.891 1624.48 614.205C1624.36 614.495 1624.19 614.664 1623.97 614.737C1623.76 614.809 1623.51 614.761 1623.22 614.616C1622.98 614.471 1622.81 614.302 1622.64 614.06C1622.48 613.795 1622.38 613.529 1622.35 613.263L1622.33 613.239C1622.23 613.432 1622.07 613.577 1621.87 613.601C1621.68 613.65 1621.44 613.577 1621.17 613.432C1620.76 613.191 1620.45 612.852 1620.2 612.393C1619.99 611.959 1619.87 611.451 1619.87 610.92C1619.87 610.292 1620.04 609.881 1620.35 609.664C1620.66 609.47 1621.1 609.495 1621.61 609.784C1621.8 609.881 1621.99 610.05 1622.23 610.219C1622.48 610.388 1622.67 610.557 1622.86 610.727L1622.77 612.828V612.925C1622.77 613.481 1622.93 613.843 1623.3 614.036C1623.54 614.181 1623.76 614.133 1623.9 613.891C1624.05 613.65 1624.14 613.263 1624.14 612.732C1624.14 612.176 1624.05 611.62 1623.85 611.113C1623.66 610.582 1623.37 610.074 1623.01 609.639C1622.64 609.205 1622.21 608.842 1621.75 608.577C1621.15 608.238 1620.64 608.069 1620.18 608.093C1619.75 608.117 1619.41 608.335 1619.17 608.746C1618.92 609.132 1618.8 609.664 1618.8 610.364C1618.8 611.306 1619.02 612.152 1619.46 612.901C1619.89 613.674 1620.49 614.278 1621.32 614.737C1621.87 615.051 1622.45 615.244 1623.06 615.365V615.969C1622.55 615.945 1621.97 615.727 1621.32 615.341C1620.35 614.785 1619.6 614.036 1619.05 613.118C1618.51 612.2 1618.25 611.186 1618.25 610.074C1618.25 609.277 1618.39 608.649 1618.68 608.19C1618.97 607.731 1619.38 607.489 1619.91 607.465C1620.45 607.417 1621.05 607.61 1621.73 607.997C1622.31 608.335 1622.81 608.746 1623.27 609.301C1623.68 609.881 1624.02 610.461 1624.29 611.113ZM1622.19 612.031L1622.26 610.871C1622.07 610.678 1621.85 610.533 1621.63 610.388C1621.27 610.195 1621 610.171 1620.81 610.34C1620.62 610.509 1620.52 610.823 1620.52 611.331C1620.52 612.104 1620.78 612.659 1621.29 612.949C1621.82 613.263 1622.14 612.949 1622.19 612.031Z" fill="#89939A"/>
<path d="M1629.26 614.085L1627.36 618.747C1627.16 619.206 1626.95 619.496 1626.68 619.569C1626.44 619.665 1626.12 619.617 1625.76 619.424C1625.57 619.303 1625.35 619.158 1625.16 618.989V618.385C1625.3 618.506 1625.47 618.626 1625.64 618.723C1626.1 618.989 1626.44 618.868 1626.61 618.409L1626.85 617.829L1625.08 611.717L1625.79 612.128L1626.75 615.582C1626.97 616.356 1627.09 616.911 1627.14 617.225L1627.16 617.249C1627.21 617.129 1627.28 616.887 1627.4 616.597C1627.52 616.283 1627.86 615.317 1628.49 613.722L1629.26 614.085Z" fill="#89939A"/>
<path d="M1634.77 617.152C1635.26 617.442 1635.64 617.804 1635.91 618.239C1636.15 618.674 1636.27 619.205 1636.27 619.882V623.167L1635.62 622.781V619.495C1635.62 619.085 1635.55 618.746 1635.4 618.456C1635.26 618.167 1635.01 617.925 1634.7 617.756C1634.29 617.514 1633.98 617.49 1633.78 617.635C1633.59 617.78 1633.49 618.167 1633.49 618.722V621.549L1632.84 621.162V617.877C1632.84 617.466 1632.77 617.128 1632.62 616.838C1632.48 616.548 1632.24 616.306 1631.92 616.137C1631.51 615.896 1631.2 615.872 1631 616.041C1630.81 616.21 1630.71 616.645 1630.71 617.297V619.954L1630.06 619.568L1630.09 614.495L1630.62 614.809L1630.71 615.557L1630.74 615.582C1630.86 615.413 1631.05 615.34 1631.27 615.316C1631.49 615.292 1631.75 615.388 1632.02 615.533C1632.72 615.944 1633.15 616.476 1633.37 617.176L1633.4 617.2C1633.54 617.007 1633.71 616.91 1633.98 616.886C1634.17 616.886 1634.46 616.983 1634.77 617.152Z" fill="#89939A"/>
<path d="M1640.45 620.849C1640.69 621.26 1640.81 621.767 1640.81 622.347V625.802L1640.33 625.512L1640.21 624.715L1640.18 624.69C1639.94 624.884 1639.73 624.956 1639.51 624.956C1639.29 624.956 1639.02 624.86 1638.69 624.666C1638.25 624.425 1637.91 624.086 1637.67 623.7C1637.41 623.289 1637.31 622.854 1637.31 622.395C1637.31 621.357 1638.03 621.236 1639.44 622.009L1640.18 622.42V622.105C1640.18 621.695 1640.11 621.381 1639.97 621.091C1639.82 620.825 1639.58 620.583 1639.27 620.39C1638.9 620.173 1638.47 620.076 1638.01 620.052L1637.82 619.351C1638.03 619.351 1638.28 619.351 1638.52 619.448C1638.78 619.521 1639.02 619.641 1639.29 619.786C1639.82 620.1 1640.18 620.439 1640.45 620.849ZM1640.16 623.386V622.927L1639.51 622.589C1638.98 622.299 1638.59 622.178 1638.37 622.202C1638.13 622.226 1638.01 622.419 1638.01 622.782C1638.01 623.072 1638.06 623.313 1638.23 623.555C1638.37 623.772 1638.59 623.966 1638.86 624.135C1639.27 624.376 1639.6 624.449 1639.82 624.304C1640.04 624.159 1640.16 623.869 1640.16 623.386Z" fill="#89939A"/>
<path d="M1642.19 626.623V621.55L1642.87 621.936L1642.84 626.985L1642.19 626.623Z" fill="#89939A"/>
<path d="M1642.55 620.897L1642.26 620.607L1642.17 620.148L1642.26 619.834L1642.55 619.858L1642.82 620.148L1642.94 620.607L1642.82 620.921L1642.55 620.897Z" fill="#89939A"/>
<path d="M1644.94 621.017V628.192L1644.27 627.806L1644.29 620.631L1644.94 621.017Z" fill="#89939A"/>
<path d="M1646.73 628.12L1647.09 628.482C1647.19 628.652 1647.21 628.797 1647.21 629.014C1647.21 629.207 1647.19 629.352 1647.09 629.401L1646.73 629.352L1646.39 629.014C1646.32 628.869 1646.27 628.7 1646.27 628.458C1646.27 628.241 1646.3 628.12 1646.39 628.072L1646.73 628.12Z" fill="#89939A"/>
<path d="M1650.35 626.164C1650.55 626.284 1650.77 626.429 1650.98 626.598C1651.2 626.792 1651.35 626.937 1651.47 627.082L1651.27 627.613C1651.13 627.444 1650.96 627.299 1650.79 627.154C1650.6 627.009 1650.45 626.888 1650.33 626.816C1649.44 626.308 1648.98 626.695 1648.98 627.999C1648.98 628.628 1649.07 629.159 1649.29 629.618C1649.51 630.077 1649.82 630.415 1650.26 630.681C1650.62 630.898 1651.01 631.019 1651.39 631.068V631.744C1651.1 631.744 1650.74 631.623 1650.28 631.358C1649.65 630.995 1649.15 630.488 1648.81 629.836C1648.45 629.159 1648.28 628.434 1648.3 627.613C1648.3 626.767 1648.47 626.212 1648.86 625.946C1649.2 625.729 1649.7 625.777 1650.35 626.164Z" fill="#89939A"/>
<path d="M1655.72 629.981C1656.08 630.657 1656.25 631.382 1656.25 632.203C1656.25 633.025 1656.06 633.556 1655.69 633.822C1655.33 634.063 1654.82 634.015 1654.2 633.653C1653.79 633.411 1653.45 633.121 1653.16 632.735C1652.84 632.348 1652.63 631.913 1652.46 631.406C1652.29 630.923 1652.21 630.416 1652.21 629.884C1652.21 629.063 1652.38 628.507 1652.77 628.265C1653.13 628 1653.62 628.072 1654.27 628.435C1654.87 628.773 1655.36 629.28 1655.72 629.981ZM1655.23 633.073C1655.48 632.88 1655.57 632.445 1655.57 631.793C1655.57 631.14 1655.48 630.585 1655.23 630.126C1654.99 629.667 1654.68 629.304 1654.24 629.039C1653.81 628.797 1653.5 628.773 1653.25 628.966C1653.04 629.159 1652.92 629.594 1652.92 630.246C1652.92 630.875 1653.01 631.454 1653.23 631.913C1653.47 632.372 1653.79 632.759 1654.22 633C1654.65 633.266 1654.99 633.266 1655.23 633.073Z" fill="#89939A"/>
<path d="M1662.22 633C1662.7 633.29 1663.09 633.652 1663.33 634.087C1663.59 634.546 1663.71 635.078 1663.71 635.73V639.015L1663.04 638.629V635.343C1663.04 634.933 1662.99 634.595 1662.82 634.305C1662.68 634.015 1662.43 633.773 1662.12 633.604C1661.71 633.362 1661.39 633.338 1661.2 633.483C1661.01 633.628 1660.91 634.015 1660.91 634.57V637.397L1660.24 637.01V633.725C1660.24 633.314 1660.19 632.976 1660.02 632.686C1659.87 632.396 1659.63 632.155 1659.32 631.985C1658.91 631.744 1658.59 631.72 1658.4 631.889C1658.21 632.058 1658.11 632.493 1658.11 633.145V635.802L1657.46 635.416L1657.48 630.343L1658.01 630.657L1658.11 631.406L1658.13 631.43C1658.25 631.261 1658.45 631.188 1658.66 631.164C1658.91 631.164 1659.15 631.237 1659.44 631.406C1660.14 631.816 1660.57 632.348 1660.79 633.048L1660.81 633.073C1660.94 632.879 1661.13 632.783 1661.39 632.758C1661.61 632.734 1661.9 632.831 1662.22 633Z" fill="#89939A"/>
<path d="M1712.13 400.865C1728.7 410.431 1742.11 433.623 1742.04 452.66L1741.67 583.815C1741.62 602.875 1728.14 610.558 1711.57 600.967C1695 591.4 1681.62 568.209 1681.66 549.148L1682.03 417.993C1682.07 398.981 1695.56 391.298 1712.13 400.865Z" fill="url(#paint10_linear_150_601)"/>
<path d="M1710.92 426.617C1713.92 428.357 1716.91 430.362 1719.91 432.633C1723.8 435.58 1726.82 440.847 1727.42 445.654C1728.36 453.095 1728.34 459.98 1727.37 466.309C1726.74 470.416 1723.67 472.156 1719.81 470.634C1716.81 469.45 1713.82 468 1710.82 466.261C1707.83 464.522 1704.83 462.516 1701.84 460.246C1697.95 457.298 1694.93 452.032 1694.32 447.224C1693.38 439.784 1693.4 432.899 1694.37 426.569C1695 422.462 1698.07 420.723 1701.93 422.245C1704.93 423.453 1707.92 424.902 1710.92 426.617Z" fill="#EFF4FF"/>
<path d="M1710.92 482.109C1713.92 483.848 1716.91 485.853 1719.91 488.124C1723.8 491.071 1726.82 496.338 1727.42 501.145C1728.36 508.586 1728.34 515.471 1727.37 521.8C1726.74 525.907 1723.67 527.647 1719.81 526.125C1716.81 524.941 1713.82 523.491 1710.82 521.752C1707.83 520.013 1704.83 518.008 1701.84 515.737C1697.95 512.789 1694.93 507.523 1694.32 502.715C1693.38 495.275 1693.4 488.39 1694.37 482.06C1695 477.953 1698.07 476.214 1701.93 477.736C1704.93 478.92 1707.92 480.393 1710.92 482.109Z" fill="#EFF4FF"/>
<path d="M1710.92 537.6C1713.92 539.339 1716.91 541.344 1719.91 543.615C1723.8 546.563 1726.82 551.829 1727.42 556.637C1728.36 564.077 1728.34 570.962 1727.37 577.292C1726.74 581.399 1723.67 583.138 1719.81 581.616C1716.81 580.432 1713.82 578.983 1710.82 577.244C1707.83 575.504 1704.83 573.499 1701.84 571.228C1697.95 568.281 1694.93 563.014 1694.32 558.207C1693.38 550.766 1693.4 543.881 1694.37 537.552C1695 533.445 1698.07 531.705 1701.93 533.227C1704.93 534.411 1707.92 535.861 1710.92 537.6Z" fill="#EFF4FF"/>
<path d="M1710.87 439.3C1714.45 441.378 1718.02 445.002 1720.75 449.713C1721.28 450.606 1721.28 451.597 1720.75 451.887C1720.49 452.032 1720.15 451.983 1719.81 451.79C1719.47 451.597 1719.13 451.235 1718.87 450.8C1716.67 447.007 1713.79 444.06 1710.9 442.393C1708 440.726 1705.1 440.315 1702.9 441.571C1702.63 441.716 1702.3 441.668 1701.96 441.475C1701.62 441.281 1701.28 440.919 1701.01 440.484C1700.48 439.59 1700.48 438.6 1701.01 438.31C1703.72 436.74 1707.3 437.247 1710.87 439.3Z" fill="#6098F0"/>
<path d="M1710.92 450.872C1711.6 451.258 1712.27 451.959 1712.78 452.853C1713.82 454.64 1713.82 456.573 1712.76 457.153C1712.25 457.443 1711.55 457.346 1710.87 456.96C1710.2 456.573 1709.52 455.872 1709.01 454.979C1707.97 453.191 1707.97 451.258 1709.04 450.678C1709.54 450.389 1710.22 450.485 1710.92 450.872Z" fill="#6098F0"/>
<path d="M1710.87 445.485C1713.07 446.766 1715.27 448.988 1716.94 451.887C1717.47 452.781 1717.47 453.771 1716.94 454.061C1716.67 454.206 1716.33 454.158 1715.99 453.965C1715.65 453.771 1715.32 453.409 1715.05 452.974C1713.92 450.993 1712.39 449.447 1710.87 448.577C1709.35 447.708 1707.85 447.49 1706.69 448.143C1706.43 448.288 1706.09 448.239 1705.75 448.046C1705.41 447.853 1705.07 447.49 1704.81 447.055C1704.28 446.162 1704.28 445.171 1704.81 444.881C1706.45 443.915 1708.65 444.229 1710.87 445.485Z" fill="#6098F0"/>
<path d="M1715.53 498.778C1716.93 499.575 1718.07 501.556 1718.07 503.174L1718.05 511.678C1718.05 513.297 1716.89 513.949 1715.48 513.128L1705.05 507.088C1703.65 506.291 1702.51 504.31 1702.51 502.691L1702.54 494.188C1702.54 492.569 1703.7 491.917 1705.1 492.738L1705.99 493.27L1707.3 491.917C1707.39 491.82 1707.56 491.82 1707.73 491.917L1712.9 494.888C1713.07 494.985 1713.24 495.178 1713.33 495.42L1714.61 498.27L1715.53 498.778ZM1710.27 507.209C1712.34 508.417 1714.04 507.45 1714.04 505.059C1714.04 502.667 1712.37 499.768 1710.29 498.584C1708.21 497.376 1706.52 498.343 1706.52 500.734C1706.52 503.102 1708.21 506.001 1710.27 507.209Z" fill="#6098F0"/>
<path d="M1709.49 551.491C1711.02 552.36 1712.22 554.559 1712.1 556.25C1712.01 557.651 1710.97 558.231 1709.71 557.627C1709.64 557.603 1709.57 557.554 1709.49 557.506C1707.97 556.636 1706.76 554.462 1706.89 552.747C1706.98 551.346 1708.02 550.766 1709.28 551.37C1709.35 551.394 1709.42 551.442 1709.49 551.491Z" fill="#6098F0"/>
<path d="M1716.33 558.448C1716.38 558.883 1717.27 567.314 1709.47 569.44C1701.69 558.328 1702.63 550.959 1702.68 550.573C1702.71 546.249 1705.77 544.485 1709.54 546.659C1713.29 548.809 1716.33 554.1 1716.33 558.448ZM1714.42 557.796C1714.66 554.583 1712.37 550.452 1709.52 548.809C1709.37 548.737 1709.25 548.664 1709.11 548.592C1706.72 547.408 1704.76 548.544 1704.57 551.177C1704.32 554.39 1706.62 558.521 1709.47 560.164C1709.62 560.236 1709.74 560.309 1709.88 560.381C1712.27 561.565 1714.23 560.453 1714.42 557.796Z" fill="#6098F0"/>
<path d="M1452.55 536.44C1454.6 537.624 1456.24 540.475 1456.22 542.818L1456.12 581.061C1456.12 583.404 1454.46 584.37 1452.43 583.186C1450.37 582.003 1448.73 579.152 1448.73 576.809L1448.83 538.566C1448.85 536.199 1450.52 535.257 1452.55 536.44Z" fill="#6098F0"/>
<path d="M1471.61 563.521C1473.66 564.705 1475.31 567.556 1475.31 569.899L1475.23 592.076C1475.23 594.42 1473.57 595.362 1471.51 594.202C1469.46 593.019 1467.82 590.168 1467.82 587.825L1467.89 565.647C1467.91 563.28 1469.56 562.338 1471.61 563.521Z" fill="#6098F0"/>
<path d="M1490.81 533.711C1492.87 534.894 1494.51 537.745 1494.51 540.088L1494.34 603.093C1494.34 605.436 1492.67 606.378 1490.62 605.219C1488.59 604.035 1486.93 601.184 1486.95 598.841L1487.12 535.837C1487.12 533.493 1488.79 532.527 1490.81 533.711Z" fill="#6098F0"/>
<path d="M1509.97 528.468C1512.03 529.652 1513.67 532.503 1513.64 534.846L1513.43 614.133C1513.43 616.476 1511.76 617.443 1509.73 616.259C1507.68 615.075 1506.03 612.225 1506.03 609.881L1506.25 530.594C1506.28 528.227 1507.94 527.285 1509.97 528.468Z" fill="#FF4174"/>
<path d="M1573.53 692.599L1436.65 613.577C1433.27 611.62 1430.2 611.451 1427.98 612.732L1425.61 614.109C1427.83 612.828 1430.88 612.998 1434.29 614.954L1571.14 693.976C1577.86 697.865 1583.29 707.263 1583.27 714.993L1583.2 738.161C1583.2 742.002 1581.82 744.708 1579.64 745.964L1582.01 744.587C1584.19 743.307 1585.56 740.625 1585.56 736.784L1585.64 713.616C1585.68 705.886 1580.25 696.464 1573.53 692.599Z" fill="url(#paint11_linear_150_601)"/>
<path d="M1571.17 693.951C1577.88 697.841 1583.32 707.238 1583.29 714.969L1583.22 738.137C1583.2 745.867 1577.74 748.984 1571 745.094L1434.14 666.073C1427.42 662.183 1421.99 652.786 1422.01 645.055L1422.09 621.888C1422.11 614.157 1427.57 611.041 1434.31 614.93L1571.17 693.951Z" fill="#EFF4FF"/>
<path d="M1440.95 638.846L1444.26 651.602L1442.11 650.369L1441.44 647.398L1438.01 645.417L1437.33 647.591L1435.18 646.359L1438.54 637.445L1440.95 638.846ZM1438.51 643.774L1440.98 645.2C1440.35 642.518 1440.01 640.972 1439.91 640.634C1439.82 640.271 1439.77 640.006 1439.74 639.812C1439.6 640.344 1439.19 641.672 1438.51 643.774Z" fill="#343434"/>
<path d="M1448.39 645.562C1449.21 646.045 1449.96 646.649 1450.64 647.422L1450.06 648.824C1449.75 648.51 1449.46 648.22 1449.19 647.978C1448.92 647.736 1448.66 647.543 1448.39 647.374C1447.35 646.77 1446.85 647.326 1446.85 648.993C1446.85 650.611 1447.35 651.723 1448.39 652.302C1448.76 652.52 1449.12 652.665 1449.43 652.713C1449.75 652.786 1450.08 652.786 1450.4 652.713V654.646C1450.08 654.694 1449.77 654.67 1449.43 654.573C1449.12 654.477 1448.68 654.283 1448.2 653.993C1445.95 652.713 1444.87 650.635 1444.87 647.833C1444.87 646.432 1445.18 645.538 1445.78 645.152C1446.39 644.789 1447.26 644.91 1448.39 645.562Z" fill="#343434"/>
<path d="M1454.26 647.326V649.089L1456.27 650.249V651.94L1454.26 650.78V654.766C1454.26 655.08 1454.34 655.37 1454.48 655.588C1454.63 655.829 1454.84 656.023 1455.11 656.167C1455.45 656.361 1455.86 656.53 1456.34 656.626V658.293C1455.86 658.269 1455.25 658.052 1454.53 657.641C1453.76 657.206 1453.18 656.626 1452.81 655.95C1452.45 655.274 1452.28 654.525 1452.31 653.607V649.621L1451.36 649.089V648.123L1452.45 648.002L1453.01 646.577L1454.26 647.326Z" fill="#343434"/>
<path d="M1457.77 659.381L1457.79 651.143L1459.75 652.278L1459.72 660.516L1457.77 659.381Z" fill="#343434"/>
<path d="M1458.78 650.684C1458.08 650.273 1457.72 649.693 1457.72 648.944C1457.72 648.219 1458.08 648.05 1458.78 648.461C1459.48 648.872 1459.84 649.451 1459.84 650.176C1459.84 650.539 1459.75 650.732 1459.58 650.828C1459.38 650.925 1459.12 650.877 1458.78 650.684Z" fill="#343434"/>
<path d="M1468.25 657.183L1465.5 663.851L1463.47 662.691L1460.76 652.883L1462.82 654.067L1464.19 659.575C1464.34 660.251 1464.43 660.879 1464.46 661.411L1464.51 661.435C1464.53 660.976 1464.63 660.468 1464.8 659.913L1466.17 655.999L1468.25 657.183Z" fill="#343434"/>
<path d="M1470.26 657.327C1469.56 656.916 1469.19 656.337 1469.19 655.588C1469.19 654.863 1469.56 654.694 1470.26 655.105C1470.96 655.515 1471.34 656.095 1471.34 656.82C1471.34 657.182 1471.25 657.375 1471.05 657.472C1470.88 657.569 1470.62 657.52 1470.26 657.327Z" fill="#343434"/>
<path d="M1469.27 666.024L1469.29 657.786L1471.25 658.922L1471.22 667.16L1469.27 666.024Z" fill="#343434"/>
<path d="M1475.47 659.574V661.338L1477.48 662.497V664.188L1475.47 663.029V667.015C1475.47 667.329 1475.55 667.619 1475.69 667.836C1475.84 668.078 1476.05 668.271 1476.32 668.416C1476.66 668.609 1477.07 668.778 1477.55 668.875V670.542C1477.07 670.518 1476.46 670.3 1475.74 669.89C1474.97 669.455 1474.39 668.875 1474.02 668.199C1473.66 667.522 1473.49 666.773 1473.52 665.855V661.869L1472.58 661.338V660.371L1473.66 660.251L1474.22 658.825L1475.47 659.574Z" fill="#343434"/>
<path d="M1478.98 671.629L1479 663.392L1480.96 664.527L1480.93 672.765L1478.98 671.629Z" fill="#343434"/>
<path d="M1479.99 662.932C1479.29 662.521 1478.93 661.941 1478.93 661.192C1478.93 660.467 1479.29 660.298 1479.99 660.709C1480.69 661.12 1481.05 661.699 1481.05 662.424C1481.05 662.787 1480.96 662.98 1480.79 663.077C1480.62 663.173 1480.35 663.149 1479.99 662.932Z" fill="#343434"/>
<path d="M1489.2 672.861V673.948L1484.56 671.266C1484.58 671.919 1484.75 672.499 1485.04 673.054C1485.36 673.586 1485.79 674.021 1486.35 674.335C1486.78 674.576 1487.19 674.769 1487.58 674.89C1487.96 675.011 1488.38 675.084 1488.79 675.084V676.847C1488.45 676.847 1488.09 676.775 1487.7 676.63C1487.29 676.509 1486.83 676.291 1486.27 675.953C1485.11 675.277 1484.22 674.407 1483.57 673.296C1482.92 672.184 1482.6 670.952 1482.6 669.624C1482.6 668.247 1482.92 667.329 1483.52 666.942C1484.12 666.532 1484.97 666.628 1486.01 667.232C1487.02 667.812 1487.82 668.609 1488.38 669.6C1488.91 670.638 1489.2 671.701 1489.2 672.861ZM1484.61 669.817L1487.36 671.411C1487.34 670.832 1487.22 670.348 1486.97 669.889C1486.73 669.455 1486.39 669.092 1485.98 668.851C1485.57 668.609 1485.23 668.585 1485.02 668.754C1484.78 668.923 1484.63 669.285 1484.61 669.817Z" fill="#343434"/>
<path d="M1493.21 671.435C1494.08 671.943 1494.9 672.619 1495.72 673.537L1495.14 674.817C1494.78 674.431 1494.44 674.093 1494.15 673.803C1493.83 673.489 1493.52 673.271 1493.18 673.078C1492.6 672.74 1492.31 672.74 1492.31 673.102C1492.31 673.32 1492.41 673.537 1492.58 673.803C1492.75 674.069 1493.18 674.528 1493.81 675.18C1494.37 675.76 1494.78 676.243 1495.04 676.629C1495.31 677.016 1495.48 677.378 1495.62 677.741C1495.74 678.103 1495.82 678.514 1495.82 678.9C1495.82 679.746 1495.57 680.253 1495.04 680.398C1494.51 680.543 1493.76 680.326 1492.75 679.746C1492.22 679.432 1491.78 679.142 1491.39 678.852C1491.03 678.538 1490.69 678.224 1490.36 677.91V676.05C1490.72 676.46 1491.13 676.847 1491.59 677.233C1492.05 677.644 1492.43 677.934 1492.8 678.151C1493.5 678.562 1493.86 678.514 1493.86 678.055L1493.71 677.523C1493.62 677.354 1493.45 677.137 1493.23 676.871C1492.99 676.605 1492.7 676.267 1492.31 675.832C1491.76 675.252 1491.35 674.793 1491.1 674.407C1490.84 674.02 1490.67 673.658 1490.55 673.295C1490.43 672.933 1490.36 672.522 1490.36 672.112C1490.36 671.363 1490.6 670.952 1491.1 670.831C1491.59 670.686 1492.29 670.904 1493.21 671.435Z" fill="#343434"/>
<path d="M1563.6 708.687C1567.59 710.983 1570.8 716.563 1570.8 721.153C1570.8 725.743 1567.54 727.579 1563.56 725.284L1526.45 703.856C1522.46 701.561 1519.25 695.98 1519.25 691.39C1519.27 686.8 1522.51 684.964 1526.5 687.259L1563.6 708.687Z" fill="#FFC21A"/>
<path d="M1536.09 697.526C1536.72 697.889 1537.25 698.324 1537.71 698.831L1537.42 699.338C1536.98 698.855 1536.55 698.469 1536.09 698.227C1535.44 697.865 1534.93 697.816 1534.57 698.082C1534.2 698.372 1534.01 698.928 1534.01 699.773C1534.01 700.667 1534.18 701.44 1534.54 702.141C1534.9 702.817 1535.41 703.373 1536.06 703.759C1536.47 704.001 1536.93 704.17 1537.46 704.315V705.015C1537.05 704.967 1536.55 704.75 1535.97 704.411C1535.1 703.904 1534.42 703.228 1533.96 702.358C1533.48 701.488 1533.26 700.474 1533.26 699.387C1533.26 698.686 1533.38 698.13 1533.6 697.768C1533.84 697.381 1534.15 697.14 1534.59 697.14C1535 697.043 1535.51 697.212 1536.09 697.526Z" fill="#EFF4FF"/>
<path d="M1539.32 699.073V701.247C1539.32 701.513 1539.3 701.706 1539.3 701.875L1539.35 701.899C1539.47 701.73 1539.66 701.633 1539.9 701.633C1540.15 701.657 1540.44 701.73 1540.75 701.923C1541.28 702.237 1541.69 702.6 1541.96 703.059C1542.22 703.494 1542.37 704.025 1542.34 704.701V707.987L1541.69 707.6V704.315C1541.69 703.904 1541.62 703.542 1541.45 703.252C1541.31 702.962 1541.04 702.72 1540.68 702.503C1540.22 702.237 1539.88 702.189 1539.66 702.358C1539.44 702.527 1539.35 702.938 1539.32 703.59V706.248L1538.67 705.861L1538.7 698.686L1539.32 699.073Z" fill="#EFF4FF"/>
<path d="M1547.15 707.89V708.397L1544.13 706.658C1544.16 707.262 1544.28 707.794 1544.52 708.228C1544.76 708.663 1545.12 709.026 1545.56 709.291C1546.04 709.557 1546.5 709.726 1546.96 709.774V710.451C1546.72 710.451 1546.5 710.403 1546.31 710.306C1546.09 710.233 1545.85 710.137 1545.56 709.968C1544.9 709.581 1544.4 709.05 1544.01 708.397C1543.62 707.721 1543.46 706.996 1543.46 706.175C1543.46 705.354 1543.62 704.822 1543.99 704.556C1544.35 704.291 1544.81 704.291 1545.39 704.629C1545.94 704.943 1546.38 705.402 1546.69 706.006C1547.01 706.586 1547.15 707.214 1547.15 707.89ZM1544.16 706.03L1546.45 707.359C1546.45 706.851 1546.35 706.441 1546.18 706.078C1545.99 705.716 1545.73 705.426 1545.39 705.233C1545.03 705.039 1544.76 705.015 1544.54 705.16C1544.3 705.281 1544.18 705.571 1544.16 706.03Z" fill="#EFF4FF"/>
<path d="M1550.12 707.31C1550.34 707.431 1550.53 707.576 1550.75 707.745C1550.97 707.939 1551.14 708.083 1551.23 708.228L1551.04 708.76C1550.9 708.615 1550.73 708.446 1550.56 708.301C1550.39 708.156 1550.24 708.035 1550.1 707.963C1549.2 707.455 1548.75 707.842 1548.75 709.146C1548.75 709.775 1548.84 710.306 1549.06 710.765C1549.28 711.224 1549.59 711.562 1550.03 711.828C1550.39 712.045 1550.78 712.166 1551.16 712.215V712.891C1550.87 712.891 1550.51 712.77 1550.05 712.504C1549.42 712.142 1548.91 711.635 1548.58 710.982C1548.24 710.33 1548.05 709.581 1548.07 708.76C1548.07 707.914 1548.26 707.359 1548.63 707.093C1548.96 706.876 1549.47 706.948 1550.12 707.31Z" fill="#EFF4FF"/>
<path d="M1552.9 706.899V710.692C1552.9 710.861 1552.88 711.127 1552.85 711.465L1552.9 711.489C1553 711.368 1553.19 711.199 1553.43 711.054L1554.86 710.136L1555.66 710.595L1553.87 711.731L1555.75 715.741L1554.96 715.282L1553.41 711.997L1552.93 712.214V714.123L1552.27 713.736L1552.3 706.561L1552.9 706.899Z" fill="#EFF4FF"/>
<path d="M1721.77 326.385C1724.93 328.221 1727.49 332.642 1727.47 336.266C1727.47 339.889 1724.88 341.363 1721.72 339.551C1718.55 337.715 1715.99 333.294 1716.02 329.671C1716.04 326.023 1718.6 324.549 1721.77 326.385Z" fill="#FF4174"/>
<path d="M1121.75 245.648C1124.91 247.484 1127.48 251.905 1127.45 255.529C1127.45 259.152 1124.87 260.626 1121.7 258.814C1118.54 256.978 1115.98 252.557 1116 248.933C1116.02 245.285 1118.59 243.812 1121.75 245.648Z" fill="#FFC21A"/>
<path d="M1330.11 126.741C1333.28 128.577 1335.84 132.998 1335.82 136.622C1335.79 140.246 1333.23 141.72 1330.07 139.908C1326.9 138.072 1324.34 133.651 1324.36 130.027C1324.39 126.379 1326.97 124.905 1330.11 126.741Z" fill="#00A5FF"/>
<path d="M1720.12 380.04C1721.48 380.813 1722.56 382.721 1722.56 384.267C1722.56 385.813 1721.45 386.442 1720.1 385.669C1718.75 384.895 1717.66 382.987 1717.66 381.441C1717.66 379.895 1718.77 379.267 1720.12 380.04Z" fill="#FF4174"/>
<path d="M1345.91 159.355C1347.27 160.128 1348.35 162.037 1348.35 163.583C1348.35 165.129 1347.24 165.757 1345.89 164.984C1344.54 164.211 1343.45 162.303 1343.45 160.756C1343.47 159.21 1344.56 158.582 1345.91 159.355Z" fill="#FFC21A"/>
<path d="M1747.4 666.652C1748.75 667.426 1749.84 669.334 1749.84 670.88C1749.84 672.426 1748.73 673.054 1747.37 672.281C1746.02 671.508 1744.93 669.6 1744.93 668.054C1744.93 666.483 1746.04 665.855 1747.4 666.652Z" fill="#00A5FF"/>
<path d="M1753.7 345.687C1759.57 349.069 1764.33 357.307 1764.31 364.047C1764.28 370.787 1759.5 373.517 1753.63 370.135C1747.76 366.753 1743 358.515 1743.03 351.775C1743.05 345.035 1747.83 342.305 1753.7 345.687Z" fill="#FFC21A"/>
</g>
<defs>
<linearGradient id="paint0_linear_150_601" x1="1172.33" y1="448.323" x2="1652.15" y2="448.323" gradientUnits="userSpaceOnUse">
<stop stop-color="#A3AEEB"/>
<stop offset="1" stop-color="#A3BBE8"/>
</linearGradient>
<linearGradient id="paint1_linear_150_601" x1="1156.05" y1="354.162" x2="1401.47" y2="354.162" gradientUnits="userSpaceOnUse">
<stop stop-color="#0070E0"/>
<stop offset="1" stop-color="#00A5FF"/>
</linearGradient>
<radialGradient id="paint2_radial_150_601" cx="0" cy="0" r="1" gradientUnits="userSpaceOnUse" gradientTransform="translate(1216.8 316.869) scale(74.263)">
<stop stop-color="#F8F9F9"/>
<stop offset="0.1461" stop-color="#F1F2F2"/>
<stop offset="0.3608" stop-color="#DDDEDF"/>
<stop offset="0.6177" stop-color="#BDBEBF"/>
<stop offset="0.9049" stop-color="#909193"/>
<stop offset="1" stop-color="#808183"/>
</radialGradient>
<radialGradient id="paint3_radial_150_601" cx="0" cy="0" r="1" gradientUnits="userSpaceOnUse" gradientTransform="translate(1271.07 372.535) scale(51.2518)">
<stop stop-color="#F8F9F9"/>
<stop offset="0.1461" stop-color="#F1F2F2"/>
<stop offset="0.3608" stop-color="#DDDEDF"/>
<stop offset="0.6177" stop-color="#BDBEBF"/>
<stop offset="0.9049" stop-color="#909193"/>
<stop offset="1" stop-color="#808183"/>
</radialGradient>
<linearGradient id="paint4_linear_150_601" x1="1341.82" y1="343.81" x2="1411.82" y2="343.81" gradientUnits="userSpaceOnUse">
<stop stop-color="#A3AEEB"/>
<stop offset="1" stop-color="#A3BBE8"/>
</linearGradient>
<linearGradient id="paint5_linear_150_601" x1="1630.75" y1="581.236" x2="1432.74" y2="304.683" gradientUnits="userSpaceOnUse">
<stop stop-color="#0070E0"/>
<stop offset="1" stop-color="#8B68FF"/>
</linearGradient>
<linearGradient id="paint6_linear_150_601" x1="1433.11" y1="287.528" x2="1654.35" y2="287.528" gradientUnits="userSpaceOnUse">
<stop stop-color="#A3AEEB"/>
<stop offset="1" stop-color="#A3BBE8"/>
</linearGradient>
<linearGradient id="paint7_linear_150_601" x1="1547.8" y1="266.853" x2="1587.89" y2="349.492" gradientUnits="userSpaceOnUse">
<stop stop-color="#FF63AA"/>
<stop offset="1" stop-color="#FF4174"/>
</linearGradient>
<linearGradient id="paint8_linear_150_601" x1="1606.5" y1="324.489" x2="1677.25" y2="324.489" gradientUnits="userSpaceOnUse">
<stop stop-color="#0070E0"/>
<stop offset="1" stop-color="#00A5FF"/>
</linearGradient>
<linearGradient id="paint9_linear_150_601" x1="1574.54" y1="653.724" x2="1647.25" y2="653.724" gradientUnits="userSpaceOnUse">
<stop stop-color="#0070E0"/>
<stop offset="1" stop-color="#00A5FF"/>
</linearGradient>
<linearGradient id="paint10_linear_150_601" x1="1683.97" y1="386.551" x2="1741.85" y2="624.003" gradientUnits="userSpaceOnUse">
<stop stop-color="#0070E0"/>
<stop offset="1" stop-color="#8B68FF"/>
</linearGradient>
<linearGradient id="paint11_linear_150_601" x1="1425.63" y1="678.924" x2="1585.66" y2="678.924" gradientUnits="userSpaceOnUse">
<stop stop-color="#A3AEEB"/>
<stop offset="1" stop-color="#A3BBE8"/>
</linearGradient>
</defs>
</svg>
