<svg width="1779" height="931" viewBox="0 0 1779 931" fill="none" xmlns="http://www.w3.org/2000/svg">
<g filter="url(#filter0_d_5_5724)">
<rect x="178.333" y="32.334" width="1413.33" height="858.667" rx="32" fill="white"/>
</g>
<g filter="url(#filter1_d_5_5724)">
<rect x="210.333" y="133.667" width="208" height="725.333" rx="16" fill="white"/>
</g>
<rect x="1261" y="134" width="85.3333" height="85.3333" rx="10.6667" fill="#0059F7"/>
<rect x="1367.67" y="133.667" width="85.3333" height="85.3333" rx="10.6667" fill="#0059F7"/>
<rect x="1474.33" y="133.667" width="85.3333" height="85.3333" rx="10.6667" fill="#0059F7"/>
<rect opacity="0.2" x="293" y="587.001" width="42.6667" height="42.6667" rx="21.3333" fill="#4E5A85"/>
<rect opacity="0.2" x="293" y="672.334" width="42.6667" height="42.6667" rx="21.3333" fill="#4E5A85"/>
<rect opacity="0.2" x="293" y="757.667" width="42.6667" height="42.6667" rx="21.3333" fill="#4E5A85"/>
<g clip-path="url(#clip0_5_5724)">
<path d="M330.333 181.667C330.805 181.667 331.257 181.855 331.591 182.188C331.924 182.521 332.111 182.974 332.111 183.445V193.223C330.932 193.223 329.802 193.691 328.969 194.525C328.135 195.358 327.667 196.488 327.667 197.667C327.667 198.846 328.135 199.976 328.969 200.81C329.802 201.643 330.932 202.112 332.111 202.112V211.889C332.111 212.361 331.924 212.813 331.591 213.147C331.257 213.48 330.805 213.667 330.333 213.667H298.333C297.862 213.667 297.41 213.48 297.076 213.147C296.743 212.813 296.556 212.361 296.556 211.889V202.112C297.734 202.112 298.865 201.643 299.698 200.81C300.532 199.976 301 198.846 301 197.667C301 196.488 300.532 195.358 299.698 194.525C298.865 193.691 297.734 193.223 296.556 193.223V183.445C296.556 182.974 296.743 182.521 297.076 182.188C297.41 181.855 297.862 181.667 298.333 181.667H330.333ZM321.445 192.334H307.222V203.001H321.445V192.334Z" fill="white"/>
</g>
<g clip-path="url(#clip1_5_5724)">
<path d="M1533 158.556C1506.33 158.556 1502.78 183.445 1501 194.112H1504.55C1505.74 188.186 1508.7 184.928 1513.44 184.334C1520.56 183.445 1525.89 177.223 1527.67 171.889L1525 170.112L1526.78 168.334C1528.56 166.556 1530.34 163.889 1533 158.556Z" fill="white"/>
</g>
<g clip-path="url(#clip2_5_5724)">
<path d="M1410.33 194.112C1400.51 194.112 1392.56 186.153 1392.56 176.334C1392.56 166.515 1400.51 158.556 1410.33 158.556C1420.15 158.556 1428.11 166.515 1428.11 176.334C1428.11 186.153 1420.15 194.112 1410.33 194.112ZM1412.11 176.334V167.445H1408.56V179.889H1419.22V176.334H1412.11Z" fill="white"/>
</g>
<g filter="url(#filter2_bii_5_5724)">
<path fill-rule="evenodd" clip-rule="evenodd" d="M210.333 32.334C192.66 32.334 178.333 46.6609 178.333 64.334V101.667H1591.67V64.334C1591.67 46.6609 1577.34 32.334 1559.67 32.334H210.333Z" fill="#0059F7"/>
</g>
<path d="M1444.33 68.8631C1444.88 68.8631 1445.35 68.4087 1445.35 67.8691V56.7929L1445.26 55.0888L1445.86 55.742L1447.42 57.4319C1447.61 57.6307 1447.87 57.7301 1448.11 57.7301C1448.65 57.7301 1449.05 57.3609 1449.05 56.8497C1449.05 56.5657 1448.93 56.3669 1448.73 56.1823L1445.07 52.6748C1444.81 52.4192 1444.6 52.334 1444.33 52.334C1444.07 52.334 1443.86 52.4192 1443.59 52.6748L1439.92 56.1823C1439.73 56.3669 1439.62 56.5657 1439.62 56.8497C1439.62 57.3609 1440 57.7301 1440.54 57.7301C1440.79 57.7301 1441.06 57.6307 1441.24 57.4319L1442.8 55.742L1443.4 55.0888L1443.32 56.7929V67.8691C1443.32 68.4087 1443.79 68.8631 1444.33 68.8631ZM1437.96 77.6673H1450.71C1453.14 77.6673 1454.33 76.4745 1454.33 74.0888V63.1688C1454.33 60.7832 1453.14 59.5903 1450.71 59.5903H1447.65V61.6494H1450.68C1451.69 61.6494 1452.29 62.2032 1452.29 63.2682V73.9894C1452.29 75.0687 1451.69 75.6083 1450.68 75.6083H1437.99C1436.96 75.6083 1436.38 75.0687 1436.38 73.9894V63.2682C1436.38 62.2032 1436.96 61.6494 1437.99 61.6494H1441.01V59.5903H1437.96C1435.54 59.5903 1434.33 60.7832 1434.33 63.1688V74.0888C1434.33 76.4745 1435.54 77.6673 1437.96 77.6673Z" fill="white"/>
<path d="M1498.36 75.8542C1498.98 75.8542 1499.5 75.3535 1499.5 74.7241V67.5001H1506.55C1507.17 67.5001 1507.7 66.9708 1507.7 66.3414C1507.7 65.7119 1507.17 65.1826 1506.55 65.1826H1499.5V57.9443C1499.5 57.3149 1498.98 56.8142 1498.36 56.8142C1497.73 56.8142 1497.2 57.3149 1497.2 57.9443V65.1826H1490.16C1489.53 65.1826 1489 65.7119 1489 66.3414C1489 66.9708 1489.53 67.5001 1490.16 67.5001H1497.2V74.7241C1497.2 75.3535 1497.73 75.8542 1498.36 75.8542Z" fill="white"/>
<path d="M1544.57 72.7204H1546.31V74.4559C1546.31 76.7883 1547.47 77.9406 1549.85 77.9406H1560.76C1563.12 77.9406 1564.3 76.7883 1564.3 74.4559V63.4323C1564.3 61.0999 1563.12 59.9475 1560.76 59.9475H1559.02V58.2121C1559.02 55.8796 1557.84 54.7273 1555.48 54.7273H1544.57C1542.2 54.7273 1541.03 55.8796 1541.03 58.2121V69.2356C1541.03 71.5681 1542.2 72.7204 1544.57 72.7204ZM1544.6 70.7212C1543.6 70.7212 1543.03 70.1797 1543.03 69.1246V58.3231C1543.03 57.268 1543.6 56.7265 1544.6 56.7265H1555.45C1556.45 56.7265 1557.02 57.268 1557.02 58.3231V59.9475H1549.85C1547.47 59.9475 1546.31 61.0999 1546.31 63.4323V70.7212H1544.6ZM1549.87 75.9414C1548.87 75.9414 1548.3 75.3999 1548.3 74.3448V63.5434C1548.3 62.4882 1548.87 61.9467 1549.87 61.9467H1560.73C1561.73 61.9467 1562.3 62.4882 1562.3 63.5434V74.3448C1562.3 75.3999 1561.73 75.9414 1560.73 75.9414H1549.87Z" fill="white"/>
<path d="M659.666 78.3339C659.822 78.3339 660.104 78.2772 660.415 78.107C666.755 74.6176 669 73.0289 669 68.8304V60.2914C669 59.1282 668.449 58.7736 667.574 58.3906C666.43 57.8942 661.756 56.2346 660.612 55.8375C660.316 55.7382 659.991 55.6672 659.666 55.6672C659.342 55.6672 659.003 55.7665 658.72 55.8375C657.577 56.1211 652.903 57.9084 651.759 58.3906C650.884 58.7594 650.333 59.1282 650.333 60.2914V68.8304C650.333 73.0289 652.578 74.6034 658.918 78.107C659.229 78.2772 659.511 78.3339 659.666 78.3339ZM660.048 57.7949C661.841 58.5183 664.848 59.5821 666.698 60.2062C666.938 60.2914 666.981 60.419 666.981 60.6743V68.3339C666.981 71.7807 665.47 72.6885 660.372 75.7523C660.019 75.9651 659.85 76.0077 659.68 76.0077V57.724C659.779 57.724 659.906 57.7382 660.048 57.7949Z" fill="white"/>
<g opacity="0.2">
<rect x="693" y="48.334" width="480" height="37.3333" rx="6.66667" fill="#F7F9FF"/>
<path d="M1156.99 60.334L1160.11 63.449L1156.99 66.5639M1163.67 69.1597C1163.67 72.6003 1160.88 75.3895 1157.44 75.3895C1154 75.3895 1151.21 72.6003 1151.21 69.1597C1151.21 65.719 1154 62.9298 1157.44 62.9298C1158.16 62.9298 1158.99 62.9298 1160.03 63.4489" stroke="#98A6C7" stroke-width="1.33333" stroke-linecap="round" stroke-linejoin="round"/>
</g>
<path d="M872.09 76.3355H880.508C881.687 76.3355 882.265 75.7572 882.265 74.4784V68.0065C882.265 66.8723 881.798 66.2829 880.864 66.1717V63.9699C880.864 60.5561 878.573 58.9993 876.304 58.9993C874.025 58.9993 871.745 60.5561 871.745 63.9699V66.2051C870.867 66.3719 870.333 66.9501 870.333 68.0065V74.4784C870.333 75.7572 870.922 76.3355 872.09 76.3355ZM873.58 63.7698C873.58 61.7793 874.848 60.7562 876.304 60.7562C877.75 60.7562 879.029 61.7793 879.029 63.7698V66.1495L873.58 66.1606V63.7698Z" fill="white"/>
<path d="M896.344 74.498C898.778 74.498 900.345 72.584 900.345 69.5397C900.345 66.5046 898.769 64.5905 896.353 64.5905C894.995 64.5905 893.901 65.265 893.327 66.377H893.282V61.1816H891.313V74.334H893.227V72.7025H893.263C893.856 73.8145 894.94 74.498 896.344 74.498ZM895.815 66.2493C897.365 66.2493 898.322 67.5254 898.322 69.5397C898.322 71.5723 897.365 72.8301 895.815 72.8301C894.321 72.8301 893.272 71.5358 893.272 69.5397C893.272 67.5618 894.321 66.2493 895.815 66.2493ZM901.713 67.4616C901.713 68.8014 902.588 69.7038 904.319 70.123L906.033 70.5423C907.035 70.7975 907.4 71.1348 907.4 71.7454C907.4 72.5202 906.671 73.0124 905.486 73.0124C904.283 73.0124 903.572 72.502 903.417 71.5814H901.466C901.621 73.3405 903.125 74.5163 905.395 74.5163C907.746 74.5163 909.378 73.3132 909.378 71.5632C909.378 70.1504 908.649 69.4212 906.716 68.9564L905.103 68.5827C904.11 68.3366 903.636 67.9355 903.636 67.3431C903.636 66.5866 904.347 66.0671 905.413 66.0671C906.516 66.0671 907.218 66.6048 907.309 67.4707H909.159C909.095 65.7663 907.601 64.5723 905.468 64.5723C903.226 64.5723 901.713 65.748 901.713 67.4616ZM910.982 74.334H912.951V68.7923C912.951 67.2793 913.844 66.2767 915.302 66.2767C916.688 66.2767 917.399 67.1243 917.399 68.5371V74.334H919.377V68.1543C919.377 65.985 918.119 64.5814 916.013 64.5814C914.555 64.5814 913.507 65.2285 912.978 66.3496H912.933V61.1816H910.982V74.334ZM921.345 74.334H923.314V64.7454H921.345V74.334ZM922.33 63.3418C922.968 63.3418 923.478 62.8405 923.478 62.2207C923.478 61.5918 922.968 61.0905 922.33 61.0905C921.701 61.0905 921.19 61.5918 921.19 62.2207C921.19 62.8405 921.701 63.3418 922.33 63.3418ZM929.339 66.1582C930.715 66.1582 931.645 67.1882 931.69 68.6556H926.896C926.996 67.2064 927.963 66.1582 929.339 66.1582ZM931.681 71.5176C931.417 72.3561 930.588 72.9212 929.466 72.9212C927.89 72.9212 926.887 71.8184 926.887 70.1504V70.0319H933.659V69.3574C933.659 66.4499 932 64.5723 929.339 64.5723C926.632 64.5723 924.9 66.5775 924.9 69.5853C924.9 72.6113 926.604 74.5163 929.421 74.5163C931.618 74.5163 933.276 73.2676 933.55 71.5176H931.681ZM935.263 74.334H937.232V61.1816H935.263V74.334ZM942.856 74.498C944.25 74.498 945.344 73.7962 945.909 72.7025H945.946V74.334H947.86V61.1816H945.882V66.3405H945.845C945.308 65.2832 944.214 64.5905 942.838 64.5905C940.431 64.5905 938.827 66.5137 938.827 69.5397C938.827 72.5658 940.431 74.498 942.856 74.498ZM943.375 66.2493C944.888 66.2493 945.9 67.5527 945.9 69.5397C945.9 71.5449 944.888 72.8301 943.375 72.8301C941.817 72.8301 940.841 71.5632 940.841 69.5397C940.841 67.5254 941.817 66.2493 943.375 66.2493ZM951.36 74.4342C952.025 74.4342 952.554 73.9056 952.554 73.2402C952.554 72.5749 952.025 72.0462 951.36 72.0462C950.694 72.0462 950.166 72.5749 950.166 73.2402C950.166 73.9056 950.694 74.4342 951.36 74.4342ZM954.851 74.334H956.819V64.7454H954.851V74.334ZM955.835 63.3418C956.473 63.3418 956.983 62.8405 956.983 62.2207C956.983 61.5918 956.473 61.0905 955.835 61.0905C955.206 61.0905 954.696 61.5918 954.696 62.2207C954.696 62.8405 955.206 63.3418 955.835 63.3418ZM962.953 74.5163C965.697 74.5163 967.502 72.6296 967.502 69.5397C967.502 66.459 965.688 64.5723 962.953 64.5723C960.219 64.5723 958.405 66.459 958.405 69.5397C958.405 72.6296 960.21 74.5163 962.953 74.5163ZM962.953 72.8939C961.413 72.8939 960.41 71.6725 960.41 69.5397C960.41 67.416 961.413 66.1947 962.953 66.1947C964.494 66.1947 965.496 67.416 965.496 69.5397C965.496 71.6725 964.503 72.8939 962.953 72.8939Z" fill="white"/>
<path fill-rule="evenodd" clip-rule="evenodd" d="M213 75.0007C217.418 75.0007 221 71.419 221 67.0007C221 62.5825 217.418 59.0007 213 59.0007C208.581 59.0007 205 62.5825 205 67.0007C205 71.419 208.581 75.0007 213 75.0007Z" fill="#FF5F57"/>
<path fill-rule="evenodd" clip-rule="evenodd" d="M239.666 75.0007C244.084 75.0007 247.666 71.419 247.666 67.0007C247.666 62.5825 244.084 59.0007 239.666 59.0007C235.248 59.0007 231.666 62.5825 231.666 67.0007C231.666 71.419 235.248 75.0007 239.666 75.0007Z" fill="#FFBD2E"/>
<path fill-rule="evenodd" clip-rule="evenodd" d="M266.333 75.0007C270.751 75.0007 274.333 71.419 274.333 67.0007C274.333 62.5825 270.751 59.0007 266.333 59.0007C261.915 59.0007 258.333 62.5825 258.333 67.0007C258.333 71.419 261.915 75.0007 266.333 75.0007Z" fill="#28CA42"/>
<path d="M313.831 76.334H332.281C334.627 76.334 335.779 75.1817 335.779 72.8772V59.7908C335.779 57.4863 334.627 56.334 332.281 56.334H313.831C311.499 56.334 310.333 57.4863 310.333 59.7908V72.8772C310.333 75.1817 311.499 76.334 313.831 76.334ZM313.858 74.345C312.871 74.345 312.308 73.8237 312.308 72.7812V59.8868C312.308 58.858 312.871 58.323 313.858 58.323H318.632V74.345H313.858ZM332.253 58.323C333.241 58.323 333.803 58.858 333.803 59.8868V72.7812C333.803 73.8237 333.241 74.345 332.253 74.345H320.566V58.323H332.253ZM316.561 62.3011C316.931 62.3011 317.247 61.9719 317.247 61.6152C317.247 61.2585 316.931 60.9568 316.561 60.9568H314.407C314.05 60.9568 313.735 61.2585 313.735 61.6152C313.735 61.9719 314.05 62.3011 314.407 62.3011H316.561ZM316.561 65.0446C316.931 65.0446 317.247 64.729 317.247 64.3587C317.247 64.002 316.931 63.7002 316.561 63.7002H314.407C314.05 63.7002 313.735 64.002 313.735 64.3587C313.735 64.729 314.05 65.0446 314.407 65.0446H316.561ZM316.561 67.788C316.931 67.788 317.247 67.4725 317.247 67.1159C317.247 66.7592 316.931 66.4575 316.561 66.4575H314.407C314.05 66.4575 313.735 66.7592 313.735 67.1159C313.735 67.4725 314.05 67.788 314.407 67.788H316.561Z" fill="white"/>
<path d="M383 58.334L374.333 67.0007L383 75.6673" stroke="white" stroke-width="2" stroke-linecap="round" stroke-linejoin="round"/>
<path d="M419.666 75.6672L428.333 67.0006L419.666 58.3339" stroke="white" stroke-width="2" stroke-linecap="round" stroke-linejoin="round"/>
<rect x="451.666" y="135.001" width="754.667" height="82.6667" rx="14.6667" stroke="#E6E6E6" stroke-width="2.66667"/>
<path d="M497.952 169.452C501.219 172.72 501.219 178.018 497.952 181.286C494.684 184.554 489.385 184.554 486.117 181.286C482.85 178.018 482.85 172.72 486.117 169.452C489.385 166.184 494.684 166.184 497.952 169.452" stroke="#E5E5E5" stroke-width="2.66667" stroke-linecap="round" stroke-linejoin="round"/>
<path d="M502.333 185.667L497.947 181.281" stroke="#E5E5E5" stroke-width="2.66667" stroke-linecap="round" stroke-linejoin="round"/>
<path d="M531.073 180.199C531.25 182.855 533.458 184.584 536.646 184.584C540.104 184.584 542.271 182.865 542.271 180.115C542.271 177.959 541.01 176.761 537.896 175.98L536.323 175.563C534.281 175.032 533.448 174.355 533.448 173.219C533.448 171.751 534.802 170.74 536.75 170.74C538.708 170.74 540.01 171.73 540.177 173.344H542.052C541.968 170.824 539.802 169.053 536.812 169.053C533.687 169.053 531.5 170.803 531.5 173.303C531.5 175.344 532.729 176.563 535.5 177.271L537.427 177.771C539.448 178.292 540.333 179.074 540.333 180.344C540.333 181.824 538.854 182.896 536.823 182.896C534.677 182.896 533.135 181.824 532.958 180.199H531.073ZM548.307 174.886C550.016 174.886 551.151 176.178 551.193 177.99H545.307C545.422 176.188 546.609 174.886 548.307 174.886ZM551.151 181.23C550.849 182.251 549.838 182.949 548.463 182.949C546.516 182.949 545.297 181.584 545.297 179.511V179.407H553.068V178.719C553.068 175.438 551.266 173.313 548.338 173.313C545.349 173.313 543.432 175.594 543.432 178.959C543.432 182.365 545.318 184.521 548.422 184.521C550.786 184.521 552.62 183.126 552.932 181.23H551.151ZM558.261 182.98C556.958 182.98 556.094 182.303 556.094 181.271C556.094 180.251 556.927 179.605 558.386 179.511L561.281 179.334V180.219C561.281 181.782 559.969 182.98 558.261 182.98ZM557.854 184.521C559.313 184.521 560.688 183.709 561.333 182.469H561.375V184.334H563.094V176.844C563.094 174.688 561.49 173.313 558.948 173.313C556.386 173.313 554.781 174.751 554.656 176.626H556.406C556.636 175.563 557.511 174.907 558.906 174.907C560.406 174.907 561.281 175.699 561.281 177.021V177.928L558.177 178.105C555.677 178.251 554.25 179.417 554.25 181.271C554.25 183.219 555.698 184.521 557.854 184.521ZM565.183 184.334H566.995V177.584C566.995 176.053 567.912 175.042 569.318 175.042C569.756 175.042 570.141 175.094 570.287 175.146V173.386C570.141 173.365 569.87 173.313 569.558 173.313C568.287 173.313 567.287 174.074 566.933 175.271H566.891V173.501H565.183V184.334ZM580.032 177.053C579.803 175.105 578.188 173.313 575.48 173.313C572.49 173.313 570.501 175.501 570.501 178.917C570.501 182.407 572.501 184.521 575.501 184.521C577.959 184.521 579.771 183.001 580.053 180.844H578.271C577.959 182.146 576.99 182.928 575.511 182.928C573.636 182.928 572.344 181.438 572.344 178.917C572.344 176.459 573.615 174.907 575.49 174.907C577.084 174.907 578.001 175.876 578.261 177.053H580.032ZM581.6 184.334H583.412V178.021C583.412 176.146 584.527 174.917 586.329 174.917C588.027 174.917 588.891 175.949 588.891 177.667V184.334H590.704V177.334C590.704 174.917 589.266 173.313 586.891 173.313C585.246 173.313 584.058 174.021 583.454 175.23H583.412V169.303H581.6V184.334Z" fill="#E5E5E5"/>
<g filter="url(#filter3_d_5_5724)">
<rect x="450.333" y="251.001" width="1109.33" height="128" rx="16" fill="white"/>
</g>
<g opacity="0.48">
<rect x="1362.33" y="272.334" width="176" height="85.3333" rx="10.6667" fill="#EEEFF3"/>
<rect x="1405" y="307.001" width="90.6667" height="16" rx="8" fill="#7E8BB6"/>
</g>
<circle cx="514.333" cy="315.001" r="42.6667" fill="#2DB27C"/>
<rect opacity="0.2" x="578.333" y="293.667" width="364" height="16" rx="8" fill="#4E5A85"/>
<rect opacity="0.2" x="578.333" y="320.334" width="268" height="16" rx="8" fill="#4E5A85"/>
<g filter="url(#filter4_d_5_5724)">
<rect x="450.333" y="571.001" width="1109.33" height="128" rx="16" fill="white"/>
</g>
<g opacity="0.48">
<rect x="1362.33" y="592.334" width="176" height="85.3333" rx="10.6667" fill="#EEEFF3"/>
<rect x="1405" y="627.001" width="90.6667" height="16" rx="8" fill="#7E8BB6"/>
<rect x="1405" y="627.001" width="90.6667" height="16" rx="8" fill="#7E8BB6"/>
</g>
<circle cx="514.333" cy="635.001" r="42.6667" fill="#3E8AF7"/>
<rect opacity="0.2" x="578.333" y="613.667" width="364" height="16" rx="8" fill="#4E5A85"/>
<rect opacity="0.2" x="578.333" y="640.334" width="268" height="16" rx="8" fill="#4E5A85"/>
<g filter="url(#filter5_d_5_5724)">
<rect x="450.333" y="731.001" width="1109.33" height="128" rx="16" fill="white"/>
</g>
<g opacity="0.48">
<rect x="1362.33" y="752.334" width="176" height="85.3333" rx="10.6667" fill="#EEEFF3"/>
<rect x="1405" y="787.001" width="90.6667" height="16" rx="8" fill="#7E8BB6"/>
</g>
<circle cx="514.333" cy="795.001" r="42.6667" fill="#31C1FF"/>
<rect opacity="0.2" x="578.333" y="773.667" width="364" height="16" rx="8" fill="#4E5A85"/>
<rect opacity="0.2" x="578.333" y="800.334" width="268" height="16" rx="8" fill="#4E5A85"/>
<g filter="url(#filter6_d_5_5724)">
<rect x="629" y="411.001" width="1109.33" height="128" rx="21.3333" fill="white"/>
</g>
<rect x="1541" y="432.334" width="176" height="85.3333" rx="10.6667" fill="#0059F7"/>
<rect x="1583.67" y="467.001" width="90.6667" height="16" rx="8" fill="#689EFF"/>
<circle cx="693" cy="475.001" r="42.6667" fill="#FBAF52"/>
<rect opacity="0.2" x="757" y="453.667" width="364" height="16" rx="8" fill="#4E5A85"/>
<rect opacity="0.2" x="757" y="480.334" width="268" height="16" rx="8" fill="#4E5A85"/>
<g filter="url(#filter7_d_5_5724)">
<rect x="31.6665" y="283.001" width="242.667" height="240" rx="32" fill="#0059F7"/>
</g>
<circle opacity="0.2" cx="153" cy="403.001" r="74.6667" stroke="white" stroke-width="26.6667"/>
<path opacity="0.2" d="M78.2803 403.001C78.2803 444.267 111.733 477.72 153 477.72C194.267 477.72 227.72 444.267 227.72 403.001C227.72 361.734 194.267 328.281 153 328.281" stroke="white" stroke-width="26.6667" stroke-linecap="round"/>
<path opacity="0.2" d="M153 328.281C194.267 328.281 227.72 361.734 227.72 403.001C227.72 444.267 194.267 477.72 153 477.72C133.332 477.72 115.44 470.122 102.097 457.7" stroke="white" stroke-width="26.6667" stroke-linecap="round"/>
<path opacity="0.6" d="M153 328.281C194.267 328.281 227.72 361.734 227.72 403.001C227.72 432.729 210.359 458.402 185.223 470.435" stroke="white" stroke-width="26.6667" stroke-linecap="round"/>
<circle cx="78.2801" cy="403.935" r="1.86799" fill="white"/>
<circle cx="101.63" cy="457.172" r="1.86799" fill="white"/>
<circle cx="184.756" cy="470.248" r="1.86799" fill="white"/>
<circle cx="153" cy="328.281" r="1.86799" fill="white"/>
<path d="M132.666 415.105C137.447 415.105 140.9 411.823 140.9 407.308C140.9 403.027 137.713 399.855 133.416 399.855C130.603 399.855 128.213 401.323 127.228 403.511H127.166C127.181 397.839 129.244 394.62 132.791 394.62C134.853 394.62 136.541 395.823 137.088 397.667H140.588C139.9 394.073 136.806 391.683 132.822 391.683C127.181 391.683 123.806 396.152 123.806 403.698C123.806 406.339 124.275 408.558 125.197 410.355C126.666 413.402 129.338 415.105 132.666 415.105ZM132.634 412.152C129.947 412.152 127.869 410.027 127.869 407.355C127.869 404.683 129.916 402.714 132.666 402.714C135.431 402.714 137.416 404.683 137.416 407.417C137.416 410.058 135.291 412.152 132.634 412.152ZM150.791 415.089C156.448 415.089 159.791 410.62 159.791 403.073C159.791 400.433 159.323 398.214 158.401 396.417C156.948 393.386 154.26 391.683 150.916 391.683C146.151 391.683 142.682 394.964 142.682 399.48C142.682 403.761 145.885 406.933 150.166 406.933C153.073 406.933 155.448 405.464 156.354 403.245H156.369H156.385C156.401 403.245 156.416 403.245 156.416 403.245C156.416 408.933 154.354 412.183 150.838 412.183C148.76 412.183 147.041 410.948 146.51 409.105H142.994C143.666 412.683 146.776 415.089 150.791 415.089ZM150.916 404.073C148.182 404.073 146.166 402.073 146.166 399.37C146.166 396.745 148.276 394.667 150.963 394.667C153.651 394.667 155.744 396.761 155.744 399.433C155.744 402.089 153.682 404.073 150.916 404.073ZM171.042 397.48C171.042 394.011 169.12 391.792 166.167 391.792C163.198 391.792 161.276 394.011 161.276 397.48C161.276 400.948 163.198 403.167 166.167 403.167C169.12 403.167 171.042 400.948 171.042 397.48ZM166.167 400.964C164.917 400.964 164.136 399.636 164.136 397.464C164.136 395.308 164.917 393.98 166.167 393.98C167.401 393.98 168.183 395.308 168.183 397.464C168.183 399.636 167.401 400.964 166.167 400.964ZM166.026 414.667L174.011 403.745L182.495 392.12H179.417L171.651 402.745L162.933 414.667H166.026ZM184.151 409.245C184.151 405.761 182.245 403.542 179.276 403.542C176.308 403.542 174.401 405.761 174.401 409.245C174.401 412.714 176.308 414.933 179.276 414.933C182.245 414.933 184.151 412.714 184.151 409.245ZM179.276 412.714C178.026 412.714 177.261 411.402 177.261 409.23C177.261 407.058 178.026 405.745 179.276 405.745C180.526 405.745 181.292 407.058 181.292 409.23C181.292 411.402 180.526 412.714 179.276 412.714Z" fill="white"/>
<rect x="1115.67" y="651" width="242.667" height="240" rx="32" fill="#0059F7"/>
<path d="M1286.94 740.79C1286.94 739.135 1285.87 739.385 1284.81 739.203C1275.71 737.605 1270.22 732.208 1268.85 723.348C1268.6 721.739 1268.01 721.443 1266.57 721.454C1256.91 721.528 1247.28 721.551 1237.64 721.591C1228.12 721.551 1218.61 721.528 1209.09 721.454C1207.56 721.454 1206.82 721.716 1206.5 723.479C1204.94 732.544 1199.64 737.742 1190.47 739.197C1188.71 739.476 1188.34 740.09 1188.33 741.637C1188.23 755.814 1187.76 770.026 1192.88 783.657C1194.02 786.22 1195.16 788.787 1196.29 791.357C1196.98 792.46 1197.68 793.552 1198.35 794.667C1207.58 810.022 1220.5 821.105 1237.69 827.213C1258.88 819.723 1273.12 805.233 1281.83 785.13C1288 770.856 1286.91 755.775 1286.94 740.79Z" fill="#00D569"/>
<path d="M1226.67 765.442L1233.93 771.629L1255.28 751.384L1264.42 759.642L1234.65 789.253L1217.81 773.341L1226.67 765.442Z" fill="#FEFEFE"/>
<defs>
<filter id="filter0_d_5_5724" x="146.333" y="0.333984" width="1485.33" height="930.667" filterUnits="userSpaceOnUse" color-interpolation-filters="sRGB">
<feFlood flood-opacity="0" result="BackgroundImageFix"/>
<feColorMatrix in="SourceAlpha" type="matrix" values="0 0 0 0 0 0 0 0 0 0 0 0 0 0 0 0 0 0 127 0" result="hardAlpha"/>
<feOffset dx="4" dy="4"/>
<feGaussianBlur stdDeviation="18"/>
<feComposite in2="hardAlpha" operator="out"/>
<feColorMatrix type="matrix" values="0 0 0 0 0 0 0 0 0 0 0 0 0 0 0 0 0 0 0.15 0"/>
<feBlend mode="normal" in2="BackgroundImageFix" result="effect1_dropShadow_5_5724"/>
<feBlend mode="normal" in="SourceGraphic" in2="effect1_dropShadow_5_5724" result="shape"/>
</filter>
<filter id="filter1_d_5_5724" x="178.333" y="101.667" width="280" height="797.333" filterUnits="userSpaceOnUse" color-interpolation-filters="sRGB">
<feFlood flood-opacity="0" result="BackgroundImageFix"/>
<feColorMatrix in="SourceAlpha" type="matrix" values="0 0 0 0 0 0 0 0 0 0 0 0 0 0 0 0 0 0 127 0" result="hardAlpha"/>
<feOffset dx="4" dy="4"/>
<feGaussianBlur stdDeviation="18"/>
<feComposite in2="hardAlpha" operator="out"/>
<feColorMatrix type="matrix" values="0 0 0 0 0 0 0 0 0 0 0 0 0 0 0 0 0 0 0.1 0"/>
<feBlend mode="normal" in2="BackgroundImageFix" result="effect1_dropShadow_5_5724"/>
<feBlend mode="normal" in="SourceGraphic" in2="effect1_dropShadow_5_5724" result="shape"/>
</filter>
<filter id="filter2_bii_5_5724" x="87.7236" y="-58.2754" width="1594.55" height="250.552" filterUnits="userSpaceOnUse" color-interpolation-filters="sRGB">
<feFlood flood-opacity="0" result="BackgroundImageFix"/>
<feGaussianBlur in="BackgroundImage" stdDeviation="45.3047"/>
<feComposite in2="SourceAlpha" operator="in" result="effect1_backgroundBlur_5_5724"/>
<feBlend mode="normal" in="SourceGraphic" in2="effect1_backgroundBlur_5_5724" result="shape"/>
<feColorMatrix in="SourceAlpha" type="matrix" values="0 0 0 0 0 0 0 0 0 0 0 0 0 0 0 0 0 0 127 0" result="hardAlpha"/>
<feOffset dy="1.33333"/>
<feComposite in2="hardAlpha" operator="arithmetic" k2="-1" k3="1"/>
<feColorMatrix type="matrix" values="0 0 0 0 1 0 0 0 0 1 0 0 0 0 1 0 0 0 0.2 0"/>
<feBlend mode="normal" in2="shape" result="effect2_innerShadow_5_5724"/>
<feColorMatrix in="SourceAlpha" type="matrix" values="0 0 0 0 0 0 0 0 0 0 0 0 0 0 0 0 0 0 127 0" result="hardAlpha"/>
<feOffset dy="-1.33333"/>
<feComposite in2="hardAlpha" operator="arithmetic" k2="-1" k3="1"/>
<feColorMatrix type="matrix" values="0 0 0 0 0 0 0 0 0 0 0 0 0 0 0 0 0 0 0.1 0"/>
<feBlend mode="normal" in2="effect2_innerShadow_5_5724" result="effect3_innerShadow_5_5724"/>
</filter>
<filter id="filter3_d_5_5724" x="418.333" y="219.001" width="1181.33" height="200" filterUnits="userSpaceOnUse" color-interpolation-filters="sRGB">
<feFlood flood-opacity="0" result="BackgroundImageFix"/>
<feColorMatrix in="SourceAlpha" type="matrix" values="0 0 0 0 0 0 0 0 0 0 0 0 0 0 0 0 0 0 127 0" result="hardAlpha"/>
<feOffset dx="4" dy="4"/>
<feGaussianBlur stdDeviation="18"/>
<feComposite in2="hardAlpha" operator="out"/>
<feColorMatrix type="matrix" values="0 0 0 0 0 0 0 0 0 0 0 0 0 0 0 0 0 0 0.1 0"/>
<feBlend mode="normal" in2="BackgroundImageFix" result="effect1_dropShadow_5_5724"/>
<feBlend mode="normal" in="SourceGraphic" in2="effect1_dropShadow_5_5724" result="shape"/>
</filter>
<filter id="filter4_d_5_5724" x="418.333" y="539.001" width="1181.33" height="200" filterUnits="userSpaceOnUse" color-interpolation-filters="sRGB">
<feFlood flood-opacity="0" result="BackgroundImageFix"/>
<feColorMatrix in="SourceAlpha" type="matrix" values="0 0 0 0 0 0 0 0 0 0 0 0 0 0 0 0 0 0 127 0" result="hardAlpha"/>
<feOffset dx="4" dy="4"/>
<feGaussianBlur stdDeviation="18"/>
<feComposite in2="hardAlpha" operator="out"/>
<feColorMatrix type="matrix" values="0 0 0 0 0 0 0 0 0 0 0 0 0 0 0 0 0 0 0.1 0"/>
<feBlend mode="normal" in2="BackgroundImageFix" result="effect1_dropShadow_5_5724"/>
<feBlend mode="normal" in="SourceGraphic" in2="effect1_dropShadow_5_5724" result="shape"/>
</filter>
<filter id="filter5_d_5_5724" x="418.333" y="699.001" width="1181.33" height="200" filterUnits="userSpaceOnUse" color-interpolation-filters="sRGB">
<feFlood flood-opacity="0" result="BackgroundImageFix"/>
<feColorMatrix in="SourceAlpha" type="matrix" values="0 0 0 0 0 0 0 0 0 0 0 0 0 0 0 0 0 0 127 0" result="hardAlpha"/>
<feOffset dx="4" dy="4"/>
<feGaussianBlur stdDeviation="18"/>
<feComposite in2="hardAlpha" operator="out"/>
<feColorMatrix type="matrix" values="0 0 0 0 0 0 0 0 0 0 0 0 0 0 0 0 0 0 0.1 0"/>
<feBlend mode="normal" in2="BackgroundImageFix" result="effect1_dropShadow_5_5724"/>
<feBlend mode="normal" in="SourceGraphic" in2="effect1_dropShadow_5_5724" result="shape"/>
</filter>
<filter id="filter6_d_5_5724" x="597" y="379.001" width="1181.33" height="200" filterUnits="userSpaceOnUse" color-interpolation-filters="sRGB">
<feFlood flood-opacity="0" result="BackgroundImageFix"/>
<feColorMatrix in="SourceAlpha" type="matrix" values="0 0 0 0 0 0 0 0 0 0 0 0 0 0 0 0 0 0 127 0" result="hardAlpha"/>
<feOffset dx="4" dy="4"/>
<feGaussianBlur stdDeviation="18"/>
<feComposite in2="hardAlpha" operator="out"/>
<feColorMatrix type="matrix" values="0 0 0 0 0 0 0 0 0 0 0 0 0 0 0 0 0 0 0.1 0"/>
<feBlend mode="normal" in2="BackgroundImageFix" result="effect1_dropShadow_5_5724"/>
<feBlend mode="normal" in="SourceGraphic" in2="effect1_dropShadow_5_5724" result="shape"/>
</filter>
<filter id="filter7_d_5_5724" x="0.666504" y="252.001" width="312.667" height="310" filterUnits="userSpaceOnUse" color-interpolation-filters="sRGB">
<feFlood flood-opacity="0" result="BackgroundImageFix"/>
<feColorMatrix in="SourceAlpha" type="matrix" values="0 0 0 0 0 0 0 0 0 0 0 0 0 0 0 0 0 0 127 0" result="hardAlpha"/>
<feOffset dx="4" dy="4"/>
<feGaussianBlur stdDeviation="17.5"/>
<feComposite in2="hardAlpha" operator="out"/>
<feColorMatrix type="matrix" values="0 0 0 0 0 0 0 0 0 0 0 0 0 0 0 0 0 0 0.1 0"/>
<feBlend mode="normal" in2="BackgroundImageFix" result="effect1_dropShadow_5_5724"/>
<feBlend mode="normal" in="SourceGraphic" in2="effect1_dropShadow_5_5724" result="shape"/>
</filter>
<clipPath id="clip0_5_5724">
<rect width="42.6667" height="42.6667" fill="white" transform="translate(293 176.334)"/>
</clipPath>
<clipPath id="clip1_5_5724">
<rect width="42.6667" height="42.6667" fill="white" transform="translate(1495.67 155.001)"/>
</clipPath>
<clipPath id="clip2_5_5724">
<rect width="42.6667" height="42.6667" fill="white" transform="translate(1389 155.001)"/>
</clipPath>
</defs>
</svg>
