<svg width="98" height="138" viewBox="0 0 98 138" fill="none" xmlns="http://www.w3.org/2000/svg">
<g opacity="0.3">
<mask id="mask0_93_6076" style="mask-type:alpha" maskUnits="userSpaceOnUse" x="12" y="0" width="14" height="13">
<path d="M18.9489 12.5099C22.4139 12.5099 25.2229 9.70945 25.2229 6.25493C25.2229 2.80042 22.4139 0 18.9489 0C15.4838 0 12.6748 2.80042 12.6748 6.25493C12.6748 9.70945 15.4838 12.5099 18.9489 12.5099Z" fill="url(#paint0_linear_93_6076)"/>
</mask>
<g mask="url(#mask0_93_6076)">
<path d="M18.9489 12.5099C22.4139 12.5099 25.2229 9.70945 25.2229 6.25493C25.2229 2.80042 22.4139 0 18.9489 0C15.4838 0 12.6748 2.80042 12.6748 6.25493C12.6748 9.70945 15.4838 12.5099 18.9489 12.5099Z" fill="url(#paint1_linear_93_6076)"/>
</g>
<mask id="mask1_93_6076" style="mask-type:alpha" maskUnits="userSpaceOnUse" x="49" y="0" width="13" height="13">
<path d="M55.2858 12.5099C58.7509 12.5099 61.5599 9.70945 61.5599 6.25493C61.5599 2.80042 58.7509 0 55.2858 0C51.8207 0 49.0117 2.80042 49.0117 6.25493C49.0117 9.70945 51.8207 12.5099 55.2858 12.5099Z" fill="url(#paint2_linear_93_6076)"/>
</mask>
<g mask="url(#mask1_93_6076)">
<path d="M55.2858 12.5099C58.7509 12.5099 61.5599 9.70945 61.5599 6.25493C61.5599 2.80042 58.7509 0 55.2858 0C51.8207 0 49.0117 2.80042 49.0117 6.25493C49.0117 9.70945 51.8207 12.5099 55.2858 12.5099Z" fill="url(#paint3_linear_93_6076)"/>
</g>
<mask id="mask2_93_6076" style="mask-type:alpha" maskUnits="userSpaceOnUse" x="85" y="0" width="13" height="13">
<path d="M91.6237 12.5099C95.0887 12.5099 97.8977 9.70945 97.8977 6.25493C97.8977 2.80042 95.0887 0 91.6237 0C88.1586 0 85.3496 2.80042 85.3496 6.25493C85.3496 9.70945 88.1586 12.5099 91.6237 12.5099Z" fill="url(#paint4_linear_93_6076)"/>
</mask>
<g mask="url(#mask2_93_6076)">
<path d="M91.6237 12.5099C95.0887 12.5099 97.8977 9.70945 97.8977 6.25493C97.8977 2.80042 95.0887 0 91.6237 0C88.1586 0 85.3496 2.80042 85.3496 6.25493C85.3496 9.70945 88.1586 12.5099 91.6237 12.5099Z" fill="url(#paint5_linear_93_6076)"/>
</g>
<mask id="mask3_93_6076" style="mask-type:alpha" maskUnits="userSpaceOnUse" x="12" y="31" width="14" height="13">
<path d="M18.9489 43.9151C22.4139 43.9151 25.2229 41.1147 25.2229 37.6602C25.2229 34.2057 22.4139 31.4053 18.9489 31.4053C15.4838 31.4053 12.6748 34.2057 12.6748 37.6602C12.6748 41.1147 15.4838 43.9151 18.9489 43.9151Z" fill="url(#paint6_linear_93_6076)"/>
</mask>
<g mask="url(#mask3_93_6076)">
<path d="M18.9489 43.9151C22.4139 43.9151 25.2229 41.1147 25.2229 37.6602C25.2229 34.2057 22.4139 31.4053 18.9489 31.4053C15.4838 31.4053 12.6748 34.2057 12.6748 37.6602C12.6748 41.1147 15.4838 43.9151 18.9489 43.9151Z" fill="url(#paint7_linear_93_6076)"/>
</g>
<mask id="mask4_93_6076" style="mask-type:alpha" maskUnits="userSpaceOnUse" x="49" y="31" width="13" height="13">
<path d="M55.2858 43.9151C58.7509 43.9151 61.5599 41.1147 61.5599 37.6602C61.5599 34.2057 58.7509 31.4053 55.2858 31.4053C51.8207 31.4053 49.0117 34.2057 49.0117 37.6602C49.0117 41.1147 51.8207 43.9151 55.2858 43.9151Z" fill="url(#paint8_linear_93_6076)"/>
</mask>
<g mask="url(#mask4_93_6076)">
<path d="M55.2858 43.9151C58.7509 43.9151 61.5599 41.1147 61.5599 37.6602C61.5599 34.2057 58.7509 31.4053 55.2858 31.4053C51.8207 31.4053 49.0117 34.2057 49.0117 37.6602C49.0117 41.1147 51.8207 43.9151 55.2858 43.9151Z" fill="url(#paint9_linear_93_6076)"/>
</g>
<mask id="mask5_93_6076" style="mask-type:alpha" maskUnits="userSpaceOnUse" x="85" y="31" width="13" height="13">
<path d="M91.6237 43.9151C95.0887 43.9151 97.8977 41.1147 97.8977 37.6602C97.8977 34.2057 95.0887 31.4053 91.6237 31.4053C88.1586 31.4053 85.3496 34.2057 85.3496 37.6602C85.3496 41.1147 88.1586 43.9151 91.6237 43.9151Z" fill="url(#paint10_linear_93_6076)"/>
</mask>
<g mask="url(#mask5_93_6076)">
<path d="M91.6237 43.9151C95.0887 43.9151 97.8977 41.1147 97.8977 37.6602C97.8977 34.2057 95.0887 31.4053 91.6237 31.4053C88.1586 31.4053 85.3496 34.2057 85.3496 37.6602C85.3496 41.1147 88.1586 43.9151 91.6237 43.9151Z" fill="url(#paint11_linear_93_6076)"/>
</g>
<mask id="mask6_93_6076" style="mask-type:alpha" maskUnits="userSpaceOnUse" x="12" y="62" width="14" height="14">
<path d="M18.9489 75.2551C22.4139 75.2551 25.2229 72.4546 25.2229 69.0001C25.2229 65.5456 22.4139 62.7451 18.9489 62.7451C15.4838 62.7451 12.6748 65.5456 12.6748 69.0001C12.6748 72.4546 15.4838 75.2551 18.9489 75.2551Z" fill="url(#paint12_linear_93_6076)"/>
</mask>
<g mask="url(#mask6_93_6076)">
<path d="M18.9489 75.2551C22.4139 75.2551 25.2229 72.4546 25.2229 69.0001C25.2229 65.5456 22.4139 62.7451 18.9489 62.7451C15.4838 62.7451 12.6748 65.5456 12.6748 69.0001C12.6748 72.4546 15.4838 75.2551 18.9489 75.2551Z" fill="url(#paint13_linear_93_6076)"/>
</g>
<mask id="mask7_93_6076" style="mask-type:alpha" maskUnits="userSpaceOnUse" x="49" y="62" width="13" height="14">
<path d="M55.2858 75.2551C58.7509 75.2551 61.5599 72.4546 61.5599 69.0001C61.5599 65.5456 58.7509 62.7451 55.2858 62.7451C51.8207 62.7451 49.0117 65.5456 49.0117 69.0001C49.0117 72.4546 51.8207 75.2551 55.2858 75.2551Z" fill="url(#paint14_linear_93_6076)"/>
</mask>
<g mask="url(#mask7_93_6076)">
<path d="M55.2858 75.2551C58.7509 75.2551 61.5599 72.4546 61.5599 69.0001C61.5599 65.5456 58.7509 62.7451 55.2858 62.7451C51.8207 62.7451 49.0117 65.5456 49.0117 69.0001C49.0117 72.4546 51.8207 75.2551 55.2858 75.2551Z" fill="url(#paint15_linear_93_6076)"/>
</g>
<mask id="mask8_93_6076" style="mask-type:alpha" maskUnits="userSpaceOnUse" x="85" y="62" width="13" height="14">
<path d="M91.6237 75.2551C95.0887 75.2551 97.8977 72.4546 97.8977 69.0001C97.8977 65.5456 95.0887 62.7451 91.6237 62.7451C88.1586 62.7451 85.3496 65.5456 85.3496 69.0001C85.3496 72.4546 88.1586 75.2551 91.6237 75.2551Z" fill="url(#paint16_linear_93_6076)"/>
</mask>
<g mask="url(#mask8_93_6076)">
<path d="M91.6237 75.2551C95.0887 75.2551 97.8977 72.4546 97.8977 69.0001C97.8977 65.5456 95.0887 62.7451 91.6237 62.7451C88.1586 62.7451 85.3496 65.5456 85.3496 69.0001C85.3496 72.4546 88.1586 75.2551 91.6237 75.2551Z" fill="url(#paint17_linear_93_6076)"/>
</g>
<mask id="mask9_93_6076" style="mask-type:alpha" maskUnits="userSpaceOnUse" x="12" y="94" width="14" height="13">
<path d="M18.9489 106.66C22.4139 106.66 25.2229 103.859 25.2229 100.405C25.2229 96.9503 22.4139 94.1499 18.9489 94.1499C15.4838 94.1499 12.6748 96.9503 12.6748 100.405C12.6748 103.859 15.4838 106.66 18.9489 106.66Z" fill="url(#paint18_linear_93_6076)"/>
</mask>
<g mask="url(#mask9_93_6076)">
<path d="M18.9489 106.66C22.4139 106.66 25.2229 103.859 25.2229 100.405C25.2229 96.9503 22.4139 94.1499 18.9489 94.1499C15.4838 94.1499 12.6748 96.9503 12.6748 100.405C12.6748 103.859 15.4838 106.66 18.9489 106.66Z" fill="url(#paint19_linear_93_6076)"/>
</g>
<mask id="mask10_93_6076" style="mask-type:alpha" maskUnits="userSpaceOnUse" x="49" y="94" width="13" height="13">
<path d="M55.2858 106.66C58.7509 106.66 61.5599 103.859 61.5599 100.405C61.5599 96.9503 58.7509 94.1499 55.2858 94.1499C51.8207 94.1499 49.0117 96.9503 49.0117 100.405C49.0117 103.859 51.8207 106.66 55.2858 106.66Z" fill="url(#paint20_linear_93_6076)"/>
</mask>
<g mask="url(#mask10_93_6076)">
<path d="M55.2858 106.66C58.7509 106.66 61.5599 103.859 61.5599 100.405C61.5599 96.9503 58.7509 94.1499 55.2858 94.1499C51.8207 94.1499 49.0117 96.9503 49.0117 100.405C49.0117 103.859 51.8207 106.66 55.2858 106.66Z" fill="url(#paint21_linear_93_6076)"/>
</g>
<mask id="mask11_93_6076" style="mask-type:alpha" maskUnits="userSpaceOnUse" x="85" y="94" width="13" height="13">
<path d="M91.6237 106.66C95.0887 106.66 97.8977 103.859 97.8977 100.405C97.8977 96.9503 95.0887 94.1499 91.6237 94.1499C88.1586 94.1499 85.3496 96.9503 85.3496 100.405C85.3496 103.859 88.1586 106.66 91.6237 106.66Z" fill="url(#paint22_linear_93_6076)"/>
</mask>
<g mask="url(#mask11_93_6076)">
<path d="M91.6237 106.66C95.0887 106.66 97.8977 103.859 97.8977 100.405C97.8977 96.9503 95.0887 94.1499 91.6237 94.1499C88.1586 94.1499 85.3496 96.9503 85.3496 100.405C85.3496 103.859 88.1586 106.66 91.6237 106.66Z" fill="url(#paint23_linear_93_6076)"/>
</g>
<mask id="mask12_93_6076" style="mask-type:alpha" maskUnits="userSpaceOnUse" x="12" y="125" width="14" height="13">
<path d="M18.9489 138C22.4139 138 25.2229 135.2 25.2229 131.745C25.2229 128.291 22.4139 125.49 18.9489 125.49C15.4838 125.49 12.6748 128.291 12.6748 131.745C12.6748 135.2 15.4838 138 18.9489 138Z" fill="url(#paint24_linear_93_6076)"/>
</mask>
<g mask="url(#mask12_93_6076)">
<path d="M18.9489 138C22.4139 138 25.2229 135.2 25.2229 131.745C25.2229 128.291 22.4139 125.49 18.9489 125.49C15.4838 125.49 12.6748 128.291 12.6748 131.745C12.6748 135.2 15.4838 138 18.9489 138Z" fill="url(#paint25_linear_93_6076)"/>
</g>
<mask id="mask13_93_6076" style="mask-type:alpha" maskUnits="userSpaceOnUse" x="49" y="125" width="13" height="13">
<path d="M55.2858 138C58.7509 138 61.5599 135.2 61.5599 131.745C61.5599 128.291 58.7509 125.49 55.2858 125.49C51.8207 125.49 49.0117 128.291 49.0117 131.745C49.0117 135.2 51.8207 138 55.2858 138Z" fill="url(#paint26_linear_93_6076)"/>
</mask>
<g mask="url(#mask13_93_6076)">
<path d="M55.2858 138C58.7509 138 61.5599 135.2 61.5599 131.745C61.5599 128.291 58.7509 125.49 55.2858 125.49C51.8207 125.49 49.0117 128.291 49.0117 131.745C49.0117 135.2 51.8207 138 55.2858 138Z" fill="url(#paint27_linear_93_6076)"/>
</g>
<mask id="mask14_93_6076" style="mask-type:alpha" maskUnits="userSpaceOnUse" x="85" y="125" width="13" height="13">
<path d="M91.6237 138C95.0887 138 97.8977 135.2 97.8977 131.745C97.8977 128.291 95.0887 125.49 91.6237 125.49C88.1586 125.49 85.3496 128.291 85.3496 131.745C85.3496 135.2 88.1586 138 91.6237 138Z" fill="url(#paint28_linear_93_6076)"/>
</mask>
<g mask="url(#mask14_93_6076)">
<path d="M91.6237 138C95.0887 138 97.8977 135.2 97.8977 131.745C97.8977 128.291 95.0887 125.49 91.6237 125.49C88.1586 125.49 85.3496 128.291 85.3496 131.745C85.3496 135.2 88.1586 138 91.6237 138Z" fill="url(#paint29_linear_93_6076)"/>
</g>
</g>
<defs>
<linearGradient id="paint0_linear_93_6076" x1="68.8861" y1="132.661" x2="-16.7957" y2="-85.5031" gradientUnits="userSpaceOnUse">
<stop/>
<stop offset="1" stop-color="white"/>
</linearGradient>
<linearGradient id="paint1_linear_93_6076" x1="68.8861" y1="132.661" x2="-16.7957" y2="-85.5031" gradientUnits="userSpaceOnUse">
<stop stop-color="#97C3F9"/>
<stop offset="1" stop-color="#93C1F9"/>
</linearGradient>
<linearGradient id="paint2_linear_93_6076" x1="100.331" y1="120.311" x2="14.6489" y2="-97.8533" gradientUnits="userSpaceOnUse">
<stop/>
<stop offset="1" stop-color="white"/>
</linearGradient>
<linearGradient id="paint3_linear_93_6076" x1="100.331" y1="120.311" x2="14.6489" y2="-97.8533" gradientUnits="userSpaceOnUse">
<stop stop-color="#97C3F9"/>
<stop offset="1" stop-color="#93C1F9"/>
</linearGradient>
<linearGradient id="paint4_linear_93_6076" x1="131.777" y1="107.962" x2="46.0947" y2="-110.203" gradientUnits="userSpaceOnUse">
<stop/>
<stop offset="1" stop-color="white"/>
</linearGradient>
<linearGradient id="paint5_linear_93_6076" x1="131.777" y1="107.962" x2="46.0947" y2="-110.203" gradientUnits="userSpaceOnUse">
<stop stop-color="#97C3F9"/>
<stop offset="1" stop-color="#93C1F9"/>
</linearGradient>
<linearGradient id="paint6_linear_93_6076" x1="58.1551" y1="136.875" x2="-27.5253" y2="-81.2883" gradientUnits="userSpaceOnUse">
<stop/>
<stop offset="1" stop-color="white"/>
</linearGradient>
<linearGradient id="paint7_linear_93_6076" x1="58.1551" y1="136.875" x2="-27.5253" y2="-81.2883" gradientUnits="userSpaceOnUse">
<stop stop-color="#97C3F9"/>
<stop offset="1" stop-color="#93C1F9"/>
</linearGradient>
<linearGradient id="paint8_linear_93_6076" x1="89.6" y1="124.525" x2="3.91948" y2="-93.638" gradientUnits="userSpaceOnUse">
<stop/>
<stop offset="1" stop-color="white"/>
</linearGradient>
<linearGradient id="paint9_linear_93_6076" x1="89.6" y1="124.525" x2="3.91948" y2="-93.638" gradientUnits="userSpaceOnUse">
<stop stop-color="#97C3F9"/>
<stop offset="1" stop-color="#93C1F9"/>
</linearGradient>
<linearGradient id="paint10_linear_93_6076" x1="121.046" y1="112.175" x2="35.3654" y2="-105.988" gradientUnits="userSpaceOnUse">
<stop/>
<stop offset="1" stop-color="white"/>
</linearGradient>
<linearGradient id="paint11_linear_93_6076" x1="121.046" y1="112.175" x2="35.3654" y2="-105.988" gradientUnits="userSpaceOnUse">
<stop stop-color="#97C3F9"/>
<stop offset="1" stop-color="#93C1F9"/>
</linearGradient>
<linearGradient id="paint12_linear_93_6076" x1="47.4243" y1="141.09" x2="-38.2576" y2="-77.0744" gradientUnits="userSpaceOnUse">
<stop/>
<stop offset="1" stop-color="white"/>
</linearGradient>
<linearGradient id="paint13_linear_93_6076" x1="47.4243" y1="141.09" x2="-38.2576" y2="-77.0744" gradientUnits="userSpaceOnUse">
<stop stop-color="#97C3F9"/>
<stop offset="1" stop-color="#93C1F9"/>
</linearGradient>
<linearGradient id="paint14_linear_93_6076" x1="78.8691" y1="128.74" x2="-6.81286" y2="-89.4244" gradientUnits="userSpaceOnUse">
<stop/>
<stop offset="1" stop-color="white"/>
</linearGradient>
<linearGradient id="paint15_linear_93_6076" x1="78.8691" y1="128.74" x2="-6.81286" y2="-89.4244" gradientUnits="userSpaceOnUse">
<stop stop-color="#97C3F9"/>
<stop offset="1" stop-color="#93C1F9"/>
</linearGradient>
<linearGradient id="paint16_linear_93_6076" x1="110.315" y1="116.39" x2="24.633" y2="-101.774" gradientUnits="userSpaceOnUse">
<stop/>
<stop offset="1" stop-color="white"/>
</linearGradient>
<linearGradient id="paint17_linear_93_6076" x1="110.315" y1="116.39" x2="24.633" y2="-101.774" gradientUnits="userSpaceOnUse">
<stop stop-color="#97C3F9"/>
<stop offset="1" stop-color="#93C1F9"/>
</linearGradient>
<linearGradient id="paint18_linear_93_6076" x1="36.6934" y1="145.304" x2="-48.9884" y2="-72.8604" gradientUnits="userSpaceOnUse">
<stop/>
<stop offset="1" stop-color="white"/>
</linearGradient>
<linearGradient id="paint19_linear_93_6076" x1="36.6934" y1="145.304" x2="-48.9884" y2="-72.8604" gradientUnits="userSpaceOnUse">
<stop stop-color="#97C3F9"/>
<stop offset="1" stop-color="#93C1F9"/>
</linearGradient>
<linearGradient id="paint20_linear_93_6076" x1="68.1383" y1="132.954" x2="-17.5437" y2="-85.2103" gradientUnits="userSpaceOnUse">
<stop/>
<stop offset="1" stop-color="white"/>
</linearGradient>
<linearGradient id="paint21_linear_93_6076" x1="68.1383" y1="132.954" x2="-17.5437" y2="-85.2103" gradientUnits="userSpaceOnUse">
<stop stop-color="#97C3F9"/>
<stop offset="1" stop-color="#93C1F9"/>
</linearGradient>
<linearGradient id="paint22_linear_93_6076" x1="99.5841" y1="120.604" x2="13.9021" y2="-97.5602" gradientUnits="userSpaceOnUse">
<stop/>
<stop offset="1" stop-color="white"/>
</linearGradient>
<linearGradient id="paint23_linear_93_6076" x1="99.5841" y1="120.604" x2="13.9021" y2="-97.5602" gradientUnits="userSpaceOnUse">
<stop stop-color="#97C3F9"/>
<stop offset="1" stop-color="#93C1F9"/>
</linearGradient>
<linearGradient id="paint24_linear_93_6076" x1="25.9626" y1="149.519" x2="-59.7193" y2="-68.6454" gradientUnits="userSpaceOnUse">
<stop/>
<stop offset="1" stop-color="white"/>
</linearGradient>
<linearGradient id="paint25_linear_93_6076" x1="25.9626" y1="149.519" x2="-59.7193" y2="-68.6454" gradientUnits="userSpaceOnUse">
<stop stop-color="#97C3F9"/>
<stop offset="1" stop-color="#93C1F9"/>
</linearGradient>
<linearGradient id="paint26_linear_93_6076" x1="57.4075" y1="137.169" x2="-28.2745" y2="-80.9954" gradientUnits="userSpaceOnUse">
<stop/>
<stop offset="1" stop-color="white"/>
</linearGradient>
<linearGradient id="paint27_linear_93_6076" x1="57.4075" y1="137.169" x2="-28.2745" y2="-80.9954" gradientUnits="userSpaceOnUse">
<stop stop-color="#97C3F9"/>
<stop offset="1" stop-color="#93C1F9"/>
</linearGradient>
<linearGradient id="paint28_linear_93_6076" x1="88.8533" y1="124.819" x2="3.17133" y2="-93.3452" gradientUnits="userSpaceOnUse">
<stop/>
<stop offset="1" stop-color="white"/>
</linearGradient>
<linearGradient id="paint29_linear_93_6076" x1="88.8533" y1="124.819" x2="3.17133" y2="-93.3452" gradientUnits="userSpaceOnUse">
<stop stop-color="#97C3F9"/>
<stop offset="1" stop-color="#93C1F9"/>
</linearGradient>
</defs>
</svg>
