<svg width="187" height="109" viewBox="0 0 187 109" fill="none" xmlns="http://www.w3.org/2000/svg">
<g clip-path="url(#clip0_194_2123)">
<rect width="187" height="109" fill="white"/>
<g clip-path="url(#clip1_194_2123)">
<path d="M125.877 103.647C125.877 106.562 123.518 108.932 120.602 108.932L52.3917 109.01C50.0712 109.01 48.1017 107.518 47.39 105.441C47.2047 104.905 47.1072 104.34 47.1072 103.745L47 5.37737C47 2.46213 49.3595 0.0928922 52.2747 0.0928922L114.909 0.0246426L120.485 0.0148926C123.401 0.0148926 125.77 2.37438 125.77 5.28962L125.877 103.647Z" fill="url(#paint0_linear_194_2123)"/>
<path d="M118.809 103.082L54.1769 103.15C52.6072 103.15 51.3397 101.883 51.3397 100.313L51.2422 8.77048C51.2422 7.20074 52.5097 5.93324 54.0794 5.93324L118.702 5.86499C120.272 5.86499 121.539 7.13249 121.539 8.70223L121.637 100.245C121.647 101.805 120.379 103.082 118.809 103.082Z" fill="white"/>
<path d="M79.86 92.7855L76.0575 69.7756L72.9765 79.7888L64.1625 79.7985C63.6263 79.7985 63.1973 79.3695 63.1973 78.8333C63.1973 78.297 63.6263 77.868 64.1625 77.868L71.5627 77.8583L76.6425 61.3711L80.445 84.4395L85.3784 68.5958L88.0012 76.1033L93.9097 61.7806L99.6524 84.498L101.817 77.2733L108.154 77.2635C108.691 77.2635 109.12 77.6925 109.12 78.2288C109.12 78.765 108.691 79.194 108.154 79.194L103.25 79.2038L99.4964 91.7325L93.4709 67.9036L87.8452 81.5243L85.4759 74.748L79.86 92.7855Z" fill="#58D6F4"/>
<path d="M73.3258 48.4232L60.9336 48.4329C58.9348 48.4329 57.2968 46.8047 57.2968 44.8059L57.2773 27.4802C57.2773 25.4815 58.9056 23.8435 60.9043 23.8435L73.2965 23.8337C75.2953 23.8337 76.9333 25.462 76.9333 27.4607L76.9528 44.7864C76.9528 46.7852 75.3245 48.4134 73.3258 48.4232ZM60.8946 24.8965C59.4711 24.8965 58.3206 26.0567 58.3206 27.4802L58.3401 44.8059C58.3401 46.2294 59.5003 47.3799 60.9238 47.3799L73.316 47.3702C74.7395 47.3702 75.89 46.2099 75.89 44.7864L75.8705 27.4607C75.8705 26.0372 74.7103 24.8867 73.2868 24.8867L60.8946 24.8965Z" fill="url(#paint1_linear_194_2123)"/>
<path d="M67.1147 45.0986C72.9744 45.0888 74.7976 41.7056 74.7976 41.7056C74.5344 41.3741 74.2029 41.0816 73.7544 40.7891C72.2139 39.7848 70.9757 39.3558 70.4589 38.9268C69.9324 38.5076 69.6399 37.8933 69.6399 37.8933L69.3182 38.0883C69.3182 38.0883 69.1232 37.4156 69.2304 36.3919C69.2304 36.3919 69.6887 36.2749 70.0299 34.7246C70.5759 34.8319 71.2194 33.4474 70.9172 32.9404C70.7222 32.6089 70.4882 32.6381 70.3224 32.7161C70.4882 32.0239 71.2389 28.1921 67.1049 28.1921C62.9709 28.1921 63.7217 32.0239 63.8972 32.7161C63.7314 32.6381 63.4974 32.6089 63.3024 32.9404C63.0002 33.4474 63.6534 34.8319 64.1994 34.7246C64.5407 36.2749 65.0087 36.3821 65.0087 36.3821C65.1257 37.3961 64.9209 38.0786 64.9209 38.0786L64.5992 37.8836C64.5992 37.8836 64.3067 38.4881 63.7802 38.9171C63.2537 39.3461 62.0252 39.7848 60.4847 40.7891C60.0362 41.0816 59.6949 41.3741 59.4414 41.7056C59.4317 41.7251 61.2647 45.1083 67.1147 45.0986Z" fill="url(#paint2_linear_194_2123)"/>
<path d="M105.706 29.3622L81.8483 29.3914C81.3998 29.3914 81.0391 29.0307 81.0391 28.5822V28.4457C81.0391 27.9972 81.3998 27.6364 81.8483 27.6364L105.706 27.6072C106.155 27.6072 106.516 27.9679 106.516 28.4164V28.5529C106.516 29.0014 106.145 29.3622 105.706 29.3622Z" fill="url(#paint3_linear_194_2123)"/>
<path d="M96.9315 33.9059L81.8483 33.9254C81.3998 33.9254 81.0391 33.5646 81.0391 33.1161V32.9796C81.0391 32.5311 81.3998 32.1704 81.8483 32.1704L96.9315 32.1509C97.38 32.1509 97.7408 32.5116 97.7408 32.9601V33.0966C97.7408 33.5451 97.38 33.9059 96.9315 33.9059Z" fill="url(#paint4_linear_194_2123)"/>
<path opacity="0.6" d="M113.935 39.307L81.8581 39.346C81.4096 39.346 81.0488 38.9852 81.0488 38.5367V38.4002C81.0488 37.9518 81.4096 37.591 81.8581 37.591L113.935 37.552C114.384 37.552 114.745 37.9127 114.745 38.3612V38.4977C114.735 38.9462 114.374 39.307 113.935 39.307Z" fill="url(#paint5_linear_194_2123)"/>
<path opacity="0.6" d="M113.241 54.4879L59.733 54.5464C59.2748 54.5464 58.8945 54.1759 58.8945 53.7079V53.6299C58.8945 53.1717 59.265 52.7914 59.733 52.7914L113.241 52.7329C113.699 52.7329 114.079 53.1034 114.079 53.5714V53.6494C114.079 54.1174 113.699 54.4879 113.241 54.4879Z" fill="url(#paint6_linear_194_2123)"/>
<path opacity="0.6" d="M113.935 44.6112L81.8581 44.6502C81.4096 44.6502 81.0488 44.2894 81.0488 43.8409V43.7045C81.0488 43.256 81.4096 42.8952 81.8581 42.8952L113.935 42.8562C114.384 42.8562 114.745 43.217 114.745 43.6655V43.802C114.745 44.2504 114.384 44.6112 113.935 44.6112Z" fill="url(#paint7_linear_194_2123)"/>
</g>
<path d="M140.319 78.3101C140.319 76.8025 139.057 75.6171 137.526 75.5769C137.031 75.5645 136.536 75.5626 136.041 75.5559H131.272H115.087H110.319C109.923 75.5616 109.526 75.5731 109.13 75.575C107.198 75.5827 106.032 76.7394 106.031 78.6638C106.031 84.4635 106.031 90.2631 106.031 96.0628C106.031 96.3745 106.084 96.6861 106.112 96.9968C106.235 97.3565 106.41 97.6961 106.633 98.0044C107.187 98.7539 107.992 99.1095 109.106 99.1105H137.247C138.777 99.1105 139.72 98.4413 140.241 96.9959C140.281 96.7846 140.308 96.571 140.321 96.3563C140.325 90.3441 140.338 84.3271 140.319 78.3101ZM126.873 86.6435C126.75 87.6415 126.182 88.3719 125.4 88.9493C125.164 89.1233 125.07 89.2877 125.078 89.5707C125.097 90.216 125.095 90.8622 125.078 91.5075C125.056 92.6366 124.212 93.4836 123.144 93.4635C122.093 93.4444 121.296 92.6136 121.271 91.5066C121.259 91.2916 121.259 91.0762 121.271 90.8613C121.355 89.8929 121.317 89.0258 120.35 88.3757C119.81 88.0134 119.536 87.3356 119.478 86.6406C118.8 84.2841 121.187 81.7765 123.706 82.2019C125.93 82.5796 127.435 84.6885 126.873 86.6435Z" fill="#1B65F8"/>
<path d="M136.041 75.5559H131.272C131.265 75.445 131.26 75.3331 131.253 75.2222C131.296 74.5572 131.27 73.8894 131.173 73.23C130.903 71.2998 129.865 69.5972 128.411 68.385C126.644 66.9071 124.264 66.149 121.904 66.5686C117.568 67.3411 114.842 70.8543 115.102 75.337C115.097 75.4106 115.092 75.4832 115.086 75.5559H110.318C110.177 72.4422 110.902 69.5733 112.768 67.0189C115.862 62.781 121.328 60.848 126.472 62.1845C128.948 62.8319 131.173 64.2053 132.861 66.1279C134.55 68.0505 135.624 70.4344 135.947 72.9728C136.049 73.8351 136.023 74.6945 136.041 75.5559Z" fill="#1B2868"/>
<path opacity="0.6" d="M140.326 96.3601C140.313 96.5748 140.286 96.7884 140.246 96.9997C139.725 98.4432 138.782 99.1134 137.252 99.1143H109.108C107.994 99.1143 107.189 98.7577 106.635 98.0082L123.139 75.5578H131.272C131.266 75.4469 131.26 75.3351 131.253 75.2242C131.297 74.5591 131.27 73.8913 131.173 73.2319C130.903 71.3017 129.865 69.5991 128.411 68.3869L131.222 64.563C133.839 66.6395 135.536 69.6605 135.947 72.9757C136.05 73.8361 136.028 74.6965 136.043 75.5569C136.538 75.5635 137.033 75.5655 137.528 75.5779C139.058 75.618 140.316 76.8035 140.321 78.3111C140.338 84.3271 140.326 90.3441 140.326 96.3601Z" fill="#A6C8FF"/>
<path d="M126.873 86.6433C126.751 87.6414 126.182 88.3717 125.4 88.9492C125.165 89.1232 125.07 89.2876 125.079 89.5706C125.098 90.2158 125.095 90.8621 125.079 91.5074C125.057 92.6374 124.213 93.4834 123.145 93.4633C122.093 93.4442 121.297 92.6135 121.271 91.5064C121.259 91.2915 121.259 91.0761 121.271 90.8611C121.355 89.8927 121.318 89.0266 120.351 88.3756C119.81 88.0133 119.537 87.3355 119.479 86.6414C119.6 86.4407 119.733 86.2456 119.841 86.0382C120.541 84.6998 121.716 84.0688 123.172 84.0688C124.629 84.0688 125.805 84.6988 126.506 86.0372C126.62 86.2475 126.751 86.4426 126.873 86.6433Z" fill="#1B2868"/>
<path d="M126.875 86.6434C126.753 86.4427 126.621 86.2476 126.513 86.0402C125.813 84.7018 124.638 84.0709 123.18 84.0718C121.722 84.0728 120.548 84.7028 119.848 86.0411C119.74 86.2486 119.607 86.4436 119.486 86.6444C118.808 84.286 121.195 81.7794 123.713 82.2048C125.933 82.5795 127.437 84.6884 126.875 86.6434Z" fill="#05103A"/>
</g>
<defs>
<linearGradient id="paint0_linear_194_2123" x1="36.077" y1="38.1467" x2="136.8" y2="70.8737" gradientUnits="userSpaceOnUse">
<stop stop-color="#6CBCFC"/>
<stop offset="0.1713" stop-color="#5EABFC"/>
<stop offset="0.4084" stop-color="#509AFC"/>
<stop offset="0.6698" stop-color="#4890FC"/>
<stop offset="1" stop-color="#458DFC"/>
</linearGradient>
<linearGradient id="paint1_linear_194_2123" x1="63.6229" y1="31.6311" x2="75.1244" y2="46.4786" gradientUnits="userSpaceOnUse">
<stop stop-color="#6CBCFC"/>
<stop offset="1" stop-color="#458DFC"/>
</linearGradient>
<linearGradient id="paint2_linear_194_2123" x1="62.375" y1="32.5977" x2="73.8766" y2="47.4452" gradientUnits="userSpaceOnUse">
<stop stop-color="#B0F4FF"/>
<stop offset="0.0994384" stop-color="#A1EFFE"/>
<stop offset="0.2994" stop-color="#88E7FD"/>
<stop offset="0.5095" stop-color="#77E1FD"/>
<stop offset="0.7344" stop-color="#6CDDFC"/>
<stop offset="1" stop-color="#69DCFC"/>
</linearGradient>
<linearGradient id="paint3_linear_194_2123" x1="81.0404" y1="28.5073" x2="106.511" y2="28.5226" gradientUnits="userSpaceOnUse">
<stop stop-color="#6CBCFC"/>
<stop offset="1" stop-color="#458DFC"/>
</linearGradient>
<linearGradient id="paint4_linear_194_2123" x1="81.0451" y1="33.0382" x2="97.7397" y2="33.0382" gradientUnits="userSpaceOnUse">
<stop stop-color="#6CBCFC"/>
<stop offset="1" stop-color="#458DFC"/>
</linearGradient>
<linearGradient id="paint5_linear_194_2123" x1="81.0506" y1="38.4543" x2="114.739" y2="38.4543" gradientUnits="userSpaceOnUse">
<stop stop-color="#6CBCFC"/>
<stop offset="1" stop-color="#458DFC"/>
</linearGradient>
<linearGradient id="paint6_linear_194_2123" x1="58.8941" y1="53.6448" x2="114.077" y2="53.6448" gradientUnits="userSpaceOnUse">
<stop stop-color="#6CBCFC"/>
<stop offset="1" stop-color="#458DFC"/>
</linearGradient>
<linearGradient id="paint7_linear_194_2123" x1="81.0561" y1="43.7573" x2="114.745" y2="43.7573" gradientUnits="userSpaceOnUse">
<stop stop-color="#6CBCFC"/>
<stop offset="1" stop-color="#458DFC"/>
</linearGradient>
<clipPath id="clip0_194_2123">
<rect width="187" height="109" fill="white"/>
</clipPath>
<clipPath id="clip1_194_2123">
<rect width="78.8772" height="111.715" fill="white" transform="translate(47 -2.71509)"/>
</clipPath>
</defs>
</svg>
