<svg width="96" height="115" viewBox="0 0 96 115" fill="none" xmlns="http://www.w3.org/2000/svg">
<g clip-path="url(#clip0_93_6544)">
<path d="M80.4905 108.738C80.4905 111.713 78.0827 114.13 75.1079 114.13L5.50201 114.21C3.13405 114.21 1.12428 112.688 0.397975 110.568C0.208937 110.021 0.109443 109.444 0.109443 108.837L0 8.458C0 5.48313 2.40775 3.06543 5.38262 3.06543L69.2974 2.99579L74.9885 2.98584C77.9633 2.98584 80.3811 5.39359 80.3811 8.36845L80.4905 108.738Z" fill="url(#paint0_linear_93_6544)"/>
<path d="M73.2773 108.161L7.32289 108.23C5.72104 108.23 4.42762 106.937 4.42762 105.335L4.32812 11.9205C4.32812 10.3186 5.62154 9.02521 7.22339 9.02521L73.1679 8.95557C74.7697 8.95557 76.0632 10.249 76.0632 11.8508L76.1627 105.266C76.1726 106.857 74.8792 108.161 73.2773 108.161Z" fill="white"/>
<path d="M33.5299 97.6541L29.6496 74.1735L26.5056 84.3915L17.5114 84.4015C16.9641 84.4015 16.5264 83.9637 16.5264 83.4165C16.5264 82.8693 16.9641 82.4315 17.5114 82.4315L25.0629 82.4216L30.2466 65.5972L34.1268 89.1374L39.1612 72.9697L41.8376 80.6307L47.8669 66.015L53.7271 89.1971L55.9359 81.8246L62.403 81.8147C62.9502 81.8147 63.3879 82.2524 63.3879 82.7996C63.3879 83.3469 62.9502 83.7846 62.403 83.7846L57.3984 83.7946L53.5679 96.5795L47.4192 72.2633L41.6784 86.1625L39.2607 79.2477L33.5299 97.6541Z" fill="#58D6F4"/>
<path d="M26.863 52.3843L14.2173 52.3943C12.1777 52.3943 10.5062 50.7327 10.5062 48.6931L10.4863 31.0131C10.4863 28.9734 12.1479 27.3019 14.1875 27.3019L26.8332 27.292C28.8728 27.292 30.5443 28.9535 30.5443 30.9932L30.5642 48.6732C30.5642 50.7128 28.9026 52.3744 26.863 52.3843ZM14.1775 28.3765C12.7249 28.3765 11.5509 29.5605 11.5509 31.0131L11.5708 48.6931C11.5708 50.1457 12.7548 51.3197 14.2074 51.3197L26.8531 51.3098C28.3057 51.3098 29.4797 50.1258 29.4797 48.6732L29.4598 30.9932C29.4598 29.5406 28.2758 28.3665 26.8232 28.3665L14.1775 28.3765Z" fill="url(#paint1_linear_93_6544)"/>
<path d="M20.5255 48.9917C26.5051 48.9818 28.3656 45.5293 28.3656 45.5293C28.097 45.1911 27.7587 44.8926 27.301 44.5941C25.729 43.5693 24.4655 43.1315 23.9382 42.6938C23.4009 42.2659 23.1024 41.6391 23.1024 41.6391L22.7741 41.8381C22.7741 41.8381 22.5751 41.1516 22.6845 40.1069C22.6845 40.1069 23.1522 39.9875 23.5004 38.4056C24.0575 38.515 24.7142 37.1022 24.4058 36.5848C24.2068 36.2466 23.968 36.2764 23.7989 36.356C23.968 35.6496 24.7341 31.7395 20.5156 31.7395C16.297 31.7395 17.0631 35.6496 17.2422 36.356C17.0731 36.2764 16.8343 36.2466 16.6353 36.5848C16.3269 37.1022 16.9935 38.515 17.5507 38.4056C17.8989 39.9875 18.3765 40.097 18.3765 40.097C18.4958 41.1317 18.2869 41.8282 18.2869 41.8282L17.9586 41.6292C17.9586 41.6292 17.6601 42.246 17.1228 42.6838C16.5856 43.1216 15.3319 43.5693 13.7599 44.5941C13.3023 44.8926 12.954 45.1911 12.6954 45.5293C12.6854 45.5492 14.5559 49.0017 20.5255 48.9917Z" fill="url(#paint2_linear_93_6544)"/>
<path d="M59.9053 32.9335L35.5592 32.9633C35.1015 32.9633 34.7334 32.5952 34.7334 32.1375V31.9982C34.7334 31.5406 35.1015 31.1724 35.5592 31.1724L59.9053 31.1426C60.363 31.1426 60.7311 31.5107 60.7311 31.9684V32.1077C60.7311 32.5653 60.353 32.9335 59.9053 32.9335Z" fill="url(#paint3_linear_93_6544)"/>
<path d="M50.9509 37.57L35.5592 37.5899C35.1015 37.5899 34.7334 37.2217 34.7334 36.7641V36.6248C34.7334 36.1671 35.1015 35.799 35.5592 35.799L50.9509 35.7791C51.4086 35.7791 51.7767 36.1472 51.7767 36.6049V36.7442C51.7767 37.2018 51.4086 37.57 50.9509 37.57Z" fill="url(#paint4_linear_93_6544)"/>
<path opacity="0.6" d="M68.3024 43.0817L35.569 43.1215C35.1113 43.1215 34.7432 42.7533 34.7432 42.2957V42.1564C34.7432 41.6987 35.1113 41.3306 35.569 41.3306L68.3024 41.2908C68.7601 41.2908 69.1282 41.6589 69.1282 42.1166V42.2559C69.1183 42.7135 68.7501 43.0817 68.3024 43.0817Z" fill="url(#paint5_linear_93_6544)"/>
<path opacity="0.6" d="M67.5965 58.5729L12.9943 58.6326C12.5267 58.6326 12.1387 58.2545 12.1387 57.7769V57.6973C12.1387 57.2297 12.5167 56.8417 12.9943 56.8417L67.5965 56.782C68.0641 56.782 68.4522 57.1601 68.4522 57.6376V57.7172C68.4522 58.1948 68.0641 58.5729 67.5965 58.5729Z" fill="url(#paint6_linear_93_6544)"/>
<path opacity="0.6" d="M68.3024 48.4943L35.569 48.5341C35.1113 48.5341 34.7432 48.1659 34.7432 47.7083V47.569C34.7432 47.1113 35.1113 46.7432 35.569 46.7432L68.3024 46.7034C68.7601 46.7034 69.1282 47.0715 69.1282 47.5292V47.6685C69.1282 48.1261 68.7601 48.4943 68.3024 48.4943Z" fill="url(#paint7_linear_93_6544)"/>
</g>
<path d="M95.226 82.8823C95.226 81.3439 93.9383 80.1342 92.3765 80.0932C91.8712 80.0806 91.3658 80.0786 90.8605 80.0718H85.9945H69.4786H64.6126C64.2087 80.0776 63.8039 80.0893 63.399 80.0913C61.4275 80.0991 60.2383 81.2795 60.2373 83.2433C60.2373 89.1615 60.2373 95.0798 60.2373 100.998C60.2373 101.316 60.291 101.634 60.3193 101.951C60.4448 102.318 60.624 102.665 60.8509 102.979C61.4167 103.744 62.2381 104.107 63.3746 104.108H92.0916C93.6525 104.108 94.6154 103.425 95.147 101.95C95.1879 101.735 95.215 101.517 95.228 101.298C95.2329 95.1624 95.2456 89.0224 95.226 82.8823ZM81.5051 91.3861C81.3802 92.4046 80.7998 93.1499 80.0018 93.7391C79.7618 93.9167 79.6652 94.0844 79.674 94.3732C79.6935 95.0317 79.6906 95.6912 79.674 96.3497C79.6515 97.5018 78.7901 98.3661 77.7005 98.3456C76.6274 98.3261 75.8147 97.4784 75.7884 96.3487C75.7767 96.1293 75.7767 95.9095 75.7884 95.6902C75.8742 94.702 75.8362 93.8172 74.849 93.1538C74.2978 92.7841 74.0188 92.0924 73.9593 91.3832C73.2676 88.9785 75.7035 86.4196 78.2731 86.8537C80.5432 87.2391 82.0787 89.3911 81.5051 91.3861Z" fill="#1B65F8"/>
<path d="M90.8609 80.0718H85.9949C85.9881 79.9586 85.9822 79.8445 85.9754 79.7313C86.0198 79.0527 85.9923 78.3712 85.8935 77.6983C85.6184 75.7287 84.5589 73.9913 83.0751 72.7543C81.2723 71.2461 78.8432 70.4725 76.4356 70.9008C72.0105 71.689 69.2293 75.2741 69.4946 79.8484C69.4888 79.9235 69.4839 79.9977 69.478 80.0718H64.612C64.4686 76.8945 65.2081 73.9669 67.1123 71.3602C70.2702 67.0357 75.8474 65.0631 81.0967 66.4269C83.6229 67.0876 85.8937 68.489 87.6167 70.451C89.3398 72.4129 90.4363 74.8456 90.7653 77.4359C90.8697 78.3158 90.8433 79.1929 90.8609 80.0718Z" fill="#1B2868"/>
<path opacity="0.6" d="M95.2335 101.301C95.2205 101.521 95.1934 101.739 95.1525 101.954C94.6209 103.427 93.658 104.111 92.0972 104.112H63.3772C62.2407 104.112 61.4193 103.748 60.8535 102.983L77.6952 80.0737H85.9951C85.9883 79.9605 85.9825 79.8464 85.9756 79.7332C86.02 79.0546 85.9926 78.3731 85.8937 77.7002C85.6186 75.7306 84.5592 73.9932 83.0754 72.7562L85.9434 68.854C88.6138 70.973 90.3455 74.0558 90.7655 77.4388C90.8699 78.3168 90.8475 79.1947 90.8631 80.0727C91.3684 80.0796 91.8738 80.0815 92.3791 80.0942C93.9399 80.1352 95.2238 81.3448 95.2286 82.8833C95.2462 89.0223 95.2335 95.1624 95.2335 101.301Z" fill="#A6C8FF"/>
<path d="M81.5048 91.3862C81.3799 92.4046 80.7995 93.1499 80.0015 93.7392C79.7615 93.9167 79.6649 94.0845 79.6737 94.3733C79.6932 95.0318 79.6903 95.6912 79.6737 96.3497C79.6513 97.5028 78.7899 98.3662 77.7002 98.3457C76.6271 98.3262 75.8145 97.4784 75.7881 96.3487C75.7759 96.1294 75.7759 95.9096 75.7881 95.6902C75.874 94.702 75.8359 93.8182 74.8497 93.1538C74.2975 92.7841 74.0185 92.0925 73.959 91.3842C74.0829 91.1793 74.2185 90.9803 74.3287 90.7686C75.0428 89.4029 76.2418 88.759 77.7285 88.759C79.2152 88.759 80.4151 89.4019 81.1302 90.7677C81.2463 90.9823 81.3799 91.1813 81.5048 91.3862Z" fill="#1B2868"/>
<path d="M81.5048 91.3861C81.3809 91.1812 81.2463 90.9822 81.136 90.7705C80.421 89.4047 79.222 88.7609 77.7343 88.7618C76.2466 88.7628 75.0487 89.4057 74.3346 90.7715C74.2243 90.9832 74.0887 91.1822 73.9648 91.387C73.2732 88.9804 75.7091 86.4225 78.2787 86.8566C80.5439 87.239 82.0784 89.3911 81.5048 91.3861Z" fill="#05103A"/>
<defs>
<linearGradient id="paint0_linear_93_6544" x1="-11.1464" y1="41.8976" x2="91.6369" y2="75.2939" gradientUnits="userSpaceOnUse">
<stop stop-color="#6CBCFC"/>
<stop offset="0.1713" stop-color="#5EABFC"/>
<stop offset="0.4084" stop-color="#509AFC"/>
<stop offset="0.6698" stop-color="#4890FC"/>
<stop offset="1" stop-color="#458DFC"/>
</linearGradient>
<linearGradient id="paint1_linear_93_6544" x1="16.9616" y1="35.2489" x2="28.6984" y2="50.4" gradientUnits="userSpaceOnUse">
<stop stop-color="#6CBCFC"/>
<stop offset="1" stop-color="#458DFC"/>
</linearGradient>
<linearGradient id="paint2_linear_93_6544" x1="15.6889" y1="36.2352" x2="27.4257" y2="51.3863" gradientUnits="userSpaceOnUse">
<stop stop-color="#B0F4FF"/>
<stop offset="0.0994384" stop-color="#A1EFFE"/>
<stop offset="0.2994" stop-color="#88E7FD"/>
<stop offset="0.5095" stop-color="#77E1FD"/>
<stop offset="0.7344" stop-color="#6CDDFC"/>
<stop offset="1" stop-color="#69DCFC"/>
</linearGradient>
<linearGradient id="paint3_linear_93_6544" x1="34.7348" y1="32.0611" x2="60.7259" y2="32.0767" gradientUnits="userSpaceOnUse">
<stop stop-color="#6CBCFC"/>
<stop offset="1" stop-color="#458DFC"/>
</linearGradient>
<linearGradient id="paint4_linear_93_6544" x1="34.7396" y1="36.6845" x2="51.7757" y2="36.6845" gradientUnits="userSpaceOnUse">
<stop stop-color="#6CBCFC"/>
<stop offset="1" stop-color="#458DFC"/>
</linearGradient>
<linearGradient id="paint5_linear_93_6544" x1="34.745" y1="42.2116" x2="69.1227" y2="42.2116" gradientUnits="userSpaceOnUse">
<stop stop-color="#6CBCFC"/>
<stop offset="1" stop-color="#458DFC"/>
</linearGradient>
<linearGradient id="paint6_linear_93_6544" x1="12.1382" y1="57.7125" x2="68.4494" y2="57.7125" gradientUnits="userSpaceOnUse">
<stop stop-color="#6CBCFC"/>
<stop offset="1" stop-color="#458DFC"/>
</linearGradient>
<linearGradient id="paint7_linear_93_6544" x1="34.7505" y1="47.6229" x2="69.1282" y2="47.6229" gradientUnits="userSpaceOnUse">
<stop stop-color="#6CBCFC"/>
<stop offset="1" stop-color="#458DFC"/>
</linearGradient>
<clipPath id="clip0_93_6544">
<rect width="80.4905" height="114" fill="white" transform="translate(0 0.199951)"/>
</clipPath>
</defs>
</svg>
