<svg width="27" height="28" viewBox="0 0 27 28" fill="none" xmlns="http://www.w3.org/2000/svg">
<g clip-path="url(#clip0_194_9992)">
<path d="M14.778 10.666H19.778L19.2224 12.8882H14.778V22.8882H12.5558V12.8882H8.11133V10.666H12.5558V8.58596C12.5558 6.60485 12.7624 5.88596 13.1491 5.16152C13.528 4.44575 14.1133 3.86042 14.8291 3.48152C15.5536 3.09485 16.2724 2.88818 18.2536 2.88818C18.8336 2.88818 19.3424 2.94374 19.778 3.05485V5.11041H18.2536C16.7824 5.11041 16.3347 5.19707 15.878 5.44152C15.5402 5.62152 15.2891 5.87263 15.1091 6.21041C14.8647 6.66707 14.778 7.11485 14.778 8.58596V10.666Z" fill="white"/>
</g>
<defs>
<clipPath id="clip0_194_9992">
<rect width="26.6667" height="26.6667" fill="white" transform="translate(0.333984 0.666504)"/>
</clipPath>
</defs>
</svg>
