<svg width="168" height="103" viewBox="0 0 168 103" fill="none" xmlns="http://www.w3.org/2000/svg">
<g clip-path="url(#clip0_93_6514)">
<path d="M74.6294 31.9767L74.3994 79.7377L74.3611 88.9756C74.3227 96.316 67.3464 102.238 58.7602 102.2L15.8673 102.008C7.30021 101.951 0.362217 95.9711 0.400549 88.6114L0.668869 31.6126C0.688034 25.6712 5.28781 20.6498 11.5742 18.9823L11.5933 15.9158V14.3442L63.8582 14.5934L63.8391 19.2315C70.1063 20.9756 74.6485 26.0162 74.6294 31.9767Z" fill="url(#paint0_linear_93_6514)"/>
<path d="M67.7485 2.32735V2.74899L67.7102 7.73208L67.6718 12.6193V13.2135C67.6718 14.1334 66.9052 14.8809 65.9852 14.8809H65.5828L63.0529 14.8617L60.2739 14.8426L57.744 14.8234L54.965 14.8042L52.3967 14.7659L49.6177 14.7467L47.0878 14.7276L44.2896 14.7084L41.7406 14.6892L38.9616 14.6701L36.4317 14.6317L33.6527 14.6126L31.1228 14.5934L28.3246 14.5742L25.7755 14.5551L23.0157 14.5359L20.4858 14.5167L17.7068 14.4976L15.1577 14.4784L12.3787 14.4593L9.82966 14.4401H9.42718C8.50723 14.4401 7.75977 13.6735 7.75977 12.7535V12.7343V12.3127L7.83643 2.46151V1.86737C7.83643 0.947414 8.60306 0.199951 9.54218 0.199951H9.94466L15.2727 0.238283L20.6008 0.276614L23.1498 0.29578L25.9289 0.314946L28.4587 0.334111L33.7677 0.391608L36.5467 0.410774L39.0766 0.42994L41.8556 0.449106L44.3855 0.468271L47.1645 0.487437L49.6944 0.506603L52.4734 0.525769L55.0033 0.544934L57.8206 0.583266L60.3505 0.602431L63.1295 0.621597L65.6786 0.640763H66.0811C67.0202 0.659929 67.7485 1.40739 67.7485 2.32735Z" fill="url(#paint1_linear_93_6514)"/>
<path d="M67.7485 2.76808L67.7102 7.732L67.6718 12.6193L65.3911 12.6001L62.3629 12.5809L59.5839 12.5618H56.5365L53.7575 12.5426L50.7293 12.5234L47.9503 12.5043H44.9029L42.1239 12.4851L39.0766 12.4659L36.3167 12.4468H33.2693L30.4903 12.4276L27.443 12.4084L24.6639 12.3893H21.6358L18.8567 12.3701L15.8094 12.3509L13.0303 12.3318H10.0022L7.75977 12.3126L7.83643 2.46143L13.1645 2.48059L18.9717 2.51892L21.7507 2.53809L24.7981 2.55725H27.5771L33.3843 2.59559L36.4317 2.61475H39.2107L42.2581 2.63392L45.0179 2.65308L48.0653 2.67225H50.8443L53.8917 2.69141L56.6515 2.71058L59.6989 2.72975H62.4779L65.5253 2.74891L67.7485 2.76808Z" fill="url(#paint2_linear_93_6514)"/>
<path d="M74.5729 42.061L0.612305 41.7112L0.457223 74.5037L74.4178 74.8535L74.5729 42.061Z" fill="#F7F9FC"/>
<path d="M74.5865 42.0608L0.625977 41.7112L0.598069 47.6142L74.5586 47.9639L74.5865 42.0608Z" fill="#FBFCF7"/>
<path d="M29.4555 54.8964L24.6833 54.8772L24.7024 50.0858L18.1286 50.0667L18.1094 54.8389L13.3372 54.8197L13.2988 61.3744L18.0711 61.3936L18.0519 66.185L24.6258 66.2042L24.6449 61.4319L29.4172 61.4511L29.4555 54.8964Z" fill="url(#paint3_linear_93_6514)"/>
<path d="M61.8844 56.4872L38.2339 56.3722C37.6015 56.3722 37.084 55.8547 37.084 55.2222V54.6856C37.084 54.0531 37.6015 53.5356 38.2339 53.5356L61.8844 53.6506C62.5169 53.6506 63.0344 54.1681 63.0344 54.8006V55.3372C63.0344 55.9697 62.5169 56.4872 61.8844 56.4872Z" fill="url(#paint4_linear_93_6514)"/>
<path opacity="0.5" d="M61.8649 63.5211L38.2144 63.4061C37.5819 63.4061 37.0645 62.8886 37.0645 62.2562V61.7195C37.0645 61.0871 37.5819 60.5696 38.2144 60.5696L61.8649 60.6846C62.4974 60.6846 63.0148 61.202 63.0148 61.8345V62.3712C63.0148 63.0036 62.4974 63.5211 61.8649 63.5211Z" fill="url(#paint5_linear_93_6514)"/>
<path opacity="0.08" d="M7.75977 2.32745V2.7491L7.7981 7.73219L7.83643 12.6003V13.1944C7.83643 14.1144 8.60306 14.8618 9.52301 14.8618H9.92549L12.4745 14.8427L15.2536 14.8235L17.7834 14.8043L20.5625 14.7852L23.0923 14.766L25.8714 14.7468L28.4013 14.7277L31.1803 14.7085L33.7293 14.6893L36.5084 14.6702L39.0382 14.651L41.8173 14.6318L44.3471 14.6127L47.1262 14.5935L49.6752 14.5744L52.4542 14.5552L54.9841 14.536L57.7631 14.5169L60.293 14.4977L63.0721 14.4785L65.6211 14.4594H66.0236C66.9435 14.4594 67.691 13.6927 67.691 12.7728V12.7536V12.332C38.0416 13.6161 9.42718 0.640869 9.42718 0.640869C8.50723 0.660035 7.75977 1.4075 7.75977 2.32745Z" fill="#1A6FB5"/>
</g>
<rect width="167.28" height="102" rx="12.24" fill="#4285F4"/>
<rect width="167" height="102" rx="12" fill="url(#paint6_linear_93_6514)"/>
<g filter="url(#filter0_d_93_6514)">
<path d="M14.9489 51.9392L14.3369 51.4986L15.5242 49.9808L13.6637 49.43L13.9085 48.7079L15.7078 49.3566L15.6466 47.4472H16.4054L16.3442 49.3688L18.168 48.7079L18.4006 49.43L16.5523 49.9808L17.7396 51.4986L17.1154 51.9392L16.0382 50.3358L14.9489 51.9392ZM20.519 51.9392L19.907 51.4986L21.0943 49.9808L19.2338 49.43L19.4786 48.7079L21.2779 49.3566L21.2167 47.4472H21.9756L21.9144 49.3688L23.7382 48.7079L23.9707 49.43L22.1225 49.9808L23.3098 51.4986L22.6855 51.9392L21.6084 50.3358L20.519 51.9392ZM26.0892 51.9392L25.4772 51.4986L26.6645 49.9808L24.804 49.43L25.0488 48.7079L26.8481 49.3566L26.7869 47.4472H27.5458L27.4846 49.3688L29.3083 48.7079L29.5409 49.43L27.6926 49.9808L28.8799 51.4986L28.2557 51.9392L27.1786 50.3358L26.0892 51.9392ZM31.6594 51.9392L31.0474 51.4986L32.2346 49.9808L30.3742 49.43L30.619 48.7079L32.4182 49.3566L32.357 47.4472H33.1159L33.0547 49.3688L34.8785 48.7079L35.111 49.43L33.2628 49.9808L34.4501 51.4986L33.8258 51.9392L32.7487 50.3358L31.6594 51.9392ZM40.421 51.9392L39.809 51.4986L40.9963 49.9808L39.1358 49.43L39.3806 48.7079L41.1799 49.3566L41.1187 47.4472H41.8776L41.8164 49.3688L43.6401 48.7079L43.8727 49.43L42.0244 49.9808L43.2117 51.4986L42.5875 51.9392L41.5104 50.3358L40.421 51.9392ZM45.9912 51.9392L45.3792 51.4986L46.5664 49.9808L44.706 49.43L44.9508 48.7079L46.75 49.3566L46.6888 47.4472H47.4477L47.3865 49.3688L49.2103 48.7079L49.4428 49.43L47.5946 49.9808L48.7819 51.4986L48.1576 51.9392L47.0805 50.3358L45.9912 51.9392ZM51.5613 51.9392L50.9493 51.4986L52.1366 49.9808L50.2761 49.43L50.5209 48.7079L52.3202 49.3566L52.259 47.4472H53.0179L52.9567 49.3688L54.7804 48.7079L55.013 49.43L53.1647 49.9808L54.352 51.4986L53.7278 51.9392L52.6507 50.3358L51.5613 51.9392ZM57.1315 51.9392L56.5195 51.4986L57.7067 49.9808L55.8463 49.43L56.0911 48.7079L57.8903 49.3566L57.8291 47.4472H58.588L58.5268 49.3688L60.3506 48.7079L60.5831 49.43L58.7349 49.9808L59.9222 51.4986L59.2979 51.9392L58.2208 50.3358L57.1315 51.9392ZM65.8931 51.9392L65.2811 51.4986L66.4684 49.9808L64.6079 49.43L64.8527 48.7079L66.652 49.3566L66.5908 47.4472H67.3497L67.2885 49.3688L69.1122 48.7079L69.3448 49.43L67.4965 49.9808L68.6838 51.4986L68.0596 51.9392L66.9825 50.3358L65.8931 51.9392ZM71.4633 51.9392L70.8513 51.4986L72.0385 49.9808L70.1781 49.43L70.4229 48.7079L72.2221 49.3566L72.1609 47.4472H72.9198L72.8586 49.3688L74.6824 48.7079L74.9149 49.43L73.0667 49.9808L74.254 51.4986L73.6297 51.9392L72.5526 50.3358L71.4633 51.9392ZM77.0334 51.9392L76.4214 51.4986L77.6087 49.9808L75.7482 49.43L75.993 48.7079L77.7923 49.3566L77.7311 47.4472H78.49L78.4288 49.3688L80.2525 48.7079L80.4851 49.43L78.6369 49.9808L79.8241 51.4986L79.1999 51.9392L78.1228 50.3358L77.0334 51.9392ZM82.6036 51.9392L81.9916 51.4986L83.1789 49.9808L81.3184 49.43L81.5632 48.7079L83.3625 49.3566L83.3013 47.4472H84.0601L83.9989 49.3688L85.8227 48.7079L86.0553 49.43L84.207 49.9808L85.3943 51.4986L84.7701 51.9392L83.6929 50.3358L82.6036 51.9392ZM93.1645 55.9172V48.2428L93.7398 48.5365L91.3775 50.042V49.0751L93.6051 47.6552H94.1804V55.9172H93.1645ZM91.2428 56.3701V55.5256H96.1021V56.3701H91.2428ZM98.0312 56.3701V55.6112L101.079 52.233C101.487 51.776 101.785 51.364 101.973 50.9968C102.16 50.6296 102.254 50.2624 102.254 49.8952C102.254 49.4137 102.115 49.0465 101.838 48.7936C101.56 48.5324 101.165 48.4019 100.651 48.4019C100.226 48.4019 99.8101 48.4876 99.4021 48.6589C98.9941 48.8221 98.5861 49.071 98.1781 49.4056L97.7987 48.6344C98.1414 48.308 98.5739 48.0469 99.0961 47.8511C99.6184 47.6552 100.145 47.5573 100.675 47.5573C101.205 47.5573 101.662 47.6512 102.046 47.8388C102.438 48.0184 102.74 48.2795 102.952 48.6222C103.164 48.9649 103.27 49.3729 103.27 49.8462C103.27 50.344 103.156 50.8254 102.927 51.2905C102.707 51.7475 102.336 52.2616 101.813 52.8328L98.8758 56.0152L98.8024 55.5256H103.637V56.3701H98.0312ZM107.941 56.4558C107.378 56.4558 106.835 56.362 106.313 56.1743C105.799 55.9866 105.362 55.7214 105.003 55.3787L105.395 54.6076C105.787 54.9421 106.191 55.1951 106.607 55.3664C107.023 55.5296 107.459 55.6112 107.916 55.6112C108.537 55.6112 109.006 55.4725 109.324 55.1951C109.65 54.9176 109.814 54.5096 109.814 53.9711C109.814 53.4325 109.646 53.0327 109.312 52.7716C108.977 52.5023 108.475 52.3676 107.806 52.3676H106.803V51.5231H107.61C108.255 51.5231 108.749 51.3803 109.091 51.0947C109.434 50.8091 109.605 50.4011 109.605 49.8707C109.605 49.3974 109.463 49.0343 109.177 48.7813C108.9 48.5284 108.504 48.4019 107.99 48.4019C107.557 48.4019 107.137 48.4876 106.729 48.6589C106.321 48.8221 105.917 49.071 105.517 49.4056L105.138 48.6344C105.489 48.2999 105.921 48.0388 106.435 47.8511C106.949 47.6552 107.48 47.5573 108.027 47.5573C108.549 47.5573 109.006 47.6512 109.397 47.8388C109.789 48.0184 110.087 48.2754 110.291 48.61C110.503 48.9445 110.609 49.3403 110.609 49.7972C110.609 50.3358 110.466 50.7968 110.181 51.1804C109.903 51.5557 109.52 51.8128 109.03 51.9515L108.993 51.8291C109.581 51.9515 110.03 52.2004 110.34 52.5757C110.65 52.9511 110.805 53.4284 110.805 54.0078C110.805 54.7667 110.548 55.3664 110.034 55.8071C109.52 56.2396 108.822 56.4558 107.941 56.4558ZM116.308 56.3701V48.916H116.614L112.991 54.1424L113.003 53.6406H118.634V54.4729H112.294V53.714L116.492 47.6552H117.312V56.3701H116.308Z" fill="white"/>
</g>
<path fill-rule="evenodd" clip-rule="evenodd" d="M144.993 86.6994C143.754 85.6549 142.968 84.1006 142.968 82.3649C142.968 80.6293 143.754 79.075 144.993 78.0304C143.987 77.1821 142.681 76.6699 141.255 76.6699C138.071 76.6699 135.491 79.2197 135.491 82.3649C135.491 85.5102 138.071 88.0599 141.255 88.0599C142.681 88.0599 143.987 87.5478 144.993 86.6994Z" fill="white"/>
<path opacity="0.7" fill-rule="evenodd" clip-rule="evenodd" d="M144.993 86.6993C146.232 85.6547 147.018 84.1004 147.018 82.3648C147.018 80.6291 146.232 79.0748 144.993 78.0303C143.754 79.0748 142.968 80.6291 142.968 82.3648C142.968 84.1004 143.754 85.6547 144.993 86.6993Z" fill="white"/>
<path opacity="0.3" fill-rule="evenodd" clip-rule="evenodd" d="M144.993 86.6994C146.232 85.6549 147.018 84.1006 147.018 82.3649C147.018 80.6293 146.232 79.075 144.993 78.0304C146 77.1821 147.305 76.6699 148.732 76.6699C151.915 76.6699 154.495 79.2197 154.495 82.3649C154.495 85.5102 151.915 88.0599 148.732 88.0599C147.305 88.0599 146 87.5478 144.993 86.6994Z" fill="white"/>
<path d="M80.5801 22.3445V24.7352H83.6401V22.3445C83.6401 22.3445 83.6401 20.9102 82.1101 20.9102C80.5801 20.9102 80.5801 22.3445 80.5801 22.3445Z" stroke="white" stroke-width="1.02" stroke-linecap="round"/>
<path d="M79.0498 27.0301V22.2489C79.0498 22.2489 79.0498 19.3801 82.1098 19.3801C85.1698 19.3801 85.1698 22.2489 85.1698 22.2489V27.0301" stroke="white" stroke-width="1.02" stroke-linecap="round"/>
<path d="M77.5205 22.1532C77.5205 22.1532 77.5205 17.8501 82.1105 17.8501C86.7005 17.8501 86.7005 22.1532 86.7005 22.1532" stroke="white" stroke-width="1.02" stroke-linecap="round"/>
<path d="M94.8838 20.9548C95.3152 21.4065 95.556 22.0071 95.556 22.6317C95.556 23.2564 95.3152 23.857 94.8838 24.3086" stroke="white" stroke-width="1.02" stroke-linecap="round" stroke-linejoin="round"/>
<path d="M97.0859 19.332C97.9478 20.2142 98.4303 21.3985 98.4303 22.6317C98.4303 23.865 97.9478 25.0493 97.0859 25.9315" stroke="white" stroke-width="1.02" stroke-linecap="round" stroke-linejoin="round"/>
<path d="M99.9609 17.7102C101.253 19.0222 101.978 20.7899 101.978 22.6315C101.978 24.473 101.253 26.2407 99.9609 27.5527" stroke="white" stroke-width="1.02" stroke-linecap="round" stroke-linejoin="round"/>
<g clip-path="url(#clip1_93_6514)">
<path d="M126.274 16.3201H110.365C110.299 16.3201 110.233 16.3201 110.167 16.3204C110.111 16.3208 110.055 16.3215 109.999 16.323C109.878 16.3262 109.755 16.3333 109.635 16.3546C109.513 16.3763 109.399 16.4116 109.288 16.4673C109.179 16.5219 109.08 16.5934 108.993 16.6787C108.907 16.764 108.834 16.8622 108.779 16.9698C108.723 17.0791 108.687 17.1911 108.665 17.3116C108.643 17.4302 108.636 17.5512 108.633 17.6711C108.631 17.7261 108.631 17.7812 108.63 17.8362C108.63 17.9016 108.63 17.9669 108.63 18.0324V26.8479C108.63 26.9134 108.63 26.9786 108.63 27.0441C108.631 27.0991 108.631 27.1542 108.633 27.2092C108.636 27.329 108.643 27.45 108.665 27.5685C108.687 27.689 108.723 27.8011 108.779 27.9104C108.834 28.018 108.907 28.1163 108.993 28.2015C109.08 28.2869 109.179 28.3584 109.288 28.4129C109.399 28.4687 109.513 28.504 109.635 28.5257C109.755 28.5469 109.878 28.5541 109.999 28.5573C110.055 28.5586 110.111 28.5593 110.167 28.5596C110.233 28.5601 110.299 28.5601 110.365 28.5601H126.274C126.34 28.5601 126.407 28.5601 126.473 28.5596C126.529 28.5593 126.585 28.5586 126.641 28.5573C126.762 28.5541 126.885 28.5469 127.005 28.5257C127.127 28.504 127.241 28.4687 127.351 28.4129C127.46 28.3584 127.56 28.2869 127.646 28.2015C127.733 28.1163 127.805 28.018 127.861 27.9104C127.917 27.8011 127.953 27.689 127.975 27.5685C127.996 27.45 128.004 27.329 128.007 27.2092C128.008 27.1542 128.009 27.0991 128.009 27.0441C128.01 26.9786 128.01 26.9134 128.01 26.8479V18.0324C128.01 17.9669 128.01 17.9016 128.009 17.8362C128.009 17.7812 128.008 17.7261 128.007 17.6711C128.004 17.5512 127.996 17.4302 127.975 17.3116C127.953 17.1911 127.917 17.0791 127.861 16.9698C127.805 16.8622 127.733 16.764 127.646 16.6787C127.56 16.5934 127.46 16.5219 127.351 16.4673C127.241 16.4116 127.127 16.3763 127.005 16.3546C126.885 16.3333 126.762 16.3262 126.641 16.323C126.585 16.3215 126.529 16.3208 126.473 16.3204C126.407 16.3201 126.34 16.3201 126.274 16.3201Z" fill="black"/>
<path d="M126.274 16.728L126.47 16.7284C126.523 16.7288 126.576 16.7293 126.629 16.7308C126.722 16.7332 126.83 16.7382 126.931 16.7561C127.019 16.7717 127.093 16.7954 127.164 16.831C127.233 16.866 127.297 16.9119 127.353 16.9669C127.409 17.0223 127.456 17.0855 127.492 17.1552C127.528 17.2245 127.552 17.2968 127.567 17.3842C127.585 17.4828 127.59 17.5902 127.593 17.6822C127.594 17.7342 127.595 17.7861 127.595 17.8393C127.596 17.9036 127.596 17.9679 127.596 18.0324V26.8478C127.596 26.9123 127.596 26.9765 127.595 27.0422C127.595 27.0941 127.594 27.1461 127.593 27.1981C127.59 27.29 127.585 27.3973 127.567 27.4971C127.552 27.5833 127.528 27.6557 127.492 27.7252C127.456 27.7947 127.409 27.8579 127.354 27.913C127.297 27.9684 127.234 28.0141 127.163 28.0495C127.093 28.0848 127.019 28.1086 126.932 28.124C126.829 28.1422 126.716 28.1471 126.631 28.1494C126.577 28.1506 126.524 28.1513 126.469 28.1516C126.404 28.1521 126.339 28.1521 126.274 28.1521H110.365C110.364 28.1521 110.363 28.1521 110.362 28.1521C110.298 28.1521 110.234 28.1521 110.168 28.1516C110.115 28.1513 110.061 28.1506 110.01 28.1495C109.923 28.1471 109.81 28.1422 109.707 28.1241C109.62 28.1086 109.546 28.0848 109.475 28.049C109.405 28.014 109.341 27.9683 109.285 27.9128C109.229 27.8578 109.183 27.7949 109.147 27.7253C109.111 27.6557 109.087 27.5831 109.071 27.4959C109.053 27.3963 109.048 27.2895 109.046 27.1982C109.044 27.1459 109.044 27.0937 109.043 27.0417L109.043 26.8883L109.043 26.8478V18.0324L109.043 17.9919L109.043 17.8388C109.044 17.7866 109.044 17.7343 109.046 17.6821C109.048 17.5907 109.053 17.4838 109.072 17.3834C109.087 17.297 109.111 17.2244 109.147 17.1545C109.183 17.0854 109.229 17.0224 109.285 16.9671C109.341 16.912 109.405 16.8661 109.476 16.8308C109.546 16.7954 109.62 16.7717 109.707 16.7561C109.809 16.7382 109.917 16.7332 110.01 16.7308C110.063 16.7293 110.116 16.7288 110.169 16.7284L110.365 16.728H126.274Z" fill="white"/>
<path d="M113.919 20.4369C114.085 20.2321 114.198 19.9572 114.168 19.6763C113.925 19.6882 113.629 19.8344 113.457 20.0393C113.303 20.2148 113.166 20.5012 113.202 20.7704C113.475 20.7937 113.747 20.6359 113.919 20.4369Z" fill="black"/>
<path d="M114.165 20.8228C113.769 20.7996 113.433 21.0446 113.244 21.0446C113.054 21.0446 112.765 20.8346 112.452 20.8402C112.044 20.8461 111.666 21.0735 111.459 21.4352C111.033 22.1587 111.346 23.2319 111.76 23.8212C111.961 24.1127 112.203 24.4337 112.522 24.4222C112.824 24.4105 112.942 24.2296 113.309 24.2296C113.675 24.2296 113.781 24.4222 114.1 24.4163C114.431 24.4105 114.638 24.1247 114.839 23.8328C115.07 23.5005 115.164 23.1796 115.17 23.162C115.164 23.1562 114.532 22.9169 114.526 22.1994C114.52 21.5987 115.022 21.3129 115.046 21.2952C114.762 20.8812 114.319 20.8346 114.165 20.8228Z" fill="black"/>
<path d="M117.614 20.01C118.475 20.01 119.074 20.5953 119.074 21.4475C119.074 22.3026 118.463 22.891 117.593 22.891H116.64V24.3861H115.951V20.01H117.614V20.01ZM116.64 22.3208H117.43C118.029 22.3208 118.37 22.0025 118.37 21.4505C118.37 20.8986 118.029 20.5832 117.433 20.5832H116.64V22.3208Z" fill="black"/>
<path d="M119.254 23.4791C119.254 22.9211 119.687 22.5784 120.456 22.536L121.341 22.4844V22.2388C121.341 21.884 121.098 21.6717 120.693 21.6717C120.308 21.6717 120.068 21.8536 120.01 22.1387H119.383C119.42 21.5625 119.918 21.1379 120.717 21.1379C121.501 21.1379 122.002 21.5473 122.002 22.1872V24.3859H121.366V23.8612H121.35C121.163 24.216 120.754 24.4404 120.33 24.4404C119.697 24.4404 119.254 24.0523 119.254 23.4791ZM121.341 23.191V22.9393L120.545 22.9878C120.148 23.0151 119.924 23.188 119.924 23.4609C119.924 23.7399 120.158 23.9219 120.514 23.9219C120.978 23.9219 121.341 23.6065 121.341 23.191Z" fill="black"/>
<path d="M122.603 25.5597V25.029C122.652 25.0411 122.763 25.0411 122.818 25.0411C123.125 25.0411 123.291 24.9138 123.393 24.5863C123.393 24.5802 123.451 24.3922 123.451 24.3891L122.283 21.1958H123.002L123.82 23.7917H123.832L124.65 21.1958H125.351L124.14 24.5529C123.863 25.3262 123.544 25.5749 122.873 25.5749C122.818 25.5749 122.652 25.5688 122.603 25.5597Z" fill="black"/>
</g>
<path d="M148.936 16.3201H138.194C134.837 16.3201 132.09 19.0741 132.09 22.4401C132.09 25.8061 134.837 28.5601 138.194 28.5601H148.936C152.293 28.5601 155.04 25.8061 155.04 22.4401C155.04 19.0741 152.293 16.3201 148.936 16.3201Z" fill="white"/>
<path d="M143.063 22.8746V24.7259H142.476V20.1543H144.033C144.428 20.1543 144.764 20.2859 145.04 20.549C145.321 20.8122 145.462 21.1335 145.462 21.5129C145.462 21.9016 145.321 22.2229 145.04 22.483C144.768 22.7431 144.431 22.8716 144.033 22.8716H143.063V22.8746ZM143.063 20.7173V22.3116H144.045C144.278 22.3116 144.474 22.232 144.627 22.076C144.783 21.9199 144.862 21.7302 144.862 21.516C144.862 21.3049 144.783 21.1182 144.627 20.9621C144.474 20.8 144.281 20.7204 144.045 20.7204H143.063V20.7173Z" fill="#3C4043"/>
<path d="M146.999 21.4946C147.433 21.4946 147.776 21.6109 148.027 21.8435C148.278 22.076 148.403 22.3943 148.403 22.7982V24.726H147.843V24.2915H147.819C147.577 24.6495 147.253 24.827 146.849 24.827C146.503 24.827 146.215 24.726 145.983 24.521C145.75 24.3159 145.634 24.062 145.634 23.756C145.634 23.4316 145.756 23.1746 146.001 22.9848C146.246 22.7921 146.573 22.6972 146.98 22.6972C147.329 22.6972 147.617 22.7615 147.84 22.89V22.7553C147.84 22.5503 147.76 22.379 147.598 22.2351C147.436 22.0913 147.246 22.0209 147.029 22.0209C146.702 22.0209 146.442 22.1586 146.252 22.4371L145.735 22.1127C146.019 21.6996 146.442 21.4946 146.999 21.4946ZM146.24 23.7651C146.24 23.9181 146.304 24.0467 146.436 24.1476C146.564 24.2486 146.717 24.3006 146.891 24.3006C147.139 24.3006 147.36 24.2088 147.552 24.0252C147.745 23.8416 147.843 23.6274 147.843 23.3796C147.66 23.2358 147.406 23.1623 147.078 23.1623C146.839 23.1623 146.641 23.2205 146.481 23.3337C146.319 23.453 146.24 23.5968 146.24 23.7651Z" fill="#3C4043"/>
<path d="M151.597 21.5957L149.639 26.1H149.033L149.761 24.5241L148.47 21.5957H149.109L150.04 23.8417H150.052L150.958 21.5957H151.597Z" fill="#3C4043"/>
<path d="M140.726 22.5011C140.726 22.3095 140.709 22.1262 140.678 21.95H138.215V22.9598L139.633 22.9601C139.576 23.296 139.39 23.5825 139.107 23.7734V24.4286H139.951C140.444 23.9723 140.726 23.2979 140.726 22.5011Z" fill="#4285F4"/>
<path d="M139.107 23.7734C138.872 23.9319 138.57 24.0246 138.216 24.0246C137.532 24.0246 136.952 23.5638 136.744 22.9426H135.873V23.6183C136.305 24.4745 137.191 25.062 138.216 25.062C138.924 25.062 139.519 24.8291 139.952 24.4283L139.107 23.7734Z" fill="#34A853"/>
<path d="M136.661 22.4413C136.661 22.2669 136.69 22.0983 136.743 21.9398V21.2642H135.873C135.694 21.6182 135.594 22.0178 135.594 22.4413C135.594 22.8648 135.694 23.2645 135.873 23.6185L136.743 22.9429C136.69 22.7844 136.661 22.6158 136.661 22.4413Z" fill="#FABB05"/>
<path d="M138.216 20.8579C138.602 20.8579 138.948 20.991 139.222 21.2511L139.97 20.5035C139.515 20.0804 138.923 19.8206 138.216 19.8206C137.192 19.8206 136.305 20.4081 135.873 21.2643L136.744 21.9399C136.952 21.3187 137.532 20.8579 138.216 20.8579Z" fill="#E94235"/>
<path d="M25.882 15.8101H31.1095C32.2362 15.8101 33.1495 16.7234 33.1495 17.8501V20.5984V24.2817V27.0301C33.1495 28.1567 32.2362 29.0701 31.1095 29.0701H25.882H21.037H15.8095C14.6829 29.0701 13.7695 28.1567 13.7695 27.0301V24.2817V20.5984V17.8501C13.7695 16.7234 14.6829 15.8101 15.8095 15.8101H21.037H25.882Z" fill="#F6C859"/>
<path d="M21.037 15.8101H25.882M21.037 15.8101H17.7695C15.5604 15.8101 13.7695 17.6009 13.7695 19.8101V20.5984M21.037 15.8101V18.2042M25.882 15.8101H29.1495C31.3587 15.8101 33.1495 17.6009 33.1495 19.8101V20.5984M25.882 15.8101V18.2042H21.037M21.037 29.0701H17.7695C15.5604 29.0701 13.7695 27.2792 13.7695 25.0701V24.2817M21.037 29.0701H25.882M21.037 29.0701V26.6759M25.882 29.0701H29.1495C31.3587 29.0701 33.1495 27.2792 33.1495 25.0701V24.2817M25.882 29.0701V26.6759M13.7695 24.2817V20.5984M13.7695 24.2817H21.037M33.1495 24.2817V20.5984M33.1495 24.2817H25.882M13.7695 20.5984H21.037M33.1495 20.5984H25.882V24.2817M21.037 20.5984V24.2817M21.037 20.5984V18.2042M21.037 24.2817V26.6759M25.882 24.2817V26.6759M21.037 26.6759H25.882" stroke="#7D662D" stroke-width="0.51"/>
<g filter="url(#filter1_d_93_6514)">
<path d="M30.8038 77.9235C30.0572 77.9235 29.488 77.642 29.0963 77.079C28.7108 76.5098 28.518 75.6775 28.518 74.582C28.518 73.4865 28.7108 72.6573 29.0963 72.0942C29.4819 71.5251 30.051 71.2405 30.8038 71.2405C31.5566 71.2405 32.1257 71.5251 32.5113 72.0942C32.8968 72.6573 33.0896 73.4835 33.0896 74.5728C33.0896 75.6683 32.8938 76.5006 32.5021 77.0698C32.1165 77.639 31.5504 77.9235 30.8038 77.9235ZM30.8038 77.2901C31.324 77.2901 31.7065 77.0698 31.9513 76.6292C32.2022 76.1885 32.3277 75.5031 32.3277 74.5728C32.3277 73.6426 32.2022 72.9633 31.9513 72.5349C31.7065 72.1004 31.324 71.8831 30.8038 71.8831C30.2836 71.8831 29.898 72.1004 29.6471 72.5349C29.4023 72.9694 29.2799 73.6487 29.2799 74.5728C29.2799 75.5031 29.4023 76.1885 29.6471 76.6292C29.898 77.0698 30.2836 77.2901 30.8038 77.2901ZM36.1705 77.5104V71.7546L36.602 71.9749L34.8302 73.104V72.3788L36.501 71.3139H36.9325V77.5104H36.1705ZM34.7293 77.8501V77.2167H38.3737V77.8501H34.7293ZM39.5268 78.355H38.8475L41.2068 70.9743H41.8953L39.5268 78.355ZM42.4383 77.8501V77.2809L44.7241 74.7473C45.0301 74.4045 45.2535 74.0955 45.3943 73.8201C45.535 73.5447 45.6054 73.2693 45.6054 72.9939C45.6054 72.6328 45.5014 72.3574 45.2933 72.1677C45.0852 71.9718 44.7884 71.8739 44.4028 71.8739C44.0846 71.8739 43.7725 71.9382 43.4665 72.0667C43.1605 72.1891 42.8545 72.3758 42.5485 72.6267L42.2639 72.0483C42.5209 71.8035 42.8453 71.6077 43.237 71.4608C43.6286 71.3139 44.0234 71.2405 44.4212 71.2405C44.819 71.2405 45.1617 71.3109 45.4493 71.4516C45.7431 71.5863 45.9695 71.7821 46.1287 72.0392C46.2878 72.2962 46.3673 72.6022 46.3673 72.9572C46.3673 73.3305 46.2817 73.6916 46.1103 74.0404C45.9451 74.3831 45.6666 74.7687 45.2749 75.1971L43.0717 77.5839L43.0166 77.2167H46.6427V77.8501H42.4383ZM47.9427 77.8501V77.2809L50.2285 74.7473C50.5345 74.4045 50.7579 74.0955 50.8987 73.8201C51.0394 73.5447 51.1098 73.2693 51.1098 72.9939C51.1098 72.6328 51.0058 72.3574 50.7977 72.1677C50.5896 71.9718 50.2928 71.8739 49.9072 71.8739C49.589 71.8739 49.2769 71.9382 48.9709 72.0667C48.6649 72.1891 48.3589 72.3758 48.0529 72.6267L47.7683 72.0483C48.0253 71.8035 48.3497 71.6077 48.7414 71.4608C49.1331 71.3139 49.5278 71.2405 49.9256 71.2405C50.3234 71.2405 50.6661 71.3109 50.9538 71.4516C51.2475 71.5863 51.474 71.7821 51.6331 72.0392C51.7922 72.2962 51.8718 72.6022 51.8718 72.9572C51.8718 73.3305 51.7861 73.6916 51.6147 74.0404C51.4495 74.3831 51.171 74.7687 50.7793 75.1971L48.5761 77.5839L48.5211 77.2167H52.1472V77.8501H47.9427Z" fill="white"/>
</g>
<g filter="url(#filter2_d_93_6514)">
<path d="M13.8006 91.0901H12.9336L16.1262 83.8277H16.8606L20.0532 91.0901H19.1964L16.3506 84.4397H16.6566L13.8006 91.0901ZM14.2902 89.2235L14.586 88.5299H18.4008L18.6966 89.2235H14.2902ZM21.0362 91.0901V83.5829H21.8624V87.2753L21.7502 87.1733C21.8658 86.7517 22.0868 86.4253 22.4132 86.1941C22.7396 85.9561 23.134 85.8371 23.5964 85.8371C24.052 85.8371 24.4498 85.9459 24.7898 86.1635C25.1298 86.3811 25.395 86.6871 25.5854 87.0815C25.7826 87.4759 25.8812 87.9417 25.8812 88.4789C25.8812 89.0161 25.7826 89.4887 25.5854 89.8967C25.395 90.2979 25.1264 90.6107 24.7796 90.8351C24.4396 91.0527 24.0452 91.1615 23.5964 91.1615C23.134 91.1615 22.7396 91.0459 22.4132 90.8147C22.0868 90.5835 21.8658 90.2537 21.7502 89.8253L21.8624 89.7131V91.0901H21.0362ZM23.4434 90.4781C23.9398 90.4781 24.3274 90.3047 24.6062 89.9579C24.885 89.6043 25.0244 89.1113 25.0244 88.4789C25.0244 87.8601 24.885 87.3807 24.6062 87.0407C24.3274 86.7007 23.9398 86.5307 23.4434 86.5307C22.9334 86.5307 22.5424 86.7041 22.2704 87.0509C21.9984 87.3909 21.8624 87.8737 21.8624 88.4993C21.8624 89.1317 21.9984 89.6213 22.2704 89.9681C22.5424 90.3081 22.9334 90.4781 23.4434 90.4781ZM28.9678 91.1615C28.3558 91.1615 27.8934 90.9915 27.5806 90.6515C27.2746 90.3115 27.1216 89.8083 27.1216 89.1419V85.9595H27.9478V89.1215C27.9478 89.5839 28.043 89.9239 28.2334 90.1415C28.4238 90.3591 28.7128 90.4679 29.1004 90.4679C29.556 90.4679 29.9232 90.3217 30.202 90.0293C30.4808 89.7369 30.6202 89.3459 30.6202 88.8563V85.9595H31.4464V91.0901H30.6406V89.9783L30.763 89.9171C30.627 90.3251 30.3958 90.6345 30.0694 90.8453C29.7498 91.0561 29.3826 91.1615 28.9678 91.1615ZM32.7536 91.0901V90.5189L36.2624 86.2757L36.395 86.6123H32.8658V85.9595H36.9764V86.5613L33.488 90.7841L33.3758 90.4373H37.0886V91.0901H32.7536ZM42.4013 90.4781C42.1769 90.6889 41.8879 90.8555 41.5343 90.9779C41.1875 91.1003 40.8305 91.1615 40.4633 91.1615C39.9329 91.1615 39.4739 91.0561 39.0863 90.8453C38.7055 90.6345 38.4097 90.3319 38.1989 89.9375C37.9949 89.5363 37.8929 89.0603 37.8929 88.5095C37.8929 87.9791 37.9949 87.5133 38.1989 87.1121C38.4029 86.7109 38.6851 86.3981 39.0455 86.1737C39.4127 85.9493 39.8343 85.8371 40.3103 85.8371C40.7659 85.8371 41.1569 85.9391 41.4833 86.1431C41.8097 86.3403 42.0579 86.6259 42.2279 86.9999C42.4047 87.3739 42.4931 87.8227 42.4931 88.3463V88.4993H38.6171V87.9587H42.0239L41.7587 88.3361C41.7723 87.7377 41.6533 87.2787 41.4017 86.9591C41.1569 86.6395 40.7965 86.4797 40.3205 86.4797C39.8241 86.4797 39.4331 86.6565 39.1475 87.0101C38.8687 87.3569 38.7293 87.8397 38.7293 88.4585C38.7293 89.1249 38.8755 89.6281 39.1679 89.9681C39.4671 90.3081 39.9023 90.4781 40.4735 90.4781C40.7727 90.4781 41.0583 90.4305 41.3303 90.3353C41.6091 90.2333 41.8743 90.0803 42.1259 89.8763L42.4013 90.4781ZM43.7472 91.0901V87.3977C43.7472 87.1597 43.7404 86.9217 43.7268 86.6837C43.72 86.4389 43.6996 86.1975 43.6656 85.9595H44.451L44.5632 87.2243L44.451 87.1937C44.5462 86.7449 44.7502 86.4083 45.063 86.1839C45.3826 85.9527 45.7396 85.8371 46.134 85.8371C46.2224 85.8371 46.304 85.8439 46.3788 85.8575C46.4604 85.8643 46.5352 85.8779 46.6032 85.8983L46.5828 86.6531C46.4264 86.5987 46.2462 86.5715 46.0422 86.5715C45.6886 86.5715 45.403 86.6497 45.1854 86.8061C44.9746 86.9625 44.8182 87.1631 44.7162 87.4079C44.621 87.6459 44.5734 87.8975 44.5734 88.1627V91.0901H43.7472ZM50.2042 91.0901V83.8277H54.6922V84.5315H51.0304V87.0509H54.4882V87.7547H51.0304V91.0901H50.2042ZM55.8497 91.0901V85.9595H56.6759V91.0901H55.8497ZM55.7681 83.7869H56.7779V84.7253H55.7681V83.7869ZM58.2802 91.0901V87.3977C58.2802 87.1597 58.2734 86.9217 58.2598 86.6837C58.253 86.4389 58.2326 86.1975 58.1986 85.9595H58.984L59.0962 87.2243L58.984 87.1937C59.0792 86.7449 59.2832 86.4083 59.596 86.1839C59.9156 85.9527 60.2726 85.8371 60.667 85.8371C60.7554 85.8371 60.837 85.8439 60.9118 85.8575C60.9934 85.8643 61.0682 85.8779 61.1362 85.8983L61.1158 86.6531C60.9594 86.5987 60.7792 86.5715 60.5752 86.5715C60.2216 86.5715 59.936 86.6497 59.7184 86.8061C59.5076 86.9625 59.3512 87.1631 59.2492 87.4079C59.154 87.6459 59.1064 87.8975 59.1064 88.1627V91.0901H58.2802ZM66.3947 91.0901H65.5787V89.7131L65.7011 89.8253C65.5855 90.2537 65.3645 90.5835 65.0381 90.8147C64.7117 91.0459 64.3139 91.1615 63.8447 91.1615C63.3959 91.1615 62.9981 91.0527 62.6513 90.8351C62.3113 90.6107 62.0461 90.2979 61.8557 89.8967C61.6653 89.4887 61.5701 89.0161 61.5701 88.4789C61.5701 87.9417 61.6619 87.4759 61.8455 87.0815C62.0359 86.6871 62.3011 86.3811 62.6411 86.1635C62.9879 85.9459 63.3891 85.8371 63.8447 85.8371C64.3139 85.8371 64.7117 85.9561 65.0381 86.1941C65.3645 86.4253 65.5855 86.7517 65.7011 87.1733L65.5685 87.2753V83.5829H66.3947V91.0901ZM64.0079 90.4781C64.5043 90.4781 64.8885 90.3081 65.1605 89.9681C65.4393 89.6213 65.5787 89.1317 65.5787 88.4993C65.5787 87.8737 65.4427 87.3909 65.1707 87.0509C64.8987 86.7041 64.5111 86.5307 64.0079 86.5307C63.5047 86.5307 63.1103 86.7007 62.8247 87.0407C62.5459 87.3807 62.4065 87.8601 62.4065 88.4789C62.4065 89.1113 62.5459 89.6043 62.8247 89.9579C63.1103 90.3047 63.5047 90.4781 64.0079 90.4781ZM70.1137 91.1615C69.6241 91.1615 69.1957 91.0527 68.8285 90.8351C68.4681 90.6175 68.1859 90.3115 67.9819 89.9171C67.7847 89.5159 67.6861 89.0433 67.6861 88.4993C67.6861 87.9621 67.7847 87.4929 67.9819 87.0917C68.1859 86.6905 68.4681 86.3811 68.8285 86.1635C69.1957 85.9459 69.6241 85.8371 70.1137 85.8371C70.6033 85.8371 71.0283 85.9459 71.3887 86.1635C71.7559 86.3811 72.0381 86.6905 72.2353 87.0917C72.4393 87.4929 72.5413 87.9621 72.5413 88.4993C72.5413 89.0433 72.4393 89.5159 72.2353 89.9171C72.0381 90.3115 71.7559 90.6175 71.3887 90.8351C71.0283 91.0527 70.6033 91.1615 70.1137 91.1615ZM70.1137 90.4781C70.6169 90.4781 71.0045 90.3115 71.2765 89.9783C71.5553 89.6383 71.6947 89.1453 71.6947 88.4993C71.6947 87.8669 71.5553 87.3807 71.2765 87.0407C70.9977 86.7007 70.6101 86.5307 70.1137 86.5307C69.6173 86.5307 69.2263 86.7007 68.9407 87.0407C68.6619 87.3807 68.5225 87.8669 68.5225 88.4993C68.5225 89.1453 68.6585 89.6383 68.9305 89.9783C69.2093 90.3115 69.6037 90.4781 70.1137 90.4781ZM75.6448 91.1615C75.0328 91.1615 74.5704 90.9915 74.2576 90.6515C73.9516 90.3115 73.7986 89.8083 73.7986 89.1419V85.9595H74.6248V89.1215C74.6248 89.5839 74.72 89.9239 74.9104 90.1415C75.1008 90.3591 75.3898 90.4679 75.7774 90.4679C76.233 90.4679 76.6002 90.3217 76.879 90.0293C77.1578 89.7369 77.2972 89.3459 77.2972 88.8563V85.9595H78.1234V91.0901H77.3176V89.9783L77.44 89.9171C77.304 90.3251 77.0728 90.6345 76.7464 90.8453C76.4268 91.0561 76.0596 91.1615 75.6448 91.1615ZM81.4501 91.1615C80.5865 91.1615 79.9031 90.9405 79.3999 90.4985L79.6753 89.8865C79.9473 90.0973 80.2261 90.2537 80.5117 90.3557C80.8041 90.4509 81.1271 90.4985 81.4807 90.4985C81.8683 90.4985 82.1607 90.4339 82.3579 90.3047C82.5619 90.1687 82.6639 89.9749 82.6639 89.7233C82.6639 89.5193 82.5959 89.3595 82.4599 89.2439C82.3239 89.1215 82.0995 89.0229 81.7867 88.9481L80.9197 88.7441C80.4913 88.6489 80.1581 88.4789 79.9201 88.2341C79.6889 87.9893 79.5733 87.6969 79.5733 87.3569C79.5733 87.0577 79.6549 86.7959 79.8181 86.5715C79.9813 86.3403 80.2091 86.1601 80.5015 86.0309C80.7939 85.9017 81.1407 85.8371 81.5419 85.8371C81.9023 85.8371 82.2423 85.8949 82.5619 86.0105C82.8815 86.1261 83.1501 86.2927 83.3677 86.5103L83.0923 87.1121C82.8475 86.9081 82.5959 86.7585 82.3375 86.6633C82.0859 86.5613 81.8207 86.5103 81.5419 86.5103C81.1747 86.5103 80.8891 86.5817 80.6851 86.7245C80.4879 86.8673 80.3893 87.0611 80.3893 87.3059C80.3893 87.5167 80.4505 87.6833 80.5729 87.8057C80.7021 87.9281 80.9061 88.0233 81.1849 88.0913L82.0519 88.3055C82.5347 88.4075 82.8883 88.5775 83.1127 88.8155C83.3439 89.0467 83.4595 89.3425 83.4595 89.7029C83.4595 90.1449 83.2793 90.4985 82.9189 90.7637C82.5585 91.0289 82.0689 91.1615 81.4501 91.1615ZM84.7763 91.0901V85.9595H85.6025V91.0901H84.7763ZM84.6947 83.7869H85.7045V84.7253H84.6947V83.7869Z" fill="white"/>
</g>
<path d="M13.8466 72.8501L12.9286 70.0023H13.557L13.9813 71.3691L14.2057 72.2626H14.2179L14.4342 71.3691L14.8585 70.0023H15.4664L14.5402 72.8501H13.8466ZM17.1195 72.8501L16.9155 72.1728H15.9649L15.7609 72.8501H15.1326L16.071 70.0023H16.838L17.7642 72.8501H17.1195ZM16.4463 70.5653H16.4259L16.1118 71.6465H16.7646L16.4463 70.5653ZM17.9032 72.8501V70.0023H18.5233V72.2993H19.6086V72.8501H17.9032ZM19.7015 72.8501V72.3564H20.0687V70.4959H19.7015V70.0023H21.0561V70.4959H20.6889V72.3564H21.0561V72.8501H19.7015ZM21.3178 70.0023H22.3908C22.5785 70.0023 22.7499 70.0322 22.9049 70.092C23.06 70.1519 23.1919 70.2416 23.3007 70.3613C23.4095 70.4783 23.4938 70.6265 23.5536 70.806C23.6135 70.9828 23.6434 71.1895 23.6434 71.4262C23.6434 71.6628 23.6135 71.8709 23.5536 72.0504C23.4938 72.2272 23.4095 72.3755 23.3007 72.4951C23.1919 72.6121 23.06 72.7005 22.9049 72.7603C22.7499 72.8202 22.5785 72.8501 22.3908 72.8501H21.3178V70.0023ZM22.3908 72.2993C22.5758 72.2993 22.7213 72.2476 22.8274 72.1443C22.9335 72.0409 22.9865 71.875 22.9865 71.6465V71.2059C22.9865 70.9774 22.9335 70.8115 22.8274 70.7081C22.7213 70.6047 22.5758 70.5531 22.3908 70.5531H21.938V72.2993H22.3908ZM14.8132 75.5531V77.8501H14.1931V75.5531H13.422V75.0023H15.5844V75.5531H14.8132ZM17.4591 76.6832H16.3738V77.8501H15.7536V75.0023H16.3738V76.1365H17.4591V75.0023H18.0792V77.8501H17.4591V76.6832ZM19.0712 77.8501H18.451V75.0023H19.8015C19.9321 75.0023 20.0504 75.024 20.1565 75.0675C20.2626 75.1111 20.3523 75.1736 20.4258 75.2552C20.5019 75.3341 20.5604 75.4293 20.6012 75.5408C20.642 75.6523 20.6624 75.7761 20.6624 75.9121C20.6624 76.1052 20.6189 76.2739 20.5318 76.418C20.4475 76.5622 20.3183 76.6669 20.1442 76.7322L20.7032 77.8501H20.0137L19.5159 76.8056H19.0712V77.8501ZM19.724 76.2834C19.8165 76.2834 19.8886 76.2603 19.9402 76.214C19.9946 76.1651 20.0218 76.0943 20.0218 76.0019V75.8223C20.0218 75.7299 19.9946 75.6605 19.9402 75.6143C19.8886 75.5653 19.8165 75.5408 19.724 75.5408H19.0712V76.2834H19.724ZM21.477 75.0023V76.7485C21.477 76.9498 21.5164 77.1007 21.5953 77.2014C21.6742 77.2993 21.8061 77.3483 21.9911 77.3483C22.176 77.3483 22.308 77.2993 22.3868 77.2014C22.4657 77.1007 22.5052 76.9498 22.5052 76.7485V75.0023H23.109V76.6832C23.109 76.8927 23.0886 77.0749 23.0478 77.2299C23.0097 77.3823 22.9458 77.5087 22.856 77.6094C22.7663 77.7073 22.6507 77.7807 22.5092 77.8297C22.3678 77.8759 22.1951 77.8991 21.9911 77.8991C21.7871 77.8991 21.6144 77.8759 21.4729 77.8297C21.3315 77.7807 21.2159 77.7073 21.1261 77.6094C21.0364 77.5087 20.9711 77.3823 20.9303 77.2299C20.8922 77.0749 20.8732 76.8927 20.8732 76.6832V75.0023H21.477Z" fill="white"/>
<defs>
<filter id="filter0_d_93_6514" x="11.6241" y="46.4273" width="109.05" height="13.0885" filterUnits="userSpaceOnUse" color-interpolation-filters="sRGB">
<feFlood flood-opacity="0" result="BackgroundImageFix"/>
<feColorMatrix in="SourceAlpha" type="matrix" values="0 0 0 0 0 0 0 0 0 0 0 0 0 0 0 0 0 0 127 0" result="hardAlpha"/>
<feOffset dy="1.02"/>
<feGaussianBlur stdDeviation="1.02"/>
<feColorMatrix type="matrix" values="0 0 0 0 0 0 0 0 0 0 0 0 0 0 0 0 0 0 0.25 0"/>
<feBlend mode="normal" in2="BackgroundImageFix" result="effect1_dropShadow_93_6514"/>
<feBlend mode="normal" in="SourceGraphic" in2="effect1_dropShadow_93_6514" result="shape"/>
</filter>
<filter id="filter1_d_93_6514" x="26.4776" y="69.9544" width="27.7099" height="11.4606" filterUnits="userSpaceOnUse" color-interpolation-filters="sRGB">
<feFlood flood-opacity="0" result="BackgroundImageFix"/>
<feColorMatrix in="SourceAlpha" type="matrix" values="0 0 0 0 0 0 0 0 0 0 0 0 0 0 0 0 0 0 127 0" result="hardAlpha"/>
<feOffset dy="1.02"/>
<feGaussianBlur stdDeviation="1.02"/>
<feColorMatrix type="matrix" values="0 0 0 0 0 0 0 0 0 0 0 0 0 0 0 0 0 0 0.25 0"/>
<feBlend mode="normal" in2="BackgroundImageFix" result="effect1_dropShadow_93_6514"/>
<feBlend mode="normal" in="SourceGraphic" in2="effect1_dropShadow_93_6514" result="shape"/>
</filter>
<filter id="filter2_d_93_6514" x="10.8936" y="82.563" width="76.8505" height="11.6584" filterUnits="userSpaceOnUse" color-interpolation-filters="sRGB">
<feFlood flood-opacity="0" result="BackgroundImageFix"/>
<feColorMatrix in="SourceAlpha" type="matrix" values="0 0 0 0 0 0 0 0 0 0 0 0 0 0 0 0 0 0 127 0" result="hardAlpha"/>
<feOffset dy="1.02"/>
<feGaussianBlur stdDeviation="1.02"/>
<feColorMatrix type="matrix" values="0 0 0 0 0 0 0 0 0 0 0 0 0 0 0 0 0 0 0.25 0"/>
<feBlend mode="normal" in2="BackgroundImageFix" result="effect1_dropShadow_93_6514"/>
<feBlend mode="normal" in="SourceGraphic" in2="effect1_dropShadow_93_6514" result="shape"/>
</filter>
<linearGradient id="paint0_linear_93_6514" x1="0.400548" y1="13.7999" x2="68.9672" y2="108.433" gradientUnits="userSpaceOnUse">
<stop stop-color="#6CBCFC"/>
<stop offset="1" stop-color="#458DFC"/>
</linearGradient>
<linearGradient id="paint1_linear_93_6514" x1="-755.516" y1="-47.7173" x2="-32.7248" y2="2.62643" gradientUnits="userSpaceOnUse">
<stop stop-color="#B0F4FF"/>
<stop offset="0.0525488" stop-color="#A9F2FF"/>
<stop offset="0.2879" stop-color="#8DE8FE"/>
<stop offset="0.5247" stop-color="#79E1FD"/>
<stop offset="0.7618" stop-color="#6DDDFC"/>
<stop offset="1" stop-color="#69DCFC"/>
</linearGradient>
<linearGradient id="paint2_linear_93_6514" x1="7.76805" y1="7.53561" x2="67.751" y2="7.53561" gradientUnits="userSpaceOnUse">
<stop stop-color="#B0F4FF"/>
<stop offset="0.0525488" stop-color="#A9F2FF"/>
<stop offset="0.2879" stop-color="#8DE8FE"/>
<stop offset="0.5247" stop-color="#79E1FD"/>
<stop offset="0.7618" stop-color="#6DDDFC"/>
<stop offset="1" stop-color="#69DCFC"/>
</linearGradient>
<linearGradient id="paint3_linear_93_6514" x1="26.7738" y1="51.9144" x2="15.5173" y2="64.8949" gradientUnits="userSpaceOnUse">
<stop stop-color="#6CBCFC"/>
<stop offset="1" stop-color="#458DFC"/>
</linearGradient>
<linearGradient id="paint4_linear_93_6514" x1="63.2625" y1="55.0052" x2="35.0648" y2="55.0052" gradientUnits="userSpaceOnUse">
<stop stop-color="#6CBCFC"/>
<stop offset="1" stop-color="#458DFC"/>
</linearGradient>
<linearGradient id="paint5_linear_93_6514" x1="37.0627" y1="62.0387" x2="63.0152" y2="62.0387" gradientUnits="userSpaceOnUse">
<stop stop-color="#6CBCFC"/>
<stop offset="1" stop-color="#458DFC"/>
</linearGradient>
<linearGradient id="paint6_linear_93_6514" x1="83.5" y1="0" x2="83.5" y2="102" gradientUnits="userSpaceOnUse">
<stop stop-color="#6CBCFC"/>
<stop offset="1" stop-color="#458DFC"/>
</linearGradient>
<clipPath id="clip0_93_6514">
<rect width="74.2289" height="102" fill="white" transform="translate(0.400391 0.199951)"/>
</clipPath>
<clipPath id="clip1_93_6514">
<rect width="19.38" height="12.24" fill="white" transform="translate(108.63 16.3201)"/>
</clipPath>
</defs>
</svg>
