<svg width="187" height="109" viewBox="0 0 187 109" fill="none" xmlns="http://www.w3.org/2000/svg">
<rect width="187" height="109" fill="white"/>
<g clip-path="url(#clip0_194_2092)">
<path d="M84.6294 34.9767L84.3994 82.7377L84.3611 91.9756C84.3227 99.316 77.3464 105.238 68.7602 105.2L25.8673 105.008C17.3002 104.951 10.3622 98.9711 10.4005 91.6114L10.6689 34.6126C10.688 28.6712 15.2878 23.6498 21.5742 21.9823L21.5933 18.9158V17.3442L73.8582 17.5934L73.8391 22.2315C80.1063 23.9756 84.6485 29.0162 84.6294 34.9767Z" fill="url(#paint0_linear_194_2092)"/>
<path d="M77.7485 5.32735V5.74899L77.7102 10.7321L77.6718 15.6193V16.2135C77.6718 17.1334 76.9052 17.8809 75.9852 17.8809H75.5828L73.0529 17.8617L70.2739 17.8426L67.744 17.8234L64.965 17.8042L62.3967 17.7659L59.6177 17.7467L57.0878 17.7276L54.2896 17.7084L51.7406 17.6892L48.9616 17.6701L46.4317 17.6317L43.6527 17.6126L41.1228 17.5934L38.3246 17.5742L35.7755 17.5551L33.0157 17.5359L30.4858 17.5167L27.7068 17.4976L25.1577 17.4784L22.3787 17.4593L19.8297 17.4401H19.4272C18.5072 17.4401 17.7598 16.6735 17.7598 15.7535V15.7343V15.3127L17.8364 5.46151V4.86737C17.8364 3.94741 18.6031 3.19995 19.5422 3.19995H19.9447L25.2727 3.23828L30.6008 3.27661L33.1498 3.29578L35.9289 3.31495L38.4587 3.33411L43.7677 3.39161L46.5467 3.41077L49.0766 3.42994L51.8556 3.44911L54.3855 3.46827L57.1645 3.48744L59.6944 3.5066L62.4734 3.52577L65.0033 3.54493L67.8206 3.58327L70.3505 3.60243L73.1295 3.6216L75.6786 3.64076H76.0811C77.0202 3.65993 77.7485 4.40739 77.7485 5.32735Z" fill="url(#paint1_linear_194_2092)"/>
<path d="M77.7485 5.76808L77.7102 10.732L77.6718 15.6193L75.3911 15.6001L72.3629 15.5809L69.5839 15.5618H66.5365L63.7575 15.5426L60.7293 15.5234L57.9503 15.5043H54.9029L52.1239 15.4851L49.0766 15.4659L46.3167 15.4468H43.2693L40.4903 15.4276L37.443 15.4084L34.6639 15.3893H31.6358L28.8567 15.3701L25.8094 15.3509L23.0303 15.3318H20.0022L17.7598 15.3126L17.8364 5.46143L23.1645 5.48059L28.9717 5.51892L31.7507 5.53809L34.7981 5.55725H37.5771L43.3843 5.59559L46.4317 5.61475H49.2107L52.2581 5.63392L55.0179 5.65308L58.0653 5.67225H60.8443L63.8917 5.69141L66.6515 5.71058L69.6989 5.72975H72.4779L75.5253 5.74891L77.7485 5.76808Z" fill="url(#paint2_linear_194_2092)"/>
<path d="M84.5738 45.061L10.6133 44.7112L10.4582 77.5037L84.4187 77.8535L84.5738 45.061Z" fill="#F7F9FC"/>
<path d="M84.5855 45.0608L10.625 44.7112L10.5971 50.6142L84.5576 50.9639L84.5855 45.0608Z" fill="#FBFCF7"/>
<path d="M39.4555 57.8964L34.6833 57.8772L34.7024 53.0858L28.1286 53.0667L28.1094 57.8389L23.3372 57.8197L23.2988 64.3744L28.0711 64.3936L28.0519 69.185L34.6258 69.2042L34.6449 64.4319L39.4172 64.4511L39.4555 57.8964Z" fill="url(#paint3_linear_194_2092)"/>
<path d="M71.8844 59.4872L48.2339 59.3722C47.6015 59.3722 47.084 58.8547 47.084 58.2222V57.6856C47.084 57.0531 47.6015 56.5356 48.2339 56.5356L71.8844 56.6506C72.5169 56.6506 73.0344 57.1681 73.0344 57.8006V58.3372C73.0344 58.9697 72.5169 59.4872 71.8844 59.4872Z" fill="url(#paint4_linear_194_2092)"/>
<path opacity="0.5" d="M71.8649 66.5211L48.2144 66.4061C47.5819 66.4061 47.0645 65.8886 47.0645 65.2562V64.7195C47.0645 64.0871 47.5819 63.5696 48.2144 63.5696L71.8649 63.6846C72.4974 63.6846 73.0148 64.202 73.0148 64.8345V65.3712C73.0148 66.0036 72.4974 66.5211 71.8649 66.5211Z" fill="url(#paint5_linear_194_2092)"/>
<path opacity="0.08" d="M17.7598 5.32745V5.7491L17.7981 10.7322L17.8364 15.6003V16.1944C17.8364 17.1144 18.6031 17.8618 19.523 17.8618H19.9255L22.4745 17.8427L25.2536 17.8235L27.7834 17.8043L30.5625 17.7852L33.0923 17.766L35.8714 17.7468L38.4013 17.7277L41.1803 17.7085L43.7293 17.6893L46.5084 17.6702L49.0382 17.651L51.8173 17.6318L54.3471 17.6127L57.1262 17.5935L59.6752 17.5744L62.4542 17.5552L64.9841 17.536L67.7631 17.5169L70.293 17.4977L73.0721 17.4785L75.6211 17.4594H76.0236C76.9435 17.4594 77.691 16.6927 77.691 15.7728V15.7536V15.332C48.0416 16.6161 19.4272 3.64087 19.4272 3.64087C18.5072 3.66003 17.7598 4.4075 17.7598 5.32745Z" fill="#1A6FB5"/>
</g>
<rect x="10" y="3" width="167.28" height="102" rx="12.24" fill="#4285F4"/>
<rect x="10" y="3" width="167" height="102" rx="12" fill="url(#paint6_linear_194_2092)"/>
<g filter="url(#filter0_d_194_2092)">
<path d="M24.9489 54.9392L24.3369 54.4986L25.5242 52.9808L23.6637 52.43L23.9085 51.7079L25.7078 52.3566L25.6466 50.4472H26.4054L26.3442 52.3688L28.168 51.7079L28.4006 52.43L26.5523 52.9808L27.7396 54.4986L27.1154 54.9392L26.0382 53.3358L24.9489 54.9392ZM30.519 54.9392L29.907 54.4986L31.0943 52.9808L29.2338 52.43L29.4786 51.7079L31.2779 52.3566L31.2167 50.4472H31.9756L31.9144 52.3688L33.7382 51.7079L33.9707 52.43L32.1225 52.9808L33.3098 54.4986L32.6855 54.9392L31.6084 53.3358L30.519 54.9392ZM36.0892 54.9392L35.4772 54.4986L36.6645 52.9808L34.804 52.43L35.0488 51.7079L36.8481 52.3566L36.7869 50.4472H37.5458L37.4846 52.3688L39.3083 51.7079L39.5409 52.43L37.6926 52.9808L38.8799 54.4986L38.2557 54.9392L37.1786 53.3358L36.0892 54.9392ZM41.6594 54.9392L41.0474 54.4986L42.2346 52.9808L40.3742 52.43L40.619 51.7079L42.4182 52.3566L42.357 50.4472H43.1159L43.0547 52.3688L44.8785 51.7079L45.111 52.43L43.2628 52.9808L44.4501 54.4986L43.8258 54.9392L42.7487 53.3358L41.6594 54.9392ZM50.421 54.9392L49.809 54.4986L50.9963 52.9808L49.1358 52.43L49.3806 51.7079L51.1799 52.3566L51.1187 50.4472H51.8776L51.8164 52.3688L53.6401 51.7079L53.8727 52.43L52.0244 52.9808L53.2117 54.4986L52.5875 54.9392L51.5104 53.3358L50.421 54.9392ZM55.9912 54.9392L55.3792 54.4986L56.5664 52.9808L54.706 52.43L54.9508 51.7079L56.75 52.3566L56.6888 50.4472H57.4477L57.3865 52.3688L59.2103 51.7079L59.4428 52.43L57.5946 52.9808L58.7819 54.4986L58.1576 54.9392L57.0805 53.3358L55.9912 54.9392ZM61.5613 54.9392L60.9493 54.4986L62.1366 52.9808L60.2761 52.43L60.5209 51.7079L62.3202 52.3566L62.259 50.4472H63.0179L62.9567 52.3688L64.7804 51.7079L65.013 52.43L63.1647 52.9808L64.352 54.4986L63.7278 54.9392L62.6507 53.3358L61.5613 54.9392ZM67.1315 54.9392L66.5195 54.4986L67.7067 52.9808L65.8463 52.43L66.0911 51.7079L67.8903 52.3566L67.8291 50.4472H68.588L68.5268 52.3688L70.3506 51.7079L70.5831 52.43L68.7349 52.9808L69.9222 54.4986L69.2979 54.9392L68.2208 53.3358L67.1315 54.9392ZM75.8931 54.9392L75.2811 54.4986L76.4684 52.9808L74.6079 52.43L74.8527 51.7079L76.652 52.3566L76.5908 50.4472H77.3497L77.2885 52.3688L79.1122 51.7079L79.3448 52.43L77.4965 52.9808L78.6838 54.4986L78.0596 54.9392L76.9825 53.3358L75.8931 54.9392ZM81.4633 54.9392L80.8513 54.4986L82.0385 52.9808L80.1781 52.43L80.4229 51.7079L82.2221 52.3566L82.1609 50.4472H82.9198L82.8586 52.3688L84.6824 51.7079L84.9149 52.43L83.0667 52.9808L84.254 54.4986L83.6297 54.9392L82.5526 53.3358L81.4633 54.9392ZM87.0334 54.9392L86.4214 54.4986L87.6087 52.9808L85.7482 52.43L85.993 51.7079L87.7923 52.3566L87.7311 50.4472H88.49L88.4288 52.3688L90.2525 51.7079L90.4851 52.43L88.6369 52.9808L89.8241 54.4986L89.1999 54.9392L88.1228 53.3358L87.0334 54.9392ZM92.6036 54.9392L91.9916 54.4986L93.1789 52.9808L91.3184 52.43L91.5632 51.7079L93.3625 52.3566L93.3013 50.4472H94.0601L93.9989 52.3688L95.8227 51.7079L96.0553 52.43L94.207 52.9808L95.3943 54.4986L94.7701 54.9392L93.6929 53.3358L92.6036 54.9392ZM103.164 58.9172V51.2428L103.74 51.5365L101.377 53.042V52.0751L103.605 50.6552H104.18V58.9172H103.164ZM101.243 59.3701V58.5256H106.102V59.3701H101.243ZM108.031 59.3701V58.6112L111.079 55.233C111.487 54.776 111.785 54.364 111.973 53.9968C112.16 53.6296 112.254 53.2624 112.254 52.8952C112.254 52.4137 112.115 52.0465 111.838 51.7936C111.56 51.5324 111.165 51.4019 110.651 51.4019C110.226 51.4019 109.81 51.4876 109.402 51.6589C108.994 51.8221 108.586 52.071 108.178 52.4056L107.799 51.6344C108.141 51.308 108.574 51.0469 109.096 50.8511C109.618 50.6552 110.145 50.5573 110.675 50.5573C111.205 50.5573 111.662 50.6512 112.046 50.8388C112.438 51.0184 112.74 51.2795 112.952 51.6222C113.164 51.9649 113.27 52.3729 113.27 52.8462C113.27 53.344 113.156 53.8254 112.927 54.2905C112.707 54.7475 112.336 55.2616 111.813 55.8328L108.876 59.0152L108.802 58.5256H113.637V59.3701H108.031ZM117.941 59.4558C117.378 59.4558 116.835 59.362 116.313 59.1743C115.799 58.9866 115.362 58.7214 115.003 58.3787L115.395 57.6076C115.787 57.9421 116.191 58.1951 116.607 58.3664C117.023 58.5296 117.459 58.6112 117.916 58.6112C118.537 58.6112 119.006 58.4725 119.324 58.1951C119.65 57.9176 119.814 57.5096 119.814 56.9711C119.814 56.4325 119.646 56.0327 119.312 55.7716C118.977 55.5023 118.475 55.3676 117.806 55.3676H116.803V54.5231H117.61C118.255 54.5231 118.749 54.3803 119.091 54.0947C119.434 53.8091 119.605 53.4011 119.605 52.8707C119.605 52.3974 119.463 52.0343 119.177 51.7813C118.9 51.5284 118.504 51.4019 117.99 51.4019C117.557 51.4019 117.137 51.4876 116.729 51.6589C116.321 51.8221 115.917 52.071 115.517 52.4056L115.138 51.6344C115.489 51.2999 115.921 51.0388 116.435 50.8511C116.949 50.6552 117.48 50.5573 118.027 50.5573C118.549 50.5573 119.006 50.6512 119.397 50.8388C119.789 51.0184 120.087 51.2754 120.291 51.61C120.503 51.9445 120.609 52.3403 120.609 52.7972C120.609 53.3358 120.466 53.7968 120.181 54.1804C119.903 54.5557 119.52 54.8128 119.03 54.9515L118.993 54.8291C119.581 54.9515 120.03 55.2004 120.34 55.5757C120.65 55.9511 120.805 56.4284 120.805 57.0078C120.805 57.7667 120.548 58.3664 120.034 58.8071C119.52 59.2396 118.822 59.4558 117.941 59.4558ZM126.308 59.3701V51.916H126.614L122.991 57.1424L123.003 56.6406H128.634V57.4729H122.294V56.714L126.492 50.6552H127.312V59.3701H126.308Z" fill="white"/>
</g>
<path fill-rule="evenodd" clip-rule="evenodd" d="M154.993 89.6994C153.754 88.6549 152.968 87.1006 152.968 85.3649C152.968 83.6293 153.754 82.075 154.993 81.0304C153.987 80.1821 152.681 79.6699 151.255 79.6699C148.071 79.6699 145.491 82.2197 145.491 85.3649C145.491 88.5102 148.071 91.0599 151.255 91.0599C152.681 91.0599 153.987 90.5478 154.993 89.6994Z" fill="white"/>
<path opacity="0.7" fill-rule="evenodd" clip-rule="evenodd" d="M154.993 89.6993C156.232 88.6547 157.018 87.1004 157.018 85.3648C157.018 83.6291 156.232 82.0748 154.993 81.0303C153.754 82.0748 152.968 83.6291 152.968 85.3648C152.968 87.1004 153.754 88.6547 154.993 89.6993Z" fill="white"/>
<path opacity="0.3" fill-rule="evenodd" clip-rule="evenodd" d="M154.993 89.6994C156.232 88.6549 157.018 87.1006 157.018 85.3649C157.018 83.6293 156.232 82.075 154.993 81.0304C156 80.1821 157.305 79.6699 158.732 79.6699C161.915 79.6699 164.495 82.2197 164.495 85.3649C164.495 88.5102 161.915 91.0599 158.732 91.0599C157.305 91.0599 156 90.5478 154.993 89.6994Z" fill="white"/>
<path d="M90.5801 25.3445V27.7352H93.6401V25.3445C93.6401 25.3445 93.6401 23.9102 92.1101 23.9102C90.5801 23.9102 90.5801 25.3445 90.5801 25.3445Z" stroke="white" stroke-width="1.02" stroke-linecap="round"/>
<path d="M89.0498 30.0301V25.2489C89.0498 25.2489 89.0498 22.3801 92.1098 22.3801C95.1698 22.3801 95.1698 25.2489 95.1698 25.2489V30.0301" stroke="white" stroke-width="1.02" stroke-linecap="round"/>
<path d="M87.5205 25.1532C87.5205 25.1532 87.5205 20.8501 92.1105 20.8501C96.7005 20.8501 96.7005 25.1532 96.7005 25.1532" stroke="white" stroke-width="1.02" stroke-linecap="round"/>
<path d="M104.884 23.9548C105.315 24.4065 105.556 25.0071 105.556 25.6317C105.556 26.2564 105.315 26.857 104.884 27.3086" stroke="white" stroke-width="1.02" stroke-linecap="round" stroke-linejoin="round"/>
<path d="M107.086 22.332C107.948 23.2142 108.43 24.3985 108.43 25.6317C108.43 26.865 107.948 28.0493 107.086 28.9315" stroke="white" stroke-width="1.02" stroke-linecap="round" stroke-linejoin="round"/>
<path d="M109.961 20.7102C111.253 22.0222 111.978 23.7899 111.978 25.6315C111.978 27.473 111.253 29.2407 109.961 30.5527" stroke="white" stroke-width="1.02" stroke-linecap="round" stroke-linejoin="round"/>
<g clip-path="url(#clip1_194_2092)">
<path d="M136.274 19.3201H120.365C120.299 19.3201 120.233 19.3201 120.167 19.3204C120.111 19.3208 120.055 19.3215 119.999 19.323C119.878 19.3262 119.755 19.3333 119.635 19.3546C119.513 19.3763 119.399 19.4116 119.288 19.4673C119.179 19.5219 119.08 19.5934 118.993 19.6787C118.907 19.764 118.834 19.8622 118.779 19.9698C118.723 20.0791 118.687 20.1911 118.665 20.3116C118.643 20.4302 118.636 20.5512 118.633 20.6711C118.631 20.7261 118.631 20.7812 118.63 20.8362C118.63 20.9016 118.63 20.9669 118.63 21.0324V29.8479C118.63 29.9134 118.63 29.9786 118.63 30.0441C118.631 30.0991 118.631 30.1542 118.633 30.2092C118.636 30.329 118.643 30.45 118.665 30.5685C118.687 30.689 118.723 30.8011 118.779 30.9104C118.834 31.018 118.907 31.1163 118.993 31.2015C119.08 31.2869 119.179 31.3584 119.288 31.4129C119.399 31.4687 119.513 31.504 119.635 31.5257C119.755 31.5469 119.878 31.5541 119.999 31.5573C120.055 31.5586 120.111 31.5593 120.167 31.5596C120.233 31.5601 120.299 31.5601 120.365 31.5601H136.274C136.34 31.5601 136.407 31.5601 136.473 31.5596C136.529 31.5593 136.585 31.5586 136.641 31.5573C136.762 31.5541 136.885 31.5469 137.005 31.5257C137.127 31.504 137.241 31.4687 137.351 31.4129C137.46 31.3584 137.56 31.2869 137.646 31.2015C137.733 31.1163 137.805 31.018 137.861 30.9104C137.917 30.8011 137.953 30.689 137.975 30.5685C137.996 30.45 138.004 30.329 138.007 30.2092C138.008 30.1542 138.009 30.0991 138.009 30.0441C138.01 29.9786 138.01 29.9134 138.01 29.8479V21.0324C138.01 20.9669 138.01 20.9016 138.009 20.8362C138.009 20.7812 138.008 20.7261 138.007 20.6711C138.004 20.5512 137.996 20.4302 137.975 20.3116C137.953 20.1911 137.917 20.0791 137.861 19.9698C137.805 19.8622 137.733 19.764 137.646 19.6787C137.56 19.5934 137.46 19.5219 137.351 19.4673C137.241 19.4116 137.127 19.3763 137.005 19.3546C136.885 19.3333 136.762 19.3262 136.641 19.323C136.585 19.3215 136.529 19.3208 136.473 19.3204C136.407 19.3201 136.34 19.3201 136.274 19.3201Z" fill="black"/>
<path d="M136.274 19.728L136.47 19.7284C136.523 19.7288 136.576 19.7293 136.629 19.7308C136.722 19.7332 136.83 19.7382 136.931 19.7561C137.019 19.7717 137.093 19.7954 137.164 19.831C137.233 19.866 137.297 19.9119 137.353 19.9669C137.409 20.0223 137.456 20.0855 137.492 20.1552C137.528 20.2245 137.552 20.2968 137.567 20.3842C137.585 20.4828 137.59 20.5902 137.593 20.6822C137.594 20.7342 137.595 20.7861 137.595 20.8393C137.596 20.9036 137.596 20.9679 137.596 21.0324V29.8478C137.596 29.9123 137.596 29.9765 137.595 30.0422C137.595 30.0941 137.594 30.1461 137.593 30.1981C137.59 30.29 137.585 30.3973 137.567 30.4971C137.552 30.5833 137.528 30.6557 137.492 30.7252C137.456 30.7947 137.409 30.8579 137.354 30.913C137.297 30.9684 137.234 31.0141 137.163 31.0495C137.093 31.0848 137.019 31.1086 136.932 31.124C136.829 31.1422 136.716 31.1471 136.631 31.1494C136.577 31.1506 136.524 31.1513 136.469 31.1516C136.404 31.1521 136.339 31.1521 136.274 31.1521H120.365C120.364 31.1521 120.363 31.1521 120.362 31.1521C120.298 31.1521 120.234 31.1521 120.168 31.1516C120.115 31.1513 120.061 31.1506 120.01 31.1495C119.923 31.1471 119.81 31.1422 119.707 31.1241C119.62 31.1086 119.546 31.0848 119.475 31.049C119.405 31.014 119.341 30.9683 119.285 30.9128C119.229 30.8578 119.183 30.7949 119.147 30.7253C119.111 30.6557 119.087 30.5831 119.071 30.4959C119.053 30.3963 119.048 30.2895 119.046 30.1982C119.044 30.1459 119.044 30.0937 119.043 30.0417L119.043 29.8883L119.043 29.8478V21.0324L119.043 20.9919L119.043 20.8388C119.044 20.7866 119.044 20.7343 119.046 20.6821C119.048 20.5907 119.053 20.4838 119.072 20.3834C119.087 20.297 119.111 20.2244 119.147 20.1545C119.183 20.0854 119.229 20.0224 119.285 19.9671C119.341 19.912 119.405 19.8661 119.476 19.8308C119.546 19.7954 119.62 19.7717 119.707 19.7561C119.809 19.7382 119.917 19.7332 120.01 19.7308C120.063 19.7293 120.116 19.7288 120.169 19.7284L120.365 19.728H136.274Z" fill="white"/>
<path d="M123.919 23.4369C124.085 23.2321 124.198 22.9572 124.168 22.6763C123.925 22.6882 123.629 22.8344 123.457 23.0393C123.303 23.2148 123.166 23.5012 123.202 23.7704C123.475 23.7937 123.747 23.6359 123.919 23.4369Z" fill="black"/>
<path d="M124.165 23.8228C123.769 23.7996 123.433 24.0446 123.244 24.0446C123.054 24.0446 122.765 23.8346 122.452 23.8402C122.044 23.8461 121.666 24.0735 121.459 24.4352C121.033 25.1587 121.346 26.2319 121.76 26.8212C121.961 27.1127 122.203 27.4337 122.522 27.4222C122.824 27.4105 122.942 27.2296 123.309 27.2296C123.675 27.2296 123.781 27.4222 124.1 27.4163C124.431 27.4105 124.638 27.1247 124.839 26.8328C125.07 26.5005 125.164 26.1796 125.17 26.162C125.164 26.1562 124.532 25.9169 124.526 25.1994C124.52 24.5987 125.022 24.3129 125.046 24.2952C124.762 23.8812 124.319 23.8346 124.165 23.8228Z" fill="black"/>
<path d="M127.614 23.01C128.475 23.01 129.074 23.5953 129.074 24.4475C129.074 25.3026 128.463 25.891 127.593 25.891H126.64V27.3861H125.951V23.01H127.614V23.01ZM126.64 25.3208H127.43C128.029 25.3208 128.37 25.0025 128.37 24.4505C128.37 23.8986 128.029 23.5832 127.433 23.5832H126.64V25.3208Z" fill="black"/>
<path d="M129.254 26.4791C129.254 25.9211 129.687 25.5784 130.456 25.536L131.341 25.4844V25.2388C131.341 24.884 131.098 24.6717 130.693 24.6717C130.308 24.6717 130.068 24.8536 130.01 25.1387H129.383C129.42 24.5625 129.918 24.1379 130.717 24.1379C131.501 24.1379 132.002 24.5473 132.002 25.1872V27.3859H131.366V26.8612H131.35C131.163 27.216 130.754 27.4404 130.33 27.4404C129.697 27.4404 129.254 27.0523 129.254 26.4791ZM131.341 26.191V25.9393L130.545 25.9878C130.148 26.0151 129.924 26.188 129.924 26.4609C129.924 26.7399 130.158 26.9219 130.514 26.9219C130.978 26.9219 131.341 26.6065 131.341 26.191Z" fill="black"/>
<path d="M132.603 28.5597V28.029C132.652 28.0411 132.763 28.0411 132.818 28.0411C133.125 28.0411 133.291 27.9138 133.393 27.5863C133.393 27.5802 133.451 27.3922 133.451 27.3891L132.283 24.1958H133.002L133.82 26.7917H133.832L134.65 24.1958H135.351L134.14 27.5529C133.863 28.3262 133.544 28.5749 132.873 28.5749C132.818 28.5749 132.652 28.5688 132.603 28.5597Z" fill="black"/>
</g>
<path d="M158.936 19.3201H148.194C144.837 19.3201 142.09 22.0741 142.09 25.4401C142.09 28.8061 144.837 31.5601 148.194 31.5601H158.936C162.293 31.5601 165.04 28.8061 165.04 25.4401C165.04 22.0741 162.293 19.3201 158.936 19.3201Z" fill="white"/>
<path d="M153.063 25.8746V27.7259H152.476V23.1543H154.033C154.428 23.1543 154.764 23.2859 155.04 23.549C155.321 23.8122 155.462 24.1335 155.462 24.5129C155.462 24.9016 155.321 25.2229 155.04 25.483C154.768 25.7431 154.431 25.8716 154.033 25.8716H153.063V25.8746ZM153.063 23.7173V25.3116H154.045C154.278 25.3116 154.474 25.232 154.627 25.076C154.783 24.9199 154.862 24.7302 154.862 24.516C154.862 24.3049 154.783 24.1182 154.627 23.9621C154.474 23.8 154.281 23.7204 154.045 23.7204H153.063V23.7173Z" fill="#3C4043"/>
<path d="M156.999 24.4946C157.433 24.4946 157.776 24.6109 158.027 24.8435C158.278 25.076 158.403 25.3943 158.403 25.7982V27.726H157.843V27.2915H157.819C157.577 27.6495 157.253 27.827 156.849 27.827C156.503 27.827 156.215 27.726 155.983 27.521C155.75 27.3159 155.634 27.062 155.634 26.756C155.634 26.4316 155.756 26.1746 156.001 25.9848C156.246 25.7921 156.573 25.6972 156.98 25.6972C157.329 25.6972 157.617 25.7615 157.84 25.89V25.7553C157.84 25.5503 157.76 25.379 157.598 25.2351C157.436 25.0913 157.246 25.0209 157.029 25.0209C156.702 25.0209 156.442 25.1586 156.252 25.4371L155.735 25.1127C156.019 24.6996 156.442 24.4946 156.999 24.4946ZM156.24 26.7651C156.24 26.9181 156.304 27.0467 156.436 27.1476C156.564 27.2486 156.717 27.3006 156.891 27.3006C157.139 27.3006 157.36 27.2088 157.552 27.0252C157.745 26.8416 157.843 26.6274 157.843 26.3796C157.66 26.2358 157.406 26.1623 157.078 26.1623C156.839 26.1623 156.641 26.2205 156.481 26.3337C156.319 26.453 156.24 26.5968 156.24 26.7651Z" fill="#3C4043"/>
<path d="M161.597 24.5957L159.639 29.1H159.033L159.761 27.5241L158.47 24.5957H159.109L160.04 26.8417H160.052L160.958 24.5957H161.597Z" fill="#3C4043"/>
<path d="M150.726 25.5011C150.726 25.3095 150.709 25.1262 150.678 24.95H148.215V25.9598L149.633 25.9601C149.576 26.296 149.39 26.5825 149.107 26.7734V27.4286H149.951C150.444 26.9723 150.726 26.2979 150.726 25.5011Z" fill="#4285F4"/>
<path d="M149.107 26.7734C148.872 26.9319 148.57 27.0246 148.216 27.0246C147.532 27.0246 146.952 26.5638 146.744 25.9426H145.873V26.6183C146.305 27.4745 147.191 28.062 148.216 28.062C148.924 28.062 149.519 27.8291 149.952 27.4283L149.107 26.7734Z" fill="#34A853"/>
<path d="M146.661 25.4413C146.661 25.2669 146.69 25.0983 146.743 24.9398V24.2642H145.873C145.694 24.6182 145.594 25.0178 145.594 25.4413C145.594 25.8648 145.694 26.2645 145.873 26.6185L146.743 25.9429C146.69 25.7844 146.661 25.6158 146.661 25.4413Z" fill="#FABB05"/>
<path d="M148.216 23.8579C148.602 23.8579 148.948 23.991 149.222 24.2511L149.97 23.5035C149.515 23.0804 148.923 22.8206 148.216 22.8206C147.192 22.8206 146.305 23.4081 145.873 24.2643L146.744 24.9399C146.952 24.3187 147.532 23.8579 148.216 23.8579Z" fill="#E94235"/>
<path d="M35.882 18.8101H41.1095C42.2362 18.8101 43.1495 19.7234 43.1495 20.8501V23.5984V27.2817V30.0301C43.1495 31.1567 42.2362 32.0701 41.1095 32.0701H35.882H31.037H25.8095C24.6829 32.0701 23.7695 31.1567 23.7695 30.0301V27.2817V23.5984V20.8501C23.7695 19.7234 24.6829 18.8101 25.8095 18.8101H31.037H35.882Z" fill="#F6C859"/>
<path d="M31.037 18.8101H35.882M31.037 18.8101H27.7695C25.5604 18.8101 23.7695 20.6009 23.7695 22.8101V23.5984M31.037 18.8101V21.2042M35.882 18.8101H39.1495C41.3587 18.8101 43.1495 20.6009 43.1495 22.8101V23.5984M35.882 18.8101V21.2042H31.037M31.037 32.0701H27.7695C25.5604 32.0701 23.7695 30.2792 23.7695 28.0701V27.2817M31.037 32.0701H35.882M31.037 32.0701V29.6759M35.882 32.0701H39.1495C41.3587 32.0701 43.1495 30.2792 43.1495 28.0701V27.2817M35.882 32.0701V29.6759M23.7695 27.2817V23.5984M23.7695 27.2817H31.037M43.1495 27.2817V23.5984M43.1495 27.2817H35.882M23.7695 23.5984H31.037M43.1495 23.5984H35.882V27.2817M31.037 23.5984V27.2817M31.037 23.5984V21.2042M31.037 27.2817V29.6759M35.882 27.2817V29.6759M31.037 29.6759H35.882" stroke="#7D662D" stroke-width="0.51"/>
<g filter="url(#filter1_d_194_2092)">
<path d="M40.8048 80.9235C40.0581 80.9235 39.489 80.642 39.0973 80.079C38.7117 79.5098 38.519 78.6775 38.519 77.582C38.519 76.4865 38.7117 75.6573 39.0973 75.0942C39.4829 74.5251 40.052 74.2405 40.8048 74.2405C41.5575 74.2405 42.1267 74.5251 42.5123 75.0942C42.8978 75.6573 43.0906 76.4835 43.0906 77.5728C43.0906 78.6683 42.8948 79.5006 42.5031 80.0698C42.1175 80.639 41.5514 80.9235 40.8048 80.9235ZM40.8048 80.2901C41.325 80.2901 41.7075 80.0698 41.9523 79.6292C42.2032 79.1885 42.3287 78.5031 42.3287 77.5728C42.3287 76.6426 42.2032 75.9633 41.9523 75.5349C41.7075 75.1004 41.325 74.8831 40.8048 74.8831C40.2846 74.8831 39.899 75.1004 39.6481 75.5349C39.4033 75.9694 39.2809 76.6487 39.2809 77.5728C39.2809 78.5031 39.4033 79.1885 39.6481 79.6292C39.899 80.0698 40.2846 80.2901 40.8048 80.2901ZM46.1715 80.5104V74.7546L46.603 74.9749L44.8312 76.104V75.3788L46.502 74.3139H46.9334V80.5104H46.1715ZM44.7302 80.8501V80.2167H48.3747V80.8501H44.7302ZM49.5278 81.355H48.8485L51.2077 73.9743H51.8962L49.5278 81.355ZM52.4393 80.8501V80.2809L54.7251 77.7473C55.0311 77.4045 55.2545 77.0955 55.3952 76.8201C55.536 76.5447 55.6064 76.2693 55.6064 75.9939C55.6064 75.6328 55.5023 75.3574 55.2943 75.1677C55.0862 74.9718 54.7894 74.8739 54.4038 74.8739C54.0856 74.8739 53.7734 74.9382 53.4674 75.0667C53.1614 75.1891 52.8554 75.3758 52.5494 75.6267L52.2649 75.0483C52.5219 74.8035 52.8463 74.6077 53.2379 74.4608C53.6296 74.3139 54.0244 74.2405 54.4222 74.2405C54.82 74.2405 55.1627 74.3109 55.4503 74.4516C55.7441 74.5863 55.9705 74.7821 56.1296 75.0392C56.2888 75.2962 56.3683 75.6022 56.3683 75.9572C56.3683 76.3305 56.2826 76.6916 56.1113 77.0404C55.946 77.3831 55.6676 77.7687 55.2759 78.1971L53.0727 80.5839L53.0176 80.2167H56.6437V80.8501H52.4393ZM57.9437 80.8501V80.2809L60.2295 77.7473C60.5355 77.4045 60.7589 77.0955 60.8997 76.8201C61.0404 76.5447 61.1108 76.2693 61.1108 75.9939C61.1108 75.6328 61.0068 75.3574 60.7987 75.1677C60.5906 74.9718 60.2938 74.8739 59.9082 74.8739C59.59 74.8739 59.2779 74.9382 58.9719 75.0667C58.6659 75.1891 58.3599 75.3758 58.0539 75.6267L57.7693 75.0483C58.0263 74.8035 58.3507 74.6077 58.7424 74.4608C59.134 74.3139 59.5288 74.2405 59.9266 74.2405C60.3244 74.2405 60.6671 74.3109 60.9547 74.4516C61.2485 74.5863 61.4749 74.7821 61.6341 75.0392C61.7932 75.2962 61.8727 75.6022 61.8727 75.9572C61.8727 76.3305 61.7871 76.6916 61.6157 77.0404C61.4505 77.3831 61.172 77.7687 60.7803 78.1971L58.5771 80.5839L58.522 80.2167H62.1481V80.8501H57.9437Z" fill="white"/>
</g>
<g filter="url(#filter2_d_194_2092)">
<path d="M23.8006 94.0901H22.9336L26.1262 86.8277H26.8606L30.0532 94.0901H29.1964L26.3506 87.4397H26.6566L23.8006 94.0901ZM24.2902 92.2235L24.586 91.5299H28.4008L28.6966 92.2235H24.2902ZM31.0362 94.0901V86.5829H31.8624V90.2753L31.7502 90.1733C31.8658 89.7517 32.0868 89.4253 32.4132 89.1941C32.7396 88.9561 33.134 88.8371 33.5964 88.8371C34.052 88.8371 34.4498 88.9459 34.7898 89.1635C35.1298 89.3811 35.395 89.6871 35.5854 90.0815C35.7826 90.4759 35.8812 90.9417 35.8812 91.4789C35.8812 92.0161 35.7826 92.4887 35.5854 92.8967C35.395 93.2979 35.1264 93.6107 34.7796 93.8351C34.4396 94.0527 34.0452 94.1615 33.5964 94.1615C33.134 94.1615 32.7396 94.0459 32.4132 93.8147C32.0868 93.5835 31.8658 93.2537 31.7502 92.8253L31.8624 92.7131V94.0901H31.0362ZM33.4434 93.4781C33.9398 93.4781 34.3274 93.3047 34.6062 92.9579C34.885 92.6043 35.0244 92.1113 35.0244 91.4789C35.0244 90.8601 34.885 90.3807 34.6062 90.0407C34.3274 89.7007 33.9398 89.5307 33.4434 89.5307C32.9334 89.5307 32.5424 89.7041 32.2704 90.0509C31.9984 90.3909 31.8624 90.8737 31.8624 91.4993C31.8624 92.1317 31.9984 92.6213 32.2704 92.9681C32.5424 93.3081 32.9334 93.4781 33.4434 93.4781ZM38.9678 94.1615C38.3558 94.1615 37.8934 93.9915 37.5806 93.6515C37.2746 93.3115 37.1216 92.8083 37.1216 92.1419V88.9595H37.9478V92.1215C37.9478 92.5839 38.043 92.9239 38.2334 93.1415C38.4238 93.3591 38.7128 93.4679 39.1004 93.4679C39.556 93.4679 39.9232 93.3217 40.202 93.0293C40.4808 92.7369 40.6202 92.3459 40.6202 91.8563V88.9595H41.4464V94.0901H40.6406V92.9783L40.763 92.9171C40.627 93.3251 40.3958 93.6345 40.0694 93.8453C39.7498 94.0561 39.3826 94.1615 38.9678 94.1615ZM42.7536 94.0901V93.5189L46.2624 89.2757L46.395 89.6123H42.8658V88.9595H46.9764V89.5613L43.488 93.7841L43.3758 93.4373H47.0886V94.0901H42.7536ZM52.4013 93.4781C52.1769 93.6889 51.8879 93.8555 51.5343 93.9779C51.1875 94.1003 50.8305 94.1615 50.4633 94.1615C49.9329 94.1615 49.4739 94.0561 49.0863 93.8453C48.7055 93.6345 48.4097 93.3319 48.1989 92.9375C47.9949 92.5363 47.8929 92.0603 47.8929 91.5095C47.8929 90.9791 47.9949 90.5133 48.1989 90.1121C48.4029 89.7109 48.6851 89.3981 49.0455 89.1737C49.4127 88.9493 49.8343 88.8371 50.3103 88.8371C50.7659 88.8371 51.1569 88.9391 51.4833 89.1431C51.8097 89.3403 52.0579 89.6259 52.2279 89.9999C52.4047 90.3739 52.4931 90.8227 52.4931 91.3463V91.4993H48.6171V90.9587H52.0239L51.7587 91.3361C51.7723 90.7377 51.6533 90.2787 51.4017 89.9591C51.1569 89.6395 50.7965 89.4797 50.3205 89.4797C49.8241 89.4797 49.4331 89.6565 49.1475 90.0101C48.8687 90.3569 48.7293 90.8397 48.7293 91.4585C48.7293 92.1249 48.8755 92.6281 49.1679 92.9681C49.4671 93.3081 49.9023 93.4781 50.4735 93.4781C50.7727 93.4781 51.0583 93.4305 51.3303 93.3353C51.6091 93.2333 51.8743 93.0803 52.1259 92.8763L52.4013 93.4781ZM53.7472 94.0901V90.3977C53.7472 90.1597 53.7404 89.9217 53.7268 89.6837C53.72 89.4389 53.6996 89.1975 53.6656 88.9595H54.451L54.5632 90.2243L54.451 90.1937C54.5462 89.7449 54.7502 89.4083 55.063 89.1839C55.3826 88.9527 55.7396 88.8371 56.134 88.8371C56.2224 88.8371 56.304 88.8439 56.3788 88.8575C56.4604 88.8643 56.5352 88.8779 56.6032 88.8983L56.5828 89.6531C56.4264 89.5987 56.2462 89.5715 56.0422 89.5715C55.6886 89.5715 55.403 89.6497 55.1854 89.8061C54.9746 89.9625 54.8182 90.1631 54.7162 90.4079C54.621 90.6459 54.5734 90.8975 54.5734 91.1627V94.0901H53.7472ZM60.2042 94.0901V86.8277H64.6922V87.5315H61.0304V90.0509H64.4882V90.7547H61.0304V94.0901H60.2042ZM65.8497 94.0901V88.9595H66.6759V94.0901H65.8497ZM65.7681 86.7869H66.7779V87.7253H65.7681V86.7869ZM68.2802 94.0901V90.3977C68.2802 90.1597 68.2734 89.9217 68.2598 89.6837C68.253 89.4389 68.2326 89.1975 68.1986 88.9595H68.984L69.0962 90.2243L68.984 90.1937C69.0792 89.7449 69.2832 89.4083 69.596 89.1839C69.9156 88.9527 70.2726 88.8371 70.667 88.8371C70.7554 88.8371 70.837 88.8439 70.9118 88.8575C70.9934 88.8643 71.0682 88.8779 71.1362 88.8983L71.1158 89.6531C70.9594 89.5987 70.7792 89.5715 70.5752 89.5715C70.2216 89.5715 69.936 89.6497 69.7184 89.8061C69.5076 89.9625 69.3512 90.1631 69.2492 90.4079C69.154 90.6459 69.1064 90.8975 69.1064 91.1627V94.0901H68.2802ZM76.3947 94.0901H75.5787V92.7131L75.7011 92.8253C75.5855 93.2537 75.3645 93.5835 75.0381 93.8147C74.7117 94.0459 74.3139 94.1615 73.8447 94.1615C73.3959 94.1615 72.9981 94.0527 72.6513 93.8351C72.3113 93.6107 72.0461 93.2979 71.8557 92.8967C71.6653 92.4887 71.5701 92.0161 71.5701 91.4789C71.5701 90.9417 71.6619 90.4759 71.8455 90.0815C72.0359 89.6871 72.3011 89.3811 72.6411 89.1635C72.9879 88.9459 73.3891 88.8371 73.8447 88.8371C74.3139 88.8371 74.7117 88.9561 75.0381 89.1941C75.3645 89.4253 75.5855 89.7517 75.7011 90.1733L75.5685 90.2753V86.5829H76.3947V94.0901ZM74.0079 93.4781C74.5043 93.4781 74.8885 93.3081 75.1605 92.9681C75.4393 92.6213 75.5787 92.1317 75.5787 91.4993C75.5787 90.8737 75.4427 90.3909 75.1707 90.0509C74.8987 89.7041 74.5111 89.5307 74.0079 89.5307C73.5047 89.5307 73.1103 89.7007 72.8247 90.0407C72.5459 90.3807 72.4065 90.8601 72.4065 91.4789C72.4065 92.1113 72.5459 92.6043 72.8247 92.9579C73.1103 93.3047 73.5047 93.4781 74.0079 93.4781ZM80.1137 94.1615C79.6241 94.1615 79.1957 94.0527 78.8285 93.8351C78.4681 93.6175 78.1859 93.3115 77.9819 92.9171C77.7847 92.5159 77.6861 92.0433 77.6861 91.4993C77.6861 90.9621 77.7847 90.4929 77.9819 90.0917C78.1859 89.6905 78.4681 89.3811 78.8285 89.1635C79.1957 88.9459 79.6241 88.8371 80.1137 88.8371C80.6033 88.8371 81.0283 88.9459 81.3887 89.1635C81.7559 89.3811 82.0381 89.6905 82.2353 90.0917C82.4393 90.4929 82.5413 90.9621 82.5413 91.4993C82.5413 92.0433 82.4393 92.5159 82.2353 92.9171C82.0381 93.3115 81.7559 93.6175 81.3887 93.8351C81.0283 94.0527 80.6033 94.1615 80.1137 94.1615ZM80.1137 93.4781C80.6169 93.4781 81.0045 93.3115 81.2765 92.9783C81.5553 92.6383 81.6947 92.1453 81.6947 91.4993C81.6947 90.8669 81.5553 90.3807 81.2765 90.0407C80.9977 89.7007 80.6101 89.5307 80.1137 89.5307C79.6173 89.5307 79.2263 89.7007 78.9407 90.0407C78.6619 90.3807 78.5225 90.8669 78.5225 91.4993C78.5225 92.1453 78.6585 92.6383 78.9305 92.9783C79.2093 93.3115 79.6037 93.4781 80.1137 93.4781ZM85.6448 94.1615C85.0328 94.1615 84.5704 93.9915 84.2576 93.6515C83.9516 93.3115 83.7986 92.8083 83.7986 92.1419V88.9595H84.6248V92.1215C84.6248 92.5839 84.72 92.9239 84.9104 93.1415C85.1008 93.3591 85.3898 93.4679 85.7774 93.4679C86.233 93.4679 86.6002 93.3217 86.879 93.0293C87.1578 92.7369 87.2972 92.3459 87.2972 91.8563V88.9595H88.1234V94.0901H87.3176V92.9783L87.44 92.9171C87.304 93.3251 87.0728 93.6345 86.7464 93.8453C86.4268 94.0561 86.0596 94.1615 85.6448 94.1615ZM91.4501 94.1615C90.5865 94.1615 89.9031 93.9405 89.3999 93.4985L89.6753 92.8865C89.9473 93.0973 90.2261 93.2537 90.5117 93.3557C90.8041 93.4509 91.1271 93.4985 91.4807 93.4985C91.8683 93.4985 92.1607 93.4339 92.3579 93.3047C92.5619 93.1687 92.6639 92.9749 92.6639 92.7233C92.6639 92.5193 92.5959 92.3595 92.4599 92.2439C92.3239 92.1215 92.0995 92.0229 91.7867 91.9481L90.9197 91.7441C90.4913 91.6489 90.1581 91.4789 89.9201 91.2341C89.6889 90.9893 89.5733 90.6969 89.5733 90.3569C89.5733 90.0577 89.6549 89.7959 89.8181 89.5715C89.9813 89.3403 90.2091 89.1601 90.5015 89.0309C90.7939 88.9017 91.1407 88.8371 91.5419 88.8371C91.9023 88.8371 92.2423 88.8949 92.5619 89.0105C92.8815 89.1261 93.1501 89.2927 93.3677 89.5103L93.0923 90.1121C92.8475 89.9081 92.5959 89.7585 92.3375 89.6633C92.0859 89.5613 91.8207 89.5103 91.5419 89.5103C91.1747 89.5103 90.8891 89.5817 90.6851 89.7245C90.4879 89.8673 90.3893 90.0611 90.3893 90.3059C90.3893 90.5167 90.4505 90.6833 90.5729 90.8057C90.7021 90.9281 90.9061 91.0233 91.1849 91.0913L92.0519 91.3055C92.5347 91.4075 92.8883 91.5775 93.1127 91.8155C93.3439 92.0467 93.4595 92.3425 93.4595 92.7029C93.4595 93.1449 93.2793 93.4985 92.9189 93.7637C92.5585 94.0289 92.0689 94.1615 91.4501 94.1615ZM94.7763 94.0901V88.9595H95.6025V94.0901H94.7763ZM94.6947 86.7869H95.7045V87.7253H94.6947V86.7869Z" fill="white"/>
</g>
<path d="M23.8466 75.8501L22.9286 73.0023H23.557L23.9813 74.3691L24.2057 75.2626H24.2179L24.4342 74.3691L24.8585 73.0023H25.4664L24.5402 75.8501H23.8466ZM27.1195 75.8501L26.9155 75.1728H25.9649L25.7609 75.8501H25.1326L26.071 73.0023H26.838L27.7642 75.8501H27.1195ZM26.4463 73.5653H26.4259L26.1118 74.6465H26.7646L26.4463 73.5653ZM27.9032 75.8501V73.0023H28.5233V75.2993H29.6086V75.8501H27.9032ZM29.7015 75.8501V75.3564H30.0687V73.4959H29.7015V73.0023H31.0561V73.4959H30.6889V75.3564H31.0561V75.8501H29.7015ZM31.3178 73.0023H32.3908C32.5785 73.0023 32.7499 73.0322 32.9049 73.092C33.06 73.1519 33.1919 73.2416 33.3007 73.3613C33.4095 73.4783 33.4938 73.6265 33.5536 73.806C33.6135 73.9828 33.6434 74.1895 33.6434 74.4262C33.6434 74.6628 33.6135 74.8709 33.5536 75.0504C33.4938 75.2272 33.4095 75.3755 33.3007 75.4951C33.1919 75.6121 33.06 75.7005 32.9049 75.7603C32.7499 75.8202 32.5785 75.8501 32.3908 75.8501H31.3178V73.0023ZM32.3908 75.2993C32.5758 75.2993 32.7213 75.2476 32.8274 75.1443C32.9335 75.0409 32.9865 74.875 32.9865 74.6465V74.2059C32.9865 73.9774 32.9335 73.8115 32.8274 73.7081C32.7213 73.6047 32.5758 73.5531 32.3908 73.5531H31.938V75.2993H32.3908ZM24.8132 78.5531V80.8501H24.1931V78.5531H23.422V78.0023H25.5844V78.5531H24.8132ZM27.4591 79.6832H26.3738V80.8501H25.7536V78.0023H26.3738V79.1365H27.4591V78.0023H28.0792V80.8501H27.4591V79.6832ZM29.0712 80.8501H28.451V78.0023H29.8015C29.9321 78.0023 30.0504 78.024 30.1565 78.0675C30.2626 78.1111 30.3523 78.1736 30.4258 78.2552C30.5019 78.3341 30.5604 78.4293 30.6012 78.5408C30.642 78.6523 30.6624 78.7761 30.6624 78.9121C30.6624 79.1052 30.6189 79.2739 30.5318 79.418C30.4475 79.5622 30.3183 79.6669 30.1442 79.7322L30.7032 80.8501H30.0137L29.5159 79.8056H29.0712V80.8501ZM29.724 79.2834C29.8165 79.2834 29.8886 79.2603 29.9402 79.214C29.9946 79.1651 30.0218 79.0943 30.0218 79.0019V78.8223C30.0218 78.7299 29.9946 78.6605 29.9402 78.6143C29.8886 78.5653 29.8165 78.5408 29.724 78.5408H29.0712V79.2834H29.724ZM31.477 78.0023V79.7485C31.477 79.9498 31.5164 80.1007 31.5953 80.2014C31.6742 80.2993 31.8061 80.3483 31.9911 80.3483C32.176 80.3483 32.308 80.2993 32.3868 80.2014C32.4657 80.1007 32.5052 79.9498 32.5052 79.7485V78.0023H33.109V79.6832C33.109 79.8927 33.0886 80.0749 33.0478 80.2299C33.0097 80.3823 32.9458 80.5087 32.856 80.6094C32.7663 80.7073 32.6507 80.7807 32.5092 80.8297C32.3678 80.8759 32.1951 80.8991 31.9911 80.8991C31.7871 80.8991 31.6144 80.8759 31.4729 80.8297C31.3315 80.7807 31.2159 80.7073 31.1261 80.6094C31.0364 80.5087 30.9711 80.3823 30.9303 80.2299C30.8922 80.0749 30.8732 79.8927 30.8732 79.6832V78.0023H31.477Z" fill="white"/>
<defs>
<filter id="filter0_d_194_2092" x="21.6241" y="49.4273" width="109.05" height="13.0885" filterUnits="userSpaceOnUse" color-interpolation-filters="sRGB">
<feFlood flood-opacity="0" result="BackgroundImageFix"/>
<feColorMatrix in="SourceAlpha" type="matrix" values="0 0 0 0 0 0 0 0 0 0 0 0 0 0 0 0 0 0 127 0" result="hardAlpha"/>
<feOffset dy="1.02"/>
<feGaussianBlur stdDeviation="1.02"/>
<feColorMatrix type="matrix" values="0 0 0 0 0 0 0 0 0 0 0 0 0 0 0 0 0 0 0.25 0"/>
<feBlend mode="normal" in2="BackgroundImageFix" result="effect1_dropShadow_194_2092"/>
<feBlend mode="normal" in="SourceGraphic" in2="effect1_dropShadow_194_2092" result="shape"/>
</filter>
<filter id="filter1_d_194_2092" x="36.4786" y="72.9544" width="27.7099" height="11.4606" filterUnits="userSpaceOnUse" color-interpolation-filters="sRGB">
<feFlood flood-opacity="0" result="BackgroundImageFix"/>
<feColorMatrix in="SourceAlpha" type="matrix" values="0 0 0 0 0 0 0 0 0 0 0 0 0 0 0 0 0 0 127 0" result="hardAlpha"/>
<feOffset dy="1.02"/>
<feGaussianBlur stdDeviation="1.02"/>
<feColorMatrix type="matrix" values="0 0 0 0 0 0 0 0 0 0 0 0 0 0 0 0 0 0 0.25 0"/>
<feBlend mode="normal" in2="BackgroundImageFix" result="effect1_dropShadow_194_2092"/>
<feBlend mode="normal" in="SourceGraphic" in2="effect1_dropShadow_194_2092" result="shape"/>
</filter>
<filter id="filter2_d_194_2092" x="20.8936" y="85.563" width="76.8505" height="11.6584" filterUnits="userSpaceOnUse" color-interpolation-filters="sRGB">
<feFlood flood-opacity="0" result="BackgroundImageFix"/>
<feColorMatrix in="SourceAlpha" type="matrix" values="0 0 0 0 0 0 0 0 0 0 0 0 0 0 0 0 0 0 127 0" result="hardAlpha"/>
<feOffset dy="1.02"/>
<feGaussianBlur stdDeviation="1.02"/>
<feColorMatrix type="matrix" values="0 0 0 0 0 0 0 0 0 0 0 0 0 0 0 0 0 0 0.25 0"/>
<feBlend mode="normal" in2="BackgroundImageFix" result="effect1_dropShadow_194_2092"/>
<feBlend mode="normal" in="SourceGraphic" in2="effect1_dropShadow_194_2092" result="shape"/>
</filter>
<linearGradient id="paint0_linear_194_2092" x1="10.4005" y1="16.7999" x2="78.9672" y2="111.433" gradientUnits="userSpaceOnUse">
<stop stop-color="#6CBCFC"/>
<stop offset="1" stop-color="#458DFC"/>
</linearGradient>
<linearGradient id="paint1_linear_194_2092" x1="-745.516" y1="-44.7173" x2="-22.7248" y2="5.62643" gradientUnits="userSpaceOnUse">
<stop stop-color="#B0F4FF"/>
<stop offset="0.0525488" stop-color="#A9F2FF"/>
<stop offset="0.2879" stop-color="#8DE8FE"/>
<stop offset="0.5247" stop-color="#79E1FD"/>
<stop offset="0.7618" stop-color="#6DDDFC"/>
<stop offset="1" stop-color="#69DCFC"/>
</linearGradient>
<linearGradient id="paint2_linear_194_2092" x1="17.768" y1="10.5356" x2="77.751" y2="10.5356" gradientUnits="userSpaceOnUse">
<stop stop-color="#B0F4FF"/>
<stop offset="0.0525488" stop-color="#A9F2FF"/>
<stop offset="0.2879" stop-color="#8DE8FE"/>
<stop offset="0.5247" stop-color="#79E1FD"/>
<stop offset="0.7618" stop-color="#6DDDFC"/>
<stop offset="1" stop-color="#69DCFC"/>
</linearGradient>
<linearGradient id="paint3_linear_194_2092" x1="36.7738" y1="54.9144" x2="25.5173" y2="67.8949" gradientUnits="userSpaceOnUse">
<stop stop-color="#6CBCFC"/>
<stop offset="1" stop-color="#458DFC"/>
</linearGradient>
<linearGradient id="paint4_linear_194_2092" x1="73.2625" y1="58.0052" x2="45.0648" y2="58.0052" gradientUnits="userSpaceOnUse">
<stop stop-color="#6CBCFC"/>
<stop offset="1" stop-color="#458DFC"/>
</linearGradient>
<linearGradient id="paint5_linear_194_2092" x1="47.0627" y1="65.0387" x2="73.0152" y2="65.0387" gradientUnits="userSpaceOnUse">
<stop stop-color="#6CBCFC"/>
<stop offset="1" stop-color="#458DFC"/>
</linearGradient>
<linearGradient id="paint6_linear_194_2092" x1="93.5" y1="3" x2="93.5" y2="105" gradientUnits="userSpaceOnUse">
<stop stop-color="#6CBCFC"/>
<stop offset="1" stop-color="#458DFC"/>
</linearGradient>
<clipPath id="clip0_194_2092">
<rect width="74.2289" height="102" fill="white" transform="translate(10.4004 3.19995)"/>
</clipPath>
<clipPath id="clip1_194_2092">
<rect width="19.38" height="12.24" fill="white" transform="translate(118.63 19.3201)"/>
</clipPath>
</defs>
</svg>
