<svg width="27" height="28" viewBox="0 0 27 28" fill="none" xmlns="http://www.w3.org/2000/svg">
<g clip-path="url(#clip0_194_10000)">
<path d="M13.6658 10.666C12.7817 10.666 11.9339 11.0172 11.3088 11.6423C10.6837 12.2674 10.3325 13.1152 10.3325 13.9993C10.3325 14.8834 10.6837 15.7312 11.3088 16.3563C11.9339 16.9814 12.7817 17.3326 13.6658 17.3326C14.5499 17.3326 15.3977 16.9814 16.0228 16.3563C16.6479 15.7312 16.9991 14.8834 16.9991 13.9993C16.9991 13.1152 16.6479 12.2674 16.0228 11.6423C15.3977 11.0172 14.5499 10.666 13.6658 10.666ZM13.6658 8.44374C15.1392 8.44374 16.5523 9.02906 17.5942 10.0709C18.636 11.1128 19.2214 12.5259 19.2214 13.9993C19.2214 15.4727 18.636 16.8858 17.5942 17.9277C16.5523 18.9695 15.1392 19.5549 13.6658 19.5549C12.1924 19.5549 10.7793 18.9695 9.73743 17.9277C8.69556 16.8858 8.11024 15.4727 8.11024 13.9993C8.11024 12.5259 8.69556 11.1128 9.73743 10.0709C10.7793 9.02906 12.1924 8.44374 13.6658 8.44374ZM20.888 8.16596C20.888 8.53432 20.7417 8.88759 20.4812 9.14805C20.2208 9.40852 19.8675 9.55485 19.4991 9.55485C19.1308 9.55485 18.7775 9.40852 18.517 9.14805C18.2566 8.88759 18.1102 8.53432 18.1102 8.16596C18.1102 7.79761 18.2566 7.44434 18.517 7.18387C18.7775 6.9234 19.1308 6.77707 19.4991 6.77707C19.8675 6.77707 20.2208 6.9234 20.4812 7.18387C20.7417 7.44434 20.888 7.79761 20.888 8.16596ZM13.6658 5.11041C10.9169 5.11041 10.468 5.11818 9.18913 5.17485C8.31802 5.21596 7.73358 5.33263 7.19135 5.54374C6.70913 5.73041 6.36135 5.95374 5.99135 6.32485C5.64358 6.66085 5.37619 7.07105 5.20913 7.52485C4.99802 8.06929 4.88135 8.65263 4.84135 9.52263C4.78358 10.7493 4.77691 11.1782 4.77691 13.9993C4.77691 16.7482 4.78469 17.1971 4.84135 18.476C4.88247 19.346 4.99913 19.9315 5.20913 20.4726C5.39802 20.956 5.62024 21.3037 5.98913 21.6726C6.36358 22.046 6.71135 22.2693 7.18913 22.4537C7.73802 22.666 8.32247 22.7837 9.18913 22.8237C10.4158 22.8815 10.8447 22.8882 13.6658 22.8882C16.4147 22.8882 16.8636 22.8804 18.1425 22.8237C19.0114 22.7826 19.5969 22.666 20.1391 22.456C20.6202 22.2682 20.9702 22.0449 21.3391 21.676C21.7136 21.3015 21.9369 20.9537 22.1214 20.476C22.3325 19.9282 22.4502 19.3426 22.4902 18.476C22.548 17.2493 22.5547 16.8204 22.5547 13.9993C22.5547 11.2504 22.5469 10.8015 22.4902 9.52263C22.4491 8.65374 22.3325 8.06707 22.1214 7.52485C21.9539 7.07152 21.687 6.66147 21.3402 6.32485C21.0044 5.9769 20.5941 5.70948 20.1402 5.54263C19.5958 5.33152 19.0114 5.21485 18.1425 5.17485C16.9158 5.11707 16.4869 5.11041 13.6658 5.11041ZM13.6658 2.88818C16.6847 2.88818 17.0614 2.89929 18.2458 2.95485C19.4291 3.01041 20.2347 3.19596 20.9436 3.47152C21.6769 3.75374 22.2947 4.13596 22.9125 4.75263C23.4775 5.30807 23.9146 5.97995 24.1936 6.72152C24.468 7.42929 24.6547 8.23596 24.7102 9.41929C24.7625 10.6037 24.7769 10.9804 24.7769 13.9993C24.7769 17.0182 24.7658 17.3949 24.7102 18.5793C24.6547 19.7626 24.468 20.5682 24.1936 21.2771C23.9154 22.019 23.4782 22.6911 22.9125 23.246C22.3569 23.8108 21.685 24.2479 20.9436 24.5271C20.2358 24.8015 19.4291 24.9882 18.2458 25.0437C17.0614 25.096 16.6847 25.1104 13.6658 25.1104C10.6469 25.1104 10.2702 25.0993 9.0858 25.0437C7.90247 24.9882 7.09691 24.8015 6.38802 24.5271C5.64616 24.2487 4.97416 23.8115 4.41913 23.246C3.85403 22.6906 3.41683 22.0187 3.13802 21.2771C2.86247 20.5693 2.67691 19.7626 2.62135 18.5793C2.56913 17.3949 2.55469 17.0182 2.55469 13.9993C2.55469 10.9804 2.5658 10.6037 2.62135 9.41929C2.67691 8.23485 2.86247 7.43041 3.13802 6.72152C3.41606 5.97949 3.85336 5.30743 4.41913 4.75263C4.97432 4.18733 5.64627 3.75011 6.38802 3.47152C7.09691 3.19596 7.90135 3.01041 9.0858 2.95485C10.2702 2.90263 10.6469 2.88818 13.6658 2.88818Z" fill="white"/>
</g>
<defs>
<clipPath id="clip0_194_10000">
<rect width="26.6667" height="26.6667" fill="white" transform="translate(0.332031 0.666504)"/>
</clipPath>
</defs>
</svg>
