<svg width="163" height="104" viewBox="0 0 163 104" fill="none" xmlns="http://www.w3.org/2000/svg">
<rect x="48.2158" y="6.14917" width="39.7076" height="97.8508" fill="#005FCE"/>
<rect y="0.476562" width="136.14" height="97.8508" fill="url(#paint0_linear_93_6587)"/>
<rect x="4.25391" y="4.73096" width="127.632" height="89.342" fill="white"/>
<path d="M12.6639 45.2924V35.9469L13.2312 36.3724L10.5793 38.0883V37.1949L13.0468 35.5782H13.5431V45.2924H12.6639ZM10.4233 45.6753V44.9237H15.7838V45.6753H10.4233ZM20.9544 35.4648C22.1551 35.4648 23.0769 35.8855 23.7198 36.7269C24.3721 37.5683 24.6983 38.7737 24.6983 40.3431C24.6983 41.4965 24.547 42.4798 24.2445 43.2928C23.9419 44.1059 23.507 44.7251 22.9398 45.1506C22.3725 45.576 21.6918 45.7887 20.8977 45.7887C20.3304 45.7887 19.7726 45.68 19.2243 45.4626C18.6854 45.2357 18.2032 44.9142 17.7778 44.4982L18.1465 43.8034C18.6381 44.2288 19.1014 44.5408 19.5363 44.7393C19.9806 44.9284 20.4344 45.023 20.8977 45.023C21.8147 45.023 22.5285 44.6164 23.0391 43.8034C23.5496 42.9808 23.8048 41.8274 23.8048 40.3431V38.925L23.975 39.3079C23.8994 39.8279 23.7198 40.2817 23.4361 40.6693C23.162 41.0475 22.8074 41.3405 22.3725 41.5485C21.9376 41.7471 21.4602 41.8463 20.9402 41.8463C20.3068 41.8463 19.7537 41.714 19.281 41.4493C18.8083 41.1846 18.4396 40.8158 18.1749 40.3431C17.9102 39.861 17.7778 39.3032 17.7778 38.6697C17.7778 38.0552 17.9149 37.5069 18.1891 37.0247C18.4632 36.5331 18.8414 36.1502 19.3236 35.876C19.8057 35.6019 20.3493 35.4648 20.9544 35.4648ZM20.997 36.2306C20.2973 36.2306 19.7301 36.4527 19.2952 36.8971C18.8698 37.3414 18.657 37.9323 18.657 38.6697C18.657 39.3977 18.8745 39.9839 19.3094 40.4282C19.7443 40.8631 20.3163 41.0806 21.0253 41.0806C21.498 41.0806 21.9187 40.9813 22.2875 40.7828C22.6562 40.5748 22.9445 40.2911 23.1525 39.9319C23.3605 39.5632 23.4645 39.1425 23.4645 38.6697C23.4645 38.1781 23.3605 37.7527 23.1525 37.3934C22.9445 37.0247 22.6562 36.7411 22.2875 36.5425C21.9187 36.3346 21.4886 36.2306 20.997 36.2306ZM26.7632 45.6753V45.0088L30.3511 41.0097C30.8521 40.4329 31.2161 39.9224 31.443 39.4781C31.6794 39.0243 31.7976 38.5657 31.7976 38.1025C31.7976 37.5069 31.6226 37.0483 31.2728 36.7269C30.9325 36.396 30.4409 36.2306 29.798 36.2306C29.2875 36.2306 28.7911 36.3346 28.309 36.5425C27.8362 36.7411 27.3635 37.0436 26.8908 37.4502L26.5221 36.7553C26.9192 36.3676 27.4155 36.0557 28.0111 35.8193C28.6068 35.5829 29.2024 35.4648 29.798 35.4648C30.3936 35.4648 30.9041 35.5688 31.3296 35.7768C31.7645 35.9848 32.1001 36.2873 32.3364 36.6844C32.5728 37.072 32.691 37.5352 32.691 38.0741C32.691 38.6508 32.5539 39.2134 32.2797 39.7617C32.015 40.3006 31.5801 40.9104 30.975 41.5911L27.4155 45.4768L27.4014 44.9237H33.1306V45.6753H26.7632ZM34.997 44.4415H36.2024V45.6753H34.997V44.4415ZM41.3173 45.2924V35.9469L41.8845 36.3724L39.2326 38.0883V37.1949L41.7002 35.5782H42.1965V45.2924H41.3173ZM39.0766 45.6753V44.9237H44.4372V45.6753H39.0766ZM50.2318 45.7887C49.0405 45.7887 48.1188 45.368 47.4664 44.5266C46.8235 43.6852 46.5021 42.4798 46.5021 40.9104C46.5021 39.757 46.6534 38.7737 46.9559 37.9607C47.2584 37.1476 47.6933 36.5284 48.2606 36.1029C48.8278 35.6775 49.5038 35.4648 50.2885 35.4648C50.8652 35.4648 51.423 35.5782 51.9619 35.8051C52.5008 36.0226 52.9829 36.3393 53.4084 36.7553L53.0538 37.4502C52.5717 37.0247 52.1084 36.7175 51.6641 36.5284C51.2197 36.3298 50.7659 36.2306 50.3027 36.2306C49.3856 36.2306 48.6671 36.6418 48.1471 37.4643C47.6366 38.2774 47.3813 39.4261 47.3813 40.9104V42.3285L47.2253 41.9314C47.301 41.4209 47.4759 40.9766 47.75 40.5984C48.0337 40.2108 48.3882 39.9177 48.8136 39.7192C49.2485 39.5112 49.7307 39.4072 50.2601 39.4072C50.8936 39.4072 51.4466 39.5395 51.9193 39.8042C52.3921 40.069 52.7608 40.4424 53.0255 40.9246C53.2902 41.3973 53.4226 41.9503 53.4226 42.5838C53.4226 43.1983 53.2855 43.7514 53.0113 44.243C52.7466 44.7251 52.3731 45.1033 51.891 45.3775C51.4088 45.6517 50.8557 45.7887 50.2318 45.7887ZM50.2034 45.023C50.903 45.023 51.4655 44.8008 51.891 44.3564C52.3259 43.9121 52.5433 43.3212 52.5433 42.5838C52.5433 41.8558 52.3259 41.2744 51.891 40.8395C51.4561 40.3951 50.8841 40.173 50.175 40.173C49.7023 40.173 49.2816 40.277 48.9129 40.4849C48.5442 40.6835 48.2558 40.9671 48.0479 41.3358C47.8399 41.6951 47.7359 42.1111 47.7359 42.5838C47.7359 43.0754 47.8399 43.5056 48.0479 43.8743C48.2558 44.2335 48.5442 44.5172 48.9129 44.7251C49.2816 44.9237 49.7118 45.023 50.2034 45.023ZM58.423 45.7746C57.695 45.7746 57.0663 45.6658 56.5369 45.4484C56.0075 45.2215 55.5962 44.9048 55.3031 44.4982C55.0195 44.0823 54.8777 43.5906 54.8777 43.0234C54.8777 42.3238 55.114 41.7424 55.5868 41.2791C56.0689 40.8064 56.7071 40.5133 57.5012 40.3999L57.4161 40.5984C56.6693 40.4566 56.0973 40.1682 55.7002 39.7333C55.3031 39.289 55.1046 38.7548 55.1046 38.1309C55.1046 37.592 55.2417 37.124 55.5158 36.7269C55.7995 36.3298 56.1871 36.0226 56.6787 35.8051C57.1798 35.5782 57.7612 35.4648 58.423 35.4648C59.0848 35.4648 59.6615 35.5782 60.1531 35.8051C60.6542 36.0226 61.0418 36.3298 61.316 36.7269C61.5996 37.124 61.7414 37.592 61.7414 38.1309C61.7414 38.7548 61.5429 39.289 61.1458 39.7333C60.7487 40.1682 60.1815 40.4566 59.4441 40.5984L59.3448 40.3999C60.1768 40.5039 60.8196 40.7922 61.2734 41.2649C61.7367 41.7376 61.9683 42.3238 61.9683 43.0234C61.9683 43.5906 61.8218 44.0823 61.5287 44.4982C61.2451 44.9048 60.8386 45.2215 60.3091 45.4484C59.7797 45.6658 59.151 45.7746 58.423 45.7746ZM58.423 45.0088C59.2833 45.0088 59.9404 44.8386 60.3942 44.4982C60.848 44.1484 61.0749 43.6426 61.0749 42.9808C61.0749 42.3569 60.8244 41.87 60.3233 41.5202C59.8317 41.1704 59.1983 40.9577 58.423 40.882C57.6478 40.9577 57.0096 41.1704 56.5085 41.5202C56.0169 41.87 55.7711 42.3569 55.7711 42.9808C55.7711 43.6426 55.998 44.1484 56.4518 44.4982C56.9056 44.8386 57.5627 45.0088 58.423 45.0088ZM58.423 40.2297C59.151 40.1635 59.7371 39.9508 60.1815 39.5915C60.6258 39.2323 60.848 38.7596 60.848 38.1734C60.848 37.5683 60.6353 37.0956 60.2098 36.7553C59.7844 36.4055 59.1888 36.2306 58.423 36.2306C57.6572 36.2306 57.0616 36.4055 56.6362 36.7553C56.2107 37.0956 55.998 37.5683 55.998 38.1734C55.998 38.7596 56.2202 39.2323 56.6645 39.5915C57.1089 39.9508 57.695 40.1635 58.423 40.2297ZM63.6504 44.4415H64.8558V45.6753H63.6504V44.4415ZM69.9707 45.2924V35.9469L70.5379 36.3724L67.886 38.0883V37.1949L70.3536 35.5782H70.8499V45.2924H69.9707ZM67.73 45.6753V44.9237H73.0906V45.6753H67.73ZM75.2973 44.4415H76.5027V45.6753H75.2973V44.4415ZM81.6176 45.2924V35.9469L82.1849 36.3724L79.533 38.0883V37.1949L82.0005 35.5782H82.4968V45.2924H81.6176ZM79.377 45.6753V44.9237H84.7375V45.6753H79.377Z" fill="black"/>
<path d="M42.4448 27.2397V17.1427H43.3099V27.2397H42.4448ZM45.9348 27.2397V17.1427H49.8062C50.8178 17.1427 51.612 17.3885 52.1887 17.8801C52.7654 18.3717 53.0538 19.0477 53.0538 19.908C53.0538 20.7684 52.7654 21.4491 52.1887 21.9501C51.612 22.4512 50.8178 22.7017 49.8062 22.7017H46.7998V27.2397H45.9348ZM46.7998 21.9359H49.7495C50.5531 21.9359 51.1535 21.761 51.5505 21.4112C51.9571 21.0614 52.1603 20.5604 52.1603 19.908C52.1603 19.2651 51.9571 18.7688 51.5505 18.419C51.1535 18.0692 50.5531 17.8943 49.7495 17.8943H46.7998V21.9359Z" fill="black"/>
<g opacity="0.47">
<path opacity="0.47" d="M112.843 44.4316C114.68 44.4316 116.17 43.0017 116.17 41.2378C116.17 39.4739 114.68 38.0439 112.843 38.0439C111.005 38.0439 109.516 39.4739 109.516 41.2378C109.516 43.0017 111.005 44.4316 112.843 44.4316Z" fill="#DAEBFF"/>
</g>
<g opacity="0.47">
<path opacity="0.47" d="M137.805 47.8532C139.642 47.8532 141.132 46.4233 141.132 44.6594C141.132 42.8955 139.642 41.4656 137.805 41.4656C135.967 41.4656 134.478 42.8955 134.478 44.6594C134.478 46.4233 135.967 47.8532 137.805 47.8532Z" fill="#DAEBFF"/>
</g>
<path d="M163 48.2962V83.7121C163 87.4535 159.909 90.4854 156.096 90.4854H101.457C101.283 90.4854 101.113 90.4854 100.947 90.4653C99.7042 90.3803 98.508 89.9607 97.4847 89.2511C96.5824 88.6358 95.8438 87.8097 95.3328 86.8446C94.8217 85.8794 94.5536 84.8042 94.5518 83.7121V48.2962C94.5518 44.5548 97.6424 41.5229 101.457 41.5229H156.096C159.909 41.5229 163 44.5548 163 48.2962Z" fill="#B8DCFF"/>
<path d="M161.222 46.2034V81.6193C161.222 85.3608 158.131 88.3926 154.317 88.3926H99.6791C99.5071 88.3926 99.3365 88.3926 99.1702 88.3725C97.9274 88.2875 96.7307 87.868 95.7069 87.1584C94.805 86.5427 94.0667 85.7166 93.5559 84.7515C93.0451 83.7864 92.7772 82.7113 92.7754 81.6193V46.2034C92.7754 42.462 95.866 39.4302 99.6791 39.4302H154.318C158.131 39.4302 161.222 42.462 161.222 46.2034Z" fill="#DAEBFF"/>
<path opacity="0.47" d="M161.223 46.2034V81.6193C161.223 85.3608 158.132 88.3926 154.317 88.3926H130.99L147.475 39.4302H154.31C158.132 39.4302 161.223 42.462 161.223 46.2034Z" fill="white"/>
<path d="M122.948 64.2725C122.948 64.2725 124.654 67.5695 122.303 71.9589C119.952 76.3483 130.644 73.7221 130.644 73.7221C130.644 73.7221 128.34 65.9913 130.644 61.5603C132.948 57.1294 122.948 64.2725 122.948 64.2725Z" fill="#ED6658"/>
<path d="M116.365 54.4159C116.365 54.4159 116.312 63.2777 121.749 65.3577C124.73 66.5045 126.997 65.5183 129.5 63.8655C131.565 62.5037 134.02 59.1063 134.956 56.0673C136.324 51.6234 136.094 46.6062 136.094 46.6062L116.365 54.4159Z" fill="#F87B67"/>
<path d="M144.368 88.3725H99.0376C98.0199 88.3031 97.0401 87.9593 96.2021 87.3777C96.5992 84.396 97.9811 75.3664 100.918 69.383C104.482 62.1253 108.315 61.2437 108.315 61.2437L104.204 83.0156C104.204 83.0156 110.259 74.1021 111.634 72.5038C112.947 70.9756 115.217 72.0422 122.726 71.0846C122.726 71.0846 125.107 72.7532 129.951 70.5255C129.951 70.5255 130.196 70.3521 130.715 71.0989C131.234 71.8458 135.278 73.3767 137.213 73.4785C139.148 73.5803 140.704 75.4854 142.5 81.7512C144.296 88.017 144.368 88.3725 144.368 88.3725Z" fill="black"/>
<path d="M136.314 49.1019C136.322 49.0489 136.332 48.9944 136.34 48.9413H136.305C136.113 45.8077 135.56 42.0921 134.102 39.992C131.243 35.8765 120.23 36.781 117.971 41.2119C116.107 44.8616 115.842 49.0073 115.805 50.3562C115.761 50.4842 115.755 50.6218 115.786 50.7533C116.051 51.8671 116.307 53.0239 116.704 54.1449C117.19 55.5168 117.981 55.9096 119.523 55.6085C120.423 55.4397 121.285 55.1084 122.066 54.6309C123.619 53.6475 125.052 53.7206 126.772 54.7241C127.815 55.3362 129.106 55.739 130.388 56.1676C131.602 56.5747 132.638 56.192 133.311 55.3978C134.877 53.55 135.891 51.4256 136.277 49.347L136.327 49.2682C136.321 49.2166 136.317 49.1592 136.314 49.1019Z" fill="black"/>
<path d="M117.937 51.3079C117.937 52.4661 118.174 53.2803 119.267 53.6187C120.092 53.8752 121.304 53.2976 121.955 52.2425L117.937 51.3079Z" fill="#DAEBFF"/>
<path d="M131.42 50.9854L126.133 52.2053C126.908 53.4022 128.283 54.0258 129.43 53.7405C130.899 53.3764 131.43 52.4633 131.42 50.9854Z" fill="#DAEBFF"/>
<path d="M135.931 50.9855C135.931 50.9855 137.519 49.5778 137.658 52.0649C137.798 54.552 134.726 56.7452 134.726 56.7452L134.478 52.0147L135.931 50.9855Z" fill="#F87B67"/>
<path d="M89.5017 69.1751C89.3054 68.4903 89.2895 67.7664 89.4558 67.0736C89.6564 66.3422 90.1146 65.7078 90.746 65.2875C92.5092 64.026 94.2705 62.7622 96.0298 61.4959C97.3487 60.5498 98.6689 59.6056 99.9906 58.6633C100.624 58.2089 101.252 57.7459 101.889 57.2958C102.53 56.8313 103.321 56.6191 104.109 56.6994C104.259 56.7175 104.41 56.6758 104.529 56.5833C105.802 55.6616 107.086 54.7542 108.354 53.8253C109.188 53.2117 110.052 53.2261 110.95 53.6404C110.992 53.6653 111.041 53.6759 111.089 53.6705C111.138 53.665 111.184 53.6439 111.219 53.6103C112.102 52.9709 112.984 52.3316 113.874 51.7023C114.394 51.3339 115.128 51.3769 115.729 51.7668C116.208 52.0778 116.5 52.5452 116.821 52.9853C117.071 53.3067 117.287 53.653 117.466 54.0188C117.706 54.5521 117.719 55.1126 117.376 55.62C117.24 55.8019 117.074 55.9595 116.886 56.0859C116.063 56.688 115.231 57.28 114.4 57.872C114.354 57.895 114.318 57.933 114.297 57.9798C114.275 58.0265 114.271 58.079 114.284 58.1286C114.38 58.7608 114.308 59.3715 113.92 59.9062C113.781 60.0938 113.614 60.2591 113.425 60.3964C112.624 60.9856 111.813 61.5618 111.004 62.141C110.478 62.518 109.949 62.8893 109.427 63.272C109.35 63.3309 109.295 63.4135 109.27 63.5071C109.09 64.3366 108.6 65.0661 107.901 65.547C106.671 66.42 105.449 67.3059 104.224 68.1846C102.528 69.3992 100.833 70.6124 99.1376 71.8242C98.375 72.3718 97.6067 72.9123 96.8541 73.4699C95.9008 74.1752 94.8658 74.2612 93.7678 73.8999C92.9006 73.5948 92.1156 73.0934 91.4742 72.4349C90.5874 71.5798 89.9261 70.5185 89.549 69.3457C89.5318 69.2841 89.516 69.2296 89.5017 69.1751ZM90.8635 69.1321C91.2414 70.3331 91.9984 71.3793 93.0209 72.1138C93.5335 72.5082 94.1414 72.76 94.7827 72.8434C95.6772 72.9481 96.4327 72.4693 96.6764 71.6364C96.8096 71.1694 96.8225 70.6763 96.7136 70.2029C96.4026 68.7451 95.5955 67.5969 94.3885 66.7153C93.9301 66.3776 93.4014 66.1478 92.8418 66.0429C91.8914 65.8652 91.0929 66.3067 90.7962 67.2041C90.5826 67.842 90.6786 68.4856 90.8621 69.1321H90.8635Z" fill="black"/>
<path d="M90.862 69.1321C90.6785 68.4799 90.5825 67.8419 90.7946 67.204C91.0913 66.3067 91.8898 65.8652 92.8402 66.0429C93.3998 66.1478 93.9285 66.3776 94.387 66.7152C95.594 67.5968 96.401 68.745 96.7121 70.2029C96.8209 70.6762 96.8081 71.1694 96.6748 71.6364C96.4311 72.4693 95.6714 72.9481 94.7812 72.8434C94.1398 72.7599 93.532 72.5082 93.0194 72.1138C91.9968 71.3792 91.2399 70.3331 90.862 69.1321Z" fill="#DBEEFF"/>
<path d="M104.501 55.1167C104.572 54.4 107.476 51.6978 110.205 52.449C110.862 52.6296 111.395 53.1543 111.415 53.5958C111.47 54.81 109.507 55.994 108.593 56.5531C107.497 57.2225 107.733 55.9467 105.22 56.0886C104.88 56.1044 104.437 55.7948 104.501 55.1167Z" fill="#F87B67"/>
<defs>
<linearGradient id="paint0_linear_93_6587" x1="68.0701" y1="0.476562" x2="68.0701" y2="98.3274" gradientUnits="userSpaceOnUse">
<stop stop-color="#6CBCFC"/>
<stop offset="1" stop-color="#458DFC"/>
</linearGradient>
</defs>
</svg>
