<svg width="187" height="109" viewBox="0 0 187 109" fill="none" xmlns="http://www.w3.org/2000/svg">
<g clip-path="url(#clip0_194_2168)">
<rect width="187" height="109" fill="white"/>
<rect x="72.2148" y="8.67261" width="39.7076" height="97.8508" fill="#005FCE"/>
<rect x="24" y="3" width="136.14" height="97.8508" fill="url(#paint0_linear_194_2168)"/>
<rect x="28.2539" y="7.25439" width="127.632" height="89.342" fill="white"/>
<path d="M36.6629 47.8158V38.4704L37.2302 38.8958L34.5783 40.6117V39.7183L37.0458 38.1017H37.5422V47.8158H36.6629ZM34.4223 48.1987V47.4471H39.7828V48.1987H34.4223ZM44.9534 37.9882C46.1541 37.9882 47.0759 38.4089 47.7188 39.2503C48.3711 40.0918 48.6973 41.2972 48.6973 42.8666C48.6973 44.02 48.546 45.0032 48.2435 45.8163C47.941 46.6293 47.5061 47.2486 46.9388 47.674C46.3716 48.0995 45.6909 48.3122 44.8967 48.3122C44.3295 48.3122 43.7717 48.2035 43.2233 47.986C42.6844 47.7591 42.2023 47.4377 41.7768 47.0217L42.1455 46.3268C42.6372 46.7522 43.1004 47.0642 43.5353 47.2628C43.9797 47.4518 44.4335 47.5464 44.8967 47.5464C45.8138 47.5464 46.5276 47.1399 47.0381 46.3268C47.5486 45.5043 47.8039 44.3509 47.8039 42.8666V41.4484L47.974 41.8313C47.8984 42.3513 47.7188 42.8051 47.4352 43.1927C47.161 43.5709 46.8065 43.864 46.3716 44.072C45.9367 44.2705 45.4592 44.3698 44.9393 44.3698C44.3058 44.3698 43.7528 44.2374 43.28 43.9727C42.8073 43.708 42.4386 43.3393 42.1739 42.8666C41.9092 42.3844 41.7768 41.8266 41.7768 41.1932C41.7768 40.5787 41.9139 40.0303 42.1881 39.5482C42.4623 39.0565 42.8404 38.6736 43.3226 38.3995C43.8048 38.1253 44.3484 37.9882 44.9534 37.9882ZM44.996 38.754C44.2964 38.754 43.7291 38.9762 43.2942 39.4205C42.8688 39.8649 42.6561 40.4558 42.6561 41.1932C42.6561 41.9212 42.8735 42.5073 43.3084 42.9517C43.7433 43.3866 44.3153 43.604 45.0243 43.604C45.4971 43.604 45.9178 43.5047 46.2865 43.3062C46.6552 43.0982 46.9435 42.8146 47.1515 42.4553C47.3595 42.0866 47.4635 41.6659 47.4635 41.1932C47.4635 40.7016 47.3595 40.2761 47.1515 39.9169C46.9435 39.5482 46.6552 39.2645 46.2865 39.066C45.9178 38.858 45.4876 38.754 44.996 38.754ZM50.7622 48.1987V47.5322L54.3501 43.5331C54.8512 42.9564 55.2151 42.4459 55.442 42.0015C55.6784 41.5477 55.7966 41.0892 55.7966 40.6259C55.7966 40.0303 55.6217 39.5718 55.2719 39.2503C54.9315 38.9194 54.4399 38.754 53.797 38.754C53.2865 38.754 52.7901 38.858 52.308 39.066C51.8353 39.2645 51.3626 39.5671 50.8899 39.9736L50.5211 39.2787C50.9182 38.8911 51.4146 38.5791 52.0102 38.3427C52.6058 38.1064 53.2014 37.9882 53.797 37.9882C54.3926 37.9882 54.9032 38.0922 55.3286 38.3002C55.7635 38.5082 56.0991 38.8107 56.3355 39.2078C56.5718 39.5954 56.69 40.0587 56.69 40.5976C56.69 41.1743 56.5529 41.7368 56.2787 42.2851C56.014 42.824 55.5791 43.4338 54.9741 44.1145L51.4146 48.0002L51.4004 47.4471H57.1296V48.1987H50.7622ZM58.996 46.965H60.2014V48.1987H58.996V46.965ZM65.3163 47.8158V38.4704L65.8836 38.8958L63.2317 40.6117V39.7183L65.6992 38.1017H66.1955V47.8158H65.3163ZM63.0757 48.1987V47.4471H68.4362V48.1987H63.0757ZM74.2308 48.3122C73.0396 48.3122 72.1178 47.8915 71.4654 47.05C70.8226 46.2086 70.5011 45.0032 70.5011 43.4338C70.5011 42.2804 70.6524 41.2972 70.9549 40.4841C71.2575 39.6711 71.6923 39.0518 72.2596 38.6264C72.8268 38.2009 73.5028 37.9882 74.2875 37.9882C74.8642 37.9882 75.422 38.1017 75.9609 38.3286C76.4998 38.546 76.982 38.8627 77.4074 39.2787L77.0529 39.9736C76.5707 39.5482 76.1074 39.2409 75.6631 39.0518C75.2188 38.8533 74.765 38.754 74.3017 38.754C73.3846 38.754 72.6661 39.1653 72.1461 39.9878C71.6356 40.8008 71.3804 41.9495 71.3804 43.4338V44.8519L71.2244 44.4549C71.3 43.9443 71.4749 43.5 71.7491 43.1218C72.0327 42.7342 72.3872 42.4411 72.8127 42.2426C73.2476 42.0346 73.7297 41.9306 74.2592 41.9306C74.8926 41.9306 75.4457 42.063 75.9184 42.3277C76.3911 42.5924 76.7598 42.9658 77.0245 43.448C77.2892 43.9207 77.4216 44.4738 77.4216 45.1072C77.4216 45.7217 77.2845 46.2748 77.0103 46.7664C76.7456 47.2486 76.3722 47.6268 75.89 47.9009C75.4078 48.1751 74.8548 48.3122 74.2308 48.3122ZM74.2024 47.5464C74.902 47.5464 75.4646 47.3242 75.89 46.8799C76.3249 46.4355 76.5423 45.8446 76.5423 45.1072C76.5423 44.3792 76.3249 43.7978 75.89 43.3629C75.4551 42.9186 74.8831 42.6964 74.1741 42.6964C73.7014 42.6964 73.2806 42.8004 72.9119 43.0084C72.5432 43.2069 72.2549 43.4905 72.0469 43.8593C71.8389 44.2185 71.7349 44.6345 71.7349 45.1072C71.7349 45.5988 71.8389 46.029 72.0469 46.3977C72.2549 46.757 72.5432 47.0406 72.9119 47.2486C73.2806 47.4471 73.7108 47.5464 74.2024 47.5464ZM82.422 48.298C81.6941 48.298 81.0654 48.1893 80.5359 47.9718C80.0065 47.7449 79.5952 47.4282 79.3022 47.0217C79.0185 46.6057 78.8767 46.1141 78.8767 45.5468C78.8767 44.8472 79.1131 44.2658 79.5858 43.8025C80.0679 43.3298 80.7061 43.0367 81.5002 42.9233L81.4152 43.1218C80.6683 42.98 80.0963 42.6917 79.6992 42.2568C79.3022 41.8124 79.1036 41.2783 79.1036 40.6543C79.1036 40.1154 79.2407 39.6474 79.5149 39.2503C79.7985 38.8533 80.1861 38.546 80.6777 38.3286C81.1788 38.1017 81.7602 37.9882 82.422 37.9882C83.0838 37.9882 83.6605 38.1017 84.1521 38.3286C84.6532 38.546 85.0408 38.8533 85.315 39.2503C85.5986 39.6474 85.7405 40.1154 85.7405 40.6543C85.7405 41.2783 85.5419 41.8124 85.1448 42.2568C84.7478 42.6917 84.1805 42.98 83.4431 43.1218L83.3438 42.9233C84.1758 43.0273 84.8187 43.3156 85.2725 43.7884C85.7357 44.2611 85.9674 44.8472 85.9674 45.5468C85.9674 46.1141 85.8208 46.6057 85.5277 47.0217C85.2441 47.4282 84.8376 47.7449 84.3081 47.9718C83.7787 48.1893 83.15 48.298 82.422 48.298ZM82.422 47.5322C83.2824 47.5322 83.9394 47.362 84.3932 47.0217C84.847 46.6719 85.0739 46.1661 85.0739 45.5043C85.0739 44.8803 84.8234 44.3934 84.3223 44.0436C83.8307 43.6938 83.1973 43.4811 82.422 43.4055C81.6468 43.4811 81.0086 43.6938 80.5076 44.0436C80.0159 44.3934 79.7701 44.8803 79.7701 45.5043C79.7701 46.1661 79.997 46.6719 80.4508 47.0217C80.9046 47.362 81.5617 47.5322 82.422 47.5322ZM82.422 42.7531C83.15 42.6869 83.7362 42.4742 84.1805 42.115C84.6249 41.7557 84.847 41.283 84.847 40.6968C84.847 40.0918 84.6343 39.6191 84.2089 39.2787C83.7834 38.9289 83.1878 38.754 82.422 38.754C81.6562 38.754 81.0606 38.9289 80.6352 39.2787C80.2098 39.6191 79.997 40.0918 79.997 40.6968C79.997 41.283 80.2192 41.7557 80.6636 42.115C81.1079 42.4742 81.6941 42.6869 82.422 42.7531ZM87.6494 46.965H88.8548V48.1987H87.6494V46.965ZM93.9697 47.8158V38.4704L94.5369 38.8958L91.885 40.6117V39.7183L94.3526 38.1017H94.8489V47.8158H93.9697ZM91.7291 48.1987V47.4471H97.0896V48.1987H91.7291ZM99.2963 46.965H100.502V48.1987H99.2963V46.965ZM105.617 47.8158V38.4704L106.184 38.8958L103.532 40.6117V39.7183L106 38.1017H106.496V47.8158H105.617ZM103.376 48.1987V47.4471H108.737V48.1987H103.376Z" fill="black"/>
<path d="M66.4439 29.7632V19.6661H67.3089V29.7632H66.4439ZM69.9338 29.7632V19.6661H73.8053C74.8169 19.6661 75.611 19.9119 76.1877 20.4035C76.7644 20.8952 77.0528 21.5711 77.0528 22.4315C77.0528 23.2918 76.7644 23.9725 76.1877 24.4736C75.611 24.9746 74.8169 25.2252 73.8053 25.2252H70.7988V29.7632H69.9338ZM70.7988 24.4594H73.7485C74.5522 24.4594 75.1525 24.2845 75.5496 23.9347C75.9561 23.5849 76.1594 23.0838 76.1594 22.4315C76.1594 21.7886 75.9561 21.2922 75.5496 20.9424C75.1525 20.5926 74.5522 20.4177 73.7485 20.4177H70.7988V24.4594Z" fill="black"/>
<g opacity="0.47">
<path opacity="0.47" d="M136.843 46.955C138.68 46.955 140.17 45.5251 140.17 43.7612C140.17 41.9973 138.68 40.5674 136.843 40.5674C135.005 40.5674 133.516 41.9973 133.516 43.7612C133.516 45.5251 135.005 46.955 136.843 46.955Z" fill="#DAEBFF"/>
</g>
<g opacity="0.47">
<path opacity="0.47" d="M161.804 50.3767C163.641 50.3767 165.131 48.9467 165.131 47.1828C165.131 45.4189 163.641 43.989 161.804 43.989C159.966 43.989 158.477 45.4189 158.477 47.1828C158.477 48.9467 159.966 50.3767 161.804 50.3767Z" fill="#DAEBFF"/>
</g>
<path d="M187.001 50.8196V86.2355C187.001 89.977 183.91 93.0088 180.097 93.0088H125.458C125.284 93.0088 125.114 93.0088 124.948 92.9887C123.705 92.9037 122.509 92.4842 121.486 91.7746C120.583 91.1592 119.845 90.3332 119.334 89.368C118.823 88.4028 118.555 87.3277 118.553 86.2355V50.8196C118.553 47.0782 121.643 44.0464 125.458 44.0464H180.097C183.91 44.0464 187.001 47.0782 187.001 50.8196Z" fill="#B8DCFF"/>
<path d="M185.222 48.7269V84.1428C185.222 87.8842 182.131 90.916 178.317 90.916H123.679C123.507 90.916 123.336 90.916 123.17 90.896C121.927 90.811 120.731 90.3914 119.707 89.6818C118.805 89.0662 118.067 88.24 117.556 87.2749C117.045 86.3098 116.777 85.2347 116.775 84.1428V48.7269C116.775 44.9855 119.866 41.9536 123.679 41.9536H178.318C182.131 41.9536 185.222 44.9855 185.222 48.7269Z" fill="#DAEBFF"/>
<path opacity="0.47" d="M185.223 48.7269V84.1428C185.223 87.8842 182.132 90.916 178.317 90.916H154.99L171.475 41.9536H178.31C182.132 41.9536 185.223 44.9855 185.223 48.7269Z" fill="white"/>
<path d="M146.948 66.7959C146.948 66.7959 148.654 70.093 146.303 74.4823C143.952 78.8717 154.644 76.2455 154.644 76.2455C154.644 76.2455 152.34 68.5147 154.644 64.0838C156.948 59.6528 146.948 66.7959 146.948 66.7959Z" fill="#ED6658"/>
<path d="M140.365 56.9393C140.365 56.9393 140.312 65.8012 145.749 67.8812C148.73 69.028 150.997 68.0417 153.5 66.3889C155.565 65.0271 158.02 61.6297 158.956 58.5907C160.324 54.1469 160.094 49.1296 160.094 49.1296L140.365 56.9393Z" fill="#F87B67"/>
<path d="M168.369 90.896H123.039C122.021 90.8265 121.041 90.4828 120.203 89.9011C120.6 86.9195 121.982 77.8899 124.919 71.9065C128.483 64.6487 132.316 63.7671 132.316 63.7671L128.205 85.539C128.205 85.539 134.26 76.6255 135.635 75.0272C136.948 73.4991 139.218 74.5656 146.727 73.608C146.727 73.608 149.108 75.2766 153.952 73.049C153.952 73.049 154.197 72.8755 154.716 73.6224C155.235 74.3692 159.279 75.9002 161.214 76.002C163.149 76.1037 164.705 78.0089 166.501 84.2747C168.297 90.5405 168.369 90.896 168.369 90.896Z" fill="black"/>
<path d="M160.315 51.6253C160.323 51.5723 160.333 51.5178 160.341 51.4648H160.306C160.114 48.3312 159.561 44.6155 158.103 42.5155C155.244 38.3999 144.231 39.3044 141.972 43.7354C140.108 47.3851 139.843 51.5307 139.806 52.8796C139.762 53.0076 139.756 53.1452 139.787 53.2767C140.052 54.3905 140.307 55.5474 140.705 56.6684C141.191 58.0402 141.982 58.433 143.524 58.132C144.424 57.9631 145.286 57.6318 146.067 57.1543C147.62 56.1709 149.053 56.244 150.773 57.2475C151.816 57.8596 153.107 58.2624 154.389 58.691C155.603 59.0981 156.639 58.7154 157.312 57.9212C158.878 56.0735 159.892 53.949 160.277 51.8705L160.328 51.7916C160.322 51.74 160.318 51.6827 160.315 51.6253Z" fill="black"/>
<path d="M141.936 53.8313C141.936 54.9896 142.173 55.8038 143.266 56.1421C144.091 56.3987 145.303 55.821 145.954 54.7659L141.936 53.8313Z" fill="#DAEBFF"/>
<path d="M155.42 53.5088L150.133 54.7287C150.908 55.9257 152.283 56.5492 153.43 56.264C154.899 55.8999 155.43 54.9867 155.42 53.5088Z" fill="#DAEBFF"/>
<path d="M159.93 53.5089C159.93 53.5089 161.518 52.1012 161.657 54.5883C161.797 57.0754 158.725 59.2687 158.725 59.2687L158.477 54.5382L159.93 53.5089Z" fill="#F87B67"/>
<path d="M113.502 71.6986C113.305 71.0138 113.29 70.2898 113.456 69.5971C113.656 68.8656 114.115 68.2313 114.746 67.8109C116.509 66.5495 118.27 65.2856 120.03 64.0193C121.349 63.0732 122.669 62.129 123.991 61.1868C124.624 60.7323 125.252 60.2693 125.889 59.8192C126.53 59.3548 127.321 59.1425 128.109 59.2229C128.259 59.241 128.41 59.1992 128.529 59.1068C129.802 58.185 131.086 57.2776 132.354 56.3487C133.188 55.7352 134.052 55.7495 134.95 56.1638C134.992 56.1888 135.041 56.1993 135.089 56.1939C135.138 56.1885 135.184 56.1673 135.219 56.1337C136.102 55.4944 136.984 54.855 137.874 54.2257C138.394 53.8573 139.128 53.9003 139.729 54.2902C140.208 54.6013 140.5 55.0686 140.821 55.5087C141.071 55.8301 141.287 56.1765 141.466 56.5422C141.706 57.0755 141.719 57.636 141.376 58.1435C141.24 58.3254 141.074 58.4829 140.886 58.6093C140.063 59.2114 139.231 59.8034 138.4 60.3955C138.354 60.4184 138.318 60.4565 138.297 60.5032C138.275 60.5499 138.271 60.6025 138.284 60.6521C138.38 61.2842 138.308 61.8949 137.92 62.4296C137.781 62.6172 137.614 62.7826 137.425 62.9199C136.624 63.509 135.813 64.0853 135.004 64.6644C134.478 65.0414 133.949 65.4127 133.427 65.7954C133.35 65.8543 133.295 65.9369 133.27 66.0305C133.09 66.86 132.6 67.5896 131.901 68.0704C130.671 68.9434 129.449 69.8293 128.224 70.708C126.528 71.9227 124.833 73.1359 123.138 74.3477C122.375 74.8953 121.607 75.4357 120.854 75.9933C119.901 76.6986 118.866 76.7846 117.768 76.4234C116.901 76.1182 116.116 75.6169 115.474 74.9583C114.587 74.1032 113.926 73.0419 113.549 71.8692C113.532 71.8075 113.516 71.753 113.502 71.6986ZM114.864 71.6556C115.241 72.8566 115.998 73.9027 117.021 74.6372C117.534 75.0317 118.141 75.2834 118.783 75.3669C119.677 75.4715 120.433 74.9927 120.676 74.1599C120.81 73.6929 120.822 73.1997 120.714 72.7264C120.403 71.2685 119.596 70.1203 118.389 69.2387C117.93 68.9011 117.401 68.6712 116.842 68.5664C115.891 68.3886 115.093 68.8301 114.796 69.7275C114.583 70.3654 114.679 71.0091 114.862 71.6556H114.864Z" fill="black"/>
<path d="M114.862 71.6555C114.678 71.0033 114.582 70.3654 114.795 69.7275C115.091 68.8301 115.89 68.3886 116.84 68.5664C117.4 68.6712 117.929 68.901 118.387 69.2387C119.594 70.1203 120.401 71.2685 120.712 72.7263C120.821 73.1997 120.808 73.6928 120.675 74.1598C120.431 74.9927 119.671 75.4715 118.781 75.3668C118.14 75.2834 117.532 75.0316 117.019 74.6372C115.997 73.9027 115.24 72.8565 114.862 71.6555Z" fill="#DBEEFF"/>
<path d="M128.502 57.6402C128.573 56.9234 131.477 54.2213 134.206 54.9724C134.863 55.153 135.396 55.6777 135.416 56.1192C135.471 57.3334 133.508 58.5175 132.594 59.0765C131.498 59.746 131.734 58.4702 129.221 58.6121C128.881 58.6278 128.438 58.3182 128.502 57.6402Z" fill="#F87B67"/>
</g>
<defs>
<linearGradient id="paint0_linear_194_2168" x1="92.0701" y1="3" x2="92.0701" y2="100.851" gradientUnits="userSpaceOnUse">
<stop stop-color="#6CBCFC"/>
<stop offset="1" stop-color="#458DFC"/>
</linearGradient>
<clipPath id="clip0_194_2168">
<rect width="187" height="109" fill="white"/>
</clipPath>
</defs>
</svg>
