<svg width="187" height="109" viewBox="0 0 187 109" fill="none" xmlns="http://www.w3.org/2000/svg">
<g clip-path="url(#clip0_194_2147)">
<rect width="187" height="109" fill="white"/>
<path d="M133.654 4.94553V104.073C133.654 106.809 131.444 109.019 128.708 109.019H58.9455C56.2101 109.001 54 106.791 54 104.073V4.94553C54 2.21009 56.2101 0 58.9455 0H128.726C131.444 0 133.654 2.21009 133.654 4.94553Z" fill="url(#paint0_linear_194_2147)"/>
<path d="M128.58 9.11791V99.8831C128.58 102.388 126.638 104.411 124.234 104.411H62.9354C60.5318 104.395 58.5898 102.371 58.5898 99.8831V9.11791C58.5898 6.61324 60.5318 4.5896 62.9354 4.5896H124.25C126.638 4.5896 128.58 6.61324 128.58 9.11791Z" fill="url(#paint1_linear_194_2147)"/>
<path opacity="0.5" d="M121.208 45.5241H66.4451C66.0828 45.5241 65.793 45.2342 65.793 44.8719V42.7886C65.793 42.4263 66.0828 42.1365 66.4451 42.1365H121.208C121.571 42.1365 121.86 42.4263 121.86 42.7886V44.8719C121.842 45.2342 121.571 45.5241 121.208 45.5241Z" fill="url(#paint2_linear_194_2147)"/>
<path d="M121.208 19.5645H94.035C93.6727 19.5645 93.3828 19.2747 93.3828 18.9124V16.8472C93.3828 16.4849 93.6727 16.1951 94.035 16.1951H121.208C121.57 16.1951 121.86 16.4849 121.86 16.8472V18.9305C121.842 19.2747 121.57 19.5645 121.208 19.5645Z" fill="url(#paint3_linear_194_2147)"/>
<path opacity="0.5" d="M113.165 28.3685H94.035C93.6727 28.3685 93.3828 28.0787 93.3828 27.7164V25.6331C93.3828 25.2708 93.6727 24.981 94.035 24.981H113.165C113.527 24.981 113.817 25.2708 113.817 25.6331V27.7164C113.799 28.0787 113.527 28.3685 113.165 28.3685Z" fill="url(#paint4_linear_194_2147)"/>
<path opacity="0.5" d="M121.208 55.4152H66.4451C66.0828 55.4152 65.793 55.1253 65.793 54.763V52.6797C65.793 52.3174 66.0828 52.0276 66.4451 52.0276H121.208C121.571 52.0276 121.86 52.3174 121.86 52.6797V54.763C121.842 55.1253 121.571 55.4152 121.208 55.4152Z" fill="url(#paint5_linear_194_2147)"/>
<path opacity="0.5" d="M121.208 65.3061H66.4451C66.0828 65.3061 65.793 65.0162 65.793 64.6539V62.5706C65.793 62.2083 66.0828 61.9185 66.4451 61.9185H121.208C121.571 61.9185 121.86 62.2083 121.86 62.5706V64.672C121.842 65.0162 121.571 65.3061 121.208 65.3061Z" fill="url(#paint6_linear_194_2147)"/>
<path opacity="0.5" d="M121.208 75.2152H66.4451C66.0828 75.2152 65.793 74.9254 65.793 74.5631V72.4798C65.793 72.1175 66.0828 71.8276 66.4451 71.8276H121.208C121.571 71.8276 121.86 72.1175 121.86 72.4798V74.5631C121.842 74.9254 121.571 75.2152 121.208 75.2152Z" fill="url(#paint7_linear_194_2147)"/>
<path opacity="0.5" d="M121.208 85.1064H66.4451C66.0828 85.1064 65.793 84.8165 65.793 84.4542V82.3709C65.793 82.0086 66.0828 81.7188 66.4451 81.7188H121.208C121.571 81.7188 121.86 82.0086 121.86 82.3709V84.4542C121.842 84.8165 121.571 85.1064 121.208 85.1064Z" fill="url(#paint8_linear_194_2147)"/>
<path opacity="0.5" d="M121.208 94.9975H66.4451C66.0828 94.9975 65.793 94.7076 65.793 94.3453V92.262C65.793 91.8997 66.0828 91.6099 66.4451 91.6099H121.208C121.571 91.6099 121.86 91.8997 121.86 92.262V94.3453C121.842 94.7076 121.571 94.9975 121.208 94.9975Z" fill="url(#paint9_linear_194_2147)"/>
<path opacity="0.1" d="M133.654 4.94553V104.073C133.654 106.809 131.444 109.019 128.708 109.019H58.9455C56.2101 109.001 54 106.791 54 104.073V102.352C96.5533 84.7804 116.372 17.3909 120.846 0H128.708C131.444 0 133.654 2.21009 133.654 4.94553Z" fill="#1A6FB5" fill-opacity="0.4"/>
<path d="M154.939 68.8063C154.939 68.2038 154.549 68.2949 154.162 68.2286C150.85 67.6469 148.852 65.6822 148.351 62.4566C148.26 61.8707 148.044 61.7631 147.523 61.7672C144.003 61.7941 140.5 61.8024 136.989 61.8169C133.525 61.8024 130.062 61.7941 126.596 61.7672C126.039 61.7672 125.768 61.8624 125.654 62.5042C125.087 65.8043 123.157 67.6966 119.816 68.2266C119.176 68.328 119.043 68.5516 119.039 69.1147C119 74.276 118.832 79.4497 120.696 84.4123C121.11 85.3453 121.524 86.2797 121.938 87.2155C122.186 87.6171 122.443 88.0146 122.685 88.4204C126.045 94.0102 130.749 98.0453 137.008 100.269C144.722 97.5422 149.906 92.267 153.077 84.9485C155.324 79.752 154.928 74.2615 154.939 68.8063Z" fill="#00D569"/>
<path d="M132.995 77.7809L135.637 80.0334L143.411 72.6631L146.738 75.6692L135.9 86.4493L129.77 80.6566L132.995 77.7809Z" fill="#FEFEFE"/>
</g>
<defs>
<linearGradient id="paint0_linear_194_2147" x1="163.001" y1="144.57" x2="47.1157" y2="-6.31057" gradientUnits="userSpaceOnUse">
<stop offset="0.3061" stop-color="#5BA7FC"/>
<stop offset="1" stop-color="#69B8FC"/>
</linearGradient>
<linearGradient id="paint1_linear_194_2147" x1="63.8954" y1="8.08409" x2="120.478" y2="89.5314" gradientUnits="userSpaceOnUse">
<stop offset="0.3061" stop-color="white"/>
<stop offset="1" stop-color="white"/>
</linearGradient>
<linearGradient id="paint2_linear_194_2147" x1="65.807" y1="43.838" x2="121.851" y2="43.838" gradientUnits="userSpaceOnUse">
<stop stop-color="#6CBCFC"/>
<stop offset="1" stop-color="#458DFC"/>
</linearGradient>
<linearGradient id="paint3_linear_194_2147" x1="93.3833" y1="17.881" x2="121.85" y2="17.881" gradientUnits="userSpaceOnUse">
<stop stop-color="#6CBCFC"/>
<stop offset="1" stop-color="#458DFC"/>
</linearGradient>
<linearGradient id="paint4_linear_194_2147" x1="93.3833" y1="26.6895" x2="113.807" y2="26.6895" gradientUnits="userSpaceOnUse">
<stop stop-color="#6CBCFC"/>
<stop offset="1" stop-color="#458DFC"/>
</linearGradient>
<linearGradient id="paint5_linear_194_2147" x1="65.807" y1="53.7336" x2="121.851" y2="53.7336" gradientUnits="userSpaceOnUse">
<stop stop-color="#6CBCFC"/>
<stop offset="1" stop-color="#458DFC"/>
</linearGradient>
<linearGradient id="paint6_linear_194_2147" x1="65.807" y1="63.6289" x2="121.851" y2="63.6289" gradientUnits="userSpaceOnUse">
<stop stop-color="#6CBCFC"/>
<stop offset="1" stop-color="#458DFC"/>
</linearGradient>
<linearGradient id="paint7_linear_194_2147" x1="65.807" y1="73.5245" x2="121.851" y2="73.5245" gradientUnits="userSpaceOnUse">
<stop stop-color="#6CBCFC"/>
<stop offset="1" stop-color="#458DFC"/>
</linearGradient>
<linearGradient id="paint8_linear_194_2147" x1="65.807" y1="83.4201" x2="121.851" y2="83.4201" gradientUnits="userSpaceOnUse">
<stop stop-color="#6CBCFC"/>
<stop offset="1" stop-color="#458DFC"/>
</linearGradient>
<linearGradient id="paint9_linear_194_2147" x1="65.807" y1="93.3156" x2="121.851" y2="93.3156" gradientUnits="userSpaceOnUse">
<stop stop-color="#6CBCFC"/>
<stop offset="1" stop-color="#458DFC"/>
</linearGradient>
<clipPath id="clip0_194_2147">
<rect width="187" height="109" fill="white"/>
</clipPath>
</defs>
</svg>
