<svg width="84" height="115" viewBox="0 0 84 115" fill="none" xmlns="http://www.w3.org/2000/svg">
<g clip-path="url(#clip0_93_6567)">
<path d="M83.307 5.57225V109.246C83.307 112.107 80.9955 114.419 78.1346 114.419H5.17234C2.31145 114.4 0 112.088 0 109.246V5.57225C0 2.71135 2.31145 0.399902 5.17234 0.399902H78.1536C80.9955 0.399902 83.307 2.71135 83.307 5.57225Z" fill="url(#paint0_linear_93_6567)"/>
<path d="M77.9998 9.93594V104.864C77.9998 107.484 75.9688 109.6 73.455 109.6H9.34463C6.83083 109.583 4.7998 107.466 4.7998 104.864V9.93594C4.7998 7.3164 6.83083 5.19995 9.34463 5.19995H73.4716C75.9688 5.19995 77.9998 7.3164 77.9998 9.93594Z" fill="url(#paint1_linear_93_6567)"/>
<path opacity="0.5" d="M70.2908 48.012H13.0161C12.6371 48.012 12.334 47.7088 12.334 47.3299V45.1511C12.334 44.7721 12.6371 44.469 13.0161 44.469H70.2908C70.6697 44.469 70.9728 44.7721 70.9728 45.1511V47.3299C70.9539 47.7088 70.6697 48.012 70.2908 48.012Z" fill="url(#paint2_linear_93_6567)"/>
<path d="M70.291 20.8619H41.8715C41.4926 20.8619 41.1895 20.5588 41.1895 20.1798V18.02C41.1895 17.641 41.4926 17.3379 41.8715 17.3379H70.291C70.6699 17.3379 70.9731 17.641 70.9731 18.02V20.1988C70.9541 20.5588 70.6699 20.8619 70.291 20.8619Z" fill="url(#paint3_linear_93_6567)"/>
<path opacity="0.5" d="M61.8788 30.0698H41.8715C41.4926 30.0698 41.1895 29.7667 41.1895 29.3877V27.2089C41.1895 26.83 41.4926 26.5269 41.8715 26.5269H61.8788C62.2578 26.5269 62.5609 26.83 62.5609 27.2089V29.3877C62.542 29.7667 62.2578 30.0698 61.8788 30.0698Z" fill="url(#paint4_linear_93_6567)"/>
<path opacity="0.5" d="M70.2908 58.3567H13.0161C12.6371 58.3567 12.334 58.0535 12.334 57.6746V55.4958C12.334 55.1169 12.6371 54.8137 13.0161 54.8137H70.2908C70.6697 54.8137 70.9728 55.1169 70.9728 55.4958V57.6746C70.9539 58.0535 70.6697 58.3567 70.2908 58.3567Z" fill="url(#paint5_linear_93_6567)"/>
<path opacity="0.5" d="M70.2908 68.7014H13.0161C12.6371 68.7014 12.334 68.3983 12.334 68.0193V65.8405C12.334 65.4616 12.6371 65.1584 13.0161 65.1584H70.2908C70.6697 65.1584 70.9728 65.4616 70.9728 65.8405V68.0383C70.9539 68.3983 70.6697 68.7014 70.2908 68.7014Z" fill="url(#paint6_linear_93_6567)"/>
<path opacity="0.5" d="M70.2908 79.0649H13.0161C12.6371 79.0649 12.334 78.7618 12.334 78.3829V76.204C12.334 75.8251 12.6371 75.522 13.0161 75.522H70.2908C70.6697 75.522 70.9728 75.8251 70.9728 76.204V78.3829C70.9539 78.7618 70.6697 79.0649 70.2908 79.0649Z" fill="url(#paint7_linear_93_6567)"/>
<path opacity="0.5" d="M70.2908 89.4097H13.0161C12.6371 89.4097 12.334 89.1066 12.334 88.7276V86.5488C12.334 86.1698 12.6371 85.8667 13.0161 85.8667H70.2908C70.6697 85.8667 70.9728 86.1698 70.9728 86.5488V88.7276C70.9539 89.1066 70.6697 89.4097 70.2908 89.4097Z" fill="url(#paint8_linear_93_6567)"/>
<path opacity="0.5" d="M70.2908 99.7544H13.0161C12.6371 99.7544 12.334 99.4512 12.334 99.0723V96.8935C12.334 96.5146 12.6371 96.2114 13.0161 96.2114H70.2908C70.6697 96.2114 70.9728 96.5146 70.9728 96.8935V99.0723C70.9539 99.4512 70.6697 99.7544 70.2908 99.7544Z" fill="url(#paint9_linear_93_6567)"/>
<path opacity="0.1" d="M83.307 5.57225V109.246C83.307 112.107 80.9955 114.419 78.1346 114.419H5.17234C2.31145 114.4 0 112.088 0 109.246V107.447C44.5049 89.0687 65.2322 18.5884 69.9119 0.399902H78.1346C80.9955 0.399902 83.307 2.71135 83.307 5.57225Z" fill="#1A6FB5" fill-opacity="0.4"/>
</g>
<defs>
<linearGradient id="paint0_linear_93_6567" x1="114" y1="151.6" x2="-7.20001" y2="-6.20009" gradientUnits="userSpaceOnUse">
<stop offset="0.3061" stop-color="#5BA7FC"/>
<stop offset="1" stop-color="#69B8FC"/>
</linearGradient>
<linearGradient id="paint1_linear_93_6567" x1="10.3487" y1="8.85471" x2="69.526" y2="94.0375" gradientUnits="userSpaceOnUse">
<stop offset="0.3061" stop-color="white"/>
<stop offset="1" stop-color="white"/>
</linearGradient>
<linearGradient id="paint2_linear_93_6567" x1="12.3486" y1="46.2485" x2="70.9625" y2="46.2485" gradientUnits="userSpaceOnUse">
<stop stop-color="#6CBCFC"/>
<stop offset="1" stop-color="#458DFC"/>
</linearGradient>
<linearGradient id="paint3_linear_93_6567" x1="41.19" y1="19.1012" x2="70.9628" y2="19.1012" gradientUnits="userSpaceOnUse">
<stop stop-color="#6CBCFC"/>
<stop offset="1" stop-color="#458DFC"/>
</linearGradient>
<linearGradient id="paint4_linear_93_6567" x1="41.19" y1="28.3138" x2="62.5509" y2="28.3138" gradientUnits="userSpaceOnUse">
<stop stop-color="#6CBCFC"/>
<stop offset="1" stop-color="#458DFC"/>
</linearGradient>
<linearGradient id="paint5_linear_93_6567" x1="12.3486" y1="56.5979" x2="70.9625" y2="56.5979" gradientUnits="userSpaceOnUse">
<stop stop-color="#6CBCFC"/>
<stop offset="1" stop-color="#458DFC"/>
</linearGradient>
<linearGradient id="paint6_linear_93_6567" x1="12.3486" y1="66.9474" x2="70.9625" y2="66.9474" gradientUnits="userSpaceOnUse">
<stop stop-color="#6CBCFC"/>
<stop offset="1" stop-color="#458DFC"/>
</linearGradient>
<linearGradient id="paint7_linear_93_6567" x1="12.3486" y1="77.2966" x2="70.9625" y2="77.2966" gradientUnits="userSpaceOnUse">
<stop stop-color="#6CBCFC"/>
<stop offset="1" stop-color="#458DFC"/>
</linearGradient>
<linearGradient id="paint8_linear_93_6567" x1="12.3486" y1="87.646" x2="70.9625" y2="87.646" gradientUnits="userSpaceOnUse">
<stop stop-color="#6CBCFC"/>
<stop offset="1" stop-color="#458DFC"/>
</linearGradient>
<linearGradient id="paint9_linear_93_6567" x1="12.3486" y1="97.9954" x2="70.9625" y2="97.9954" gradientUnits="userSpaceOnUse">
<stop stop-color="#6CBCFC"/>
<stop offset="1" stop-color="#458DFC"/>
</linearGradient>
<clipPath id="clip0_93_6567">
<rect width="83.307" height="114" fill="white" transform="translate(0 0.399902)"/>
</clipPath>
</defs>
</svg>
