<svg width="27" height="28" viewBox="0 0 27 28" fill="none" xmlns="http://www.w3.org/2000/svg">
<g clip-path="url(#clip0_194_10004)">
<path d="M13.6651 11.2769C14.684 10.2358 16.0107 9.55469 17.554 9.55469C19.1748 9.55469 20.7292 10.1985 21.8752 11.3446C23.0213 12.4906 23.6651 14.045 23.6651 15.6658V23.9991H21.4429V15.6658C21.4429 14.6344 21.0332 13.6452 20.3039 12.9159C19.5746 12.1866 18.5854 11.7769 17.554 11.7769C16.5226 11.7769 15.5335 12.1866 14.8042 12.9159C14.0749 13.6452 13.6651 14.6344 13.6651 15.6658V23.9991H11.4429V10.1102H13.6651V11.2769ZM5.88737 7.88802C5.44534 7.88802 5.02142 7.71243 4.70886 7.39987C4.3963 7.0873 4.2207 6.66338 4.2207 6.22135C4.2207 5.77933 4.3963 5.3554 4.70886 5.04284C5.02142 4.73028 5.44534 4.55469 5.88737 4.55469C6.3294 4.55469 6.75332 4.73028 7.06588 5.04284C7.37844 5.3554 7.55404 5.77933 7.55404 6.22135C7.55404 6.66338 7.37844 7.0873 7.06588 7.39987C6.75332 7.71243 6.3294 7.88802 5.88737 7.88802ZM4.77626 10.1102H6.99848V23.9991H4.77626V10.1102Z" fill="white"/>
</g>
<defs>
<clipPath id="clip0_194_10004">
<rect width="26.6667" height="26.6667" fill="white" transform="translate(0.332031 0.666504)"/>
</clipPath>
</defs>
</svg>
