<svg width="187" height="109" viewBox="0 0 187 109" fill="none" xmlns="http://www.w3.org/2000/svg">
<rect width="187" height="109" fill="white"/>
<g clip-path="url(#clip0_194_2075)">
<path d="M128.544 0H56.673C55.1949 0 54 1.17975 54 2.63914V106.37C54 107.829 55.1949 109.009 56.673 109.009H128.544C130.022 109.009 131.217 107.829 131.217 106.37V2.63914C131.208 1.17975 130.013 0 128.544 0Z" fill="url(#paint0_linear_194_2075)"/>
<path d="M123.828 4.70166H61.3835C59.9496 4.70166 58.7812 5.85519 58.7812 7.27963V93.0429C58.7812 94.4674 59.9496 95.6121 61.3835 95.6121H123.828C125.271 95.6121 126.43 94.4586 126.43 93.0429V7.27963C126.43 5.85519 125.271 4.70166 123.828 4.70166Z" fill="white"/>
<path d="M105.373 45.4775H79.8459C78.6775 45.4775 77.7305 44.5424 77.7305 43.3889V18.1772C77.7305 17.0237 78.6775 16.0886 79.8459 16.0886H105.373C106.541 16.0886 107.488 17.0237 107.488 18.1772V43.3801C107.488 44.5337 106.541 45.4775 105.373 45.4775Z" fill="url(#paint1_linear_194_2075)"/>
<path d="M92.6096 106.186C94.78 106.186 96.5395 104.449 96.5395 102.306C96.5395 100.163 94.78 98.4258 92.6096 98.4258C90.4392 98.4258 88.6797 100.163 88.6797 102.306C88.6797 104.449 90.4392 106.186 92.6096 106.186Z" fill="white"/>
<path d="M114.852 58.533H70.3571C69.233 58.533 68.3125 57.6241 68.3125 56.5143C68.3125 55.4045 69.233 54.4956 70.3571 54.4956H114.843C115.967 54.4956 116.887 55.4045 116.887 56.5143C116.887 57.6241 115.976 58.533 114.852 58.533Z" fill="url(#paint2_linear_194_2075)"/>
<path opacity="0.6" d="M107.32 69.7189H69.6145C68.8976 69.7189 68.3223 69.1422 68.3223 68.4431V68.3032C68.3223 67.5954 68.9064 67.0273 69.6145 67.0273H107.32C108.037 67.0273 108.613 67.6041 108.613 68.3032V68.4431C108.621 69.1422 108.037 69.7189 107.32 69.7189Z" fill="url(#paint3_linear_194_2075)"/>
<path opacity="0.3" d="M100.141 76.8236H69.4897C68.8436 76.8236 68.3125 76.2992 68.3125 75.6613V75.2768C68.3125 74.6388 68.8436 74.1145 69.4897 74.1145H100.132C100.778 74.1145 101.309 74.6388 101.309 75.2768V75.6613C101.309 76.2992 100.778 76.8236 100.141 76.8236Z" fill="url(#paint4_linear_194_2075)"/>
<path opacity="0.6" d="M104.001 83.404H69.5614C68.8799 83.404 68.3223 82.8534 68.3223 82.1805V81.9358C68.3223 81.2629 68.8799 80.7124 69.5614 80.7124H104.001C104.683 80.7124 105.24 81.2629 105.24 81.9358V82.1805C105.24 82.8447 104.683 83.404 104.001 83.404Z" fill="url(#paint5_linear_194_2075)"/>
<path d="M92.687 29.9701C95.2428 29.9701 97.3146 27.8972 97.3146 25.34C97.3146 22.7828 95.2428 20.71 92.687 20.71C90.1311 20.71 88.0593 22.7828 88.0593 25.34C88.0593 27.8972 90.1214 29.9701 92.687 29.9701ZM92.687 32.2852C89.5986 32.2852 83.4316 33.835 83.4316 36.9152V38.0776C83.4316 38.7169 83.9544 39.24 84.5934 39.24H100.8C101.439 39.24 101.962 38.7169 101.962 38.0776V36.9152C101.942 33.8447 95.7753 32.2852 92.687 32.2852Z" fill="white"/>
</g>
<defs>
<linearGradient id="paint0_linear_194_2075" x1="58.6778" y1="51.6662" x2="131.269" y2="57.8892" gradientUnits="userSpaceOnUse">
<stop stop-color="#6CBCFC"/>
<stop offset="1" stop-color="#458DFC"/>
</linearGradient>
<linearGradient id="paint1_linear_194_2075" x1="75.4229" y1="22.1358" x2="109.608" y2="39.7779" gradientUnits="userSpaceOnUse">
<stop stop-color="#B0F4FF"/>
<stop offset="0.0856277" stop-color="#A3F0FE"/>
<stop offset="0.2972" stop-color="#8AE7FD"/>
<stop offset="0.5161" stop-color="#77E1FD"/>
<stop offset="0.7451" stop-color="#6DDDFC"/>
<stop offset="1" stop-color="#69DCFC"/>
</linearGradient>
<linearGradient id="paint2_linear_194_2075" x1="116.892" y1="56.5159" x2="68.3208" y2="56.5159" gradientUnits="userSpaceOnUse">
<stop stop-color="#6CBCFC"/>
<stop offset="1" stop-color="#458DFC"/>
</linearGradient>
<linearGradient id="paint3_linear_194_2075" x1="108.619" y1="68.3692" x2="68.3218" y2="68.3692" gradientUnits="userSpaceOnUse">
<stop stop-color="#6CBCFC"/>
<stop offset="1" stop-color="#458DFC"/>
</linearGradient>
<linearGradient id="paint4_linear_194_2075" x1="101.31" y1="75.4739" x2="68.3208" y2="75.4739" gradientUnits="userSpaceOnUse">
<stop stop-color="#6CBCFC"/>
<stop offset="1" stop-color="#458DFC"/>
</linearGradient>
<linearGradient id="paint5_linear_194_2075" x1="105.24" y1="82.0512" x2="68.3218" y2="82.0512" gradientUnits="userSpaceOnUse">
<stop stop-color="#6CBCFC"/>
<stop offset="1" stop-color="#458DFC"/>
</linearGradient>
<clipPath id="clip0_194_2075">
<rect width="77.2083" height="109" fill="white" transform="translate(54)"/>
</clipPath>
</defs>
</svg>
