<svg width="81" height="114" viewBox="0 0 81 114" fill="none" xmlns="http://www.w3.org/2000/svg">
<g clip-path="url(#clip0_93_6498)">
<path d="M77.9636 0H2.79566C1.24971 0 0 1.23387 0 2.7602V111.249C0 112.775 1.24971 114.009 2.79566 114.009H77.9636C79.5095 114.009 80.7593 112.775 80.7593 111.249V2.7602C80.75 1.23387 79.5003 0 77.9636 0Z" fill="url(#paint0_linear_93_6498)"/>
<path d="M73.0297 4.91724H7.72062C6.22097 4.91724 4.99902 6.12368 4.99902 7.61346V97.3108C4.99902 98.8006 6.22097 99.9979 7.72062 99.9979H73.0297C74.5386 99.9979 75.7513 98.7915 75.7513 97.3108V7.61346C75.7513 6.12368 74.5386 4.91724 73.0297 4.91724Z" fill="white"/>
<path d="M53.7284 47.5634H27.0308C25.8089 47.5634 24.8184 46.5854 24.8184 45.379V19.0108C24.8184 17.8044 25.8089 16.8264 27.0308 16.8264H53.7284C54.9503 16.8264 55.9408 17.8044 55.9408 19.0108V45.3698C55.9408 46.5763 54.9503 47.5634 53.7284 47.5634Z" fill="url(#paint1_linear_93_6498)"/>
<path d="M40.3797 111.057C42.6497 111.057 44.4899 109.24 44.4899 106.999C44.4899 104.758 42.6497 102.941 40.3797 102.941C38.1097 102.941 36.2695 104.758 36.2695 106.999C36.2695 109.24 38.1097 111.057 40.3797 111.057Z" fill="white"/>
<path d="M63.6428 61.2179H17.1071C15.9315 61.2179 14.9688 60.2674 14.9688 59.1066C14.9688 57.9459 15.9315 56.9954 17.1071 56.9954H63.6335C64.8092 56.9954 65.7719 57.9459 65.7719 59.1066C65.7719 60.2674 64.8184 61.2179 63.6428 61.2179Z" fill="url(#paint2_linear_93_6498)"/>
<path opacity="0.6" d="M55.7655 72.9169H16.3301C15.5802 72.9169 14.9785 72.3136 14.9785 71.5825V71.4362C14.9785 70.6959 15.5895 70.1018 16.3301 70.1018H55.7655C56.5153 70.1018 57.117 70.705 57.117 71.4362V71.5825C57.1263 72.3136 56.5153 72.9169 55.7655 72.9169Z" fill="url(#paint3_linear_93_6498)"/>
<path opacity="0.3" d="M48.2574 80.3475H16.1999C15.5242 80.3475 14.9688 79.7991 14.9688 79.1319V78.7297C14.9688 78.0625 15.5242 77.5142 16.1999 77.5142H48.2482C48.9239 77.5142 49.4794 78.0625 49.4794 78.7297V79.1319C49.4794 79.7991 48.9239 80.3475 48.2574 80.3475Z" fill="url(#paint4_linear_93_6498)"/>
<path opacity="0.6" d="M52.294 87.2298H16.2745C15.5617 87.2298 14.9785 86.654 14.9785 85.9503V85.6944C14.9785 84.9906 15.5617 84.4148 16.2745 84.4148H52.294C53.0068 84.4148 53.59 84.9906 53.59 85.6944V85.9503C53.59 86.6449 53.0068 87.2298 52.294 87.2298Z" fill="url(#paint5_linear_93_6498)"/>
<path d="M40.4601 31.3448C43.1333 31.3448 45.3001 29.1769 45.3001 26.5024C45.3001 23.8279 43.1333 21.6599 40.4601 21.6599C37.787 21.6599 35.6202 23.8279 35.6202 26.5024C35.6202 29.1769 37.7769 31.3448 40.4601 31.3448ZM40.4601 33.7661C37.2301 33.7661 30.7803 35.387 30.7803 38.6085V39.8242C30.7803 40.4929 31.327 41.0399 31.9953 41.0399H48.9452C49.6135 41.0399 50.1603 40.4929 50.1603 39.8242V38.6085C50.14 35.3971 43.6901 33.7661 40.4601 33.7661Z" fill="white"/>
</g>
<defs>
<linearGradient id="paint0_linear_93_6498" x1="4.89238" y1="54.0362" x2="80.8134" y2="60.5446" gradientUnits="userSpaceOnUse">
<stop stop-color="#6CBCFC"/>
<stop offset="1" stop-color="#458DFC"/>
</linearGradient>
<linearGradient id="paint1_linear_93_6498" x1="22.4049" y1="23.151" x2="58.1585" y2="41.6024" gradientUnits="userSpaceOnUse">
<stop stop-color="#B0F4FF"/>
<stop offset="0.0856277" stop-color="#A3F0FE"/>
<stop offset="0.2972" stop-color="#8AE7FD"/>
<stop offset="0.5161" stop-color="#77E1FD"/>
<stop offset="0.7451" stop-color="#6DDDFC"/>
<stop offset="1" stop-color="#69DCFC"/>
</linearGradient>
<linearGradient id="paint2_linear_93_6498" x1="65.7764" y1="59.1084" x2="14.9775" y2="59.1084" gradientUnits="userSpaceOnUse">
<stop stop-color="#6CBCFC"/>
<stop offset="1" stop-color="#458DFC"/>
</linearGradient>
<linearGradient id="paint3_linear_93_6498" x1="57.1236" y1="71.5053" x2="14.978" y2="71.5053" gradientUnits="userSpaceOnUse">
<stop stop-color="#6CBCFC"/>
<stop offset="1" stop-color="#458DFC"/>
</linearGradient>
<linearGradient id="paint4_linear_93_6498" x1="49.4803" y1="78.9359" x2="14.9775" y2="78.9359" gradientUnits="userSpaceOnUse">
<stop stop-color="#6CBCFC"/>
<stop offset="1" stop-color="#458DFC"/>
</linearGradient>
<linearGradient id="paint5_linear_93_6498" x1="53.5893" y1="85.815" x2="14.978" y2="85.815" gradientUnits="userSpaceOnUse">
<stop stop-color="#6CBCFC"/>
<stop offset="1" stop-color="#458DFC"/>
</linearGradient>
<clipPath id="clip0_93_6498">
<rect width="80.75" height="114" fill="white"/>
</clipPath>
</defs>
</svg>
