<svg width="137" height="104" viewBox="0 0 137 104" fill="none" xmlns="http://www.w3.org/2000/svg">
<rect x="48.2158" y="6.14917" width="39.7076" height="97.8508" fill="#005FCE"/>
<rect y="0.476562" width="136.14" height="97.8508" fill="url(#paint0_linear_93_6642)"/>
<rect x="4.25391" y="4.73096" width="127.632" height="89.342" fill="white"/>
<rect x="24" y="66" width="88" height="3" rx="1.5" fill="#6CBCFC"/>
<rect x="24" y="66" width="33" height="3" rx="1.5" fill="#005FCE"/>
<path d="M43.2191 45.6753V35.5782H44.0842V44.9095H49.3029V45.6753H43.2191ZM53.5159 45.7746C52.8636 45.7746 52.2916 45.6233 51.8 45.3208C51.3178 45.0182 50.9397 44.5928 50.6655 44.0444C50.3913 43.4866 50.2542 42.8296 50.2542 42.0732C50.2542 41.3358 50.3913 40.6929 50.6655 40.1446C50.9397 39.5868 51.3178 39.1566 51.8 38.8541C52.2916 38.5516 52.8636 38.4003 53.5159 38.4003C54.1777 38.4003 54.7497 38.5516 55.2319 38.8541C55.7235 39.1566 56.1017 39.5868 56.3664 40.1446C56.6405 40.6929 56.7776 41.3358 56.7776 42.0732C56.7776 42.8296 56.6405 43.4866 56.3664 44.0444C56.1017 44.5928 55.7235 45.0182 55.2319 45.3208C54.7497 45.6233 54.1777 45.7746 53.5159 45.7746ZM53.5159 45.0088C54.2723 45.0088 54.8537 44.7582 55.2602 44.2572C55.6762 43.7561 55.8842 43.0328 55.8842 42.0874C55.8842 41.1609 55.6762 40.4424 55.2602 39.9319C54.8443 39.4213 54.2675 39.1661 53.5301 39.1661C52.7832 39.1661 52.1971 39.4213 51.7716 39.9319C51.3557 40.4424 51.1477 41.1609 51.1477 42.0874C51.1477 43.0328 51.3509 43.7561 51.7575 44.2572C52.1734 44.7582 52.7596 45.0088 53.5159 45.0088ZM61.3798 45.7746C60.7464 45.7746 60.1886 45.6233 59.7064 45.3208C59.2337 45.0182 58.865 44.5975 58.6003 44.0586C58.345 43.5103 58.2174 42.8627 58.2174 42.1158C58.2174 41.3689 58.3497 40.7166 58.6144 40.1588C58.8792 39.601 59.2479 39.1708 59.7206 38.8683C60.2027 38.5563 60.7558 38.4003 61.3798 38.4003C62.051 38.4003 62.6136 38.5657 63.0674 38.8966C63.5306 39.2275 63.8426 39.705 64.0033 40.329L63.8331 40.4424V38.5705H64.6982V45.6753H63.8331V43.7325L64.0033 43.8317C63.8426 44.4557 63.5306 44.9379 63.0674 45.2782C62.6136 45.6091 62.051 45.7746 61.3798 45.7746ZM61.4932 45.0088C62.2496 45.0088 62.8263 44.7535 63.2234 44.243C63.6299 43.7325 63.8331 43.0139 63.8331 42.0874C63.8331 41.142 63.6299 40.4188 63.2234 39.9177C62.8168 39.4166 62.2401 39.1661 61.4932 39.1661C60.7464 39.1661 60.1602 39.4261 59.7348 39.9461C59.3188 40.4566 59.1108 41.1798 59.1108 42.1158C59.1108 43.0423 59.3188 43.7561 59.7348 44.2572C60.1602 44.7582 60.7464 45.0088 61.4932 45.0088ZM73.0768 45.6753H72.2117V43.7183L72.3819 43.8317C72.2212 44.4557 71.9092 44.9379 71.4459 45.2782C70.9921 45.6091 70.4296 45.7746 69.7584 45.7746C69.1344 45.7746 68.5813 45.6233 68.0992 45.3208C67.6265 45.0088 67.2577 44.5739 66.993 44.0161C66.7283 43.4583 66.5959 42.8059 66.5959 42.0591C66.5959 41.3122 66.7236 40.6646 66.9788 40.1162C67.2436 39.5679 67.6123 39.1472 68.085 38.8541C68.5671 38.5516 69.1249 38.4003 69.7584 38.4003C70.4296 38.4003 70.9921 38.5705 71.4459 38.9108C71.9092 39.2417 72.2212 39.7144 72.3819 40.329L72.2117 40.4424V35.2379H73.0768V45.6753ZM69.8718 45.0088C70.6187 45.0088 71.1954 44.7535 71.6019 44.243C72.0085 43.7325 72.2117 43.0139 72.2117 42.0874C72.2117 41.1515 72.0085 40.4329 71.6019 39.9319C71.2049 39.4213 70.6282 39.1661 69.8718 39.1661C69.1249 39.1661 68.5388 39.4166 68.1133 39.9177C67.6974 40.4188 67.4894 41.1326 67.4894 42.0591C67.4894 42.9856 67.6974 43.7088 68.1133 44.2288C68.5388 44.7488 69.1249 45.0088 69.8718 45.0088ZM75.4283 45.6753V38.5705H76.2934V45.6753H75.4283ZM75.3007 35.6349H76.4494V36.7411H75.3007V35.6349ZM78.6551 45.6753V40.5417C78.6551 40.2202 78.6457 39.8941 78.6268 39.5632C78.6173 39.2228 78.589 38.8919 78.5417 38.5705H79.3642L79.4918 40.0595L79.35 40.2013C79.5296 39.6057 79.8558 39.1566 80.3285 38.8541C80.8012 38.5516 81.3449 38.4003 81.9594 38.4003C83.6706 38.4003 84.5262 39.3174 84.5262 41.1515V45.6753H83.6611V41.2082C83.6611 40.4991 83.5193 39.9791 83.2357 39.6482C82.9521 39.3174 82.4983 39.1519 81.8743 39.1519C81.1652 39.1519 80.5932 39.3694 80.1584 39.8042C79.7329 40.2391 79.5202 40.8253 79.5202 41.5627V45.6753H78.6551ZM89.903 48.8377C88.8441 48.8377 87.9223 48.5825 87.1376 48.0719L87.3078 47.3203C87.7522 47.585 88.1681 47.7741 88.5558 47.8876C88.9434 48.0105 89.3972 48.0719 89.9172 48.0719C90.6262 48.0719 91.1604 47.8781 91.5197 47.4905C91.8884 47.1029 92.0727 46.5356 92.0727 45.7887V43.775L92.2287 43.5056C92.1153 43.9215 91.9356 44.2761 91.6898 44.5692C91.4535 44.8528 91.1557 45.075 90.7964 45.2357C90.4466 45.3869 90.0401 45.4626 89.5768 45.4626C88.9434 45.4626 88.3856 45.316 87.9034 45.023C87.4307 44.7204 87.0573 44.3044 86.7831 43.775C86.5184 43.2456 86.386 42.631 86.386 41.9314C86.386 41.2224 86.5184 40.6031 86.7831 40.0737C87.0573 39.5443 87.4307 39.133 87.9034 38.8399C88.3856 38.5468 88.9434 38.4003 89.5768 38.4003C90.267 38.4003 90.839 38.5705 91.2928 38.9108C91.756 39.2417 92.068 39.7144 92.2287 40.329L92.0585 40.1021V38.5705H92.9236V45.7037C92.9236 46.7436 92.6683 47.5236 92.1578 48.0436C91.6473 48.573 90.8957 48.8377 89.903 48.8377ZM89.6903 44.6826C90.4277 44.6826 91.0044 44.4368 91.4204 43.9452C91.8458 43.4536 92.0585 42.7823 92.0585 41.9314C92.0585 41.0711 91.8458 40.3951 91.4204 39.9035C91.0044 39.4119 90.4277 39.1661 89.6903 39.1661C88.9434 39.1661 88.3525 39.4119 87.9176 39.9035C87.4922 40.3857 87.2795 41.0617 87.2795 41.9314C87.2795 42.8012 87.4922 43.4772 87.9176 43.9594C88.3525 44.4415 88.9434 44.6826 89.6903 44.6826Z" fill="black"/>
<defs>
<linearGradient id="paint0_linear_93_6642" x1="68.0701" y1="0.476562" x2="68.0701" y2="98.3274" gradientUnits="userSpaceOnUse">
<stop stop-color="#6CBCFC"/>
<stop offset="1" stop-color="#458DFC"/>
</linearGradient>
</defs>
</svg>
