<svg width="44" height="43" viewBox="0 0 44 43" fill="none" xmlns="http://www.w3.org/2000/svg">
<g clip-path="url(#clip0_5_5687)">
<path d="M37.9999 5.33398C38.4714 5.33398 38.9236 5.52129 39.257 5.85468C39.5904 6.18808 39.7777 6.64027 39.7777 7.11176V16.8895C38.599 16.8895 37.4685 17.3578 36.635 18.1913C35.8015 19.0248 35.3333 20.1552 35.3333 21.334C35.3333 22.5127 35.8015 23.6432 36.635 24.4767C37.4685 25.3102 38.599 25.7784 39.7777 25.7784V35.5562C39.7777 36.0277 39.5904 36.4799 39.257 36.8133C38.9236 37.1467 38.4714 37.334 37.9999 37.334H5.99995C5.52845 37.334 5.07626 37.1467 4.74287 36.8133C4.40947 36.4799 4.22217 36.0277 4.22217 35.5562V25.7784C5.40091 25.7784 6.53137 25.3102 7.36487 24.4767C8.19836 23.6432 8.66661 22.5127 8.66661 21.334C8.66661 20.1552 8.19836 19.0248 7.36487 18.1913C6.53137 17.3578 5.40091 16.8895 4.22217 16.8895V7.11176C4.22217 6.64027 4.40947 6.18808 4.74287 5.85468C5.07626 5.52129 5.52845 5.33398 5.99995 5.33398H37.9999ZM29.1111 16.0007H14.8888V26.6673H29.1111V16.0007Z" fill="#0059F7"/>
</g>
<defs>
<clipPath id="clip0_5_5687">
<rect width="42.6667" height="42.6667" fill="white" transform="translate(0.666504 0.000488281)"/>
</clipPath>
</defs>
</svg>
