<svg width="114" height="115" viewBox="0 0 114 115" fill="none" xmlns="http://www.w3.org/2000/svg">
<path d="M42.7501 104.932H71.2501C95.0002 104.932 104.5 95.4315 104.5 71.6814V43.1814C104.5 19.4313 95.0002 9.9313 71.2501 9.9313H42.7501C19 9.9313 9.5 19.4313 9.5 43.1814V71.6814C9.5 95.4315 19 104.932 42.7501 104.932Z" stroke="#157FFB" stroke-width="7.12501" stroke-linecap="round" stroke-linejoin="round"/>
<path d="M83.1251 57.4316C83.1251 71.8717 71.4401 83.5567 57.0001 83.5567C42.56 83.5567 33.7724 69.0217 33.7724 69.0217M33.7724 69.0217H45.5525M33.7724 69.0217V82.0842M30.875 57.4316C30.875 42.9916 42.465 31.3066 57.0001 31.3066C74.4326 31.3066 83.1251 45.8416 83.1251 45.8416M83.1251 45.8416V32.7791M83.1251 45.8416H71.5351" stroke="#157FFB" stroke-width="7.12501" stroke-linecap="round" stroke-linejoin="round"/>
</svg>
