<svg width="108" height="115" viewBox="0 0 108 115" fill="none" xmlns="http://www.w3.org/2000/svg">
<g clip-path="url(#clip0_93_6615)">
<path d="M80.4905 108.738C80.4905 111.713 78.0827 114.13 75.1079 114.13L5.50201 114.21C3.13405 114.21 1.12428 112.688 0.397975 110.568C0.208937 110.021 0.109443 109.444 0.109443 108.837L0 8.458C0 5.48313 2.40775 3.06543 5.38262 3.06543L69.2974 2.99579L74.9885 2.98584C77.9633 2.98584 80.3811 5.39359 80.3811 8.36845L80.4905 108.738Z" fill="url(#paint0_linear_93_6615)"/>
<path d="M73.2773 108.161L7.32289 108.23C5.72104 108.23 4.42762 106.937 4.42762 105.335L4.32812 11.9205C4.32812 10.3186 5.62154 9.02521 7.22339 9.02521L73.1679 8.95557C74.7697 8.95557 76.0632 10.249 76.0632 11.8508L76.1627 105.266C76.1726 106.857 74.8792 108.161 73.2773 108.161Z" fill="white"/>
<path d="M24.8527 19.2016C24.8527 18.6365 24.3797 18.1921 23.806 18.1771C23.6203 18.1724 23.4347 18.1717 23.2491 18.1692H21.4616H15.3947H13.6072C13.4589 18.1713 13.3101 18.1756 13.1614 18.1764C12.4372 18.1792 12.0004 18.6128 12 19.3342C12 21.5082 12 23.6822 12 25.8562C12 25.9731 12.0197 26.0899 12.0301 26.2063C12.0762 26.3412 12.142 26.4685 12.2254 26.584C12.4333 26.865 12.735 26.9983 13.1525 26.9987H23.7013C24.2747 26.9987 24.6284 26.7478 24.8237 26.206C24.8387 26.1268 24.8486 26.0467 24.8534 25.9662C24.8552 23.7126 24.8599 21.4571 24.8527 19.2016ZM19.8125 22.3254C19.7666 22.6995 19.5534 22.9733 19.2602 23.1897C19.1721 23.2549 19.1366 23.3166 19.1398 23.4227C19.147 23.6645 19.1459 23.9068 19.1398 24.1487C19.1316 24.5719 18.8152 24.8894 18.4149 24.8819C18.0207 24.8747 17.7222 24.5633 17.7125 24.1483C17.7082 24.0677 17.7082 23.987 17.7125 23.9064C17.744 23.5434 17.7301 23.2184 17.3674 22.9747C17.165 22.8389 17.0625 22.5848 17.0406 22.3243C16.7865 21.441 17.6813 20.501 18.6252 20.6605C19.4591 20.802 20.0232 21.5925 19.8125 22.3254Z" fill="#1B65F8"/>
<path d="M23.2492 18.1691H21.4617C21.4592 18.1275 21.457 18.0856 21.4545 18.0441C21.4708 17.7947 21.4608 17.5444 21.4244 17.2972C21.3234 16.5737 20.9342 15.9355 20.3891 15.4811C19.7269 14.9271 18.8346 14.6429 17.9502 14.8002C16.3247 15.0898 15.303 16.4067 15.4005 18.0871C15.3984 18.1146 15.3966 18.1419 15.3944 18.1691H13.6069C13.5543 17.002 13.8259 15.9265 14.5254 14.969C15.6854 13.3804 17.7341 12.6558 19.6624 13.1568C20.5904 13.3995 21.4245 13.9143 22.0574 14.635C22.6904 15.3557 23.0932 16.2493 23.214 17.2008C23.2524 17.5241 23.2427 17.8462 23.2492 18.1691Z" fill="#1B2868"/>
<path opacity="0.6" d="M24.8557 25.9675C24.8509 26.048 24.8409 26.1281 24.8259 26.2073C24.6306 26.7484 24.2769 26.9996 23.7036 27H13.1536C12.7361 27 12.4344 26.8663 12.2266 26.5853L18.4132 18.1698H21.462C21.4595 18.1282 21.4574 18.0863 21.4549 18.0447C21.4712 17.7954 21.4611 17.5451 21.4248 17.2979C21.3237 16.5744 20.9346 15.9361 20.3895 15.4818L21.4431 14.0483C22.424 14.8267 23.0601 15.9591 23.2144 17.2019C23.2527 17.5244 23.2445 17.8469 23.2502 18.1694C23.4359 18.1719 23.6215 18.1726 23.8071 18.1773C24.3805 18.1923 24.8521 18.6367 24.8539 19.2018C24.8603 21.4569 24.8557 23.7124 24.8557 25.9675Z" fill="#A6C8FF"/>
<path d="M19.8119 22.3254C19.766 22.6995 19.5528 22.9733 19.2597 23.1897C19.1715 23.255 19.1361 23.3166 19.1393 23.4227C19.1464 23.6646 19.1454 23.9068 19.1393 24.1487C19.131 24.5723 18.8146 24.8894 18.4143 24.8819C18.0201 24.8747 17.7216 24.5633 17.712 24.1483C17.7075 24.0678 17.7075 23.987 17.712 23.9065C17.7435 23.5434 17.7295 23.2188 17.3672 22.9747C17.1644 22.8389 17.0619 22.5848 17.04 22.3247C17.0855 22.2494 17.1354 22.1763 17.1759 22.0986C17.4382 21.5969 17.8786 21.3604 18.4247 21.3604C18.9709 21.3604 19.4116 21.5965 19.6743 22.0982C19.7169 22.177 19.766 22.2501 19.8119 22.3254Z" fill="#1B2868"/>
<path d="M19.8125 22.3252C19.767 22.25 19.7175 22.1769 19.677 22.0991C19.4144 21.5974 18.9739 21.3609 18.4275 21.3612C17.881 21.3616 17.4409 21.5978 17.1786 22.0994C17.1381 22.1772 17.0883 22.2503 17.0428 22.3256C16.7887 21.4415 17.6835 20.5019 18.6274 20.6614C19.4595 20.8019 20.0232 21.5924 19.8125 22.3252Z" fill="#05103A"/>
<path d="M53.6341 32.9672L13.3659 33C12.6089 33 12 32.5956 12 32.0929V31.9399C12 31.4372 12.6089 31.0328 13.3659 31.0328L53.6341 31C54.3911 31 55 31.4044 55 31.9071V32.0601C55 32.5628 54.3747 32.9672 53.6341 32.9672Z" fill="url(#paint1_linear_93_6615)"/>
<path d="M38.6433 37.978L13.3567 38C12.6048 38 12 37.5934 12 37.0879V36.9341C12 36.4286 12.6048 36.022 13.3567 36.022L38.6433 36C39.3952 36 40 36.4066 40 36.9121V37.0659C40 37.5714 39.3952 37.978 38.6433 37.978Z" fill="url(#paint2_linear_93_6615)"/>
<path opacity="0.6" d="M67.6311 42.9565L13.3689 43C12.6102 43 12 42.5978 12 42.0978V41.9457C12 41.4457 12.6102 41.0435 13.3689 41.0435L67.6311 41C68.3898 41 69 41.4022 69 41.9022V42.0543C68.9835 42.5543 68.3733 42.9565 67.6311 42.9565Z" fill="url(#paint3_linear_93_6615)"/>
<path opacity="0.6" d="M67.5965 58.5729L12.9943 58.6326C12.5267 58.6326 12.1387 58.2545 12.1387 57.7769V57.6973C12.1387 57.2297 12.5167 56.8417 12.9943 56.8417L67.5965 56.782C68.0641 56.782 68.4522 57.1601 68.4522 57.6376V57.7172C68.4522 58.1948 68.0641 58.5729 67.5965 58.5729Z" fill="url(#paint4_linear_93_6615)"/>
<path opacity="0.6" d="M67.5965 67.7909L12.9943 67.8506C12.5267 67.8506 12.1387 67.4725 12.1387 66.9949V66.9153C12.1387 66.4477 12.5167 66.0597 12.9943 66.0597L67.5965 66C68.0641 66 68.4522 66.3781 68.4522 66.8556V66.9352C68.4522 67.4128 68.0641 67.7909 67.5965 67.7909Z" fill="url(#paint5_linear_93_6615)"/>
<path opacity="0.6" d="M67.5965 77.0089L12.9943 77.0686C12.5267 77.0686 12.1387 76.6905 12.1387 76.213V76.1334C12.1387 75.6657 12.5167 75.2777 12.9943 75.2777L67.5965 75.218C68.0641 75.218 68.4522 75.5961 68.4522 76.0737V76.1533C68.4522 76.6308 68.0641 77.0089 67.5965 77.0089Z" fill="url(#paint6_linear_93_6615)"/>
<path opacity="0.6" d="M67.5965 86.2269L12.9943 86.2866C12.5267 86.2866 12.1387 85.9085 12.1387 85.431V85.3514C12.1387 84.8838 12.5167 84.4957 12.9943 84.4957L67.5965 84.436C68.0641 84.436 68.4522 84.8141 68.4522 85.2917V85.3713C68.4522 85.8488 68.0641 86.2269 67.5965 86.2269Z" fill="url(#paint7_linear_93_6615)"/>
<path opacity="0.6" d="M67.5965 95.4449L12.9943 95.5046C12.5267 95.5046 12.1387 95.1266 12.1387 94.649V94.5694C12.1387 94.1018 12.5167 93.7137 12.9943 93.7137L67.5965 93.6541C68.0641 93.6541 68.4522 94.0321 68.4522 94.5097V94.5893C68.4522 95.0669 68.0641 95.4449 67.5965 95.4449Z" fill="url(#paint8_linear_93_6615)"/>
<path opacity="0.6" d="M67.6311 48.9565L13.3689 49C12.6102 49 12 48.5978 12 48.0978V47.9457C12 47.4457 12.6102 47.0435 13.3689 47.0435L67.6311 47C68.3898 47 69 47.4022 69 47.9022V48.0543C69 48.5543 68.3898 48.9565 67.6311 48.9565Z" fill="url(#paint9_linear_93_6615)"/>
</g>
<path d="M86.818 60.182C88.5754 58.4246 91.4246 58.4246 93.182 60.182L104.818 71.818C106.575 73.5754 106.575 76.4246 104.818 78.182L93.182 89.818C91.4246 91.5754 88.5754 91.5754 86.818 89.818L75.182 78.182C73.4246 76.4246 73.4246 73.5754 75.182 71.818L86.818 60.182Z" fill="#6EA0FC"/>
<path d="M65.333 101C65.333 100.264 65.93 99.6667 66.6663 99.6667H85.333C86.0694 99.6667 86.6663 100.264 86.6663 101C86.6663 101.736 86.0694 102.333 85.333 102.333H66.6663C65.93 102.333 65.333 101.736 65.333 101Z" fill="#1B65F8"/>
<path d="M78.2787 76.8363C79.8408 75.2743 82.3734 75.2743 83.9355 76.8364L85.4976 78.3985C87.0597 79.9606 87.0597 82.4932 85.4976 84.0553L84.9433 84.6096L77.7243 77.3907L78.2787 76.8363Z" fill="#1B2868"/>
<path d="M67.7297 87.396C67.5467 87.6143 67.412 87.8697 67.3354 88.1454L65.3922 95.1358C65.0865 96.2353 66.0985 97.2473 67.1981 96.9417L74.1885 94.9985C74.4642 94.9218 74.7196 94.7871 74.9378 94.6041L67.7297 87.396Z" fill="#1B2868"/>
<path d="M84.9431 84.6096L77.7241 77.3906L67.8479 87.2667C67.8064 87.3082 67.767 87.3513 67.7295 87.396L74.9376 94.6041C74.9823 94.5666 75.0254 94.5271 75.0668 94.4857L84.9431 84.6096Z" fill="#1B65F8"/>
<defs>
<linearGradient id="paint0_linear_93_6615" x1="-11.1464" y1="41.8976" x2="91.6369" y2="75.2939" gradientUnits="userSpaceOnUse">
<stop stop-color="#6CBCFC"/>
<stop offset="0.1713" stop-color="#5EABFC"/>
<stop offset="0.4084" stop-color="#509AFC"/>
<stop offset="0.6698" stop-color="#4890FC"/>
<stop offset="1" stop-color="#458DFC"/>
</linearGradient>
<linearGradient id="paint1_linear_93_6615" x1="12.0023" y1="32.009" x2="54.9913" y2="32.0478" gradientUnits="userSpaceOnUse">
<stop stop-color="#6CBCFC"/>
<stop offset="1" stop-color="#458DFC"/>
</linearGradient>
<linearGradient id="paint2_linear_93_6615" x1="12.0101" y1="37" x2="39.9983" y2="37" gradientUnits="userSpaceOnUse">
<stop stop-color="#6CBCFC"/>
<stop offset="1" stop-color="#458DFC"/>
</linearGradient>
<linearGradient id="paint3_linear_93_6615" x1="12.0031" y1="42.006" x2="68.9908" y2="42.006" gradientUnits="userSpaceOnUse">
<stop stop-color="#6CBCFC"/>
<stop offset="1" stop-color="#458DFC"/>
</linearGradient>
<linearGradient id="paint4_linear_93_6615" x1="12.1382" y1="57.7125" x2="68.4494" y2="57.7125" gradientUnits="userSpaceOnUse">
<stop stop-color="#6CBCFC"/>
<stop offset="1" stop-color="#458DFC"/>
</linearGradient>
<linearGradient id="paint5_linear_93_6615" x1="12.1382" y1="66.9305" x2="68.4494" y2="66.9305" gradientUnits="userSpaceOnUse">
<stop stop-color="#6CBCFC"/>
<stop offset="1" stop-color="#458DFC"/>
</linearGradient>
<linearGradient id="paint6_linear_93_6615" x1="12.1382" y1="76.1485" x2="68.4494" y2="76.1485" gradientUnits="userSpaceOnUse">
<stop stop-color="#6CBCFC"/>
<stop offset="1" stop-color="#458DFC"/>
</linearGradient>
<linearGradient id="paint7_linear_93_6615" x1="12.1382" y1="85.3665" x2="68.4494" y2="85.3665" gradientUnits="userSpaceOnUse">
<stop stop-color="#6CBCFC"/>
<stop offset="1" stop-color="#458DFC"/>
</linearGradient>
<linearGradient id="paint8_linear_93_6615" x1="12.1382" y1="94.5846" x2="68.4494" y2="94.5846" gradientUnits="userSpaceOnUse">
<stop stop-color="#6CBCFC"/>
<stop offset="1" stop-color="#458DFC"/>
</linearGradient>
<linearGradient id="paint9_linear_93_6615" x1="12.0122" y1="48.0046" x2="68.9999" y2="48.0046" gradientUnits="userSpaceOnUse">
<stop stop-color="#6CBCFC"/>
<stop offset="1" stop-color="#458DFC"/>
</linearGradient>
<clipPath id="clip0_93_6615">
<rect width="80.4905" height="114" fill="white" transform="translate(0 0.199951)"/>
</clipPath>
</defs>
</svg>
