<svg width="114" height="115" viewBox="0 0 114 115" fill="none" xmlns="http://www.w3.org/2000/svg">
<path d="M57 71.6499C64.8701 71.6499 71.25 65.27 71.25 57.3999C71.25 49.5298 64.8701 43.1499 57 43.1499C49.1299 43.1499 42.75 49.5298 42.75 57.3999C42.75 65.27 49.1299 71.6499 57 71.6499Z" stroke="#157FFB" stroke-width="7.125" stroke-miterlimit="10" stroke-linecap="round" stroke-linejoin="round"/>
<path d="M9.5 61.5802V53.2202C9.5 48.2802 13.5375 44.1952 18.525 44.1952C27.1225 44.1952 30.6375 38.1152 26.315 30.6577C23.845 26.3827 25.3175 20.8252 29.64 18.3552L37.8575 13.6527C41.61 11.4202 46.455 12.7502 48.6875 16.5027L49.21 17.4052C53.485 24.8627 60.515 24.8627 64.8375 17.4052L65.36 16.5027C67.5925 12.7502 72.4375 11.4202 76.19 13.6527L84.4075 18.3552C88.73 20.8252 90.2025 26.3827 87.7325 30.6577C83.41 38.1152 86.925 44.1952 95.5225 44.1952C100.463 44.1952 104.548 48.2327 104.548 53.2202V61.5802C104.548 66.5202 100.51 70.6052 95.5225 70.6052C86.925 70.6052 83.41 76.6852 87.7325 84.1427C90.2025 88.4652 88.73 93.9752 84.4075 96.4452L76.19 101.148C72.4375 103.38 67.5925 102.05 65.36 98.2977L64.8375 97.3952C60.5625 89.9377 53.5325 89.9377 49.21 97.3952L48.6875 98.2977C46.455 102.05 41.61 103.38 37.8575 101.148L29.64 96.4452C25.3175 93.9752 23.845 88.4177 26.315 84.1427C30.6375 76.6852 27.1225 70.6052 18.525 70.6052C13.5375 70.6052 9.5 66.5202 9.5 61.5802Z" stroke="#157FFB" stroke-width="7.125" stroke-miterlimit="10" stroke-linecap="round" stroke-linejoin="round"/>
</svg>
