<svg width="1344" height="511" viewBox="0 0 1344 511" fill="none" xmlns="http://www.w3.org/2000/svg">
<mask id="mask0_150_355" style="mask-type:alpha" maskUnits="userSpaceOnUse" x="0" y="0" width="1344" height="511">
<rect y="0.399902" width="1344" height="510" rx="24" fill="#157FFB"/>
</mask>
<g mask="url(#mask0_150_355)">
<rect y="0.399902" width="1344" height="510" rx="24" fill="#157FFB"/>
<g opacity="0.4">
<path d="M79.9205 181.538H77.5425V164.689L48.9764 136.311V90.8076L34.9432 76.4477H-3.31912L-17.41 62.7409H-88.2106L-176.886 -21.7895H-272.665L-302.71 7.90988H-338.26V5.62414H-303.716L-273.671 -24.0752H-175.906L-175.557 -23.7448L-87.231 60.4552H-16.4151L-2.3241 74.162H35.9727L51.3583 89.901V135.389L79.9205 163.763V181.538Z" fill="#DAEBFF"/>
<path d="M290.094 179.252H260.326L248.847 170.117H200.339L179.898 152.373V131.755L164.171 116.661L165.857 115.044L182.28 130.81V151.359L201.254 167.831H249.708L261.186 176.97H289.153L319.655 149.553H337.004V151.839H320.597L290.094 179.252Z" fill="#DAEBFF"/>
<path d="M248.759 160.978H206.087L189.418 146.864V124.49L156.096 91.9598V65.9984L120.035 30.7556H-98.7972L-179.202 -49.2071H-274.077L-308.686 -17.1183L-309.013 -7.05333L-275.057 -40.068H-178.199L-97.7984 37.609H116.904L129.912 50.8586V74.1617H127.53V51.7653L115.875 39.8947H-98.7857L-179.19 -37.7822H-274.062L-311.579 -1.30631L-311.037 -18.1133L-275.038 -51.489H-178.187L-97.7869 28.4699H121.034L158.474 65.0649V91.0263L191.8 123.553V145.834L206.99 158.692H247.826L263.2 144.985H274.34V147.271H264.133L248.759 160.978Z" fill="#DAEBFF"/>
<path d="M216.939 116.116L177.516 79.0676V4.03362L167.113 -5.79702H122.393L94.1307 21.6166H-93.75L-175.829 -58.3423H-309.206L-330.25 -38.3276L-331.925 -39.9488L-310.189 -60.6281H-174.834L-92.7512 19.3308H93.1396L121.402 -8.08276H168.089L179.898 3.07706V78.111L218.602 114.483L216.939 116.116Z" fill="#DAEBFF"/>
<path d="M248.221 108.433H227.334L187.04 69.379V-5.71636L177.128 -17.2219H115.671L87.4081 10.1955H-87.0154L-169.099 -67.4815H-430.719V-69.7672H-168.119L-86.0359 7.90975H86.4132L114.68 -19.5077H178.25L189.418 -6.53847V68.434L228.329 106.147H248.221V108.433Z" fill="#DAEBFF"/>
<path d="M78.3532 199.021C84.4869 199.021 89.4592 194.248 89.4592 188.361C89.4592 182.473 84.4869 177.7 78.3532 177.7C72.2195 177.7 67.2471 182.473 67.2471 188.361C67.2471 194.248 72.2195 199.021 78.3532 199.021Z" fill="#DAEBFF"/>
<path d="M347.334 160.183C353.467 160.183 358.44 155.41 358.44 149.522C358.44 143.635 353.467 138.862 347.334 138.862C341.2 138.862 336.228 143.635 336.228 149.522C336.228 155.41 341.2 160.183 347.334 160.183Z" fill="#DAEBFF"/>
<path d="M125.963 89.3629C132.096 89.3629 137.069 84.5901 137.069 78.7025C137.069 72.8149 132.096 68.0421 125.963 68.0421C119.829 68.0421 114.856 72.8149 114.856 78.7025C114.856 84.5901 119.829 89.3629 125.963 89.3629Z" fill="#DAEBFF"/>
<path d="M161.666 125.916C167.799 125.916 172.772 121.143 172.772 115.255C172.772 109.368 167.799 104.595 161.666 104.595C155.532 104.595 150.56 109.368 150.56 115.255C150.56 121.143 155.532 125.916 161.666 125.916Z" fill="#DAEBFF"/>
<path d="M285.445 133.153C278.661 133.153 273.152 138.447 273.152 144.959V144.985C273.152 145.76 273.232 146.532 273.391 147.29C274.516 152.669 279.491 156.775 285.449 156.775C292.23 156.775 297.742 151.482 297.742 144.978C297.742 138.474 292.226 133.153 285.445 133.153ZM285.445 154.474C279.979 154.474 275.53 150.206 275.53 144.959C275.53 139.711 279.979 135.435 285.445 135.435C290.912 135.435 295.357 139.711 295.357 144.959C295.357 150.206 290.912 154.474 285.445 154.474Z" fill="#DAEBFF"/>
<path d="M259.266 94.3032C252.482 94.3032 246.973 99.6008 246.973 106.112V106.139C246.971 106.908 247.052 107.674 247.215 108.425C248.333 113.826 253.315 117.91 259.273 117.91C266.046 117.91 271.567 112.616 271.567 106.112C271.567 99.6085 266.039 94.3032 259.266 94.3032ZM259.266 115.628C253.792 115.628 249.343 111.36 249.343 106.112C249.343 100.865 253.792 96.6082 259.266 96.6082C264.74 96.6082 269.177 100.884 269.177 106.131C269.177 111.379 264.725 115.636 259.266 115.636V115.628Z" fill="#DAEBFF"/>
<path d="M223.558 112.593C221.619 112.588 219.705 113.03 217.964 113.884C217.24 114.236 216.553 114.659 215.913 115.148C214.476 116.225 213.308 117.621 212.5 119.225C211.692 120.829 211.267 122.598 211.257 124.394C211.257 130.902 216.773 136.2 223.55 136.2C230.326 136.2 235.843 130.902 235.843 124.394C235.843 117.887 230.338 112.593 223.558 112.593ZM223.558 133.914C218.091 133.914 213.642 129.638 213.642 124.394C213.642 119.151 218.091 114.879 223.558 114.879C229.024 114.879 233.473 119.147 233.473 124.394C233.473 129.642 229.024 133.914 223.558 133.914Z" fill="#DAEBFF"/>
<path d="M-627.988 134.01H-607.102L-566.807 173.064V248.159L-556.896 259.665H-495.438L-467.175 232.251H-292.752L-210.669 309.924H50.9515V312.21H-211.644L-293.728 234.533H-466.18L-494.447 261.95H-558.014L-569.185 248.981V174.009L-608.093 136.296H-627.988V134.01Z" fill="#DAEBFF"/>
<path d="M62.0615 299.264C55.6767 299.264 50.4138 303.954 49.8184 309.92C49.7783 310.303 49.7577 310.688 49.7568 311.073C49.7579 311.458 49.7785 311.842 49.8184 312.225C50.4215 318.199 55.6767 322.882 62.0615 322.882C68.8342 322.882 74.3546 317.584 74.3546 311.077C74.3546 304.569 68.8342 299.264 62.0615 299.264ZM62.0615 320.585C56.5949 320.585 52.1387 316.316 52.1387 311.065C52.1387 305.814 56.5949 301.549 62.0615 301.549C67.528 301.549 71.9728 305.817 71.9728 311.065C71.9728 316.313 67.528 320.573 62.0615 320.573V320.585Z" fill="#DAEBFF"/>
<path d="M1.01468 315.16C-4.56331 315.16 -9.28845 318.737 -10.7828 323.635C-11.0177 324.376 -11.1698 325.142 -11.2362 325.917C-11.2736 326.266 -11.2915 326.618 -11.2899 326.969C-11.2899 333.469 -5.76958 338.767 1.00314 338.767C7.77587 338.767 13.2962 333.469 13.2962 326.969C13.2962 320.469 7.7874 315.16 1.01468 315.16ZM1.01468 336.481C-4.45959 336.481 -8.90818 332.213 -8.90818 326.969C-8.90818 321.725 -4.45959 317.446 1.01468 317.446C6.48895 317.446 10.926 321.714 10.926 326.969C10.926 332.224 6.48126 336.481 1.01468 336.481Z" fill="#DAEBFF"/>
<path d="M38.2051 342.274H30.1147C29.916 342.28 29.7229 342.208 29.5761 342.074C29.4292 341.94 29.34 341.754 29.3272 341.556C29.3269 341.457 29.3471 341.359 29.3862 341.269C29.4254 341.178 29.4828 341.097 29.5549 341.029C29.627 340.962 29.7122 340.91 29.8052 340.877C29.8982 340.844 29.997 340.831 30.0955 340.837H38.1974C38.3928 340.837 38.581 340.911 38.7238 341.045C38.8665 341.178 38.953 341.361 38.9657 341.556C38.9648 341.653 38.9441 341.75 38.9051 341.84C38.866 341.929 38.8092 342.01 38.7382 342.077C38.6672 342.144 38.5833 342.196 38.4917 342.23C38.4001 342.264 38.3027 342.279 38.2051 342.274Z" fill="#00D569"/>
<path d="M53.0526 342.274H42.7302C42.5348 342.275 42.3466 342.2 42.2039 342.067C42.0612 341.934 41.9746 341.751 41.9619 341.556C41.9639 341.458 41.9855 341.361 42.0254 341.272C42.0653 341.182 42.1228 341.101 42.1944 341.034C42.266 340.967 42.3504 340.915 42.4424 340.882C42.5344 340.848 42.6323 340.833 42.7302 340.837H53.0526C53.2432 340.837 53.4259 340.913 53.5606 341.048C53.6953 341.183 53.7711 341.365 53.7711 341.556C53.7711 341.746 53.6953 341.929 53.5606 342.064C53.4259 342.198 53.2432 342.274 53.0526 342.274Z" fill="#00D569"/>
</g>
<g opacity="0.4">
<path d="M1346.57 419.945H1361.78V421.758H1345.72L1330.83 405.423H1213L1202.11 417.295L1195.42 424.571L1194.01 423.377L1200.58 416.223L1212.16 403.606H1331.68L1346.57 419.945Z" fill="#DAEBFF"/>
<path d="M1361.78 432.653V434.466H1345.76L1324.85 414.497H1242.34V412.684H1325.64L1346.54 432.653H1361.78Z" fill="#DAEBFF"/>
<path d="M1346.54 439.906H1361.78V441.723H1345.76L1324.85 421.758H1241.42V419.945H1325.64L1346.54 439.906Z" fill="#DAEBFF"/>
<path d="M1361.78 483.056V485.615L1314.45 530.666H1285.81L1261.94 507.074H1185.84L1115.39 574.234H1059.13L1047.94 585.125H1017.53L1006.38 596.533V632.685L983.684 655.232V663.758H981.795V654.498L1004.49 631.959V595.815L1016.72 583.312H1047.15L1058.34 572.421H1114.61L1185.06 505.261H1262.74L1286.61 528.852H1313.67L1361.78 483.056Z" fill="#DAEBFF"/>
<path d="M872.698 616.863L871.375 615.563L902.364 586.444V526.83L911.746 517.961H948.841L971.296 539.743H1118.99L1184.21 476.214H1291.75L1309.02 492.643L1307.69 493.936L1290.97 478.027H1185L1119.78 541.561H970.505L948.05 519.778H912.522L904.254 527.586V587.208L872.698 616.863Z" fill="#DAEBFF"/>
<path d="M1361.78 468.953V470.766H1179.65L1114.43 532.483H975.846L953.395 510.704H904.562L896.685 519.839V579.503L864.673 610.534H845.624V608.721H863.886L894.796 578.754V519.189L903.672 508.891H954.182L976.645 530.666H1113.66L1178.87 468.953H1361.78Z" fill="#DAEBFF"/>
<path d="M1113.99 519.778H1074.47V517.961H1113.21L1176.2 458.062H1294.75L1289.22 452.747L1217.6 452.614H1171.63L1114.43 505.257H1088.08L1079.43 497.996H1067.45L1048.09 516.148H986.513L974.337 503.44H1026.61L1041.58 489.127L1042.92 490.412L1027.39 505.257H978.648L987.345 514.331H1047.32L1066.68 496.179H1080.14L1088.79 503.44H1113.67L1170.87 450.801H1217.6L1290.01 450.934L1299.32 459.875H1176.98L1113.99 519.778Z" fill="#DAEBFF"/>
<path d="M1311.53 444.726C1316.4 444.726 1320.35 440.934 1320.35 436.257C1320.35 431.579 1316.4 427.787 1311.53 427.787C1306.65 427.787 1302.7 431.579 1302.7 436.257C1302.7 440.934 1306.65 444.726 1311.53 444.726Z" fill="#DAEBFF"/>
<path d="M1046.75 493.735C1051.62 493.735 1055.57 489.943 1055.57 485.265C1055.57 480.587 1051.62 476.795 1046.75 476.795C1041.87 476.795 1037.92 480.587 1037.92 485.265C1037.92 489.943 1041.87 493.735 1046.75 493.735Z" fill="#DAEBFF"/>
<path d="M1309.63 502.812C1314.51 502.812 1318.46 499.02 1318.46 494.343C1318.46 489.665 1314.51 485.873 1309.63 485.873C1304.76 485.873 1300.81 489.665 1300.81 494.343C1300.81 499.02 1304.76 502.812 1309.63 502.812Z" fill="#DAEBFF"/>
<path d="M1196.16 432.018C1201.03 432.018 1204.98 428.226 1204.98 423.548C1204.98 418.871 1201.03 415.079 1196.16 415.079C1191.28 415.079 1187.33 418.871 1187.33 423.548C1187.33 428.226 1191.28 432.018 1196.16 432.018Z" fill="#DAEBFF"/>
<path d="M1154.03 403.997L1155.34 405.305L1146.73 413.273H1078.48L1072.33 407.491L1073.65 406.195L1079.25 411.46H1145.97L1154.03 403.997Z" fill="#DAEBFF"/>
<path d="M1158.94 409.061C1163.81 409.061 1167.76 405.269 1167.76 400.591C1167.76 395.914 1163.81 392.122 1158.94 392.122C1154.07 392.122 1150.12 395.914 1150.12 400.591C1150.12 405.269 1154.07 409.061 1158.94 409.061Z" fill="#DAEBFF"/>
<path d="M1068.15 389.4C1062.77 389.4 1058.38 393.604 1058.38 398.774C1058.38 403.944 1062.77 408.156 1068.15 408.156C1069.77 408.154 1071.36 407.763 1072.79 407.016C1073.15 406.828 1073.5 406.616 1073.84 406.381C1075.08 405.538 1076.1 404.406 1076.81 403.082C1077.52 401.757 1077.89 400.28 1077.9 398.778C1077.93 393.604 1073.55 389.4 1068.15 389.4ZM1068.15 406.339C1063.8 406.339 1060.27 402.941 1060.27 398.774C1060.27 394.608 1063.8 391.217 1068.15 391.217C1072.5 391.217 1076.03 394.608 1076.03 398.774C1076.03 402.941 1072.51 406.339 1068.15 406.339Z" fill="#DAEBFF"/>
<path d="M1243.57 414.497C1243.44 413.874 1243.25 413.266 1243 412.684C1242.22 410.951 1240.95 409.484 1239.35 408.459C1237.75 407.435 1235.88 406.897 1233.98 406.913C1228.6 406.913 1224.21 411.121 1224.21 416.291C1224.21 421.461 1228.6 425.666 1233.98 425.666C1235.52 425.674 1237.03 425.326 1238.41 424.649C1239.78 423.971 1240.98 422.983 1241.91 421.762C1242.33 421.198 1242.7 420.588 1242.99 419.945C1243.49 418.793 1243.75 417.549 1243.75 416.291C1243.75 415.689 1243.69 415.087 1243.57 414.497ZM1233.98 423.852C1229.64 423.852 1226.1 420.462 1226.1 416.291C1226.1 412.121 1229.64 408.726 1233.98 408.726C1238.32 408.726 1241.86 412.117 1241.86 416.291C1241.86 420.465 1238.32 423.852 1233.98 423.852Z" fill="#DAEBFF"/>
<path d="M1135.64 445.027C1133.79 445.02 1131.97 445.53 1130.39 446.498C1129.86 446.826 1129.35 447.208 1128.89 447.638C1127.94 448.494 1127.18 449.539 1126.65 450.707C1126.13 451.875 1125.86 453.14 1125.85 454.42C1125.85 459.59 1130.24 463.798 1135.63 463.798C1141.01 463.798 1145.4 459.59 1145.4 454.42C1145.4 449.25 1141.02 445.027 1135.64 445.027ZM1135.64 461.973C1131.3 461.973 1127.75 458.575 1127.75 454.409C1127.75 450.242 1131.3 446.844 1135.64 446.844C1139.98 446.844 1143.52 450.238 1143.52 454.409C1143.52 458.579 1139.98 461.973 1135.64 461.973Z" fill="#DAEBFF"/>
</g>
</g>
</svg>
