<svg width="158" height="139" viewBox="0 0 158 139" fill="none" xmlns="http://www.w3.org/2000/svg">
<g opacity="0.3">
<mask id="mask0_0_3736" style="mask-type:alpha" maskUnits="userSpaceOnUse" x="0" y="0" width="13" height="13">
<path d="M6.27406 12.7099C9.73912 12.7099 12.5481 9.9094 12.5481 6.45489C12.5481 3.00037 9.73912 0.199951 6.27406 0.199951C2.80899 0.199951 0 3.00037 0 6.45489C0 9.9094 2.80899 12.7099 6.27406 12.7099Z" fill="url(#paint0_linear_0_3736)"/>
</mask>
<g mask="url(#mask0_0_3736)">
<path d="M6.27406 12.7099C9.73912 12.7099 12.5481 9.9094 12.5481 6.45489C12.5481 3.00037 9.73912 0.199951 6.27406 0.199951C2.80899 0.199951 0 3.00037 0 6.45489C0 9.9094 2.80899 12.7099 6.27406 12.7099Z" fill="url(#paint1_linear_0_3736)"/>
</g>
<mask id="mask1_0_3736" style="mask-type:alpha" maskUnits="userSpaceOnUse" x="36" y="0" width="13" height="13">
<path d="M42.612 12.7099C46.077 12.7099 48.886 9.9094 48.886 6.45489C48.886 3.00037 46.077 0.199951 42.612 0.199951C39.1469 0.199951 36.3379 3.00037 36.3379 6.45489C36.3379 9.9094 39.1469 12.7099 42.612 12.7099Z" fill="url(#paint2_linear_0_3736)"/>
</mask>
<g mask="url(#mask1_0_3736)">
<path d="M42.612 12.7099C46.077 12.7099 48.886 9.9094 48.886 6.45489C48.886 3.00037 46.077 0.199951 42.612 0.199951C39.1469 0.199951 36.3379 3.00037 36.3379 6.45489C36.3379 9.9094 39.1469 12.7099 42.612 12.7099Z" fill="url(#paint3_linear_0_3736)"/>
</g>
<mask id="mask2_0_3736" style="mask-type:alpha" maskUnits="userSpaceOnUse" x="72" y="0" width="14" height="13">
<path d="M78.9479 12.7099C82.413 12.7099 85.222 9.9094 85.222 6.45489C85.222 3.00037 82.413 0.199951 78.9479 0.199951C75.4828 0.199951 72.6738 3.00037 72.6738 6.45489C72.6738 9.9094 75.4828 12.7099 78.9479 12.7099Z" fill="url(#paint4_linear_0_3736)"/>
</mask>
<g mask="url(#mask2_0_3736)">
<path d="M78.9479 12.7099C82.413 12.7099 85.222 9.9094 85.222 6.45489C85.222 3.00037 82.413 0.199951 78.9479 0.199951C75.4828 0.199951 72.6738 3.00037 72.6738 6.45489C72.6738 9.9094 75.4828 12.7099 78.9479 12.7099Z" fill="url(#paint5_linear_0_3736)"/>
</g>
<mask id="mask3_0_3736" style="mask-type:alpha" maskUnits="userSpaceOnUse" x="109" y="0" width="13" height="13">
<path d="M115.286 12.7099C118.751 12.7099 121.56 9.9094 121.56 6.45489C121.56 3.00037 118.751 0.199951 115.286 0.199951C111.821 0.199951 109.012 3.00037 109.012 6.45489C109.012 9.9094 111.821 12.7099 115.286 12.7099Z" fill="url(#paint6_linear_0_3736)"/>
</mask>
<g mask="url(#mask3_0_3736)">
<path d="M115.286 12.7099C118.751 12.7099 121.56 9.9094 121.56 6.45489C121.56 3.00037 118.751 0.199951 115.286 0.199951C111.821 0.199951 109.012 3.00037 109.012 6.45489C109.012 9.9094 111.821 12.7099 115.286 12.7099Z" fill="url(#paint7_linear_0_3736)"/>
</g>
<mask id="mask4_0_3736" style="mask-type:alpha" maskUnits="userSpaceOnUse" x="145" y="0" width="13" height="13">
<path d="M151.624 12.7099C155.089 12.7099 157.898 9.9094 157.898 6.45489C157.898 3.00037 155.089 0.199951 151.624 0.199951C148.159 0.199951 145.35 3.00037 145.35 6.45489C145.35 9.9094 148.159 12.7099 151.624 12.7099Z" fill="url(#paint8_linear_0_3736)"/>
</mask>
<g mask="url(#mask4_0_3736)">
<path d="M151.624 12.7099C155.089 12.7099 157.898 9.9094 157.898 6.45489C157.898 3.00037 155.089 0.199951 151.624 0.199951C148.159 0.199951 145.35 3.00037 145.35 6.45489C145.35 9.9094 148.159 12.7099 151.624 12.7099Z" fill="url(#paint9_linear_0_3736)"/>
</g>
<mask id="mask5_0_3736" style="mask-type:alpha" maskUnits="userSpaceOnUse" x="0" y="31" width="13" height="14">
<path d="M6.27406 44.1149C9.73912 44.1149 12.5481 41.3144 12.5481 37.8599C12.5481 34.4054 9.73912 31.605 6.27406 31.605C2.80899 31.605 0 34.4054 0 37.8599C0 41.3144 2.80899 44.1149 6.27406 44.1149Z" fill="url(#paint10_linear_0_3736)"/>
</mask>
<g mask="url(#mask5_0_3736)">
<path d="M6.27406 44.1149C9.73912 44.1149 12.5481 41.3145 12.5481 37.86C12.5481 34.4055 9.73912 31.6051 6.27406 31.6051C2.80899 31.6051 0 34.4055 0 37.86C0 41.3145 2.80899 44.1149 6.27406 44.1149Z" fill="url(#paint11_linear_0_3736)"/>
</g>
<mask id="mask6_0_3736" style="mask-type:alpha" maskUnits="userSpaceOnUse" x="36" y="31" width="13" height="14">
<path d="M42.612 44.1148C46.077 44.1148 48.886 41.3144 48.886 37.8599C48.886 34.4054 46.077 31.605 42.612 31.605C39.1469 31.605 36.3379 34.4054 36.3379 37.8599C36.3379 41.3144 39.1469 44.1148 42.612 44.1148Z" fill="url(#paint12_linear_0_3736)"/>
</mask>
<g mask="url(#mask6_0_3736)">
<path d="M42.612 44.1149C46.077 44.1149 48.886 41.3145 48.886 37.86C48.886 34.4055 46.077 31.6051 42.612 31.6051C39.1469 31.6051 36.3379 34.4055 36.3379 37.86C36.3379 41.3145 39.1469 44.1149 42.612 44.1149Z" fill="url(#paint13_linear_0_3736)"/>
</g>
<mask id="mask7_0_3736" style="mask-type:alpha" maskUnits="userSpaceOnUse" x="72" y="31" width="14" height="14">
<path d="M78.9479 44.1148C82.413 44.1148 85.222 41.3144 85.222 37.8599C85.222 34.4054 82.413 31.605 78.9479 31.605C75.4828 31.605 72.6738 34.4054 72.6738 37.8599C72.6738 41.3144 75.4828 44.1148 78.9479 44.1148Z" fill="url(#paint14_linear_0_3736)"/>
</mask>
<g mask="url(#mask7_0_3736)">
<path d="M78.9479 44.1149C82.413 44.1149 85.222 41.3145 85.222 37.86C85.222 34.4055 82.413 31.6051 78.9479 31.6051C75.4828 31.6051 72.6738 34.4055 72.6738 37.86C72.6738 41.3145 75.4828 44.1149 78.9479 44.1149Z" fill="url(#paint15_linear_0_3736)"/>
</g>
<mask id="mask8_0_3736" style="mask-type:alpha" maskUnits="userSpaceOnUse" x="109" y="31" width="13" height="14">
<path d="M115.286 44.1148C118.751 44.1148 121.56 41.3144 121.56 37.8599C121.56 34.4054 118.751 31.605 115.286 31.605C111.821 31.605 109.012 34.4054 109.012 37.8599C109.012 41.3144 111.821 44.1148 115.286 44.1148Z" fill="url(#paint16_linear_0_3736)"/>
</mask>
<g mask="url(#mask8_0_3736)">
<path d="M115.286 44.1149C118.751 44.1149 121.56 41.3145 121.56 37.86C121.56 34.4055 118.751 31.6051 115.286 31.6051C111.821 31.6051 109.012 34.4055 109.012 37.86C109.012 41.3145 111.821 44.1149 115.286 44.1149Z" fill="url(#paint17_linear_0_3736)"/>
</g>
<mask id="mask9_0_3736" style="mask-type:alpha" maskUnits="userSpaceOnUse" x="145" y="31" width="13" height="14">
<path d="M151.624 44.1148C155.089 44.1148 157.898 41.3144 157.898 37.8599C157.898 34.4054 155.089 31.605 151.624 31.605C148.159 31.605 145.35 34.4054 145.35 37.8599C145.35 41.3144 148.159 44.1148 151.624 44.1148Z" fill="url(#paint18_linear_0_3736)"/>
</mask>
<g mask="url(#mask9_0_3736)">
<path d="M151.624 44.1149C155.089 44.1149 157.898 41.3145 157.898 37.86C157.898 34.4055 155.089 31.6051 151.624 31.6051C148.159 31.6051 145.35 34.4055 145.35 37.86C145.35 41.3145 148.159 44.1149 151.624 44.1149Z" fill="url(#paint19_linear_0_3736)"/>
</g>
<mask id="mask10_0_3736" style="mask-type:alpha" maskUnits="userSpaceOnUse" x="0" y="62" width="13" height="14">
<path d="M6.27406 75.455C9.73912 75.455 12.5481 72.6546 12.5481 69.2C12.5481 65.7455 9.73912 62.9451 6.27406 62.9451C2.80899 62.9451 0 65.7455 0 69.2C0 72.6546 2.80899 75.455 6.27406 75.455Z" fill="url(#paint20_linear_0_3736)"/>
</mask>
<g mask="url(#mask10_0_3736)">
<path d="M6.27406 75.455C9.73912 75.455 12.5481 72.6546 12.5481 69.2C12.5481 65.7455 9.73912 62.9451 6.27406 62.9451C2.80899 62.9451 0 65.7455 0 69.2C0 72.6546 2.80899 75.455 6.27406 75.455Z" fill="url(#paint21_linear_0_3736)"/>
</g>
<mask id="mask11_0_3736" style="mask-type:alpha" maskUnits="userSpaceOnUse" x="36" y="62" width="13" height="14">
<path d="M42.612 75.455C46.077 75.455 48.886 72.6546 48.886 69.2C48.886 65.7455 46.077 62.9451 42.612 62.9451C39.1469 62.9451 36.3379 65.7455 36.3379 69.2C36.3379 72.6546 39.1469 75.455 42.612 75.455Z" fill="url(#paint22_linear_0_3736)"/>
</mask>
<g mask="url(#mask11_0_3736)">
<path d="M42.612 75.455C46.077 75.455 48.886 72.6546 48.886 69.2C48.886 65.7455 46.077 62.9451 42.612 62.9451C39.1469 62.9451 36.3379 65.7455 36.3379 69.2C36.3379 72.6546 39.1469 75.455 42.612 75.455Z" fill="url(#paint23_linear_0_3736)"/>
</g>
<mask id="mask12_0_3736" style="mask-type:alpha" maskUnits="userSpaceOnUse" x="72" y="62" width="14" height="14">
<path d="M78.9479 75.455C82.413 75.455 85.222 72.6546 85.222 69.2C85.222 65.7455 82.413 62.9451 78.9479 62.9451C75.4828 62.9451 72.6738 65.7455 72.6738 69.2C72.6738 72.6546 75.4828 75.455 78.9479 75.455Z" fill="url(#paint24_linear_0_3736)"/>
</mask>
<g mask="url(#mask12_0_3736)">
<path d="M78.9479 75.455C82.413 75.455 85.222 72.6546 85.222 69.2C85.222 65.7455 82.413 62.9451 78.9479 62.9451C75.4828 62.9451 72.6738 65.7455 72.6738 69.2C72.6738 72.6546 75.4828 75.455 78.9479 75.455Z" fill="url(#paint25_linear_0_3736)"/>
</g>
<mask id="mask13_0_3736" style="mask-type:alpha" maskUnits="userSpaceOnUse" x="109" y="62" width="13" height="14">
<path d="M115.286 75.455C118.751 75.455 121.56 72.6546 121.56 69.2C121.56 65.7455 118.751 62.9451 115.286 62.9451C111.821 62.9451 109.012 65.7455 109.012 69.2C109.012 72.6546 111.821 75.455 115.286 75.455Z" fill="url(#paint26_linear_0_3736)"/>
</mask>
<g mask="url(#mask13_0_3736)">
<path d="M115.286 75.455C118.751 75.455 121.56 72.6546 121.56 69.2C121.56 65.7455 118.751 62.9451 115.286 62.9451C111.821 62.9451 109.012 65.7455 109.012 69.2C109.012 72.6546 111.821 75.455 115.286 75.455Z" fill="url(#paint27_linear_0_3736)"/>
</g>
<mask id="mask14_0_3736" style="mask-type:alpha" maskUnits="userSpaceOnUse" x="145" y="62" width="13" height="14">
<path d="M151.624 75.455C155.089 75.455 157.898 72.6546 157.898 69.2C157.898 65.7455 155.089 62.9451 151.624 62.9451C148.159 62.9451 145.35 65.7455 145.35 69.2C145.35 72.6546 148.159 75.455 151.624 75.455Z" fill="url(#paint28_linear_0_3736)"/>
</mask>
<g mask="url(#mask14_0_3736)">
<path d="M151.624 75.455C155.089 75.455 157.898 72.6546 157.898 69.2C157.898 65.7455 155.089 62.9451 151.624 62.9451C148.159 62.9451 145.35 65.7455 145.35 69.2C145.35 72.6546 148.159 75.455 151.624 75.455Z" fill="url(#paint29_linear_0_3736)"/>
</g>
<mask id="mask15_0_3736" style="mask-type:alpha" maskUnits="userSpaceOnUse" x="0" y="94" width="13" height="13">
<path d="M6.27406 106.86C9.73912 106.86 12.5481 104.06 12.5481 100.605C12.5481 97.1506 9.73912 94.3501 6.27406 94.3501C2.80899 94.3501 0 97.1506 0 100.605C0 104.06 2.80899 106.86 6.27406 106.86Z" fill="url(#paint30_linear_0_3736)"/>
</mask>
<g mask="url(#mask15_0_3736)">
<path d="M6.27406 106.86C9.73912 106.86 12.5481 104.06 12.5481 100.605C12.5481 97.1506 9.73912 94.3501 6.27406 94.3501C2.80899 94.3501 0 97.1506 0 100.605C0 104.06 2.80899 106.86 6.27406 106.86Z" fill="url(#paint31_linear_0_3736)"/>
</g>
<mask id="mask16_0_3736" style="mask-type:alpha" maskUnits="userSpaceOnUse" x="36" y="94" width="13" height="13">
<path d="M42.612 106.86C46.077 106.86 48.886 104.06 48.886 100.605C48.886 97.1505 46.077 94.3501 42.612 94.3501C39.1469 94.3501 36.3379 97.1505 36.3379 100.605C36.3379 104.06 39.1469 106.86 42.612 106.86Z" fill="url(#paint32_linear_0_3736)"/>
</mask>
<g mask="url(#mask16_0_3736)">
<path d="M42.612 106.86C46.077 106.86 48.886 104.06 48.886 100.605C48.886 97.1505 46.077 94.3501 42.612 94.3501C39.1469 94.3501 36.3379 97.1505 36.3379 100.605C36.3379 104.06 39.1469 106.86 42.612 106.86Z" fill="url(#paint33_linear_0_3736)"/>
</g>
<mask id="mask17_0_3736" style="mask-type:alpha" maskUnits="userSpaceOnUse" x="72" y="94" width="14" height="13">
<path d="M78.9479 106.86C82.413 106.86 85.222 104.06 85.222 100.605C85.222 97.1505 82.413 94.3501 78.9479 94.3501C75.4828 94.3501 72.6738 97.1505 72.6738 100.605C72.6738 104.06 75.4828 106.86 78.9479 106.86Z" fill="url(#paint34_linear_0_3736)"/>
</mask>
<g mask="url(#mask17_0_3736)">
<path d="M78.9479 106.86C82.413 106.86 85.222 104.06 85.222 100.605C85.222 97.1505 82.413 94.3501 78.9479 94.3501C75.4828 94.3501 72.6738 97.1505 72.6738 100.605C72.6738 104.06 75.4828 106.86 78.9479 106.86Z" fill="url(#paint35_linear_0_3736)"/>
</g>
<mask id="mask18_0_3736" style="mask-type:alpha" maskUnits="userSpaceOnUse" x="109" y="94" width="13" height="13">
<path d="M115.286 106.86C118.751 106.86 121.56 104.06 121.56 100.605C121.56 97.1505 118.751 94.3501 115.286 94.3501C111.821 94.3501 109.012 97.1505 109.012 100.605C109.012 104.06 111.821 106.86 115.286 106.86Z" fill="url(#paint36_linear_0_3736)"/>
</mask>
<g mask="url(#mask18_0_3736)">
<path d="M115.286 106.86C118.751 106.86 121.56 104.06 121.56 100.605C121.56 97.1505 118.751 94.3501 115.286 94.3501C111.821 94.3501 109.012 97.1505 109.012 100.605C109.012 104.06 111.821 106.86 115.286 106.86Z" fill="url(#paint37_linear_0_3736)"/>
</g>
<mask id="mask19_0_3736" style="mask-type:alpha" maskUnits="userSpaceOnUse" x="145" y="94" width="13" height="13">
<path d="M151.624 106.86C155.089 106.86 157.898 104.06 157.898 100.605C157.898 97.1505 155.089 94.3501 151.624 94.3501C148.159 94.3501 145.35 97.1505 145.35 100.605C145.35 104.06 148.159 106.86 151.624 106.86Z" fill="url(#paint38_linear_0_3736)"/>
</mask>
<g mask="url(#mask19_0_3736)">
<path d="M151.624 106.86C155.089 106.86 157.898 104.06 157.898 100.605C157.898 97.1505 155.089 94.3501 151.624 94.3501C148.159 94.3501 145.35 97.1505 145.35 100.605C145.35 104.06 148.159 106.86 151.624 106.86Z" fill="url(#paint39_linear_0_3736)"/>
</g>
<mask id="mask20_0_3736" style="mask-type:alpha" maskUnits="userSpaceOnUse" x="0" y="125" width="13" height="14">
<path d="M6.27406 138.2C9.73912 138.2 12.5481 135.399 12.5481 131.945C12.5481 128.49 9.73912 125.69 6.27406 125.69C2.80899 125.69 0 128.49 0 131.945C0 135.399 2.80899 138.2 6.27406 138.2Z" fill="url(#paint40_linear_0_3736)"/>
</mask>
<g mask="url(#mask20_0_3736)">
<path d="M6.27406 138.2C9.73912 138.2 12.5481 135.399 12.5481 131.945C12.5481 128.49 9.73912 125.69 6.27406 125.69C2.80899 125.69 0 128.49 0 131.945C0 135.399 2.80899 138.2 6.27406 138.2Z" fill="url(#paint41_linear_0_3736)"/>
</g>
<mask id="mask21_0_3736" style="mask-type:alpha" maskUnits="userSpaceOnUse" x="36" y="125" width="13" height="14">
<path d="M42.612 138.2C46.077 138.2 48.886 135.399 48.886 131.945C48.886 128.49 46.077 125.69 42.612 125.69C39.1469 125.69 36.3379 128.49 36.3379 131.945C36.3379 135.399 39.1469 138.2 42.612 138.2Z" fill="url(#paint42_linear_0_3736)"/>
</mask>
<g mask="url(#mask21_0_3736)">
<path d="M42.612 138.2C46.077 138.2 48.886 135.399 48.886 131.945C48.886 128.49 46.077 125.69 42.612 125.69C39.1469 125.69 36.3379 128.49 36.3379 131.945C36.3379 135.399 39.1469 138.2 42.612 138.2Z" fill="url(#paint43_linear_0_3736)"/>
</g>
<mask id="mask22_0_3736" style="mask-type:alpha" maskUnits="userSpaceOnUse" x="72" y="125" width="14" height="14">
<path d="M78.9479 138.2C82.413 138.2 85.222 135.399 85.222 131.945C85.222 128.49 82.413 125.69 78.9479 125.69C75.4828 125.69 72.6738 128.49 72.6738 131.945C72.6738 135.399 75.4828 138.2 78.9479 138.2Z" fill="url(#paint44_linear_0_3736)"/>
</mask>
<g mask="url(#mask22_0_3736)">
<path d="M78.9479 138.2C82.413 138.2 85.222 135.399 85.222 131.945C85.222 128.49 82.413 125.69 78.9479 125.69C75.4828 125.69 72.6738 128.49 72.6738 131.945C72.6738 135.399 75.4828 138.2 78.9479 138.2Z" fill="url(#paint45_linear_0_3736)"/>
</g>
<mask id="mask23_0_3736" style="mask-type:alpha" maskUnits="userSpaceOnUse" x="109" y="125" width="13" height="14">
<path d="M115.286 138.2C118.751 138.2 121.56 135.399 121.56 131.945C121.56 128.49 118.751 125.69 115.286 125.69C111.821 125.69 109.012 128.49 109.012 131.945C109.012 135.399 111.821 138.2 115.286 138.2Z" fill="url(#paint46_linear_0_3736)"/>
</mask>
<g mask="url(#mask23_0_3736)">
<path d="M115.286 138.2C118.751 138.2 121.56 135.399 121.56 131.945C121.56 128.49 118.751 125.69 115.286 125.69C111.821 125.69 109.012 128.49 109.012 131.945C109.012 135.399 111.821 138.2 115.286 138.2Z" fill="url(#paint47_linear_0_3736)"/>
</g>
<mask id="mask24_0_3736" style="mask-type:alpha" maskUnits="userSpaceOnUse" x="145" y="125" width="13" height="14">
<path d="M151.624 138.2C155.089 138.2 157.898 135.399 157.898 131.945C157.898 128.49 155.089 125.69 151.624 125.69C148.159 125.69 145.35 128.49 145.35 131.945C145.35 135.399 148.159 138.2 151.624 138.2Z" fill="url(#paint48_linear_0_3736)"/>
</mask>
<g mask="url(#mask24_0_3736)">
<path d="M151.624 138.2C155.089 138.2 157.898 135.399 157.898 131.945C157.898 128.49 155.089 125.69 151.624 125.69C148.159 125.69 145.35 128.49 145.35 131.945C145.35 135.399 148.159 138.2 151.624 138.2Z" fill="url(#paint49_linear_0_3736)"/>
</g>
</g>
<defs>
<linearGradient id="paint0_linear_0_3736" x1="65.9952" y1="157.561" x2="-19.6868" y2="-60.604" gradientUnits="userSpaceOnUse">
<stop/>
<stop offset="1" stop-color="white"/>
</linearGradient>
<linearGradient id="paint1_linear_0_3736" x1="65.9952" y1="157.561" x2="-19.6868" y2="-60.604" gradientUnits="userSpaceOnUse">
<stop stop-color="#97C3F9"/>
<stop offset="1" stop-color="#93C1F9"/>
</linearGradient>
<linearGradient id="paint2_linear_0_3736" x1="97.4412" y1="145.211" x2="11.7593" y2="-72.9536" gradientUnits="userSpaceOnUse">
<stop/>
<stop offset="1" stop-color="white"/>
</linearGradient>
<linearGradient id="paint3_linear_0_3736" x1="97.4412" y1="145.211" x2="11.7593" y2="-72.9536" gradientUnits="userSpaceOnUse">
<stop stop-color="#97C3F9"/>
<stop offset="1" stop-color="#93C1F9"/>
</linearGradient>
<linearGradient id="paint4_linear_0_3736" x1="128.885" y1="132.861" x2="43.2033" y2="-85.3031" gradientUnits="userSpaceOnUse">
<stop/>
<stop offset="1" stop-color="white"/>
</linearGradient>
<linearGradient id="paint5_linear_0_3736" x1="128.885" y1="132.861" x2="43.2033" y2="-85.3031" gradientUnits="userSpaceOnUse">
<stop stop-color="#97C3F9"/>
<stop offset="1" stop-color="#93C1F9"/>
</linearGradient>
<linearGradient id="paint6_linear_0_3736" x1="160.331" y1="120.511" x2="74.6489" y2="-97.6534" gradientUnits="userSpaceOnUse">
<stop/>
<stop offset="1" stop-color="white"/>
</linearGradient>
<linearGradient id="paint7_linear_0_3736" x1="160.331" y1="120.511" x2="74.6489" y2="-97.6534" gradientUnits="userSpaceOnUse">
<stop stop-color="#97C3F9"/>
<stop offset="1" stop-color="#93C1F9"/>
</linearGradient>
<linearGradient id="paint8_linear_0_3736" x1="191.777" y1="108.161" x2="106.095" y2="-110.003" gradientUnits="userSpaceOnUse">
<stop/>
<stop offset="1" stop-color="white"/>
</linearGradient>
<linearGradient id="paint9_linear_0_3736" x1="191.777" y1="108.161" x2="106.095" y2="-110.003" gradientUnits="userSpaceOnUse">
<stop stop-color="#97C3F9"/>
<stop offset="1" stop-color="#93C1F9"/>
</linearGradient>
<linearGradient id="paint10_linear_0_3736" x1="55.2646" y1="161.774" x2="-30.416" y2="-56.3886" gradientUnits="userSpaceOnUse">
<stop/>
<stop offset="1" stop-color="white"/>
</linearGradient>
<linearGradient id="paint11_linear_0_3736" x1="55.2646" y1="161.774" x2="-30.416" y2="-56.3886" gradientUnits="userSpaceOnUse">
<stop stop-color="#97C3F9"/>
<stop offset="1" stop-color="#93C1F9"/>
</linearGradient>
<linearGradient id="paint12_linear_0_3736" x1="86.7103" y1="149.424" x2="1.02986" y2="-68.739" gradientUnits="userSpaceOnUse">
<stop/>
<stop offset="1" stop-color="white"/>
</linearGradient>
<linearGradient id="paint13_linear_0_3736" x1="86.7103" y1="149.424" x2="1.02986" y2="-68.7389" gradientUnits="userSpaceOnUse">
<stop stop-color="#97C3F9"/>
<stop offset="1" stop-color="#93C1F9"/>
</linearGradient>
<linearGradient id="paint14_linear_0_3736" x1="118.154" y1="137.074" x2="32.4737" y2="-81.0886" gradientUnits="userSpaceOnUse">
<stop/>
<stop offset="1" stop-color="white"/>
</linearGradient>
<linearGradient id="paint15_linear_0_3736" x1="118.154" y1="137.074" x2="32.4737" y2="-81.0885" gradientUnits="userSpaceOnUse">
<stop stop-color="#97C3F9"/>
<stop offset="1" stop-color="#93C1F9"/>
</linearGradient>
<linearGradient id="paint16_linear_0_3736" x1="149.6" y1="124.725" x2="63.9195" y2="-93.4383" gradientUnits="userSpaceOnUse">
<stop/>
<stop offset="1" stop-color="white"/>
</linearGradient>
<linearGradient id="paint17_linear_0_3736" x1="149.6" y1="124.725" x2="63.9195" y2="-93.4382" gradientUnits="userSpaceOnUse">
<stop stop-color="#97C3F9"/>
<stop offset="1" stop-color="#93C1F9"/>
</linearGradient>
<linearGradient id="paint18_linear_0_3736" x1="181.046" y1="112.375" x2="95.3654" y2="-105.788" gradientUnits="userSpaceOnUse">
<stop/>
<stop offset="1" stop-color="white"/>
</linearGradient>
<linearGradient id="paint19_linear_0_3736" x1="181.046" y1="112.375" x2="95.3654" y2="-105.788" gradientUnits="userSpaceOnUse">
<stop stop-color="#97C3F9"/>
<stop offset="1" stop-color="#93C1F9"/>
</linearGradient>
<linearGradient id="paint20_linear_0_3736" x1="44.5336" y1="165.99" x2="-41.1484" y2="-52.1749" gradientUnits="userSpaceOnUse">
<stop/>
<stop offset="1" stop-color="white"/>
</linearGradient>
<linearGradient id="paint21_linear_0_3736" x1="44.5336" y1="165.99" x2="-41.1484" y2="-52.1749" gradientUnits="userSpaceOnUse">
<stop stop-color="#97C3F9"/>
<stop offset="1" stop-color="#93C1F9"/>
</linearGradient>
<linearGradient id="paint22_linear_0_3736" x1="75.9795" y1="153.64" x2="-9.70247" y2="-64.5248" gradientUnits="userSpaceOnUse">
<stop/>
<stop offset="1" stop-color="white"/>
</linearGradient>
<linearGradient id="paint23_linear_0_3736" x1="75.9795" y1="153.64" x2="-9.70247" y2="-64.5248" gradientUnits="userSpaceOnUse">
<stop stop-color="#97C3F9"/>
<stop offset="1" stop-color="#93C1F9"/>
</linearGradient>
<linearGradient id="paint24_linear_0_3736" x1="107.423" y1="141.29" x2="21.7415" y2="-76.8745" gradientUnits="userSpaceOnUse">
<stop/>
<stop offset="1" stop-color="white"/>
</linearGradient>
<linearGradient id="paint25_linear_0_3736" x1="107.423" y1="141.29" x2="21.7415" y2="-76.8745" gradientUnits="userSpaceOnUse">
<stop stop-color="#97C3F9"/>
<stop offset="1" stop-color="#93C1F9"/>
</linearGradient>
<linearGradient id="paint26_linear_0_3736" x1="138.869" y1="128.94" x2="53.1871" y2="-89.2245" gradientUnits="userSpaceOnUse">
<stop/>
<stop offset="1" stop-color="white"/>
</linearGradient>
<linearGradient id="paint27_linear_0_3736" x1="138.869" y1="128.94" x2="53.1871" y2="-89.2245" gradientUnits="userSpaceOnUse">
<stop stop-color="#97C3F9"/>
<stop offset="1" stop-color="#93C1F9"/>
</linearGradient>
<linearGradient id="paint28_linear_0_3736" x1="170.315" y1="116.59" x2="84.633" y2="-101.574" gradientUnits="userSpaceOnUse">
<stop/>
<stop offset="1" stop-color="white"/>
</linearGradient>
<linearGradient id="paint29_linear_0_3736" x1="170.315" y1="116.59" x2="84.633" y2="-101.574" gradientUnits="userSpaceOnUse">
<stop stop-color="#97C3F9"/>
<stop offset="1" stop-color="#93C1F9"/>
</linearGradient>
<linearGradient id="paint30_linear_0_3736" x1="33.8027" y1="170.204" x2="-51.8793" y2="-47.9606" gradientUnits="userSpaceOnUse">
<stop/>
<stop offset="1" stop-color="white"/>
</linearGradient>
<linearGradient id="paint31_linear_0_3736" x1="33.8027" y1="170.204" x2="-51.8793" y2="-47.9606" gradientUnits="userSpaceOnUse">
<stop stop-color="#97C3F9"/>
<stop offset="1" stop-color="#93C1F9"/>
</linearGradient>
<linearGradient id="paint32_linear_0_3736" x1="65.2487" y1="157.854" x2="-20.4333" y2="-60.3104" gradientUnits="userSpaceOnUse">
<stop/>
<stop offset="1" stop-color="white"/>
</linearGradient>
<linearGradient id="paint33_linear_0_3736" x1="65.2487" y1="157.854" x2="-20.4333" y2="-60.3104" gradientUnits="userSpaceOnUse">
<stop stop-color="#97C3F9"/>
<stop offset="1" stop-color="#93C1F9"/>
</linearGradient>
<linearGradient id="paint34_linear_0_3736" x1="96.6925" y1="145.504" x2="11.0106" y2="-72.6602" gradientUnits="userSpaceOnUse">
<stop/>
<stop offset="1" stop-color="white"/>
</linearGradient>
<linearGradient id="paint35_linear_0_3736" x1="96.6925" y1="145.504" x2="11.0106" y2="-72.6602" gradientUnits="userSpaceOnUse">
<stop stop-color="#97C3F9"/>
<stop offset="1" stop-color="#93C1F9"/>
</linearGradient>
<linearGradient id="paint36_linear_0_3736" x1="128.138" y1="133.155" x2="42.4563" y2="-85.0101" gradientUnits="userSpaceOnUse">
<stop/>
<stop offset="1" stop-color="white"/>
</linearGradient>
<linearGradient id="paint37_linear_0_3736" x1="128.138" y1="133.155" x2="42.4563" y2="-85.0101" gradientUnits="userSpaceOnUse">
<stop stop-color="#97C3F9"/>
<stop offset="1" stop-color="#93C1F9"/>
</linearGradient>
<linearGradient id="paint38_linear_0_3736" x1="159.584" y1="120.805" x2="73.9021" y2="-97.36" gradientUnits="userSpaceOnUse">
<stop/>
<stop offset="1" stop-color="white"/>
</linearGradient>
<linearGradient id="paint39_linear_0_3736" x1="159.584" y1="120.805" x2="73.9021" y2="-97.36" gradientUnits="userSpaceOnUse">
<stop stop-color="#97C3F9"/>
<stop offset="1" stop-color="#93C1F9"/>
</linearGradient>
<linearGradient id="paint40_linear_0_3736" x1="23.0719" y1="174.418" x2="-62.6101" y2="-43.7464" gradientUnits="userSpaceOnUse">
<stop/>
<stop offset="1" stop-color="white"/>
</linearGradient>
<linearGradient id="paint41_linear_0_3736" x1="23.0719" y1="174.418" x2="-62.6101" y2="-43.7464" gradientUnits="userSpaceOnUse">
<stop stop-color="#97C3F9"/>
<stop offset="1" stop-color="#93C1F9"/>
</linearGradient>
<linearGradient id="paint42_linear_0_3736" x1="54.5178" y1="162.068" x2="-31.1642" y2="-56.0961" gradientUnits="userSpaceOnUse">
<stop/>
<stop offset="1" stop-color="white"/>
</linearGradient>
<linearGradient id="paint43_linear_0_3736" x1="54.5178" y1="162.068" x2="-31.1642" y2="-56.0961" gradientUnits="userSpaceOnUse">
<stop stop-color="#97C3F9"/>
<stop offset="1" stop-color="#93C1F9"/>
</linearGradient>
<linearGradient id="paint44_linear_0_3736" x1="85.9616" y1="149.719" x2="0.279766" y2="-68.4457" gradientUnits="userSpaceOnUse">
<stop/>
<stop offset="1" stop-color="white"/>
</linearGradient>
<linearGradient id="paint45_linear_0_3736" x1="85.9616" y1="149.719" x2="0.279766" y2="-68.4457" gradientUnits="userSpaceOnUse">
<stop stop-color="#97C3F9"/>
<stop offset="1" stop-color="#93C1F9"/>
</linearGradient>
<linearGradient id="paint46_linear_0_3736" x1="117.407" y1="137.369" x2="31.7255" y2="-80.7957" gradientUnits="userSpaceOnUse">
<stop/>
<stop offset="1" stop-color="white"/>
</linearGradient>
<linearGradient id="paint47_linear_0_3736" x1="117.407" y1="137.369" x2="31.7255" y2="-80.7957" gradientUnits="userSpaceOnUse">
<stop stop-color="#97C3F9"/>
<stop offset="1" stop-color="#93C1F9"/>
</linearGradient>
<linearGradient id="paint48_linear_0_3736" x1="148.853" y1="125.019" x2="63.1713" y2="-93.1455" gradientUnits="userSpaceOnUse">
<stop/>
<stop offset="1" stop-color="white"/>
</linearGradient>
<linearGradient id="paint49_linear_0_3736" x1="148.853" y1="125.019" x2="63.1713" y2="-93.1455" gradientUnits="userSpaceOnUse">
<stop stop-color="#97C3F9"/>
<stop offset="1" stop-color="#93C1F9"/>
</linearGradient>
</defs>
</svg>
