<svg width="392" height="338" viewBox="0 0 392 338" fill="none" xmlns="http://www.w3.org/2000/svg">
<mask id="mask0_1_359" style="mask-type:alpha" maskUnits="userSpaceOnUse" x="0" y="0" width="392" height="338">
<rect width="392" height="338" rx="14.8275" fill="#157FFB"/>
</mask>
<g mask="url(#mask0_1_359)">
<rect width="392" height="338" rx="12.7092" fill="#157FFB"/>
<g opacity="0.4">
<path d="M35.2139 78.0981H34.5272V73.2322L26.2777 65.0371V51.8963L22.2251 47.7494H11.1755L7.10622 43.791H-13.34L-38.9483 19.3798H-66.6078L-75.2844 27.9566H-85.5508V27.2965H-75.5751L-66.8985 18.7197H-38.6654L-38.5644 18.8151L-13.0571 43.1309H7.39353L11.4628 47.0893H22.5224L26.9656 51.6345V64.7709L35.2139 72.9649V78.0981Z" fill="#DAEBFF"/>
<path d="M95.9119 77.438H87.3151L84.0002 74.7998H69.9919L64.0887 69.6755V63.7214L59.5469 59.3626L60.0339 58.8955L64.7766 63.4485V69.3827L70.2559 74.1398H84.2487L87.5636 76.779H95.6401L104.449 68.8612H109.459V69.5213H104.72L95.9119 77.438Z" fill="#DAEBFF"/>
<path d="M83.9743 72.1602H71.6511L66.8374 68.0843V61.6232L57.2145 52.2288V44.7315L46.8005 34.5538H-16.3953L-39.615 11.4617H-67.0138L-77.0084 20.7285L-77.1027 23.6351L-67.2967 14.101H-39.3254L-16.1068 36.533H45.8964L49.6528 40.3593V47.0889H48.965V40.6212L45.5991 37.1931H-16.3919L-39.6117 14.7611H-67.0094L-77.8438 25.2948L-77.6873 20.4412L-67.2911 10.8027H-39.3221L-16.1035 33.8938H47.089L57.9012 44.4619V51.9592L67.5252 61.3525V67.787L71.9118 71.5001H83.7047L88.1445 67.5418H91.3618V68.2019H88.4141L83.9743 72.1602Z" fill="#DAEBFF"/>
<path d="M74.7816 59.2053L63.3969 48.5062V26.8375L60.3927 23.9985H47.4782L39.3163 31.9152H-14.941L-38.6445 8.82415H-77.1617L-83.239 14.6041L-83.7227 14.136L-77.4457 8.16406H-38.3571L-14.6526 31.2551H39.0301L47.1919 23.3384H60.6745L64.0847 26.5612V48.23L75.2619 58.7338L74.7816 59.2053Z" fill="#DAEBFF"/>
<path d="M83.8185 56.9861H77.7867L66.1502 45.7079V24.0214L63.2879 20.6988H45.5398L37.3779 28.6165H-12.9932L-36.6977 6.18451H-112.25V5.52441H-36.4148L-12.7103 27.9565H37.0906L45.2535 20.0387H63.6119L66.8369 23.784V45.435L78.074 56.326H83.8185V56.9861Z" fill="#DAEBFF"/>
<path d="M33.5007 22.6781H11.1185L4.08163 16.0805H-0.271667L-3.4157 18.7197H-12.9909L-36.0664 -2.51528L-35.5905 -2.99121L-12.7147 18.0596H-3.67418L-0.530151 15.4215H4.36229L11.3981 22.018H33.1989L36.3596 18.7197H18.6702L14.3868 15.6001L14.8028 15.0742L18.9021 18.0596H37.926L33.5007 22.6781Z" fill="#DAEBFF"/>
<path d="M1.5316 23.9984H-12.8329L-35.7287 2.2265H-94.6211V1.56641H-35.4458L-12.55 23.3384H1.5316V23.9984Z" fill="#DAEBFF"/>
<path d="M34.762 83.1474C36.5333 83.1474 37.9692 81.7691 37.9692 80.0688C37.9692 78.3686 36.5333 76.9902 34.762 76.9902C32.9906 76.9902 31.5547 78.3686 31.5547 80.0688C31.5547 81.7691 32.9906 83.1474 34.762 83.1474Z" fill="#DAEBFF"/>
<path d="M112.438 71.9306C114.209 71.9306 115.645 70.5523 115.645 68.852C115.645 67.1518 114.209 65.7734 112.438 65.7734C110.666 65.7734 109.23 67.1518 109.23 68.852C109.23 70.5523 110.666 71.9306 112.438 71.9306Z" fill="#DAEBFF"/>
<path d="M1.76586 26.4081C3.53718 26.4081 4.97313 25.0298 4.97313 23.3296C4.97313 21.6293 3.53718 20.251 1.76586 20.251C-0.00547135 20.251 -1.44141 21.6293 -1.44141 23.3296C-1.44141 25.0298 -0.00547135 26.4081 1.76586 26.4081Z" fill="#DAEBFF"/>
<path d="M48.512 51.4794C50.2833 51.4794 51.7192 50.1011 51.7192 48.4008C51.7192 46.7006 50.2833 45.3223 48.512 45.3223C46.7406 45.3223 45.3047 46.7006 45.3047 48.4008C45.3047 50.1011 46.7406 51.4794 48.512 51.4794Z" fill="#DAEBFF"/>
<path d="M58.8205 62.0351C60.5919 62.0351 62.0278 60.6568 62.0278 58.9565C62.0278 57.2563 60.5919 55.8779 58.8205 55.8779C57.0492 55.8779 55.6133 57.2563 55.6133 58.9565C55.6133 60.6568 57.0492 62.0351 58.8205 62.0351Z" fill="#DAEBFF"/>
<path d="M94.5696 64.125C92.6104 64.125 91.0195 65.6537 91.0195 67.5342V67.5419C91.0195 67.7656 91.0426 67.9887 91.0883 68.2076C91.4134 69.7607 92.85 70.9467 94.5707 70.9467C96.5288 70.9467 98.1208 69.4179 98.1208 67.5397C98.1208 65.6615 96.5277 64.125 94.5696 64.125ZM94.5696 70.2822C92.9909 70.2822 91.7062 69.0496 91.7062 67.5342C91.7062 66.0187 92.9909 64.784 94.5696 64.784C96.1483 64.784 97.4319 66.0187 97.4319 67.5342C97.4319 69.0496 96.1483 70.2822 94.5696 70.2822Z" fill="#DAEBFF"/>
<path d="M87.0071 52.9062C85.0479 52.9062 83.457 54.4361 83.457 56.3165V56.3243C83.4565 56.5462 83.4799 56.7675 83.5269 56.9844C83.8498 58.5442 85.2887 59.7235 87.0093 59.7235C88.9652 59.7235 90.5594 58.1948 90.5594 56.3165C90.5594 54.4383 88.963 52.9062 87.0071 52.9062ZM87.0071 59.0645C85.4262 59.0645 84.1415 57.832 84.1415 56.3165C84.1415 54.8011 85.4262 53.5719 87.0071 53.5719C88.588 53.5719 89.8694 54.8066 89.8694 56.3221C89.8694 57.8375 88.5836 59.0667 87.0071 59.0667V59.0645Z" fill="#DAEBFF"/>
<path d="M76.6968 58.1885C76.1369 58.1871 75.5842 58.3147 75.0815 58.5612C74.8724 58.6629 74.6739 58.7852 74.4891 58.9262C74.0741 59.2374 73.7368 59.6404 73.5035 60.1036C73.2702 60.5669 73.1474 61.0779 73.1445 61.5966C73.1445 63.4759 74.7376 65.0057 76.6946 65.0057C78.6516 65.0057 80.2447 63.4759 80.2447 61.5966C80.2447 59.7172 78.6549 58.1885 76.6968 58.1885ZM76.6968 64.3457C75.1182 64.3457 73.8335 63.1109 73.8335 61.5966C73.8335 60.0822 75.1182 58.8486 76.6968 58.8486C78.2755 58.8486 79.5602 60.0811 79.5602 61.5966C79.5602 63.112 78.2755 64.3457 76.6968 64.3457Z" fill="#DAEBFF"/>
<path d="M12.0774 10.0254C10.1182 10.0254 8.52734 11.5553 8.52734 13.4324C8.52734 15.3095 10.1182 16.8426 12.0774 16.8426C12.5541 16.845 13.0265 16.7526 13.4671 16.5709C13.9078 16.3892 14.3081 16.1219 14.6446 15.7843C14.9549 15.4761 15.2015 15.1097 15.3701 14.7061C15.5388 14.3026 15.6262 13.8697 15.6275 13.4324C15.6275 11.5553 14.0322 10.0254 12.0774 10.0254ZM12.0774 16.1826C10.4987 16.1826 9.21408 14.95 9.21408 13.4324C9.21408 11.9147 10.4987 10.6844 12.0774 10.6844C13.6561 10.6844 14.9408 11.918 14.9408 13.4324C14.9408 14.9467 13.6561 16.1848 12.0774 16.1848V16.1826Z" fill="#DAEBFF"/>
<path d="M-120.617 43.2607H-119.93V48.1266L-111.681 56.3217V69.4625L-107.627 73.6095H-96.5787L-92.5095 77.5678H-72.0632L-46.455 101.979H-18.7955L-10.1188 93.4022H0.148643V94.0623H-9.82818L-18.5048 102.639H-46.7379L-46.8388 102.544L-72.3461 78.2279H-92.7968L-96.8661 74.2696H-107.925L-112.369 69.7243V56.588L-120.617 48.3939V43.2607Z" fill="#DAEBFF"/>
<path d="M-169.219 64.373H-163.187L-151.55 75.6512V97.3377L-148.688 100.66H-130.94L-122.778 92.7437H-72.4071L-48.7026 115.175H26.8497V115.835H-48.9843L-72.6889 93.4027H-122.491L-130.654 101.32H-149.011L-152.237 97.5751V75.9241L-163.473 65.0331H-169.219V64.373Z" fill="#DAEBFF"/>
<path d="M-86.9336 97.3613H-72.5702L-49.6744 119.133H9.21911V119.793H-49.9573L-72.852 98.0214H-86.9336V97.3613Z" fill="#DAEBFF"/>
<path d="M-1.24196 109.024C0.529371 109.024 1.96532 107.646 1.96532 105.946C1.96532 104.246 0.529371 102.867 -1.24196 102.867C-3.01328 102.867 -4.44922 104.246 -4.44922 105.946C-4.44922 107.646 -3.01328 109.024 -1.24196 109.024Z" fill="#DAEBFF"/>
<path d="M30.0573 112.096C28.2135 112.096 26.6936 113.45 26.5217 115.173C26.5101 115.284 26.5042 115.395 26.5039 115.506C26.5042 115.617 26.5102 115.728 26.5217 115.839C26.6958 117.564 28.2135 118.916 30.0573 118.916C32.0132 118.916 33.6074 117.386 33.6074 115.507C33.6074 113.628 32.0132 112.096 30.0573 112.096ZM30.0573 118.253C28.4786 118.253 27.1918 117.02 27.1918 115.504C27.1918 113.987 28.4786 112.756 30.0573 112.756C31.636 112.756 32.9196 113.988 32.9196 115.504C32.9196 117.019 31.636 118.25 30.0573 118.25V118.253Z" fill="#DAEBFF"/>
<path d="M12.4284 116.687C10.8176 116.687 9.45303 117.719 9.02147 119.134C8.95365 119.348 8.90973 119.569 8.89055 119.793C8.87975 119.894 8.87458 119.995 8.87503 120.097C8.87503 121.974 10.4692 123.504 12.4251 123.504C14.381 123.504 15.9752 121.974 15.9752 120.097C15.9752 118.22 14.3843 116.687 12.4284 116.687ZM12.4284 122.844C10.8475 122.844 9.56285 121.611 9.56285 120.097C9.56285 118.582 10.8475 117.347 12.4284 117.347C14.0093 117.347 15.2907 118.579 15.2907 120.097C15.2907 121.614 14.0071 122.844 12.4284 122.844Z" fill="#DAEBFF"/>
<path d="M3.35809 90.3809C1.53424 90.3809 0.0298922 91.7055 -0.170909 93.4029C-0.186913 93.5306 -0.195061 93.6591 -0.195312 93.7878C-0.195312 93.881 -0.195313 93.9709 -0.182 94.0618C-0.0377784 95.8147 1.49541 97.197 3.35809 97.197C5.31396 97.197 6.90817 95.6683 6.90817 93.7878C6.90817 91.9074 5.31396 90.3809 3.35809 90.3809ZM3.35809 96.538C1.7772 96.538 0.492509 95.3055 0.492509 93.7878C0.492509 92.2702 1.7772 91.0398 3.35809 91.0398C4.93899 91.0398 6.22034 92.2724 6.22034 93.7878C6.22034 95.3033 4.93566 96.538 3.35809 96.538Z" fill="#DAEBFF"/>
<path d="M-2.83571 83.5566C-1.06438 83.5566 0.371569 82.1782 0.371569 80.478C0.371569 78.7777 -1.06438 77.3994 -2.83571 77.3994C-4.60703 77.3994 -6.04297 78.7777 -6.04297 80.478C-6.04297 82.1782 -4.60703 83.5566 -2.83571 83.5566Z" fill="#DAEBFF"/>
<path d="M23.1693 124.517H20.8329C20.7755 124.519 20.7198 124.498 20.6774 124.459C20.6349 124.42 20.6092 124.367 20.6055 124.31C20.6054 124.281 20.6112 124.253 20.6225 124.227C20.6338 124.2 20.6504 124.177 20.6712 124.157C20.6921 124.138 20.7167 124.123 20.7435 124.114C20.7704 124.104 20.7989 124.1 20.8273 124.102H23.1671C23.2235 124.102 23.2779 124.123 23.3191 124.162C23.3603 124.2 23.3853 124.253 23.389 124.31C23.3887 124.338 23.3827 124.366 23.3714 124.391C23.3601 124.417 23.3438 124.441 23.3233 124.46C23.3027 124.479 23.2785 124.494 23.2521 124.504C23.2256 124.514 23.1975 124.518 23.1693 124.517Z" fill="#00D569"/>
<path d="M27.4568 124.517H24.4758C24.4194 124.517 24.365 124.495 24.3238 124.457C24.2826 124.418 24.2576 124.366 24.2539 124.309C24.2545 124.281 24.2607 124.253 24.2722 124.227C24.2838 124.201 24.3004 124.178 24.321 124.159C24.3417 124.139 24.3661 124.124 24.3927 124.115C24.4192 124.105 24.4475 124.1 24.4758 124.102H27.4568C27.5118 124.102 27.5645 124.124 27.6034 124.163C27.6424 124.201 27.6642 124.254 27.6642 124.309C27.6642 124.364 27.6424 124.417 27.6034 124.456C27.5645 124.495 27.5118 124.517 27.4568 124.517Z" fill="#00D569"/>
</g>
<g opacity="0.4">
<path d="M387.167 304.106H392.198V304.706H386.884L381.956 299.301H342.969L339.365 303.23L337.154 305.637L336.688 305.242L338.861 302.875L342.69 298.7H382.24L387.167 304.106Z" fill="#DAEBFF"/>
<path d="M392.2 308.311V308.911H386.898L379.981 302.304H352.68V301.704H380.24L387.156 308.311H392.2Z" fill="#DAEBFF"/>
<path d="M387.157 310.711H392.2V311.313H386.899L379.982 304.706H352.375V304.106H380.241L387.157 310.711Z" fill="#DAEBFF"/>
<path d="M392.199 324.989V325.836L376.538 340.742H367.063L359.162 332.936H333.983L310.673 355.158H292.058L288.354 358.762H278.294L274.604 362.537V374.499L267.094 381.959V384.78H266.469V381.716L273.979 374.259V362.299L278.023 358.162H288.093L291.795 354.558H310.415L333.726 332.336H359.428L367.325 340.142H376.28L392.199 324.989Z" fill="#DAEBFF"/>
<path d="M230.371 369.264L229.934 368.834L240.187 359.199V339.474L243.292 336.539H255.566L262.996 343.746H311.866L333.444 322.726H369.028L374.744 328.162L374.304 328.59L368.771 323.326H333.706L312.128 344.348H262.734L255.304 337.14H243.548L240.813 339.724V359.452L230.371 369.264Z" fill="#DAEBFF"/>
<path d="M392.201 320.322V320.922H331.936L310.358 341.343H264.502L257.074 334.137H240.915L238.309 337.16V356.901L227.717 367.169H221.414V366.569H227.457L237.684 356.653V336.944L240.621 333.537H257.334L264.766 340.742H310.103L331.681 320.322H392.201Z" fill="#DAEBFF"/>
<path d="M310.209 337.14H297.133V336.539H309.951L330.793 316.719H370.02L368.189 314.96L344.491 314.916H329.281L310.354 332.335H301.637L298.774 329.932H294.811L288.404 335.939H268.029L264 331.734H281.296L286.25 326.998L286.691 327.423L281.554 332.335H265.426L268.304 335.337H288.149L294.555 329.331H299.008L301.871 331.734H310.102L329.03 314.316H344.492L368.449 314.36L371.531 317.319H331.051L310.209 337.14Z" fill="#DAEBFF"/>
<path d="M375.572 312.307C377.184 312.307 378.491 311.052 378.491 309.505C378.491 307.957 377.184 306.702 375.572 306.702C373.959 306.702 372.652 307.957 372.652 309.505C372.652 311.052 373.959 312.307 375.572 312.307Z" fill="#DAEBFF"/>
<path d="M287.958 328.522C289.571 328.522 290.878 327.267 290.878 325.719C290.878 324.172 289.571 322.917 287.958 322.917C286.346 322.917 285.039 324.172 285.039 325.719C285.039 327.267 286.346 328.522 287.958 328.522Z" fill="#DAEBFF"/>
<path d="M374.943 331.527C376.555 331.527 377.862 330.272 377.862 328.724C377.862 327.177 376.555 325.922 374.943 325.922C373.331 325.922 372.023 327.177 372.023 328.724C372.023 330.272 373.331 331.527 374.943 331.527Z" fill="#DAEBFF"/>
<path d="M337.396 308.102C339.008 308.102 340.315 306.847 340.315 305.3C340.315 303.752 339.008 302.497 337.396 302.497C335.784 302.497 334.477 303.752 334.477 305.3C334.477 306.847 335.784 308.102 337.396 308.102Z" fill="#DAEBFF"/>
<path d="M296.72 339.935C298.333 339.935 299.64 338.68 299.64 337.133C299.64 335.585 298.333 334.33 296.72 334.33C295.108 334.33 293.801 335.585 293.801 337.133C293.801 338.68 295.108 339.935 296.72 339.935Z" fill="#DAEBFF"/>
<path d="M323.459 298.83L323.893 299.263L321.043 301.899H298.46L296.426 299.986L296.864 299.557L298.716 301.299H320.79L323.459 298.83Z" fill="#DAEBFF"/>
<path d="M325.083 300.505C326.696 300.505 328.003 299.251 328.003 297.703C328.003 296.155 326.696 294.9 325.083 294.9C323.471 294.9 322.164 296.155 322.164 297.703C322.164 299.251 323.471 300.505 325.083 300.505Z" fill="#DAEBFF"/>
<path d="M295.043 294C293.26 294 291.809 295.391 291.809 297.102C291.809 298.812 293.26 300.206 295.043 300.206C295.577 300.206 296.103 300.076 296.577 299.829C296.697 299.767 296.813 299.696 296.923 299.619C297.334 299.34 297.672 298.965 297.906 298.527C298.141 298.089 298.265 297.6 298.269 297.103C298.276 295.391 296.827 294 295.043 294ZM295.043 299.605C293.604 299.605 292.435 298.48 292.435 297.102C292.435 295.723 293.604 294.601 295.043 294.601C296.482 294.601 297.649 295.723 297.649 297.102C297.649 298.48 296.483 299.605 295.043 299.605Z" fill="#DAEBFF"/>
<path d="M353.085 302.303C353.043 302.097 352.981 301.896 352.897 301.703C352.638 301.13 352.219 300.645 351.689 300.306C351.159 299.967 350.542 299.789 349.914 299.794C348.131 299.794 346.68 301.186 346.68 302.897C346.68 304.608 348.131 305.999 349.914 305.999C350.421 306.002 350.922 305.887 351.377 305.662C351.832 305.438 352.229 305.111 352.536 304.707C352.677 304.521 352.796 304.319 352.892 304.106C353.059 303.725 353.145 303.313 353.144 302.897C353.145 302.698 353.125 302.499 353.085 302.303ZM349.914 305.399C348.477 305.399 347.306 304.277 347.306 302.897C347.306 301.517 348.477 300.394 349.914 300.394C351.35 300.394 352.52 301.516 352.52 302.897C352.52 304.278 351.35 305.399 349.914 305.399Z" fill="#DAEBFF"/>
<path d="M317.37 312.405C316.758 312.403 316.158 312.572 315.636 312.892C315.458 313.001 315.291 313.127 315.139 313.269C314.824 313.553 314.572 313.899 314.399 314.285C314.225 314.671 314.135 315.09 314.133 315.513C314.133 317.224 315.584 318.616 317.367 318.616C319.149 318.616 320.601 317.224 320.601 315.513C320.601 313.803 319.153 312.405 317.37 312.405ZM317.37 318.013C315.934 318.013 314.762 316.888 314.762 315.51C314.762 314.131 315.934 313.007 317.37 313.007C318.807 313.007 319.978 314.13 319.978 315.51C319.978 316.889 318.807 318.013 317.37 318.013Z" fill="#DAEBFF"/>
</g>
</g>
</svg>
