<svg width="27" height="28" viewBox="0 0 27 28" fill="none" xmlns="http://www.w3.org/2000/svg">
<g clip-path="url(#clip0_194_9996)">
<path d="M17.3328 6.83254C16.4883 6.8324 15.6775 7.16378 15.0749 7.75539C14.4723 8.347 14.126 9.15153 14.1106 9.99587L14.0795 11.7459C14.0777 11.8398 14.056 11.9323 14.0159 12.0173C13.9758 12.1023 13.9182 12.1779 13.8469 12.2391C13.7755 12.3002 13.692 12.3456 13.6019 12.3723C13.5118 12.3989 13.4171 12.4062 13.3239 12.3936L11.5895 12.1581C9.30726 11.847 7.12059 10.7959 5.02281 9.04809C4.35837 12.7259 5.65615 15.2736 8.7817 17.2392L10.7228 18.4592C10.815 18.5172 10.8917 18.5968 10.946 18.6913C11.0003 18.7857 11.0306 18.892 11.0344 19.0009C11.0381 19.1097 11.0151 19.2178 10.9674 19.3158C10.9196 19.4137 10.8486 19.4984 10.7606 19.5625L8.9917 20.8548C10.0439 20.9203 11.0428 20.8736 11.8717 20.7092C17.1139 19.6625 20.5995 15.7181 20.5995 9.21143C20.5995 8.68032 19.475 6.83254 17.3328 6.83254V6.83254ZM11.8884 9.95476C11.9078 8.8837 12.2427 7.84217 12.8512 6.96056C13.4597 6.07895 14.3148 5.39645 15.3094 4.9985C16.304 4.60055 17.3938 4.50485 18.4425 4.72337C19.4912 4.94189 20.4522 5.46492 21.205 6.22698C21.995 6.22143 22.6673 6.42143 24.1706 5.51032C23.7984 7.33254 23.615 8.12365 22.8217 9.21143C22.8217 17.7025 17.6028 21.8314 12.3073 22.8881C8.67615 23.6125 3.39615 22.4225 1.88281 20.8425C2.65392 20.7825 5.78726 20.4459 7.59837 19.1203C6.06615 18.1103 -0.0327431 14.5214 3.97503 4.87254C5.85615 7.0692 7.76392 8.56476 9.69726 9.35809C10.9839 9.88587 11.2995 9.87476 11.8895 9.95587L11.8884 9.95476Z" fill="white"/>
</g>
<defs>
<clipPath id="clip0_194_9996">
<rect width="26.6667" height="26.6667" fill="white" transform="translate(0.333984 0.666504)"/>
</clipPath>
</defs>
</svg>
