<svg width="392" height="293" viewBox="0 0 392 293" fill="none" xmlns="http://www.w3.org/2000/svg">
<mask id="mask0_1_364" style="mask-type:alpha" maskUnits="userSpaceOnUse" x="0" y="0" width="392" height="293">
<rect width="392" height="293" rx="14.8275" fill="#157FFB"/>
</mask>
<g mask="url(#mask0_1_364)">
<rect width="392" height="293" rx="12.7092" fill="#157FFB"/>
<g opacity="0.4">
<path d="M35.2139 78.0981H34.5272V73.2322L26.2777 65.0371V51.8963L22.2251 47.7494H11.1755L7.10622 43.791H-13.34L-38.9483 19.3798H-66.6078L-75.2844 27.9566H-85.5508V27.2965H-75.5751L-66.8985 18.7197H-38.6654L-38.5644 18.8151L-13.0571 43.1309H7.39353L11.4628 47.0893H22.5224L26.9656 51.6345V64.7709L35.2139 72.9649V78.0981Z" fill="#DAEBFF"/>
<path d="M95.9119 77.438H87.3151L84.0002 74.7998H69.9919L64.0887 69.6755V63.7214L59.5469 59.3626L60.0339 58.8955L64.7766 63.4485V69.3827L70.2559 74.1398H84.2487L87.5636 76.779H95.6401L104.449 68.8612H109.459V69.5213H104.72L95.9119 77.438Z" fill="#DAEBFF"/>
<path d="M83.9743 72.1607H71.6511L66.8374 68.0848V61.6237L57.2145 52.2293V44.732L46.8005 34.5543H-16.3953L-39.615 11.4622H-67.0138L-77.0084 20.729L-77.1027 23.6356L-67.2967 14.1015H-39.3254L-16.1068 36.5335H45.8964L49.6528 40.3598V47.0894H48.965V40.6216L45.5991 37.1936H-16.3919L-39.6117 14.7616H-67.0094L-77.8438 25.2953L-77.6873 20.4417L-67.2911 10.8032H-39.3221L-16.1035 33.8942H47.089L57.9012 44.4624V51.9597L67.5252 61.353V67.7875L71.9118 71.5006H83.7047L88.1445 67.5423H91.3618V68.2024H88.4141L83.9743 72.1607Z" fill="#DAEBFF"/>
<path d="M74.7816 59.2048L63.3969 48.5058V26.837L60.3927 23.998H47.4782L39.3163 31.9147H-14.941L-38.6445 8.82367H-77.1617L-83.239 14.6036L-83.7227 14.1355L-77.4457 8.16357H-38.3571L-14.6526 31.2546H39.0301L47.1919 23.3379H60.6745L64.0847 26.5607V48.2295L75.2619 58.7333L74.7816 59.2048Z" fill="#DAEBFF"/>
<path d="M83.8185 56.9866H77.7867L66.1502 45.7084V24.0219L63.2879 20.6993H45.5398L37.3779 28.617H-12.9932L-36.6977 6.18499H-112.25V5.5249H-36.4148L-12.7103 27.9569H37.0906L45.2535 20.0392H63.6119L66.8369 23.7845V45.4355L78.074 56.3265H83.8185V56.9866Z" fill="#DAEBFF"/>
<path d="M33.5007 22.6781H11.1185L4.08163 16.0805H-0.271667L-3.4157 18.7197H-12.9909L-36.0664 -2.51528L-35.5905 -2.99121L-12.7147 18.0596H-3.67418L-0.530151 15.4215H4.36229L11.3981 22.018H33.1989L36.3596 18.7197H18.6702L14.3868 15.6001L14.8028 15.0742L18.9021 18.0596H37.926L33.5007 22.6781Z" fill="#DAEBFF"/>
<path d="M1.5316 23.9984H-12.8329L-35.7287 2.2265H-94.6211V1.56641H-35.4458L-12.55 23.3384H1.5316V23.9984Z" fill="#DAEBFF"/>
<path d="M34.762 83.1474C36.5333 83.1474 37.9692 81.7691 37.9692 80.0688C37.9692 78.3686 36.5333 76.9902 34.762 76.9902C32.9906 76.9902 31.5547 78.3686 31.5547 80.0688C31.5547 81.7691 32.9906 83.1474 34.762 83.1474Z" fill="#DAEBFF"/>
<path d="M112.438 71.9311C114.209 71.9311 115.645 70.5528 115.645 68.8525C115.645 67.1523 114.209 65.7739 112.438 65.7739C110.666 65.7739 109.23 67.1523 109.23 68.8525C109.23 70.5528 110.666 71.9311 112.438 71.9311Z" fill="#DAEBFF"/>
<path d="M1.76586 26.4077C3.53718 26.4077 4.97313 25.0293 4.97313 23.3291C4.97313 21.6288 3.53718 20.2505 1.76586 20.2505C-0.00547135 20.2505 -1.44141 21.6288 -1.44141 23.3291C-1.44141 25.0293 -0.00547135 26.4077 1.76586 26.4077Z" fill="#DAEBFF"/>
<path d="M48.512 51.4789C50.2833 51.4789 51.7192 50.1006 51.7192 48.4004C51.7192 46.7001 50.2833 45.3218 48.512 45.3218C46.7406 45.3218 45.3047 46.7001 45.3047 48.4004C45.3047 50.1006 46.7406 51.4789 48.512 51.4789Z" fill="#DAEBFF"/>
<path d="M58.8205 62.0351C60.5919 62.0351 62.0278 60.6568 62.0278 58.9565C62.0278 57.2563 60.5919 55.8779 58.8205 55.8779C57.0492 55.8779 55.6133 57.2563 55.6133 58.9565C55.6133 60.6568 57.0492 62.0351 58.8205 62.0351Z" fill="#DAEBFF"/>
<path d="M94.5696 64.125C92.6104 64.125 91.0195 65.6537 91.0195 67.5342V67.5419C91.0195 67.7656 91.0426 67.9887 91.0883 68.2076C91.4134 69.7607 92.85 70.9467 94.5707 70.9467C96.5288 70.9467 98.1208 69.4179 98.1208 67.5397C98.1208 65.6615 96.5277 64.125 94.5696 64.125ZM94.5696 70.2822C92.9909 70.2822 91.7062 69.0496 91.7062 67.5342C91.7062 66.0187 92.9909 64.784 94.5696 64.784C96.1483 64.784 97.4319 66.0187 97.4319 67.5342C97.4319 69.0496 96.1483 70.2822 94.5696 70.2822Z" fill="#DAEBFF"/>
<path d="M87.0071 52.9062C85.0479 52.9062 83.457 54.4361 83.457 56.3165V56.3243C83.4565 56.5462 83.4799 56.7675 83.5269 56.9844C83.8498 58.5442 85.2887 59.7235 87.0093 59.7235C88.9652 59.7235 90.5594 58.1948 90.5594 56.3165C90.5594 54.4383 88.963 52.9062 87.0071 52.9062ZM87.0071 59.0645C85.4262 59.0645 84.1415 57.832 84.1415 56.3165C84.1415 54.8011 85.4262 53.5719 87.0071 53.5719C88.588 53.5719 89.8694 54.8066 89.8694 56.3221C89.8694 57.8375 88.5836 59.0667 87.0071 59.0667V59.0645Z" fill="#DAEBFF"/>
<path d="M76.6968 58.188C76.1369 58.1866 75.5842 58.3142 75.0815 58.5608C74.8724 58.6624 74.6739 58.7847 74.4891 58.9258C74.0741 59.2369 73.7368 59.6399 73.5035 60.1031C73.2702 60.5664 73.1474 61.0774 73.1445 61.5961C73.1445 63.4754 74.7376 65.0053 76.6946 65.0053C78.6516 65.0053 80.2447 63.4754 80.2447 61.5961C80.2447 59.7168 78.6549 58.188 76.6968 58.188ZM76.6968 64.3452C75.1182 64.3452 73.8335 63.1104 73.8335 61.5961C73.8335 60.0817 75.1182 58.8481 76.6968 58.8481C78.2755 58.8481 79.5602 60.0806 79.5602 61.5961C79.5602 63.1115 78.2755 64.3452 76.6968 64.3452Z" fill="#DAEBFF"/>
<path d="M12.0774 10.0254C10.1182 10.0254 8.52734 11.5553 8.52734 13.4324C8.52734 15.3095 10.1182 16.8426 12.0774 16.8426C12.5541 16.845 13.0265 16.7526 13.4671 16.5709C13.9078 16.3892 14.3081 16.1219 14.6446 15.7843C14.9549 15.4761 15.2015 15.1097 15.3701 14.7061C15.5388 14.3026 15.6262 13.8697 15.6275 13.4324C15.6275 11.5553 14.0322 10.0254 12.0774 10.0254ZM12.0774 16.1826C10.4987 16.1826 9.21408 14.95 9.21408 13.4324C9.21408 11.9147 10.4987 10.6844 12.0774 10.6844C13.6561 10.6844 14.9408 11.918 14.9408 13.4324C14.9408 14.9467 13.6561 16.1848 12.0774 16.1848V16.1826Z" fill="#DAEBFF"/>
<path d="M-120.617 43.2607H-119.93V48.1266L-111.681 56.3217V69.4625L-107.627 73.6095H-96.5787L-92.5095 77.5678H-72.0632L-46.455 101.979H-18.7955L-10.1188 93.4022H0.148643V94.0623H-9.82818L-18.5048 102.639H-46.7379L-46.8388 102.544L-72.3461 78.2279H-92.7968L-96.8661 74.2696H-107.925L-112.369 69.7243V56.588L-120.617 48.3939V43.2607Z" fill="#DAEBFF"/>
<path d="M-169.219 64.3726H-163.187L-151.55 75.6507V97.3372L-148.688 100.66H-130.94L-122.778 92.7432H-72.4071L-48.7026 115.174H26.8497V115.834H-48.9843L-72.6889 93.4022H-122.491L-130.654 101.32H-149.011L-152.237 97.5746V75.9236L-163.473 65.0327H-169.219V64.3726Z" fill="#DAEBFF"/>
<path d="M-86.9336 97.3608H-72.5702L-49.6744 119.133H9.21911V119.793H-49.9573L-72.852 98.0209H-86.9336V97.3608Z" fill="#DAEBFF"/>
<path d="M-1.24196 109.025C0.529371 109.025 1.96532 107.647 1.96532 105.946C1.96532 104.246 0.529371 102.868 -1.24196 102.868C-3.01328 102.868 -4.44922 104.246 -4.44922 105.946C-4.44922 107.647 -3.01328 109.025 -1.24196 109.025Z" fill="#DAEBFF"/>
<path d="M30.0573 112.096C28.2135 112.096 26.6936 113.45 26.5217 115.173C26.5101 115.284 26.5042 115.395 26.5039 115.506C26.5042 115.617 26.5102 115.728 26.5217 115.839C26.6958 117.564 28.2135 118.916 30.0573 118.916C32.0132 118.916 33.6074 117.386 33.6074 115.507C33.6074 113.628 32.0132 112.096 30.0573 112.096ZM30.0573 118.253C28.4786 118.253 27.1918 117.02 27.1918 115.504C27.1918 113.987 28.4786 112.756 30.0573 112.756C31.636 112.756 32.9196 113.988 32.9196 115.504C32.9196 117.019 31.636 118.25 30.0573 118.25V118.253Z" fill="#DAEBFF"/>
<path d="M12.4284 116.687C10.8176 116.687 9.45303 117.719 9.02147 119.134C8.95365 119.348 8.90973 119.569 8.89055 119.793C8.87975 119.894 8.87458 119.995 8.87503 120.097C8.87503 121.974 10.4692 123.504 12.4251 123.504C14.381 123.504 15.9752 121.974 15.9752 120.097C15.9752 118.22 14.3843 116.687 12.4284 116.687ZM12.4284 122.844C10.8475 122.844 9.56285 121.611 9.56285 120.097C9.56285 118.582 10.8475 117.347 12.4284 117.347C14.0093 117.347 15.2907 118.579 15.2907 120.097C15.2907 121.614 14.0071 122.844 12.4284 122.844Z" fill="#DAEBFF"/>
<path d="M3.35809 90.3813C1.53424 90.3813 0.0298922 91.706 -0.170909 93.4034C-0.186913 93.5311 -0.195061 93.6596 -0.195312 93.7883C-0.195312 93.8815 -0.195313 93.9714 -0.182 94.0623C-0.0377784 95.8152 1.49541 97.1975 3.35809 97.1975C5.31396 97.1975 6.90817 95.6687 6.90817 93.7883C6.90817 91.9079 5.31396 90.3813 3.35809 90.3813ZM3.35809 96.5385C1.7772 96.5385 0.492509 95.306 0.492509 93.7883C0.492509 92.2707 1.7772 91.0403 3.35809 91.0403C4.93899 91.0403 6.22034 92.2729 6.22034 93.7883C6.22034 95.3038 4.93566 96.5385 3.35809 96.5385Z" fill="#DAEBFF"/>
<path d="M-2.83571 83.5561C-1.06438 83.5561 0.371569 82.1778 0.371569 80.4775C0.371569 78.7773 -1.06438 77.3989 -2.83571 77.3989C-4.60703 77.3989 -6.04297 78.7773 -6.04297 80.4775C-6.04297 82.1778 -4.60703 83.5561 -2.83571 83.5561Z" fill="#DAEBFF"/>
<path d="M23.1693 124.517H20.8329C20.7755 124.519 20.7198 124.498 20.6774 124.459C20.6349 124.42 20.6092 124.367 20.6055 124.31C20.6054 124.281 20.6112 124.253 20.6225 124.227C20.6338 124.2 20.6504 124.177 20.6712 124.157C20.6921 124.138 20.7167 124.123 20.7435 124.114C20.7704 124.104 20.7989 124.1 20.8273 124.102H23.1671C23.2235 124.102 23.2779 124.123 23.3191 124.162C23.3603 124.2 23.3853 124.253 23.389 124.31C23.3887 124.338 23.3827 124.366 23.3714 124.391C23.3601 124.417 23.3438 124.441 23.3233 124.46C23.3027 124.479 23.2785 124.494 23.2521 124.504C23.2256 124.514 23.1975 124.518 23.1693 124.517Z" fill="#00D569"/>
<path d="M27.4568 124.517H24.4758C24.4194 124.517 24.365 124.495 24.3238 124.457C24.2826 124.418 24.2576 124.366 24.2539 124.309C24.2545 124.281 24.2607 124.253 24.2722 124.227C24.2838 124.201 24.3004 124.178 24.321 124.159C24.3417 124.139 24.3661 124.124 24.3927 124.115C24.4192 124.105 24.4475 124.1 24.4758 124.102H27.4568C27.5118 124.102 27.5645 124.124 27.6034 124.163C27.6424 124.201 27.6642 124.254 27.6642 124.309C27.6642 124.364 27.6424 124.417 27.6034 124.456C27.5645 124.495 27.5118 124.517 27.4568 124.517Z" fill="#00D569"/>
</g>
<g opacity="0.4">
<path d="M387.167 250.106H392.198V250.706H386.884L381.956 245.301H342.969L339.365 249.23L337.154 251.637L336.688 251.242L338.861 248.875L342.69 244.7H382.24L387.167 250.106Z" fill="#DAEBFF"/>
<path d="M392.2 254.311V254.911H386.898L379.981 248.304H352.68V247.704H380.24L387.156 254.311H392.2Z" fill="#DAEBFF"/>
<path d="M387.157 256.711H392.2V257.313H386.899L379.982 250.706H352.375V250.106H380.241L387.157 256.711Z" fill="#DAEBFF"/>
<path d="M392.199 270.989V271.836L376.538 286.742H367.063L359.162 278.936H333.983L310.673 301.158H292.058L288.354 304.762H278.294L274.604 308.537V320.499L267.094 327.959V330.78H266.469V327.716L273.979 320.259V308.299L278.023 304.162H288.093L291.795 300.558H310.415L333.726 278.336H359.428L367.325 286.142H376.28L392.199 270.989Z" fill="#DAEBFF"/>
<path d="M230.371 315.264L229.934 314.833L240.187 305.198V285.473L243.292 282.539H255.566L262.996 289.746H311.866L333.444 268.725H369.028L374.744 274.161L374.304 274.589L368.771 269.325H333.706L312.128 290.347H262.734L255.304 283.14H243.548L240.813 285.723V305.451L230.371 315.264Z" fill="#DAEBFF"/>
<path d="M392.201 266.322V266.922H331.936L310.358 287.343H264.502L257.074 280.137H240.915L238.309 283.16V302.901L227.717 313.169H221.414V312.569H227.457L237.684 302.653V282.944L240.621 279.537H257.334L264.766 286.742H310.103L331.681 266.322H392.201Z" fill="#DAEBFF"/>
<path d="M310.209 283.14H297.133V282.539H309.951L330.793 262.719H370.02L368.189 260.961L344.491 260.917H329.281L310.354 278.335H301.637L298.774 275.933H294.811L288.404 281.939H268.029L264 277.734H281.296L286.25 272.998L286.691 273.423L281.554 278.335H265.426L268.304 281.338H288.149L294.555 275.332H299.008L301.871 277.734H310.102L329.03 260.317H344.492L368.449 260.361L371.531 263.319H331.051L310.209 283.14Z" fill="#DAEBFF"/>
<path d="M375.572 258.307C377.184 258.307 378.491 257.052 378.491 255.504C378.491 253.956 377.184 252.702 375.572 252.702C373.959 252.702 372.652 253.956 372.652 255.504C372.652 257.052 373.959 258.307 375.572 258.307Z" fill="#DAEBFF"/>
<path d="M287.958 274.522C289.571 274.522 290.878 273.268 290.878 271.72C290.878 270.172 289.571 268.917 287.958 268.917C286.346 268.917 285.039 270.172 285.039 271.72C285.039 273.268 286.346 274.522 287.958 274.522Z" fill="#DAEBFF"/>
<path d="M374.943 277.526C376.555 277.526 377.862 276.272 377.862 274.724C377.862 273.176 376.555 271.921 374.943 271.921C373.331 271.921 372.023 273.176 372.023 274.724C372.023 276.272 373.331 277.526 374.943 277.526Z" fill="#DAEBFF"/>
<path d="M337.396 254.102C339.008 254.102 340.315 252.847 340.315 251.3C340.315 249.752 339.008 248.497 337.396 248.497C335.784 248.497 334.477 249.752 334.477 251.3C334.477 252.847 335.784 254.102 337.396 254.102Z" fill="#DAEBFF"/>
<path d="M296.72 285.935C298.333 285.935 299.64 284.68 299.64 283.133C299.64 281.585 298.333 280.33 296.72 280.33C295.108 280.33 293.801 281.585 293.801 283.133C293.801 284.68 295.108 285.935 296.72 285.935Z" fill="#DAEBFF"/>
<path d="M221.626 295.543C223.239 295.543 224.546 294.289 224.546 292.741C224.546 291.193 223.239 289.938 221.626 289.938C220.014 289.938 218.707 291.193 218.707 292.741C218.707 294.289 220.014 295.543 221.626 295.543Z" fill="#DAEBFF"/>
<path d="M323.459 244.83L323.893 245.263L321.043 247.899H298.46L296.426 245.986L296.864 245.557L298.716 247.299H320.79L323.459 244.83Z" fill="#DAEBFF"/>
<path d="M325.083 246.506C326.696 246.506 328.003 245.251 328.003 243.703C328.003 242.156 326.696 240.901 325.083 240.901C323.471 240.901 322.164 242.156 322.164 243.703C322.164 245.251 323.471 246.506 325.083 246.506Z" fill="#DAEBFF"/>
<path d="M295.043 240C293.26 240 291.809 241.391 291.809 243.102C291.809 244.812 293.26 246.206 295.043 246.206C295.577 246.206 296.103 246.076 296.577 245.829C296.697 245.767 296.813 245.696 296.923 245.619C297.334 245.34 297.672 244.965 297.906 244.527C298.141 244.089 298.265 243.6 298.269 243.103C298.276 241.391 296.827 240 295.043 240ZM295.043 245.605C293.604 245.605 292.435 244.48 292.435 243.102C292.435 241.723 293.604 240.601 295.043 240.601C296.481 240.601 297.649 241.723 297.649 243.102C297.649 244.48 296.483 245.605 295.043 245.605Z" fill="#DAEBFF"/>
<path d="M353.085 248.304C353.043 248.098 352.981 247.897 352.897 247.704C352.638 247.131 352.219 246.645 351.689 246.306C351.159 245.967 350.542 245.789 349.914 245.795C348.131 245.795 346.68 247.187 346.68 248.898C346.68 250.608 348.131 251.999 349.914 251.999C350.421 252.002 350.922 251.887 351.377 251.663C351.832 251.439 352.229 251.112 352.536 250.708C352.677 250.521 352.796 250.319 352.892 250.106C353.059 249.725 353.145 249.314 353.144 248.898C353.145 248.698 353.125 248.499 353.085 248.304ZM349.914 251.399C348.477 251.399 347.306 250.277 347.306 248.898C347.306 247.518 348.477 246.395 349.914 246.395C351.35 246.395 352.52 247.517 352.52 248.898C352.52 250.279 351.35 251.399 349.914 251.399Z" fill="#DAEBFF"/>
<path d="M317.37 258.406C316.758 258.404 316.158 258.572 315.636 258.893C315.458 259.001 315.291 259.128 315.139 259.27C314.824 259.553 314.572 259.899 314.399 260.285C314.225 260.672 314.135 261.09 314.133 261.514C314.133 263.225 315.584 264.617 317.367 264.617C319.149 264.617 320.601 263.225 320.601 261.514C320.601 259.803 319.153 258.406 317.37 258.406ZM317.37 264.013C315.934 264.013 314.762 262.889 314.762 261.51C314.762 260.132 315.934 259.007 317.37 259.007C318.807 259.007 319.978 260.13 319.978 261.51C319.978 262.89 318.807 264.013 317.37 264.013Z" fill="#DAEBFF"/>
<path d="M210.405 289.145C210.118 287.717 208.802 286.629 207.233 286.629C205.449 286.629 204 288.022 204 289.733C204 291.443 205.449 292.834 207.233 292.834C209.016 292.834 210.462 291.451 210.467 289.74V289.744C210.467 289.543 210.447 289.342 210.405 289.145ZM207.233 292.241C205.795 292.241 204.626 291.119 204.626 289.739C204.626 288.359 205.795 287.236 207.233 287.236C208.67 287.236 209.84 288.36 209.84 289.739C209.84 291.117 208.672 292.241 207.233 292.241Z" fill="#DAEBFF"/>
</g>
</g>
</svg>
